%TF.GenerationSoftware,KiCad,Pcbnew,7.0.1-0*%
%TF.CreationDate,2023-03-21T21:14:59-05:00*%
%TF.ProjectId,actuation,61637475-6174-4696-9f6e-2e6b69636164,rev?*%
%TF.SameCoordinates,Original*%
%TF.FileFunction,Drillmap*%
%TF.FilePolarity,Positive*%
%FSLAX45Y45*%
G04 Gerber Fmt 4.5, Leading zero omitted, Abs format (unit mm)*
G04 Created by KiCad (PCBNEW 7.0.1-0) date 2023-03-21 21:14:59*
%MOMM*%
%LPD*%
G01*
G04 APERTURE LIST*
%ADD10C,0.150000*%
%ADD11C,0.200000*%
G04 APERTURE END LIST*
D10*
X7500000Y-16000000D02*
G75*
G03*
X8000000Y-16500000I500000J0D01*
G01*
X20000000Y-16500000D02*
X8000000Y-16500000D01*
X8000000Y-3500000D02*
X20000000Y-3500000D01*
X20000000Y-16500000D02*
G75*
G03*
X20500000Y-16000000I0J500000D01*
G01*
X7500000Y-16000000D02*
X7500000Y-4000000D01*
X20500000Y-4000000D02*
X20500000Y-16000000D01*
X8000000Y-3500000D02*
G75*
G03*
X7500000Y-4000000I0J-500000D01*
G01*
X20500000Y-4000000D02*
G75*
G03*
X20000000Y-3500000I-500000J0D01*
G01*
D11*
X7740119Y-16820024D02*
X7740119Y-16620024D01*
X7740119Y-16620024D02*
X7787738Y-16620024D01*
X7787738Y-16620024D02*
X7816309Y-16629548D01*
X7816309Y-16629548D02*
X7835357Y-16648595D01*
X7835357Y-16648595D02*
X7844881Y-16667643D01*
X7844881Y-16667643D02*
X7854405Y-16705738D01*
X7854405Y-16705738D02*
X7854405Y-16734309D01*
X7854405Y-16734309D02*
X7844881Y-16772405D01*
X7844881Y-16772405D02*
X7835357Y-16791452D01*
X7835357Y-16791452D02*
X7816309Y-16810500D01*
X7816309Y-16810500D02*
X7787738Y-16820024D01*
X7787738Y-16820024D02*
X7740119Y-16820024D01*
X7940119Y-16820024D02*
X7940119Y-16686690D01*
X7940119Y-16724786D02*
X7949643Y-16705738D01*
X7949643Y-16705738D02*
X7959167Y-16696214D01*
X7959167Y-16696214D02*
X7978214Y-16686690D01*
X7978214Y-16686690D02*
X7997262Y-16686690D01*
X8063928Y-16820024D02*
X8063928Y-16686690D01*
X8063928Y-16620024D02*
X8054405Y-16629548D01*
X8054405Y-16629548D02*
X8063928Y-16639071D01*
X8063928Y-16639071D02*
X8073452Y-16629548D01*
X8073452Y-16629548D02*
X8063928Y-16620024D01*
X8063928Y-16620024D02*
X8063928Y-16639071D01*
X8187738Y-16820024D02*
X8168690Y-16810500D01*
X8168690Y-16810500D02*
X8159167Y-16791452D01*
X8159167Y-16791452D02*
X8159167Y-16620024D01*
X8292500Y-16820024D02*
X8273452Y-16810500D01*
X8273452Y-16810500D02*
X8263928Y-16791452D01*
X8263928Y-16791452D02*
X8263928Y-16620024D01*
X8521071Y-16820024D02*
X8521071Y-16620024D01*
X8521071Y-16620024D02*
X8587738Y-16762881D01*
X8587738Y-16762881D02*
X8654405Y-16620024D01*
X8654405Y-16620024D02*
X8654405Y-16820024D01*
X8835357Y-16820024D02*
X8835357Y-16715262D01*
X8835357Y-16715262D02*
X8825833Y-16696214D01*
X8825833Y-16696214D02*
X8806786Y-16686690D01*
X8806786Y-16686690D02*
X8768690Y-16686690D01*
X8768690Y-16686690D02*
X8749643Y-16696214D01*
X8835357Y-16810500D02*
X8816310Y-16820024D01*
X8816310Y-16820024D02*
X8768690Y-16820024D01*
X8768690Y-16820024D02*
X8749643Y-16810500D01*
X8749643Y-16810500D02*
X8740119Y-16791452D01*
X8740119Y-16791452D02*
X8740119Y-16772405D01*
X8740119Y-16772405D02*
X8749643Y-16753357D01*
X8749643Y-16753357D02*
X8768690Y-16743833D01*
X8768690Y-16743833D02*
X8816310Y-16743833D01*
X8816310Y-16743833D02*
X8835357Y-16734309D01*
X8930595Y-16686690D02*
X8930595Y-16886690D01*
X8930595Y-16696214D02*
X8949643Y-16686690D01*
X8949643Y-16686690D02*
X8987738Y-16686690D01*
X8987738Y-16686690D02*
X9006786Y-16696214D01*
X9006786Y-16696214D02*
X9016310Y-16705738D01*
X9016310Y-16705738D02*
X9025833Y-16724786D01*
X9025833Y-16724786D02*
X9025833Y-16781929D01*
X9025833Y-16781929D02*
X9016310Y-16800976D01*
X9016310Y-16800976D02*
X9006786Y-16810500D01*
X9006786Y-16810500D02*
X8987738Y-16820024D01*
X8987738Y-16820024D02*
X8949643Y-16820024D01*
X8949643Y-16820024D02*
X8930595Y-16810500D01*
X9111548Y-16800976D02*
X9121071Y-16810500D01*
X9121071Y-16810500D02*
X9111548Y-16820024D01*
X9111548Y-16820024D02*
X9102024Y-16810500D01*
X9102024Y-16810500D02*
X9111548Y-16800976D01*
X9111548Y-16800976D02*
X9111548Y-16820024D01*
X9111548Y-16696214D02*
X9121071Y-16705738D01*
X9121071Y-16705738D02*
X9111548Y-16715262D01*
X9111548Y-16715262D02*
X9102024Y-16705738D01*
X9102024Y-16705738D02*
X9111548Y-16696214D01*
X9111548Y-16696214D02*
X9111548Y-16715262D01*
M02*
