%TF.GenerationSoftware,KiCad,Pcbnew,7.0.1-0*%
%TF.CreationDate,2023-03-21T21:14:32-05:00*%
%TF.ProjectId,actuation,61637475-6174-4696-9f6e-2e6b69636164,rev?*%
%TF.SameCoordinates,Original*%
%TF.FileFunction,Copper,L4,Bot*%
%TF.FilePolarity,Positive*%
%FSLAX46Y46*%
G04 Gerber Fmt 4.6, Leading zero omitted, Abs format (unit mm)*
G04 Created by KiCad (PCBNEW 7.0.1-0) date 2023-03-21 21:14:32*
%MOMM*%
%LPD*%
G01*
G04 APERTURE LIST*
G04 Aperture macros list*
%AMRoundRect*
0 Rectangle with rounded corners*
0 $1 Rounding radius*
0 $2 $3 $4 $5 $6 $7 $8 $9 X,Y pos of 4 corners*
0 Add a 4 corners polygon primitive as box body*
4,1,4,$2,$3,$4,$5,$6,$7,$8,$9,$2,$3,0*
0 Add four circle primitives for the rounded corners*
1,1,$1+$1,$2,$3*
1,1,$1+$1,$4,$5*
1,1,$1+$1,$6,$7*
1,1,$1+$1,$8,$9*
0 Add four rect primitives between the rounded corners*
20,1,$1+$1,$2,$3,$4,$5,0*
20,1,$1+$1,$4,$5,$6,$7,0*
20,1,$1+$1,$6,$7,$8,$9,0*
20,1,$1+$1,$8,$9,$2,$3,0*%
G04 Aperture macros list end*
%TA.AperFunction,ComponentPad*%
%ADD10C,3.800000*%
%TD*%
%TA.AperFunction,ComponentPad*%
%ADD11R,3.800000X3.800000*%
%TD*%
%TA.AperFunction,ComponentPad*%
%ADD12R,1.000000X2.200000*%
%TD*%
%TA.AperFunction,ComponentPad*%
%ADD13C,5.000000*%
%TD*%
%TA.AperFunction,ComponentPad*%
%ADD14RoundRect,1.250000X-1.250000X-1.250000X1.250000X-1.250000X1.250000X1.250000X-1.250000X1.250000X0*%
%TD*%
%TA.AperFunction,ComponentPad*%
%ADD15RoundRect,1.500000X1.500000X1.500000X-1.500000X1.500000X-1.500000X-1.500000X1.500000X-1.500000X0*%
%TD*%
%TA.AperFunction,ComponentPad*%
%ADD16C,6.000000*%
%TD*%
%TA.AperFunction,ComponentPad*%
%ADD17C,5.700000*%
%TD*%
%TA.AperFunction,ComponentPad*%
%ADD18RoundRect,1.500000X-1.500000X1.500000X-1.500000X-1.500000X1.500000X-1.500000X1.500000X1.500000X0*%
%TD*%
%TA.AperFunction,ComponentPad*%
%ADD19RoundRect,0.500000X0.500000X-0.500000X0.500000X0.500000X-0.500000X0.500000X-0.500000X-0.500000X0*%
%TD*%
%TA.AperFunction,ComponentPad*%
%ADD20C,2.000000*%
%TD*%
%TA.AperFunction,ComponentPad*%
%ADD21RoundRect,1.000000X-1.000000X1.000000X-1.000000X-1.000000X1.000000X-1.000000X1.000000X1.000000X0*%
%TD*%
%TA.AperFunction,ComponentPad*%
%ADD22C,4.000000*%
%TD*%
%TA.AperFunction,ComponentPad*%
%ADD23RoundRect,0.408750X0.408750X0.408750X-0.408750X0.408750X-0.408750X-0.408750X0.408750X-0.408750X0*%
%TD*%
%TA.AperFunction,ComponentPad*%
%ADD24C,4.050000*%
%TD*%
%TA.AperFunction,ViaPad*%
%ADD25C,0.450000*%
%TD*%
%TA.AperFunction,Conductor*%
%ADD26C,1.000000*%
%TD*%
%TA.AperFunction,Conductor*%
%ADD27C,3.000000*%
%TD*%
%TA.AperFunction,Conductor*%
%ADD28C,0.400000*%
%TD*%
%TA.AperFunction,Conductor*%
%ADD29C,0.600000*%
%TD*%
%TA.AperFunction,Conductor*%
%ADD30C,1.500000*%
%TD*%
%TA.AperFunction,Conductor*%
%ADD31C,0.300000*%
%TD*%
%TA.AperFunction,Conductor*%
%ADD32C,0.200000*%
%TD*%
G04 APERTURE END LIST*
D10*
%TO.P,J7,1,Pin_1*%
%TO.N,Net-(D8-K)*%
X88500000Y-110000000D03*
D11*
%TO.P,J7,2,Pin_2*%
%TO.N,GNDPWR*%
X83500000Y-110000000D03*
%TD*%
D10*
%TO.P,J5,1,Pin_1*%
%TO.N,Net-(D6-K)*%
X88500000Y-90000000D03*
D11*
%TO.P,J5,2,Pin_2*%
%TO.N,GNDPWR*%
X83500000Y-90000000D03*
%TD*%
D10*
%TO.P,J9,1,Pin_1*%
%TO.N,Net-(D10-K)*%
X88500000Y-130000000D03*
D11*
%TO.P,J9,2,Pin_2*%
%TO.N,GNDPWR*%
X83500000Y-130000000D03*
%TD*%
D12*
%TO.P,J26,*%
%TO.N,*%
X148950000Y-50362500D03*
X130050000Y-50362500D03*
D13*
%TO.P,J26,1,Pin_1*%
%TO.N,VDC*%
X144950000Y-59762500D03*
D14*
%TO.P,J26,2,Pin_2*%
%TO.N,VDESAFED*%
X134050000Y-59762500D03*
%TD*%
D15*
%TO.P,J24,2,Pin_2*%
%TO.N,GNDPWR*%
X195200000Y-148500000D03*
D16*
%TO.P,J24,1,Pin_1*%
%TO.N,VBUS*%
X188000000Y-148500000D03*
%TD*%
D17*
%TO.P,REF\u002A\u002A,1*%
%TO.N,N/C*%
X200000000Y-40000000D03*
%TD*%
D10*
%TO.P,J12,1,Pin_1*%
%TO.N,Net-(D13-K)*%
X126500000Y-151500000D03*
D11*
%TO.P,J12,2,Pin_2*%
%TO.N,GNDPWR*%
X126500000Y-156500000D03*
%TD*%
D16*
%TO.P,J28,1,Pin_1*%
%TO.N,Vdrive*%
X90500000Y-52000000D03*
D18*
%TO.P,J28,2,Pin_2*%
%TO.N,GNDPWR*%
X90500000Y-44800000D03*
%TD*%
D19*
%TO.P,J18,1,Pin_1*%
%TO.N,3.3V_ACT*%
X194500000Y-131000000D03*
D20*
%TO.P,J18,2,Pin_2*%
%TO.N,Net-(J18-Pin_2)*%
X194500000Y-126000000D03*
%TO.P,J18,3,Pin_3*%
%TO.N,GNDPWR*%
X194500000Y-121000000D03*
%TD*%
D10*
%TO.P,J6,1,Pin_1*%
%TO.N,Net-(D7-K)*%
X88500000Y-100000000D03*
D11*
%TO.P,J6,2,Pin_2*%
%TO.N,GNDPWR*%
X83500000Y-100000000D03*
%TD*%
D10*
%TO.P,J14,1,Pin_1*%
%TO.N,Net-(D15-K)*%
X146500000Y-151500000D03*
D11*
%TO.P,J14,2,Pin_2*%
%TO.N,GNDPWR*%
X146500000Y-156500000D03*
%TD*%
D21*
%TO.P,K1,1*%
%TO.N,VDESAFED*%
X129550000Y-81400000D03*
D20*
%TO.P,K1,2*%
%TO.N,/Power/COIL-*%
X116750000Y-85200000D03*
%TO.P,K1,3*%
%TO.N,/Power/COIL+*%
X116750000Y-95400000D03*
D22*
%TO.P,K1,4*%
%TO.N,Vdrive*%
X132050000Y-99200000D03*
%TO.P,K1,5*%
%TO.N,VCOLD*%
X139650000Y-99200000D03*
%TD*%
D10*
%TO.P,J3,1,Pin_1*%
%TO.N,Net-(D4-K)*%
X88500000Y-70000000D03*
D11*
%TO.P,J3,2,Pin_2*%
%TO.N,GNDPWR*%
X83500000Y-70000000D03*
%TD*%
D16*
%TO.P,J27,1,Pin_1*%
%TO.N,Net-(J27-Pin_1)*%
X155500000Y-52000000D03*
D18*
%TO.P,J27,2,Pin_2*%
%TO.N,/Power/COIL-*%
X155500000Y-44800000D03*
%TD*%
D17*
%TO.P,REF\u002A\u002A,1*%
%TO.N,N/C*%
X200000000Y-160000000D03*
%TD*%
D10*
%TO.P,J13,1,Pin_1*%
%TO.N,Net-(D14-K)*%
X136500000Y-151500000D03*
D11*
%TO.P,J13,2,Pin_2*%
%TO.N,GNDPWR*%
X136500000Y-156500000D03*
%TD*%
D12*
%TO.P,J23,*%
%TO.N,*%
X126950000Y-50362500D03*
X108050000Y-50362500D03*
D13*
%TO.P,J23,1,Pin_1*%
%TO.N,/Power/PWR_IN*%
X122950000Y-59762500D03*
D14*
%TO.P,J23,2,Pin_2*%
%TO.N,GNDPWR*%
X112050000Y-59762500D03*
%TD*%
D19*
%TO.P,J21,1,Pin_1*%
%TO.N,Net-(J21-Pin_1)*%
X194500000Y-81500000D03*
D20*
%TO.P,J21,2,Pin_2*%
%TO.N,GNDPWR*%
X194500000Y-76500000D03*
%TD*%
D10*
%TO.P,J11,1,Pin_1*%
%TO.N,Net-(D12-K)*%
X116500000Y-151500000D03*
D11*
%TO.P,J11,2,Pin_2*%
%TO.N,GNDPWR*%
X116500000Y-156500000D03*
%TD*%
D16*
%TO.P,J25,1,Pin_1*%
%TO.N,3.3V_ACT*%
X188000000Y-139000000D03*
D15*
%TO.P,J25,2,Pin_2*%
%TO.N,GNDPWR*%
X195200000Y-139000000D03*
%TD*%
D10*
%TO.P,J16,1,Pin_1*%
%TO.N,Net-(D17-K)*%
X166500000Y-151500000D03*
D11*
%TO.P,J16,2,Pin_2*%
%TO.N,GNDPWR*%
X166500000Y-156500000D03*
%TD*%
D10*
%TO.P,J15,1,Pin_1*%
%TO.N,Net-(D16-K)*%
X156500000Y-151500000D03*
D11*
%TO.P,J15,2,Pin_2*%
%TO.N,GNDPWR*%
X156500000Y-156500000D03*
%TD*%
D19*
%TO.P,J22,1,Pin_1*%
%TO.N,Net-(J22-Pin_1)*%
X194500000Y-70000000D03*
D20*
%TO.P,J22,2,Pin_2*%
%TO.N,GNDPWR*%
X194500000Y-65000000D03*
%TD*%
D10*
%TO.P,J2,1,Pin_1*%
%TO.N,Net-(D3-K)*%
X88500000Y-60000000D03*
D11*
%TO.P,J2,2,Pin_2*%
%TO.N,GNDPWR*%
X83500000Y-60000000D03*
%TD*%
D19*
%TO.P,J19,1,Pin_1*%
%TO.N,3.3V_ACT*%
X194500000Y-114500000D03*
D20*
%TO.P,J19,2,Pin_2*%
%TO.N,Net-(J19-Pin_2)*%
X194500000Y-109500000D03*
%TO.P,J19,3,Pin_3*%
%TO.N,GNDPWR*%
X194500000Y-104500000D03*
%TD*%
D10*
%TO.P,J10,1,Pin_1*%
%TO.N,Net-(D11-K)*%
X106500000Y-151500000D03*
D11*
%TO.P,J10,2,Pin_2*%
%TO.N,GNDPWR*%
X106500000Y-156500000D03*
%TD*%
D10*
%TO.P,J4,1,Pin_1*%
%TO.N,Net-(D5-K)*%
X88500000Y-80000000D03*
D11*
%TO.P,J4,2,Pin_2*%
%TO.N,GNDPWR*%
X83500000Y-80000000D03*
%TD*%
D23*
%TO.P,J1,1,1*%
%TO.N,/SCL+*%
X170960000Y-46345500D03*
%TO.P,J1,2,2*%
%TO.N,/SCL-*%
X173730000Y-46345500D03*
%TO.P,J1,3,3*%
%TO.N,GND*%
X176500000Y-46345500D03*
%TO.P,J1,4,4*%
%TO.N,+5V*%
X179270000Y-46345500D03*
%TO.P,J1,5,5*%
%TO.N,/ENERGIZE*%
X182040000Y-46345500D03*
%TO.P,J1,6,6*%
%TO.N,/SDA+*%
X172345000Y-43505500D03*
%TO.P,J1,7,7*%
%TO.N,/SDA-*%
X175115000Y-43505500D03*
%TO.P,J1,8,8*%
%TO.N,GND*%
X177885000Y-43505500D03*
%TO.P,J1,9,9*%
%TO.N,+5V*%
X180655000Y-43505500D03*
D24*
%TO.P,J1,SH,PAD*%
%TO.N,Net-(J1-PAD)*%
X164005000Y-44925500D03*
X188995000Y-44925500D03*
%TD*%
D10*
%TO.P,J17,1,Pin_1*%
%TO.N,Net-(D18-K)*%
X176500000Y-151500000D03*
D11*
%TO.P,J17,2,Pin_2*%
%TO.N,GNDPWR*%
X176500000Y-156500000D03*
%TD*%
D17*
%TO.P,REF\u002A\u002A,1*%
%TO.N,N/C*%
X80000000Y-160000000D03*
%TD*%
D16*
%TO.P,J29,1,Pin_1*%
%TO.N,VCOLD*%
X100000000Y-52000000D03*
D18*
%TO.P,J29,2,Pin_2*%
%TO.N,GNDPWR*%
X100000000Y-44800000D03*
%TD*%
D17*
%TO.P,REF\u002A\u002A,1*%
%TO.N,N/C*%
X80000000Y-40000000D03*
%TD*%
D19*
%TO.P,J20,1,Pin_1*%
%TO.N,3.3V_ACT*%
X194500000Y-98000000D03*
D20*
%TO.P,J20,2,Pin_2*%
%TO.N,Net-(J20-Pin_2)*%
X194500000Y-93000000D03*
%TO.P,J20,3,Pin_3*%
%TO.N,GNDPWR*%
X194500000Y-88000000D03*
%TD*%
D10*
%TO.P,J8,1,Pin_1*%
%TO.N,Net-(D9-K)*%
X88500000Y-120000000D03*
D11*
%TO.P,J8,2,Pin_2*%
%TO.N,GNDPWR*%
X83500000Y-120000000D03*
%TD*%
D25*
%TO.N,GND*%
X154700000Y-99900000D03*
X168300000Y-49400000D03*
X168300000Y-60000000D03*
X159600000Y-81500000D03*
X160100000Y-91500000D03*
X178800000Y-103900000D03*
X165100000Y-106500000D03*
X158300000Y-99600000D03*
%TO.N,+3.3V*%
X176000000Y-71770000D03*
X178784000Y-139573000D03*
X162433000Y-68834000D03*
X174625000Y-94996000D03*
X182753000Y-125476000D03*
X176276000Y-102743000D03*
X106807000Y-76200000D03*
X182850000Y-111506000D03*
X185674000Y-56261000D03*
X176657000Y-139573000D03*
X191000000Y-55500000D03*
X157099000Y-105029000D03*
X176500000Y-57000000D03*
X106807000Y-74676000D03*
X182753000Y-118491000D03*
X175514000Y-139573000D03*
X157862500Y-93612500D03*
X165674000Y-102489000D03*
X174371000Y-139573000D03*
X174752000Y-83439000D03*
X181610000Y-58293000D03*
X190500000Y-58500000D03*
X106807000Y-75184000D03*
X174000000Y-51000000D03*
X162000000Y-63500000D03*
X160225000Y-95275000D03*
X168529000Y-94107000D03*
X123700000Y-75000000D03*
X167132000Y-84328000D03*
X177800000Y-139573000D03*
X183261000Y-128397000D03*
X195000000Y-55500000D03*
X173000000Y-72350000D03*
X106807000Y-75692000D03*
%TO.N,GND*%
X189865000Y-57023000D03*
X168021000Y-100838000D03*
X144000000Y-71500000D03*
X192357000Y-60071000D03*
X144000000Y-76000000D03*
X172339000Y-91821000D03*
X144000000Y-73500000D03*
X194000000Y-50165000D03*
X177927000Y-59309000D03*
X163000000Y-74554000D03*
X175387000Y-99314000D03*
X147500000Y-93500000D03*
X187000000Y-65500000D03*
X162052000Y-107823000D03*
X202000000Y-45000000D03*
X194500000Y-52000000D03*
X167894000Y-94107000D03*
X175387000Y-90932000D03*
X155000000Y-77000000D03*
X202500000Y-59500000D03*
X184500000Y-38000000D03*
X173863000Y-80391000D03*
X179832000Y-59309000D03*
X182880000Y-121412000D03*
X194500000Y-58000000D03*
X163830000Y-83058000D03*
X160500000Y-53000000D03*
X182880000Y-114427000D03*
X167894000Y-81915000D03*
X174000000Y-69000000D03*
X155000000Y-72500000D03*
X144000000Y-78500000D03*
X192659000Y-44958000D03*
X181864000Y-129794000D03*
X147500000Y-89000000D03*
X164500000Y-56000000D03*
X160500000Y-37500000D03*
X157353000Y-107696000D03*
X193548000Y-53975000D03*
X147500000Y-83000000D03*
X163068000Y-86614000D03*
X172000000Y-55000000D03*
X193929000Y-56134000D03*
X161671000Y-101346000D03*
X193167000Y-42291000D03*
X182880000Y-107442000D03*
%TO.N,GNDPWR*%
X162814000Y-127635000D03*
X183648500Y-80511500D03*
X188722000Y-101219000D03*
X186817000Y-105410000D03*
X181737000Y-92583000D03*
X185166000Y-85217000D03*
X160401000Y-127635000D03*
X123000000Y-38500000D03*
X130000000Y-55500000D03*
X135000000Y-38500000D03*
X142500000Y-38500000D03*
X187198000Y-101050000D03*
X168402000Y-117221000D03*
X161925000Y-118110000D03*
X182626000Y-74422000D03*
X84000000Y-156000000D03*
X140500000Y-55500000D03*
X148000000Y-55500000D03*
X181610000Y-99314000D03*
X185547000Y-95250000D03*
X113500000Y-38500000D03*
X185420000Y-74295000D03*
X185674000Y-91821000D03*
X156210000Y-124079000D03*
X189103000Y-109220000D03*
X122500000Y-93500000D03*
X135890000Y-108200000D03*
X169291000Y-111379000D03*
X147447000Y-66802000D03*
X157988000Y-127635000D03*
X183648500Y-69462500D03*
%TO.N,3.3V_ACT*%
X174371000Y-118618000D03*
X173482000Y-116459000D03*
X172847000Y-116205000D03*
X174371000Y-117983000D03*
X182245000Y-82550000D03*
X184912000Y-90043000D03*
X173863000Y-116967000D03*
X182372000Y-87503000D03*
X174371000Y-117348000D03*
X182372000Y-76454000D03*
%TO.N,VBUS*%
X163068000Y-117348000D03*
X163068000Y-116332000D03*
X163830000Y-117348000D03*
X163449000Y-116840000D03*
X163830000Y-116332000D03*
X164211000Y-116840000D03*
X164973000Y-116840000D03*
X164592000Y-116332000D03*
X164592000Y-117348000D03*
X162687000Y-116840000D03*
%TO.N,/ENERGIZE*%
X163830000Y-53086000D03*
%TO.N,VDC*%
X164211000Y-110109000D03*
X163576000Y-110109000D03*
X161798000Y-111252000D03*
X159385000Y-118110000D03*
X160528000Y-114554000D03*
X162306000Y-110109000D03*
X162941000Y-110109000D03*
X161798000Y-110617000D03*
X161798000Y-111887000D03*
%TO.N,/SCL-*%
X177292000Y-53721000D03*
X178943000Y-50546000D03*
%TO.N,/SDA+*%
X175641000Y-55118000D03*
X174752000Y-55753000D03*
%TO.N,Vdrive*%
X117000000Y-145500000D03*
X94500000Y-71000000D03*
X148500000Y-145500000D03*
X128000000Y-145500000D03*
X94500000Y-72000000D03*
X94500000Y-60500000D03*
X94500000Y-130500000D03*
X138500000Y-145500000D03*
X107500000Y-145500000D03*
X158500000Y-145500000D03*
X178500000Y-145500000D03*
X94500000Y-111000000D03*
X94500000Y-131000000D03*
X94500000Y-82000000D03*
X157000000Y-145500000D03*
X94500000Y-101000000D03*
X94500000Y-62000000D03*
X147500000Y-145500000D03*
X94500000Y-61500000D03*
X168000000Y-145500000D03*
X137000000Y-145500000D03*
X94500000Y-100500000D03*
X108500000Y-145500000D03*
X108000000Y-145500000D03*
X107000000Y-145500000D03*
X147000000Y-145500000D03*
X94500000Y-121500000D03*
X94500000Y-81500000D03*
X94500000Y-112000000D03*
X94500000Y-71500000D03*
X94500000Y-111500000D03*
X167500000Y-145500000D03*
X94500000Y-101500000D03*
X167000000Y-145500000D03*
X94500000Y-122000000D03*
X94500000Y-91500000D03*
X94500000Y-80500000D03*
X127000000Y-145500000D03*
X127500000Y-145500000D03*
X94500000Y-91000000D03*
X137500000Y-145500000D03*
X94500000Y-131500000D03*
X177000000Y-145500000D03*
X94500000Y-132000000D03*
X168500000Y-145500000D03*
X94500000Y-102000000D03*
X118500000Y-145500000D03*
X118000000Y-145500000D03*
X157500000Y-145500000D03*
X94500000Y-121000000D03*
X128500000Y-145500000D03*
X138000000Y-145500000D03*
X178000000Y-145500000D03*
X94500000Y-81000000D03*
X94500000Y-92000000D03*
X94500000Y-110500000D03*
X94500000Y-120500000D03*
X94500000Y-90500000D03*
X177500000Y-145500000D03*
X94500000Y-70500000D03*
X117500000Y-145500000D03*
X158000000Y-145500000D03*
X148000000Y-145500000D03*
X94500000Y-61000000D03*
%TO.N,/SDA*%
X181737000Y-63500000D03*
X168402000Y-88138000D03*
X163830000Y-103124000D03*
X155067000Y-105791000D03*
X168783000Y-85852000D03*
%TO.N,/SCL*%
X182562500Y-63944500D03*
X166624000Y-103886000D03*
X169164000Y-88138000D03*
X155067000Y-104394000D03*
X169418000Y-85852000D03*
%TO.N,/Feedback Channels/FB_CH1*%
X165354000Y-93980000D03*
X181864000Y-123444000D03*
%TO.N,/Feedback Channels/FB_CH2*%
X165354000Y-91694000D03*
X181991000Y-116459000D03*
%TO.N,/Feedback Channels/FB_CH3*%
X181991000Y-109474000D03*
X165354000Y-90600000D03*
%TO.N,/Feedback Channels/FB_CH4*%
X174498000Y-101346000D03*
X165354000Y-89100000D03*
%TO.N,/Feedback Channels/FB_CH5*%
X174498000Y-92964000D03*
X165354000Y-87600000D03*
%TO.N,/Feedback Channels/FB_CH6*%
X165354000Y-86100000D03*
X173990000Y-81534000D03*
%TO.N,/Feedback Channels/FB_CH7*%
X173990000Y-70485000D03*
X165354000Y-84600000D03*
%TO.N,/Feedback Channels/FB_CH0*%
X165354000Y-95123000D03*
X180721000Y-125857000D03*
%TO.N,VDESAFED*%
X185674000Y-97028000D03*
X123063000Y-73406000D03*
X120523000Y-71501000D03*
X184404000Y-97028000D03*
%TO.N,Net-(U36-UV)*%
X162052000Y-124079000D03*
X158411012Y-122379330D03*
%TD*%
D26*
%TO.N,3.3V_ACT*%
X194500000Y-114500000D02*
X191570000Y-114500000D01*
D27*
X173863000Y-116967000D02*
X173863000Y-124863000D01*
D28*
X182372000Y-87503000D02*
X184912000Y-90043000D01*
D26*
X191389000Y-135611000D02*
X191389000Y-130429000D01*
D28*
X190627000Y-97067000D02*
X191560000Y-98000000D01*
D26*
X191389000Y-114681000D02*
X191389000Y-98171000D01*
X188000000Y-139000000D02*
X191389000Y-135611000D01*
X191389000Y-98171000D02*
X191560000Y-98000000D01*
D28*
X182372000Y-76454000D02*
X182372000Y-82423000D01*
D26*
X194500000Y-131000000D02*
X194437000Y-130937000D01*
X191389000Y-130429000D02*
X191389000Y-114681000D01*
X194437000Y-130937000D02*
X191389000Y-130937000D01*
D28*
X182372000Y-82423000D02*
X182245000Y-82550000D01*
D27*
X173863000Y-124863000D02*
X188000000Y-139000000D01*
D26*
X191560000Y-98000000D02*
X194500000Y-98000000D01*
D28*
X184912000Y-90043000D02*
X190627000Y-95758000D01*
D26*
X191570000Y-114500000D02*
X191389000Y-114681000D01*
D28*
X190627000Y-95758000D02*
X190627000Y-97067000D01*
D27*
%TO.N,VBUS*%
X188000000Y-145582000D02*
X163926000Y-121508000D01*
X188000000Y-148500000D02*
X188000000Y-145582000D01*
X163926000Y-117063000D02*
X163703000Y-116840000D01*
X163926000Y-121508000D02*
X163926000Y-117063000D01*
D29*
%TO.N,/ENERGIZE*%
X171831000Y-40894000D02*
X180467000Y-40894000D01*
X180467000Y-40894000D02*
X182040000Y-42467000D01*
X182040000Y-42467000D02*
X182040000Y-46345500D01*
X163830000Y-48895000D02*
X171831000Y-40894000D01*
X163830000Y-53086000D02*
X163830000Y-48895000D01*
D27*
%TO.N,VDC*%
X144950000Y-59762500D02*
X149987000Y-64799500D01*
D28*
X159385000Y-118110000D02*
X160528000Y-116967000D01*
D27*
X149987000Y-64799500D02*
X149987000Y-105029000D01*
D30*
X162941000Y-110109000D02*
X161798000Y-111252000D01*
D27*
X155067000Y-110109000D02*
X162941000Y-110109000D01*
D28*
X160528000Y-116967000D02*
X160528000Y-114554000D01*
D30*
X164211000Y-110109000D02*
X162941000Y-110109000D01*
D27*
X149987000Y-105029000D02*
X155067000Y-110109000D01*
D31*
%TO.N,/SCL-*%
X178943000Y-51181000D02*
X178943000Y-50546000D01*
X177292000Y-52832000D02*
X178943000Y-51181000D01*
X177292000Y-53721000D02*
X177292000Y-52832000D01*
%TO.N,/SDA+*%
X174812639Y-55753000D02*
X174752000Y-55753000D01*
X175641000Y-55118000D02*
X174812639Y-55753000D01*
D29*
%TO.N,Net-(J1-PAD)*%
X188995000Y-39643000D02*
X188995000Y-44925500D01*
X164005000Y-44925500D02*
X164005000Y-39322000D01*
X185547000Y-36195000D02*
X188995000Y-39643000D01*
X167132000Y-36195000D02*
X185547000Y-36195000D01*
X164005000Y-39322000D02*
X167132000Y-36195000D01*
D28*
%TO.N,/SDA*%
X168402000Y-89457759D02*
X168402000Y-88138000D01*
X154443000Y-105294000D02*
X154940000Y-105791000D01*
X155321000Y-103124000D02*
X161163000Y-103124000D01*
X165591759Y-92268000D02*
X168402000Y-89457759D01*
X154443000Y-104002000D02*
X155321000Y-103124000D01*
X161163000Y-103124000D02*
X163830000Y-103124000D01*
X165288000Y-92268000D02*
X165591759Y-92268000D01*
X154443000Y-105294000D02*
X154443000Y-104002000D01*
X154940000Y-105791000D02*
X155067000Y-105791000D01*
X168783000Y-85852000D02*
X168783000Y-80137000D01*
X181737000Y-67183000D02*
X181737000Y-63500000D01*
X168783000Y-80137000D02*
X181737000Y-67183000D01*
X163830000Y-103124000D02*
X163830000Y-93726000D01*
X163830000Y-93726000D02*
X165288000Y-92268000D01*
%TO.N,/SCL*%
X164592000Y-103886000D02*
X166624000Y-103886000D01*
X169164000Y-89402865D02*
X165798865Y-92768000D01*
X165754241Y-92768000D02*
X164592000Y-93930241D01*
X165798865Y-92768000D02*
X165754241Y-92768000D01*
X169418000Y-80518000D02*
X182562500Y-67373500D01*
X169418000Y-85852000D02*
X169418000Y-80518000D01*
X182562500Y-67373500D02*
X182562500Y-63944500D01*
X155575000Y-103886000D02*
X164592000Y-103886000D01*
X155067000Y-104394000D02*
X155575000Y-103886000D01*
X164592000Y-93930241D02*
X164592000Y-103886000D01*
X169164000Y-88138000D02*
X169164000Y-89402865D01*
D32*
%TO.N,/Feedback Channels/FB_CH1*%
X165354000Y-94234000D02*
X165354000Y-93980000D01*
X181229000Y-122809000D02*
X181229000Y-110109000D01*
X181864000Y-123444000D02*
X181229000Y-122809000D01*
X181229000Y-110109000D02*
X165354000Y-94234000D01*
%TO.N,/Feedback Channels/FB_CH2*%
X168148000Y-87630000D02*
X169580000Y-87630000D01*
X181737000Y-116205000D02*
X181991000Y-116459000D01*
X181737000Y-109982000D02*
X181737000Y-110871000D01*
X165354000Y-91694000D02*
X165828000Y-91220000D01*
X173228000Y-101473000D02*
X181737000Y-109982000D01*
X181737000Y-110871000D02*
X181737000Y-116205000D01*
X173228000Y-91278000D02*
X173228000Y-101473000D01*
X165828000Y-91220000D02*
X165828000Y-89950000D01*
X169580000Y-87630000D02*
X173228000Y-91278000D01*
X165828000Y-89950000D02*
X168148000Y-87630000D01*
%TO.N,/Feedback Channels/FB_CH3*%
X173609000Y-91105000D02*
X169834000Y-87330000D01*
X181864000Y-109474000D02*
X173609000Y-101219000D01*
X169834000Y-87330000D02*
X167813000Y-87330000D01*
X181991000Y-109474000D02*
X181864000Y-109474000D01*
X165354000Y-89789000D02*
X165354000Y-90600000D01*
X173609000Y-101219000D02*
X173609000Y-91105000D01*
X167813000Y-87330000D02*
X165354000Y-89789000D01*
%TO.N,/Feedback Channels/FB_CH4*%
X167459000Y-86995000D02*
X165354000Y-89100000D01*
X170053000Y-86995000D02*
X167459000Y-86995000D01*
X173990000Y-90932000D02*
X170053000Y-86995000D01*
X174498000Y-101346000D02*
X173990000Y-100838000D01*
X173990000Y-100838000D02*
X173990000Y-90932000D01*
%TO.N,/Feedback Channels/FB_CH5*%
X174371000Y-92837000D02*
X174371000Y-90741500D01*
X174498000Y-92964000D02*
X174371000Y-92837000D01*
X166832000Y-86660000D02*
X165892000Y-87600000D01*
X174371000Y-90741500D02*
X170289500Y-86660000D01*
X170289500Y-86660000D02*
X166832000Y-86660000D01*
X165892000Y-87600000D02*
X165354000Y-87600000D01*
%TO.N,/Feedback Channels/FB_CH6*%
X173990000Y-82677000D02*
X170341000Y-86326000D01*
X166590000Y-86326000D02*
X166370000Y-86106000D01*
X166370000Y-86106000D02*
X165360000Y-86106000D01*
X165360000Y-86106000D02*
X165354000Y-86100000D01*
X173990000Y-81534000D02*
X173990000Y-82677000D01*
X170341000Y-86326000D02*
X166590000Y-86326000D01*
D28*
%TO.N,/Feedback Channels/FB_CH7*%
X165354000Y-81280000D02*
X165354000Y-84600000D01*
X173990000Y-72644000D02*
X165354000Y-81280000D01*
X173990000Y-70485000D02*
X173990000Y-72644000D01*
D32*
%TO.N,/Feedback Channels/FB_CH0*%
X165608000Y-95123000D02*
X180721000Y-110236000D01*
X165354000Y-95123000D02*
X165608000Y-95123000D01*
X180721000Y-110236000D02*
X180721000Y-125857000D01*
D28*
%TO.N,VDESAFED*%
X185674000Y-97028000D02*
X184404000Y-97028000D01*
X123063000Y-73406000D02*
X122428000Y-73406000D01*
X122428000Y-73406000D02*
X120523000Y-71501000D01*
D27*
%TO.N,VCOLD*%
X139650000Y-99200000D02*
X135017500Y-94567500D01*
X130508500Y-94567500D02*
X100000000Y-64059000D01*
X135017500Y-94567500D02*
X130508500Y-94567500D01*
X100000000Y-64059000D02*
X100000000Y-52000000D01*
D28*
%TO.N,Net-(U36-UV)*%
X158411012Y-122379330D02*
X160352330Y-122379330D01*
X160352330Y-122379330D02*
X162052000Y-124079000D01*
%TD*%
%TA.AperFunction,Conductor*%
%TO.N,GNDPWR*%
G36*
X149950500Y-35213763D02*
G01*
X149986737Y-35250000D01*
X150000000Y-35299500D01*
X150000000Y-55901000D01*
X149986737Y-55950500D01*
X149950500Y-55986737D01*
X149901000Y-56000000D01*
X119000000Y-56000000D01*
X119000000Y-56000001D01*
X119000000Y-62900344D01*
X118986737Y-62949843D01*
X118950502Y-62986079D01*
X118901004Y-62999343D01*
X109962311Y-62999684D01*
X101799504Y-62999996D01*
X101750002Y-62986734D01*
X101713764Y-62950497D01*
X101700500Y-62900996D01*
X101700500Y-54768869D01*
X101711544Y-54723430D01*
X101742211Y-54688129D01*
X101909830Y-54569196D01*
X101998623Y-54506194D01*
X102266661Y-54266661D01*
X102506194Y-53998623D01*
X102714211Y-53705452D01*
X102888094Y-53390833D01*
X103025659Y-53058724D01*
X103125173Y-52713300D01*
X103185387Y-52358907D01*
X103205543Y-52000000D01*
X103185387Y-51641093D01*
X103158398Y-51482247D01*
X107349500Y-51482247D01*
X107361133Y-51540731D01*
X107405447Y-51607052D01*
X107449761Y-51636662D01*
X107471769Y-51651367D01*
X107530252Y-51663000D01*
X108569747Y-51663000D01*
X108569748Y-51663000D01*
X108628231Y-51651367D01*
X108694552Y-51607052D01*
X108738867Y-51540731D01*
X108750500Y-51482248D01*
X108750500Y-51482247D01*
X126249500Y-51482247D01*
X126261133Y-51540731D01*
X126305447Y-51607052D01*
X126349761Y-51636662D01*
X126371769Y-51651367D01*
X126430252Y-51663000D01*
X127469747Y-51663000D01*
X127469748Y-51663000D01*
X127528231Y-51651367D01*
X127594552Y-51607052D01*
X127638867Y-51540731D01*
X127650500Y-51482248D01*
X127650500Y-51482247D01*
X129349500Y-51482247D01*
X129361133Y-51540731D01*
X129405447Y-51607052D01*
X129449761Y-51636662D01*
X129471769Y-51651367D01*
X129530252Y-51663000D01*
X130569747Y-51663000D01*
X130569748Y-51663000D01*
X130628231Y-51651367D01*
X130694552Y-51607052D01*
X130738867Y-51540731D01*
X130750500Y-51482248D01*
X130750500Y-51482247D01*
X148249500Y-51482247D01*
X148261133Y-51540731D01*
X148305447Y-51607052D01*
X148349761Y-51636662D01*
X148371769Y-51651367D01*
X148430252Y-51663000D01*
X149469747Y-51663000D01*
X149469748Y-51663000D01*
X149528231Y-51651367D01*
X149594552Y-51607052D01*
X149638867Y-51540731D01*
X149650500Y-51482248D01*
X149650500Y-49242752D01*
X149638867Y-49184269D01*
X149613817Y-49146780D01*
X149594552Y-49117947D01*
X149528231Y-49073633D01*
X149521489Y-49072292D01*
X149469748Y-49062000D01*
X148430252Y-49062000D01*
X148401010Y-49067816D01*
X148371768Y-49073633D01*
X148305447Y-49117947D01*
X148261133Y-49184268D01*
X148249500Y-49242753D01*
X148249500Y-51482247D01*
X130750500Y-51482247D01*
X130750500Y-49242752D01*
X130738867Y-49184269D01*
X130713817Y-49146780D01*
X130694552Y-49117947D01*
X130628231Y-49073633D01*
X130621489Y-49072292D01*
X130569748Y-49062000D01*
X129530252Y-49062000D01*
X129501010Y-49067816D01*
X129471768Y-49073633D01*
X129405447Y-49117947D01*
X129361133Y-49184268D01*
X129349500Y-49242753D01*
X129349500Y-51482247D01*
X127650500Y-51482247D01*
X127650500Y-49242752D01*
X127638867Y-49184269D01*
X127613817Y-49146780D01*
X127594552Y-49117947D01*
X127528231Y-49073633D01*
X127521489Y-49072292D01*
X127469748Y-49062000D01*
X126430252Y-49062000D01*
X126401010Y-49067816D01*
X126371768Y-49073633D01*
X126305447Y-49117947D01*
X126261133Y-49184268D01*
X126249500Y-49242753D01*
X126249500Y-51482247D01*
X108750500Y-51482247D01*
X108750500Y-49242752D01*
X108738867Y-49184269D01*
X108713817Y-49146780D01*
X108694552Y-49117947D01*
X108628231Y-49073633D01*
X108621489Y-49072292D01*
X108569748Y-49062000D01*
X107530252Y-49062000D01*
X107501010Y-49067816D01*
X107471768Y-49073633D01*
X107405447Y-49117947D01*
X107361133Y-49184268D01*
X107349500Y-49242753D01*
X107349500Y-51482247D01*
X103158398Y-51482247D01*
X103125173Y-51286700D01*
X103025659Y-50941276D01*
X102888094Y-50609167D01*
X102714211Y-50294548D01*
X102506194Y-50001377D01*
X102266661Y-49733338D01*
X101998621Y-49493804D01*
X101741711Y-49311516D01*
X101711044Y-49276215D01*
X101700000Y-49230776D01*
X101700000Y-48900001D01*
X101700000Y-48900000D01*
X101699999Y-48900000D01*
X100814655Y-48900000D01*
X100787249Y-48896131D01*
X100713297Y-48874826D01*
X100358906Y-48814612D01*
X100000000Y-48794456D01*
X99641093Y-48814612D01*
X99286702Y-48874826D01*
X99212751Y-48896131D01*
X99185345Y-48900000D01*
X91314655Y-48900000D01*
X91287249Y-48896131D01*
X91213297Y-48874826D01*
X90858906Y-48814612D01*
X90500000Y-48794456D01*
X90141093Y-48814612D01*
X89786702Y-48874826D01*
X89712751Y-48896131D01*
X89685345Y-48900000D01*
X87800001Y-48900000D01*
X87800000Y-48900000D01*
X87800000Y-48900001D01*
X87800000Y-50243298D01*
X87787647Y-50291186D01*
X87611907Y-50609165D01*
X87474340Y-50941276D01*
X87374826Y-51286702D01*
X87314612Y-51641093D01*
X87294456Y-52000000D01*
X87314612Y-52358906D01*
X87374826Y-52713297D01*
X87474340Y-53058723D01*
X87543123Y-53224778D01*
X87611906Y-53390833D01*
X87611907Y-53390834D01*
X87787647Y-53708815D01*
X87800000Y-53756703D01*
X87800000Y-57949025D01*
X87783782Y-58003322D01*
X87740442Y-58039828D01*
X87672831Y-58069196D01*
X87531371Y-58130640D01*
X87285858Y-58279940D01*
X87062945Y-58461293D01*
X86866808Y-58671304D01*
X86701102Y-58906058D01*
X86701098Y-58906064D01*
X86701099Y-58906064D01*
X86568896Y-59161203D01*
X86568894Y-59161206D01*
X86568895Y-59161206D01*
X86472664Y-59431971D01*
X86414201Y-59713312D01*
X86394592Y-59999999D01*
X86414201Y-60286687D01*
X86472664Y-60568028D01*
X86527337Y-60721861D01*
X86568896Y-60838797D01*
X86662674Y-61019779D01*
X86701102Y-61093941D01*
X86866808Y-61328695D01*
X87062945Y-61538706D01*
X87285858Y-61720059D01*
X87531371Y-61869359D01*
X87531373Y-61869360D01*
X87531375Y-61869361D01*
X87740442Y-61960171D01*
X87783782Y-61996678D01*
X87800000Y-62050975D01*
X87800000Y-67949025D01*
X87783782Y-68003322D01*
X87740442Y-68039828D01*
X87670318Y-68070287D01*
X87531371Y-68130640D01*
X87285858Y-68279940D01*
X87062945Y-68461293D01*
X86866808Y-68671304D01*
X86701102Y-68906058D01*
X86701098Y-68906064D01*
X86701099Y-68906064D01*
X86568896Y-69161203D01*
X86568894Y-69161206D01*
X86568895Y-69161206D01*
X86472664Y-69431971D01*
X86414201Y-69713312D01*
X86394592Y-69999999D01*
X86414201Y-70286687D01*
X86472664Y-70568028D01*
X86528323Y-70724637D01*
X86568896Y-70838797D01*
X86701099Y-71093936D01*
X86701102Y-71093941D01*
X86866808Y-71328695D01*
X87062945Y-71538706D01*
X87285858Y-71720059D01*
X87531371Y-71869359D01*
X87531373Y-71869360D01*
X87531375Y-71869361D01*
X87740442Y-71960171D01*
X87783782Y-71996678D01*
X87800000Y-72050975D01*
X87800000Y-77949025D01*
X87783782Y-78003322D01*
X87740442Y-78039828D01*
X87672831Y-78069196D01*
X87531371Y-78130640D01*
X87285858Y-78279940D01*
X87062945Y-78461293D01*
X86866808Y-78671304D01*
X86701102Y-78906058D01*
X86701098Y-78906064D01*
X86701099Y-78906064D01*
X86568896Y-79161203D01*
X86568894Y-79161206D01*
X86568895Y-79161206D01*
X86472664Y-79431971D01*
X86414201Y-79713312D01*
X86394592Y-79999999D01*
X86414201Y-80286687D01*
X86472664Y-80568028D01*
X86523262Y-80710396D01*
X86568896Y-80838797D01*
X86701099Y-81093936D01*
X86701102Y-81093941D01*
X86866808Y-81328695D01*
X86866811Y-81328698D01*
X87062947Y-81538708D01*
X87285853Y-81720055D01*
X87285858Y-81720059D01*
X87531371Y-81869359D01*
X87531373Y-81869360D01*
X87531375Y-81869361D01*
X87740442Y-81960171D01*
X87783782Y-81996678D01*
X87800000Y-82050975D01*
X87800000Y-87949025D01*
X87783782Y-88003322D01*
X87740442Y-88039828D01*
X87701059Y-88056935D01*
X87531371Y-88130640D01*
X87285858Y-88279940D01*
X87062945Y-88461293D01*
X86866808Y-88671304D01*
X86701102Y-88906058D01*
X86701098Y-88906064D01*
X86701099Y-88906064D01*
X86568896Y-89161203D01*
X86568894Y-89161206D01*
X86568895Y-89161206D01*
X86472664Y-89431971D01*
X86414201Y-89713312D01*
X86394592Y-90000000D01*
X86414201Y-90286687D01*
X86472664Y-90568028D01*
X86509442Y-90671509D01*
X86568896Y-90838797D01*
X86701099Y-91093936D01*
X86701102Y-91093941D01*
X86866808Y-91328695D01*
X86866811Y-91328698D01*
X87062947Y-91538708D01*
X87179003Y-91633126D01*
X87285858Y-91720059D01*
X87531371Y-91869359D01*
X87531373Y-91869360D01*
X87531375Y-91869361D01*
X87740442Y-91960171D01*
X87783782Y-91996678D01*
X87800000Y-92050975D01*
X87800000Y-97949025D01*
X87783782Y-98003322D01*
X87740442Y-98039828D01*
X87681255Y-98065537D01*
X87531371Y-98130640D01*
X87285858Y-98279940D01*
X87062945Y-98461293D01*
X86866808Y-98671304D01*
X86701102Y-98906058D01*
X86701098Y-98906064D01*
X86701099Y-98906064D01*
X86568896Y-99161203D01*
X86568894Y-99161206D01*
X86568895Y-99161206D01*
X86472664Y-99431971D01*
X86414201Y-99713312D01*
X86394592Y-100000000D01*
X86414201Y-100286687D01*
X86472664Y-100568028D01*
X86478618Y-100584780D01*
X86568896Y-100838797D01*
X86699692Y-101091220D01*
X86701102Y-101093941D01*
X86866808Y-101328695D01*
X87007301Y-101479126D01*
X87062947Y-101538708D01*
X87254476Y-101694528D01*
X87285858Y-101720059D01*
X87531371Y-101869359D01*
X87531373Y-101869360D01*
X87531375Y-101869361D01*
X87740442Y-101960171D01*
X87783782Y-101996678D01*
X87800000Y-102050975D01*
X87800000Y-107949025D01*
X87783782Y-108003322D01*
X87740442Y-108039828D01*
X87670318Y-108070287D01*
X87531371Y-108130640D01*
X87285858Y-108279940D01*
X87062945Y-108461293D01*
X86866808Y-108671304D01*
X86701102Y-108906058D01*
X86701098Y-108906064D01*
X86701099Y-108906064D01*
X86568896Y-109161203D01*
X86568894Y-109161206D01*
X86568895Y-109161206D01*
X86472664Y-109431971D01*
X86414201Y-109713312D01*
X86394592Y-110000000D01*
X86414201Y-110286687D01*
X86472664Y-110568028D01*
X86505216Y-110659619D01*
X86568896Y-110838797D01*
X86691389Y-111075196D01*
X86701102Y-111093941D01*
X86866808Y-111328695D01*
X86982901Y-111453000D01*
X87062947Y-111538708D01*
X87186378Y-111639126D01*
X87285858Y-111720059D01*
X87531371Y-111869359D01*
X87531373Y-111869360D01*
X87531375Y-111869361D01*
X87740442Y-111960171D01*
X87783782Y-111996678D01*
X87800000Y-112050975D01*
X87800000Y-117949025D01*
X87783782Y-118003322D01*
X87740442Y-118039828D01*
X87670318Y-118070287D01*
X87531371Y-118130640D01*
X87285858Y-118279940D01*
X87062945Y-118461293D01*
X86866808Y-118671304D01*
X86701102Y-118906058D01*
X86701098Y-118906064D01*
X86701099Y-118906064D01*
X86568896Y-119161203D01*
X86568894Y-119161206D01*
X86568895Y-119161206D01*
X86472664Y-119431971D01*
X86414201Y-119713312D01*
X86394592Y-119999999D01*
X86414201Y-120286687D01*
X86472664Y-120568028D01*
X86528323Y-120724638D01*
X86568896Y-120838797D01*
X86685314Y-121063472D01*
X86701102Y-121093941D01*
X86866808Y-121328695D01*
X87062945Y-121538706D01*
X87062947Y-121538708D01*
X87125298Y-121589434D01*
X87285858Y-121720059D01*
X87531371Y-121869359D01*
X87531373Y-121869360D01*
X87531375Y-121869361D01*
X87740442Y-121960171D01*
X87783782Y-121996678D01*
X87800000Y-122050975D01*
X87800000Y-127949025D01*
X87783782Y-128003322D01*
X87740442Y-128039828D01*
X87670318Y-128070287D01*
X87531371Y-128130640D01*
X87285858Y-128279940D01*
X87062945Y-128461293D01*
X86866808Y-128671304D01*
X86701102Y-128906058D01*
X86701098Y-128906064D01*
X86701099Y-128906064D01*
X86568896Y-129161203D01*
X86568894Y-129161206D01*
X86568895Y-129161206D01*
X86472664Y-129431971D01*
X86414201Y-129713312D01*
X86394592Y-129999999D01*
X86414201Y-130286687D01*
X86472664Y-130568028D01*
X86528323Y-130724638D01*
X86568896Y-130838797D01*
X86701099Y-131093936D01*
X86701102Y-131093941D01*
X86866808Y-131328695D01*
X86866811Y-131328698D01*
X87062947Y-131538708D01*
X87225373Y-131670851D01*
X87285858Y-131720059D01*
X87531371Y-131869359D01*
X87531373Y-131869360D01*
X87531375Y-131869361D01*
X87740442Y-131960171D01*
X87783782Y-131996678D01*
X87800000Y-132050975D01*
X87800000Y-145000000D01*
X94827247Y-153669980D01*
X94827296Y-153670041D01*
X95378532Y-154352822D01*
X95410387Y-154392278D01*
X95418166Y-154399976D01*
X95425432Y-154408001D01*
X95500000Y-154500000D01*
X95592644Y-154500000D01*
X95603645Y-154500613D01*
X95647310Y-154505500D01*
X183200758Y-154505500D01*
X183200760Y-154505500D01*
X183224851Y-154502323D01*
X183236023Y-154500849D01*
X183248965Y-154500000D01*
X191399999Y-154500000D01*
X191400000Y-154500000D01*
X191400000Y-136631664D01*
X191407536Y-136593778D01*
X191428996Y-136561661D01*
X191867261Y-136123395D01*
X191871580Y-136119327D01*
X191917183Y-136078929D01*
X191951797Y-136028780D01*
X191955310Y-136024007D01*
X191992878Y-135976056D01*
X191997967Y-135964746D01*
X192006770Y-135949139D01*
X192013818Y-135938930D01*
X192035409Y-135881996D01*
X192037699Y-135876469D01*
X192062694Y-135820933D01*
X192062693Y-135820933D01*
X192062695Y-135820931D01*
X192064931Y-135808724D01*
X192069742Y-135791466D01*
X192074140Y-135779872D01*
X192081479Y-135719422D01*
X192082378Y-135713518D01*
X192093358Y-135653605D01*
X192089681Y-135592823D01*
X192089500Y-135586845D01*
X192089500Y-131736500D01*
X192102763Y-131687000D01*
X192139000Y-131650763D01*
X192188500Y-131637500D01*
X193236279Y-131637500D01*
X193276910Y-131646222D01*
X193310382Y-131670851D01*
X193330795Y-131707046D01*
X193356522Y-131789606D01*
X193444528Y-131935185D01*
X193564815Y-132055472D01*
X193655720Y-132110426D01*
X193710396Y-132143479D01*
X193872800Y-132194085D01*
X193872801Y-132194085D01*
X193872804Y-132194086D01*
X193943384Y-132200500D01*
X195056613Y-132200500D01*
X195056616Y-132200500D01*
X195127196Y-132194086D01*
X195289606Y-132143478D01*
X195435185Y-132055472D01*
X195555472Y-131935185D01*
X195643478Y-131789606D01*
X195694086Y-131627196D01*
X195700500Y-131556616D01*
X195700500Y-130443384D01*
X195694086Y-130372804D01*
X195694085Y-130372800D01*
X195643479Y-130210396D01*
X195630373Y-130188716D01*
X195555472Y-130064815D01*
X195435185Y-129944528D01*
X195289606Y-129856522D01*
X195289603Y-129856520D01*
X195127199Y-129805914D01*
X195091905Y-129802706D01*
X195056616Y-129799500D01*
X193943384Y-129799500D01*
X193913135Y-129802248D01*
X193872800Y-129805914D01*
X193710396Y-129856520D01*
X193564816Y-129944527D01*
X193444525Y-130064818D01*
X193369627Y-130188716D01*
X193333539Y-130223731D01*
X193284905Y-130236500D01*
X192188500Y-130236500D01*
X192139000Y-130223237D01*
X192102763Y-130187000D01*
X192089500Y-130137500D01*
X192089500Y-126000000D01*
X193294357Y-126000000D01*
X193314885Y-126221535D01*
X193375772Y-126435530D01*
X193474940Y-126634686D01*
X193474941Y-126634687D01*
X193474942Y-126634689D01*
X193609019Y-126812236D01*
X193773438Y-126962124D01*
X193962599Y-127079247D01*
X194170060Y-127159618D01*
X194170063Y-127159619D01*
X194388755Y-127200500D01*
X194388757Y-127200500D01*
X194611243Y-127200500D01*
X194611245Y-127200500D01*
X194829936Y-127159619D01*
X194829937Y-127159618D01*
X194829940Y-127159618D01*
X195037401Y-127079247D01*
X195226562Y-126962124D01*
X195390981Y-126812236D01*
X195525058Y-126634689D01*
X195624229Y-126435528D01*
X195685115Y-126221536D01*
X195705643Y-126000000D01*
X195685115Y-125778464D01*
X195624229Y-125564472D01*
X195525058Y-125365311D01*
X195390981Y-125187764D01*
X195226562Y-125037876D01*
X195037401Y-124920753D01*
X195037399Y-124920752D01*
X194829936Y-124840380D01*
X194611245Y-124799500D01*
X194611243Y-124799500D01*
X194388757Y-124799500D01*
X194388755Y-124799500D01*
X194170063Y-124840380D01*
X193962600Y-124920752D01*
X193773436Y-125037877D01*
X193609020Y-125187763D01*
X193474940Y-125365313D01*
X193392573Y-125530729D01*
X193375771Y-125564472D01*
X193340061Y-125689980D01*
X193314885Y-125778464D01*
X193294357Y-126000000D01*
X192089500Y-126000000D01*
X192089500Y-115299500D01*
X192102763Y-115250000D01*
X192139000Y-115213763D01*
X192188500Y-115200500D01*
X193255910Y-115200500D01*
X193296541Y-115209222D01*
X193330012Y-115233851D01*
X193350427Y-115270047D01*
X193356522Y-115289606D01*
X193444528Y-115435185D01*
X193564815Y-115555472D01*
X193656049Y-115610625D01*
X193710396Y-115643479D01*
X193872800Y-115694085D01*
X193872801Y-115694085D01*
X193872804Y-115694086D01*
X193943384Y-115700500D01*
X195056613Y-115700500D01*
X195056616Y-115700500D01*
X195127196Y-115694086D01*
X195289606Y-115643478D01*
X195435185Y-115555472D01*
X195555472Y-115435185D01*
X195643478Y-115289606D01*
X195655820Y-115250000D01*
X195694085Y-115127199D01*
X195694084Y-115127199D01*
X195694086Y-115127196D01*
X195700500Y-115056616D01*
X195700500Y-113943384D01*
X195694086Y-113872804D01*
X195660852Y-113766149D01*
X195643479Y-113710396D01*
X195637497Y-113700500D01*
X195555472Y-113564815D01*
X195435185Y-113444528D01*
X195289606Y-113356522D01*
X195289603Y-113356520D01*
X195127199Y-113305914D01*
X195091906Y-113302707D01*
X195056616Y-113299500D01*
X193943384Y-113299500D01*
X193913135Y-113302248D01*
X193872800Y-113305914D01*
X193710396Y-113356520D01*
X193564816Y-113444527D01*
X193444527Y-113564816D01*
X193356521Y-113710395D01*
X193350427Y-113729953D01*
X193330012Y-113766149D01*
X193296541Y-113790778D01*
X193255910Y-113799500D01*
X192188500Y-113799500D01*
X192139000Y-113786237D01*
X192102763Y-113750000D01*
X192089500Y-113700500D01*
X192089500Y-109500000D01*
X193294357Y-109500000D01*
X193314885Y-109721536D01*
X193365327Y-109898822D01*
X193375772Y-109935530D01*
X193474940Y-110134686D01*
X193474941Y-110134687D01*
X193474942Y-110134689D01*
X193609019Y-110312236D01*
X193773438Y-110462124D01*
X193962599Y-110579247D01*
X194170060Y-110659618D01*
X194170063Y-110659619D01*
X194388755Y-110700500D01*
X194388757Y-110700500D01*
X194611243Y-110700500D01*
X194611245Y-110700500D01*
X194829936Y-110659619D01*
X194829937Y-110659618D01*
X194829940Y-110659618D01*
X195037401Y-110579247D01*
X195226562Y-110462124D01*
X195390981Y-110312236D01*
X195525058Y-110134689D01*
X195624229Y-109935528D01*
X195685115Y-109721536D01*
X195705643Y-109500000D01*
X195685115Y-109278464D01*
X195624229Y-109064472D01*
X195525058Y-108865311D01*
X195390981Y-108687764D01*
X195226562Y-108537876D01*
X195037401Y-108420753D01*
X195037399Y-108420752D01*
X194829936Y-108340380D01*
X194611245Y-108299500D01*
X194611243Y-108299500D01*
X194388757Y-108299500D01*
X194388755Y-108299500D01*
X194170063Y-108340380D01*
X193962600Y-108420752D01*
X193773436Y-108537877D01*
X193609020Y-108687763D01*
X193474940Y-108865313D01*
X193375866Y-109064281D01*
X193375771Y-109064472D01*
X193314885Y-109278464D01*
X193294357Y-109500000D01*
X192089500Y-109500000D01*
X192089500Y-98799500D01*
X192102763Y-98750000D01*
X192139000Y-98713763D01*
X192188500Y-98700500D01*
X193255910Y-98700500D01*
X193296541Y-98709222D01*
X193330012Y-98733851D01*
X193350427Y-98770047D01*
X193356522Y-98789606D01*
X193444528Y-98935185D01*
X193564815Y-99055472D01*
X193710394Y-99143478D01*
X193710396Y-99143479D01*
X193872800Y-99194085D01*
X193872801Y-99194085D01*
X193872804Y-99194086D01*
X193943384Y-99200500D01*
X195056613Y-99200500D01*
X195056616Y-99200500D01*
X195127196Y-99194086D01*
X195289606Y-99143478D01*
X195435185Y-99055472D01*
X195555472Y-98935185D01*
X195643478Y-98789606D01*
X195655820Y-98750000D01*
X195694085Y-98627199D01*
X195694084Y-98627199D01*
X195694086Y-98627196D01*
X195700500Y-98556616D01*
X195700500Y-97443384D01*
X195694086Y-97372804D01*
X195694085Y-97372800D01*
X195643479Y-97210396D01*
X195643478Y-97210394D01*
X195555472Y-97064815D01*
X195435185Y-96944528D01*
X195289606Y-96856522D01*
X195289603Y-96856520D01*
X195127199Y-96805914D01*
X195091906Y-96802707D01*
X195056616Y-96799500D01*
X193943384Y-96799500D01*
X193913135Y-96802248D01*
X193872800Y-96805914D01*
X193710396Y-96856520D01*
X193564816Y-96944527D01*
X193444527Y-97064816D01*
X193356521Y-97210395D01*
X193350427Y-97229953D01*
X193330012Y-97266149D01*
X193296541Y-97290778D01*
X193255910Y-97299500D01*
X191584155Y-97299500D01*
X191578177Y-97299319D01*
X191517393Y-97295641D01*
X191516842Y-97295743D01*
X191514191Y-97295448D01*
X191505395Y-97294916D01*
X191505421Y-97294472D01*
X191460193Y-97289441D01*
X191416408Y-97252949D01*
X191400000Y-97198364D01*
X191400000Y-93000000D01*
X193294357Y-93000000D01*
X193314885Y-93221536D01*
X193374990Y-93432784D01*
X193375772Y-93435530D01*
X193474940Y-93634686D01*
X193474941Y-93634687D01*
X193474942Y-93634689D01*
X193609019Y-93812236D01*
X193773438Y-93962124D01*
X193962599Y-94079247D01*
X194034238Y-94107000D01*
X194170063Y-94159619D01*
X194388755Y-94200500D01*
X194388757Y-94200500D01*
X194611243Y-94200500D01*
X194611245Y-94200500D01*
X194829936Y-94159619D01*
X194829937Y-94159618D01*
X194829940Y-94159618D01*
X195037401Y-94079247D01*
X195226562Y-93962124D01*
X195390981Y-93812236D01*
X195525058Y-93634689D01*
X195624229Y-93435528D01*
X195685115Y-93221536D01*
X195705643Y-93000000D01*
X195685115Y-92778464D01*
X195624229Y-92564472D01*
X195525058Y-92365311D01*
X195390981Y-92187764D01*
X195226562Y-92037876D01*
X195037401Y-91920753D01*
X195037399Y-91920752D01*
X194829936Y-91840380D01*
X194611245Y-91799500D01*
X194611243Y-91799500D01*
X194388757Y-91799500D01*
X194388755Y-91799500D01*
X194170063Y-91840380D01*
X193962600Y-91920752D01*
X193773436Y-92037877D01*
X193609020Y-92187763D01*
X193474940Y-92365313D01*
X193375772Y-92564469D01*
X193314885Y-92778464D01*
X193295688Y-92985641D01*
X193294357Y-93000000D01*
X191400000Y-93000000D01*
X191400000Y-82056616D01*
X193299500Y-82056616D01*
X193302706Y-82091905D01*
X193305914Y-82127199D01*
X193356520Y-82289603D01*
X193356522Y-82289606D01*
X193444528Y-82435185D01*
X193564815Y-82555472D01*
X193692908Y-82632907D01*
X193710396Y-82643479D01*
X193872800Y-82694085D01*
X193872801Y-82694085D01*
X193872804Y-82694086D01*
X193943384Y-82700500D01*
X195056613Y-82700500D01*
X195056616Y-82700500D01*
X195127196Y-82694086D01*
X195289606Y-82643478D01*
X195435185Y-82555472D01*
X195555472Y-82435185D01*
X195643478Y-82289606D01*
X195694086Y-82127196D01*
X195700500Y-82056616D01*
X195700500Y-80943384D01*
X195694086Y-80872804D01*
X195671624Y-80800719D01*
X195643479Y-80710396D01*
X195643478Y-80710394D01*
X195555472Y-80564815D01*
X195435185Y-80444528D01*
X195289606Y-80356522D01*
X195289603Y-80356520D01*
X195127199Y-80305914D01*
X195091906Y-80302707D01*
X195056616Y-80299500D01*
X193943384Y-80299500D01*
X193913135Y-80302248D01*
X193872800Y-80305914D01*
X193710396Y-80356520D01*
X193564816Y-80444527D01*
X193444527Y-80564816D01*
X193356520Y-80710396D01*
X193305914Y-80872800D01*
X193305914Y-80872804D01*
X193299500Y-80943384D01*
X193299500Y-82056616D01*
X191400000Y-82056616D01*
X191400000Y-70556616D01*
X193299500Y-70556616D01*
X193302707Y-70591906D01*
X193305914Y-70627199D01*
X193356520Y-70789603D01*
X193356522Y-70789606D01*
X193444528Y-70935185D01*
X193564815Y-71055472D01*
X193710394Y-71143478D01*
X193710396Y-71143479D01*
X193872800Y-71194085D01*
X193872801Y-71194085D01*
X193872804Y-71194086D01*
X193943384Y-71200500D01*
X195056613Y-71200500D01*
X195056616Y-71200500D01*
X195127196Y-71194086D01*
X195289606Y-71143478D01*
X195435185Y-71055472D01*
X195555472Y-70935185D01*
X195643478Y-70789606D01*
X195694086Y-70627196D01*
X195700500Y-70556616D01*
X195700500Y-69443384D01*
X195694086Y-69372804D01*
X195694085Y-69372800D01*
X195643479Y-69210396D01*
X195626632Y-69182528D01*
X195555472Y-69064815D01*
X195435185Y-68944528D01*
X195289606Y-68856522D01*
X195289603Y-68856520D01*
X195127199Y-68805914D01*
X195091905Y-68802706D01*
X195056616Y-68799500D01*
X193943384Y-68799500D01*
X193913135Y-68802248D01*
X193872800Y-68805914D01*
X193710396Y-68856520D01*
X193564816Y-68944527D01*
X193444527Y-69064816D01*
X193356520Y-69210396D01*
X193305914Y-69372800D01*
X193305914Y-69372804D01*
X193299500Y-69443384D01*
X193299500Y-70556616D01*
X191400000Y-70556616D01*
X191400000Y-62499000D01*
X191413263Y-62449500D01*
X191449500Y-62413263D01*
X191499000Y-62400000D01*
X204700500Y-62400000D01*
X204750000Y-62413263D01*
X204786237Y-62449500D01*
X204799500Y-62499000D01*
X204799500Y-159997835D01*
X204799406Y-160002154D01*
X204781424Y-160413989D01*
X204780671Y-160422592D01*
X204727148Y-160829140D01*
X204725648Y-160837645D01*
X204636897Y-161237978D01*
X204634662Y-161246321D01*
X204511354Y-161637403D01*
X204508400Y-161645519D01*
X204351477Y-162024364D01*
X204347827Y-162032191D01*
X204158487Y-162395910D01*
X204154169Y-162403390D01*
X203933838Y-162749240D01*
X203928884Y-162756314D01*
X203679263Y-163081626D01*
X203673712Y-163088242D01*
X203396679Y-163390571D01*
X203390571Y-163396679D01*
X203088242Y-163673712D01*
X203081626Y-163679263D01*
X202756314Y-163928884D01*
X202749240Y-163933838D01*
X202403390Y-164154169D01*
X202395910Y-164158487D01*
X202032191Y-164347827D01*
X202024364Y-164351477D01*
X201645519Y-164508400D01*
X201637403Y-164511354D01*
X201246321Y-164634662D01*
X201237978Y-164636897D01*
X200837645Y-164725648D01*
X200829140Y-164727148D01*
X200422592Y-164780671D01*
X200413989Y-164781424D01*
X200046120Y-164797486D01*
X200002151Y-164799406D01*
X199997835Y-164799500D01*
X80002165Y-164799500D01*
X79997848Y-164799406D01*
X79949150Y-164797279D01*
X79586010Y-164781424D01*
X79577407Y-164780671D01*
X79170859Y-164727148D01*
X79162354Y-164725648D01*
X78762021Y-164636897D01*
X78753678Y-164634662D01*
X78362596Y-164511354D01*
X78354480Y-164508400D01*
X77975635Y-164351477D01*
X77967808Y-164347827D01*
X77604089Y-164158487D01*
X77596609Y-164154169D01*
X77250759Y-163933838D01*
X77243685Y-163928884D01*
X76918373Y-163679263D01*
X76911757Y-163673712D01*
X76609428Y-163396679D01*
X76603320Y-163390571D01*
X76326287Y-163088242D01*
X76320736Y-163081626D01*
X76071115Y-162756314D01*
X76066161Y-162749240D01*
X75845830Y-162403390D01*
X75841512Y-162395910D01*
X75652172Y-162032191D01*
X75648522Y-162024364D01*
X75599060Y-161904953D01*
X75491599Y-161645519D01*
X75488645Y-161637403D01*
X75440643Y-161485160D01*
X75365332Y-161246305D01*
X75363105Y-161237990D01*
X75274351Y-160837645D01*
X75272851Y-160829140D01*
X75253199Y-160679865D01*
X75219326Y-160422580D01*
X75218576Y-160414000D01*
X75200593Y-160002152D01*
X75200547Y-160000000D01*
X76944692Y-160000000D01*
X76963903Y-160342086D01*
X77021294Y-160679865D01*
X77064300Y-160829140D01*
X77116147Y-161009104D01*
X77247264Y-161325648D01*
X77247265Y-161325649D01*
X77412996Y-161625518D01*
X77611265Y-161904953D01*
X77839571Y-162160428D01*
X77980081Y-162285995D01*
X78095047Y-162388735D01*
X78374479Y-162587002D01*
X78674352Y-162752736D01*
X78990896Y-162883853D01*
X79320130Y-162978704D01*
X79320131Y-162978704D01*
X79320134Y-162978705D01*
X79657913Y-163036096D01*
X80000000Y-163055307D01*
X80342086Y-163036096D01*
X80410494Y-163024473D01*
X80679865Y-162978705D01*
X80679866Y-162978704D01*
X80679870Y-162978704D01*
X81009104Y-162883853D01*
X81325648Y-162752736D01*
X81625521Y-162587002D01*
X81904953Y-162388735D01*
X82160428Y-162160428D01*
X82388735Y-161904953D01*
X82587002Y-161625521D01*
X82752736Y-161325648D01*
X82883853Y-161009104D01*
X82978704Y-160679870D01*
X83036096Y-160342086D01*
X83055307Y-160000000D01*
X196944692Y-160000000D01*
X196963903Y-160342086D01*
X197021294Y-160679865D01*
X197064300Y-160829140D01*
X197116147Y-161009104D01*
X197247264Y-161325648D01*
X197247265Y-161325649D01*
X197412996Y-161625518D01*
X197611265Y-161904953D01*
X197839571Y-162160428D01*
X197980081Y-162285995D01*
X198095047Y-162388735D01*
X198374479Y-162587002D01*
X198674352Y-162752736D01*
X198990896Y-162883853D01*
X199320130Y-162978704D01*
X199320131Y-162978704D01*
X199320134Y-162978705D01*
X199657913Y-163036096D01*
X200000000Y-163055307D01*
X200342086Y-163036096D01*
X200410494Y-163024473D01*
X200679865Y-162978705D01*
X200679866Y-162978704D01*
X200679870Y-162978704D01*
X201009104Y-162883853D01*
X201325648Y-162752736D01*
X201625521Y-162587002D01*
X201904953Y-162388735D01*
X202160428Y-162160428D01*
X202388735Y-161904953D01*
X202587002Y-161625521D01*
X202752736Y-161325648D01*
X202883853Y-161009104D01*
X202978704Y-160679870D01*
X203036096Y-160342086D01*
X203055307Y-160000000D01*
X203036096Y-159657914D01*
X202978704Y-159320130D01*
X202883853Y-158990896D01*
X202752736Y-158674352D01*
X202587002Y-158374479D01*
X202388735Y-158095047D01*
X202364455Y-158067877D01*
X202160428Y-157839571D01*
X201904953Y-157611265D01*
X201625518Y-157412996D01*
X201495598Y-157341192D01*
X201325648Y-157247264D01*
X201140221Y-157170457D01*
X201009105Y-157116147D01*
X200679865Y-157021294D01*
X200342086Y-156963903D01*
X200000000Y-156944692D01*
X199657913Y-156963903D01*
X199320134Y-157021294D01*
X198990894Y-157116147D01*
X198674350Y-157247265D01*
X198374481Y-157412996D01*
X198095046Y-157611265D01*
X197839571Y-157839571D01*
X197611265Y-158095046D01*
X197412996Y-158374481D01*
X197247265Y-158674350D01*
X197116147Y-158990894D01*
X197021294Y-159320134D01*
X196963903Y-159657913D01*
X196944692Y-160000000D01*
X83055307Y-160000000D01*
X83036096Y-159657914D01*
X82978704Y-159320130D01*
X82883853Y-158990896D01*
X82752736Y-158674352D01*
X82587002Y-158374479D01*
X82388735Y-158095047D01*
X82364455Y-158067877D01*
X82160428Y-157839571D01*
X81904953Y-157611265D01*
X81625518Y-157412996D01*
X81495598Y-157341192D01*
X81325648Y-157247264D01*
X81140221Y-157170457D01*
X81009105Y-157116147D01*
X80679865Y-157021294D01*
X80342086Y-156963903D01*
X80000000Y-156944692D01*
X79657913Y-156963903D01*
X79320134Y-157021294D01*
X78990894Y-157116147D01*
X78674350Y-157247265D01*
X78374481Y-157412996D01*
X78095046Y-157611265D01*
X77839571Y-157839571D01*
X77611265Y-158095046D01*
X77412996Y-158374481D01*
X77247265Y-158674350D01*
X77116147Y-158990894D01*
X77021294Y-159320134D01*
X76963903Y-159657913D01*
X76944692Y-160000000D01*
X75200547Y-160000000D01*
X75200500Y-159997835D01*
X75200500Y-40002165D01*
X75200547Y-39999999D01*
X76944692Y-39999999D01*
X76963903Y-40342086D01*
X77021294Y-40679865D01*
X77116147Y-41009104D01*
X77247264Y-41325648D01*
X77247265Y-41325649D01*
X77412996Y-41625518D01*
X77611265Y-41904953D01*
X77839571Y-42160428D01*
X78023216Y-42324543D01*
X78095047Y-42388735D01*
X78374479Y-42587002D01*
X78674352Y-42752736D01*
X78990896Y-42883853D01*
X79320130Y-42978704D01*
X79320131Y-42978704D01*
X79320134Y-42978705D01*
X79657913Y-43036096D01*
X80000000Y-43055307D01*
X80342086Y-43036096D01*
X80550500Y-43000685D01*
X80679865Y-42978705D01*
X80679866Y-42978704D01*
X80679870Y-42978704D01*
X81009104Y-42883853D01*
X81325648Y-42752736D01*
X81625521Y-42587002D01*
X81904953Y-42388735D01*
X82160428Y-42160428D01*
X82388735Y-41904953D01*
X82587002Y-41625521D01*
X82752736Y-41325648D01*
X82883853Y-41009104D01*
X82978704Y-40679870D01*
X83008580Y-40504036D01*
X83036096Y-40342086D01*
X83055307Y-39999999D01*
X83036096Y-39657913D01*
X82978705Y-39320134D01*
X82963818Y-39268461D01*
X82883853Y-38990896D01*
X82752736Y-38674352D01*
X82587002Y-38374479D01*
X82388735Y-38095047D01*
X82275027Y-37967808D01*
X82160428Y-37839571D01*
X81904953Y-37611265D01*
X81625518Y-37412996D01*
X81485599Y-37335666D01*
X81325648Y-37247264D01*
X81094386Y-37151472D01*
X81009105Y-37116147D01*
X80679865Y-37021294D01*
X80342086Y-36963903D01*
X80000000Y-36944692D01*
X79657913Y-36963903D01*
X79320134Y-37021294D01*
X78990894Y-37116147D01*
X78728660Y-37224768D01*
X78675521Y-37246780D01*
X78674350Y-37247265D01*
X78374481Y-37412996D01*
X78095046Y-37611265D01*
X77839571Y-37839571D01*
X77611265Y-38095046D01*
X77412996Y-38374481D01*
X77247265Y-38674350D01*
X77116147Y-38990894D01*
X77021294Y-39320134D01*
X76963903Y-39657913D01*
X76944692Y-39999999D01*
X75200547Y-39999999D01*
X75200594Y-39997847D01*
X75201486Y-39977410D01*
X75218576Y-39585997D01*
X75219326Y-39577421D01*
X75272851Y-39170855D01*
X75274351Y-39162354D01*
X75295904Y-39065135D01*
X75363106Y-38762004D01*
X75365331Y-38753699D01*
X75488647Y-38362588D01*
X75491599Y-38354480D01*
X75648529Y-37975618D01*
X75652164Y-37967824D01*
X75841517Y-37604079D01*
X75845824Y-37596618D01*
X76066168Y-37250747D01*
X76071106Y-37243696D01*
X76320742Y-36918365D01*
X76326280Y-36911764D01*
X76603327Y-36609420D01*
X76609420Y-36603327D01*
X76911764Y-36326280D01*
X76918365Y-36320742D01*
X77243696Y-36071106D01*
X77250747Y-36066168D01*
X77596618Y-35845824D01*
X77604079Y-35841517D01*
X77967824Y-35652164D01*
X77975618Y-35648529D01*
X78354487Y-35491596D01*
X78362588Y-35488647D01*
X78753699Y-35365331D01*
X78762004Y-35363106D01*
X79162353Y-35274351D01*
X79170855Y-35272851D01*
X79577421Y-35219326D01*
X79585997Y-35218576D01*
X79997847Y-35200593D01*
X80002165Y-35200500D01*
X80039882Y-35200500D01*
X149901000Y-35200500D01*
X149950500Y-35213763D01*
G37*
%TD.AperFunction*%
%TD*%
%TA.AperFunction,Conductor*%
%TO.N,Vdrive*%
G36*
X98284695Y-49118553D02*
G01*
X98320705Y-49152506D01*
X98335780Y-49199647D01*
X98326153Y-49248194D01*
X98294229Y-49286014D01*
X98001378Y-49493804D01*
X97733338Y-49733338D01*
X97493804Y-50001378D01*
X97285788Y-50294548D01*
X97111907Y-50609165D01*
X96974340Y-50941276D01*
X96874826Y-51286702D01*
X96814612Y-51641093D01*
X96794456Y-52000000D01*
X96814612Y-52358906D01*
X96874826Y-52713297D01*
X96974340Y-53058723D01*
X97043123Y-53224778D01*
X97111906Y-53390833D01*
X97111907Y-53390834D01*
X97285788Y-53705451D01*
X97493804Y-53998621D01*
X97733338Y-54266661D01*
X98001378Y-54506195D01*
X98257789Y-54688129D01*
X98288456Y-54723430D01*
X98299500Y-54768869D01*
X98299500Y-63938170D01*
X98298611Y-63951405D01*
X98297311Y-63961038D01*
X98299482Y-64074350D01*
X98299500Y-64076246D01*
X98299500Y-64124179D01*
X98300530Y-64137606D01*
X98300802Y-64143280D01*
X98302313Y-64222105D01*
X98309915Y-64265770D01*
X98311091Y-64275168D01*
X98314484Y-64319344D01*
X98332446Y-64396106D01*
X98333582Y-64401677D01*
X98347106Y-64479340D01*
X98361282Y-64521323D01*
X98363879Y-64530433D01*
X98373977Y-64573582D01*
X98373979Y-64573586D01*
X98399293Y-64636396D01*
X98403445Y-64646696D01*
X98405418Y-64652030D01*
X98430643Y-64726730D01*
X98451061Y-64766056D01*
X98455021Y-64774666D01*
X98471586Y-64815768D01*
X98511878Y-64883541D01*
X98514624Y-64888476D01*
X98550964Y-64958465D01*
X98577142Y-64994208D01*
X98582369Y-65002112D01*
X98605019Y-65040211D01*
X98655181Y-65101035D01*
X98658664Y-65105514D01*
X98705249Y-65169119D01*
X98736599Y-65200469D01*
X98742954Y-65207464D01*
X98757141Y-65224668D01*
X98771147Y-65241652D01*
X98829988Y-65294090D01*
X98834125Y-65297995D01*
X101500000Y-67963870D01*
X101500000Y-136300000D01*
X102200000Y-137600000D01*
X103100000Y-138498952D01*
X178287045Y-138315158D01*
X178325053Y-138322647D01*
X178357283Y-138344153D01*
X179009756Y-138996626D01*
X179037533Y-139051143D01*
X179027962Y-139111575D01*
X178984697Y-139154839D01*
X178924265Y-139164411D01*
X178784000Y-139142195D01*
X178650875Y-139163280D01*
X178530781Y-139224471D01*
X178435471Y-139319781D01*
X178380210Y-139428238D01*
X178343727Y-139467704D01*
X178292000Y-139482293D01*
X178240273Y-139467704D01*
X178203790Y-139428238D01*
X178160352Y-139342986D01*
X178148528Y-139319780D01*
X178053220Y-139224472D01*
X177933126Y-139163281D01*
X177933125Y-139163280D01*
X177933124Y-139163280D01*
X177800000Y-139142195D01*
X177666875Y-139163280D01*
X177546781Y-139224471D01*
X177451471Y-139319781D01*
X177390280Y-139439875D01*
X177369195Y-139573000D01*
X177390280Y-139706124D01*
X177390280Y-139706125D01*
X177390281Y-139706126D01*
X177451472Y-139826220D01*
X177546780Y-139921528D01*
X177666874Y-139982719D01*
X177800000Y-140003804D01*
X177933126Y-139982719D01*
X178053220Y-139921528D01*
X178148528Y-139826220D01*
X178203791Y-139717759D01*
X178240273Y-139678295D01*
X178292000Y-139663706D01*
X178343727Y-139678295D01*
X178380208Y-139717759D01*
X178435472Y-139826220D01*
X178530780Y-139921528D01*
X178650874Y-139982719D01*
X178784000Y-140003804D01*
X178917126Y-139982719D01*
X179037220Y-139921528D01*
X179132528Y-139826220D01*
X179193719Y-139706126D01*
X179214804Y-139573000D01*
X179193719Y-139439874D01*
X179193718Y-139439873D01*
X179192588Y-139432734D01*
X179197222Y-139383712D01*
X179224899Y-139342986D01*
X179268773Y-139320631D01*
X179317989Y-139322178D01*
X179360373Y-139347243D01*
X183244187Y-143231057D01*
X183265601Y-143263064D01*
X183273183Y-143300820D01*
X183299758Y-154200759D01*
X183286575Y-154250361D01*
X183250328Y-154286696D01*
X183200758Y-154300000D01*
X95647310Y-154300000D01*
X95604623Y-154290324D01*
X95570281Y-154263189D01*
X93339447Y-151500000D01*
X104394592Y-151500000D01*
X104414201Y-151786687D01*
X104472664Y-152068028D01*
X104528323Y-152224638D01*
X104568896Y-152338797D01*
X104701099Y-152593936D01*
X104701102Y-152593941D01*
X104866808Y-152828695D01*
X105062945Y-153038706D01*
X105285858Y-153220059D01*
X105531371Y-153369359D01*
X105531373Y-153369360D01*
X105531375Y-153369361D01*
X105794942Y-153483844D01*
X106071642Y-153561371D01*
X106356322Y-153600500D01*
X106643677Y-153600500D01*
X106643678Y-153600500D01*
X106928358Y-153561371D01*
X107205058Y-153483844D01*
X107468625Y-153369361D01*
X107550465Y-153319592D01*
X107714141Y-153220059D01*
X107714142Y-153220057D01*
X107714147Y-153220055D01*
X107937053Y-153038708D01*
X108133189Y-152828698D01*
X108298901Y-152593936D01*
X108431104Y-152338797D01*
X108527334Y-152068032D01*
X108585798Y-151786686D01*
X108605408Y-151500000D01*
X114394592Y-151500000D01*
X114414201Y-151786687D01*
X114472664Y-152068028D01*
X114528323Y-152224638D01*
X114568896Y-152338797D01*
X114701099Y-152593936D01*
X114701102Y-152593941D01*
X114866808Y-152828695D01*
X115062945Y-153038706D01*
X115285858Y-153220059D01*
X115531371Y-153369359D01*
X115531373Y-153369360D01*
X115531375Y-153369361D01*
X115794942Y-153483844D01*
X116071642Y-153561371D01*
X116356322Y-153600500D01*
X116643677Y-153600500D01*
X116643678Y-153600500D01*
X116928358Y-153561371D01*
X117205058Y-153483844D01*
X117468625Y-153369361D01*
X117550465Y-153319592D01*
X117714141Y-153220059D01*
X117714142Y-153220057D01*
X117714147Y-153220055D01*
X117937053Y-153038708D01*
X118133189Y-152828698D01*
X118298901Y-152593936D01*
X118431104Y-152338797D01*
X118527334Y-152068032D01*
X118585798Y-151786686D01*
X118605408Y-151500000D01*
X124394592Y-151500000D01*
X124414201Y-151786687D01*
X124472664Y-152068028D01*
X124528323Y-152224638D01*
X124568896Y-152338797D01*
X124701099Y-152593936D01*
X124701102Y-152593941D01*
X124866808Y-152828695D01*
X125062945Y-153038706D01*
X125285858Y-153220059D01*
X125531371Y-153369359D01*
X125531373Y-153369360D01*
X125531375Y-153369361D01*
X125794942Y-153483844D01*
X126071642Y-153561371D01*
X126356322Y-153600500D01*
X126643677Y-153600500D01*
X126643678Y-153600500D01*
X126928358Y-153561371D01*
X127205058Y-153483844D01*
X127468625Y-153369361D01*
X127550465Y-153319592D01*
X127714141Y-153220059D01*
X127714142Y-153220057D01*
X127714147Y-153220055D01*
X127937053Y-153038708D01*
X128133189Y-152828698D01*
X128298901Y-152593936D01*
X128431104Y-152338797D01*
X128527334Y-152068032D01*
X128585798Y-151786686D01*
X128605408Y-151500000D01*
X134394592Y-151500000D01*
X134414201Y-151786687D01*
X134472664Y-152068028D01*
X134528323Y-152224638D01*
X134568896Y-152338797D01*
X134701099Y-152593936D01*
X134701102Y-152593941D01*
X134866808Y-152828695D01*
X135062945Y-153038706D01*
X135285858Y-153220059D01*
X135531371Y-153369359D01*
X135531373Y-153369360D01*
X135531375Y-153369361D01*
X135794942Y-153483844D01*
X136071642Y-153561371D01*
X136356322Y-153600500D01*
X136643677Y-153600500D01*
X136643678Y-153600500D01*
X136928358Y-153561371D01*
X137205058Y-153483844D01*
X137468625Y-153369361D01*
X137550465Y-153319592D01*
X137714141Y-153220059D01*
X137714142Y-153220057D01*
X137714147Y-153220055D01*
X137937053Y-153038708D01*
X138133189Y-152828698D01*
X138298901Y-152593936D01*
X138431104Y-152338797D01*
X138527334Y-152068032D01*
X138585798Y-151786686D01*
X138605408Y-151500000D01*
X144394592Y-151500000D01*
X144414201Y-151786687D01*
X144472664Y-152068028D01*
X144528323Y-152224638D01*
X144568896Y-152338797D01*
X144701099Y-152593936D01*
X144701102Y-152593941D01*
X144866808Y-152828695D01*
X145062945Y-153038706D01*
X145285858Y-153220059D01*
X145531371Y-153369359D01*
X145531373Y-153369360D01*
X145531375Y-153369361D01*
X145794942Y-153483844D01*
X146071642Y-153561371D01*
X146356322Y-153600500D01*
X146643677Y-153600500D01*
X146643678Y-153600500D01*
X146928358Y-153561371D01*
X147205058Y-153483844D01*
X147468625Y-153369361D01*
X147550465Y-153319592D01*
X147714141Y-153220059D01*
X147714142Y-153220057D01*
X147714147Y-153220055D01*
X147937053Y-153038708D01*
X148133189Y-152828698D01*
X148298901Y-152593936D01*
X148431104Y-152338797D01*
X148527334Y-152068032D01*
X148585798Y-151786686D01*
X148605408Y-151500000D01*
X154394592Y-151500000D01*
X154414201Y-151786687D01*
X154472664Y-152068028D01*
X154528323Y-152224638D01*
X154568896Y-152338797D01*
X154701099Y-152593936D01*
X154701102Y-152593941D01*
X154866808Y-152828695D01*
X155062945Y-153038706D01*
X155285858Y-153220059D01*
X155531371Y-153369359D01*
X155531373Y-153369360D01*
X155531375Y-153369361D01*
X155794942Y-153483844D01*
X156071642Y-153561371D01*
X156356322Y-153600500D01*
X156643677Y-153600500D01*
X156643678Y-153600500D01*
X156928358Y-153561371D01*
X157205058Y-153483844D01*
X157468625Y-153369361D01*
X157550465Y-153319592D01*
X157714141Y-153220059D01*
X157714142Y-153220057D01*
X157714147Y-153220055D01*
X157937053Y-153038708D01*
X158133189Y-152828698D01*
X158298901Y-152593936D01*
X158431104Y-152338797D01*
X158527334Y-152068032D01*
X158585798Y-151786686D01*
X158605408Y-151500000D01*
X164394592Y-151500000D01*
X164414201Y-151786687D01*
X164472664Y-152068028D01*
X164528323Y-152224638D01*
X164568896Y-152338797D01*
X164701099Y-152593936D01*
X164701102Y-152593941D01*
X164866808Y-152828695D01*
X165062945Y-153038706D01*
X165285858Y-153220059D01*
X165531371Y-153369359D01*
X165531373Y-153369360D01*
X165531375Y-153369361D01*
X165794942Y-153483844D01*
X166071642Y-153561371D01*
X166356322Y-153600500D01*
X166643677Y-153600500D01*
X166643678Y-153600500D01*
X166928358Y-153561371D01*
X167205058Y-153483844D01*
X167468625Y-153369361D01*
X167550465Y-153319592D01*
X167714141Y-153220059D01*
X167714142Y-153220057D01*
X167714147Y-153220055D01*
X167937053Y-153038708D01*
X168133189Y-152828698D01*
X168298901Y-152593936D01*
X168431104Y-152338797D01*
X168527334Y-152068032D01*
X168585798Y-151786686D01*
X168605408Y-151500000D01*
X174394592Y-151500000D01*
X174414201Y-151786687D01*
X174472664Y-152068028D01*
X174528323Y-152224638D01*
X174568896Y-152338797D01*
X174701099Y-152593936D01*
X174701102Y-152593941D01*
X174866808Y-152828695D01*
X175062945Y-153038706D01*
X175285858Y-153220059D01*
X175531371Y-153369359D01*
X175531373Y-153369360D01*
X175531375Y-153369361D01*
X175794942Y-153483844D01*
X176071642Y-153561371D01*
X176356322Y-153600500D01*
X176643677Y-153600500D01*
X176643678Y-153600500D01*
X176928358Y-153561371D01*
X177205058Y-153483844D01*
X177468625Y-153369361D01*
X177550465Y-153319592D01*
X177714141Y-153220059D01*
X177714142Y-153220057D01*
X177714147Y-153220055D01*
X177937053Y-153038708D01*
X178133189Y-152828698D01*
X178298901Y-152593936D01*
X178431104Y-152338797D01*
X178527334Y-152068032D01*
X178585798Y-151786686D01*
X178605408Y-151500000D01*
X178585798Y-151213314D01*
X178527334Y-150931968D01*
X178431104Y-150661203D01*
X178298901Y-150406064D01*
X178298897Y-150406058D01*
X178133191Y-150171304D01*
X177937054Y-149961293D01*
X177714141Y-149779940D01*
X177468628Y-149630640D01*
X177360303Y-149583588D01*
X177205058Y-149516156D01*
X177127530Y-149494433D01*
X176928357Y-149438628D01*
X176682805Y-149404878D01*
X176643678Y-149399500D01*
X176356322Y-149399500D01*
X176321922Y-149404228D01*
X176071642Y-149438628D01*
X175794942Y-149516156D01*
X175531371Y-149630640D01*
X175285858Y-149779940D01*
X175062945Y-149961293D01*
X174866808Y-150171304D01*
X174701102Y-150406058D01*
X174701098Y-150406064D01*
X174701099Y-150406064D01*
X174568896Y-150661203D01*
X174568894Y-150661206D01*
X174568895Y-150661206D01*
X174472664Y-150931971D01*
X174414201Y-151213312D01*
X174394592Y-151500000D01*
X168605408Y-151500000D01*
X168585798Y-151213314D01*
X168527334Y-150931968D01*
X168431104Y-150661203D01*
X168298901Y-150406064D01*
X168298897Y-150406058D01*
X168133191Y-150171304D01*
X167937054Y-149961293D01*
X167714141Y-149779940D01*
X167468628Y-149630640D01*
X167360303Y-149583588D01*
X167205058Y-149516156D01*
X167127530Y-149494433D01*
X166928357Y-149438628D01*
X166682805Y-149404878D01*
X166643678Y-149399500D01*
X166356322Y-149399500D01*
X166321922Y-149404228D01*
X166071642Y-149438628D01*
X165794942Y-149516156D01*
X165531371Y-149630640D01*
X165285858Y-149779940D01*
X165062945Y-149961293D01*
X164866808Y-150171304D01*
X164701102Y-150406058D01*
X164701098Y-150406064D01*
X164701099Y-150406064D01*
X164568896Y-150661203D01*
X164568894Y-150661206D01*
X164568895Y-150661206D01*
X164472664Y-150931971D01*
X164414201Y-151213312D01*
X164394592Y-151500000D01*
X158605408Y-151500000D01*
X158585798Y-151213314D01*
X158527334Y-150931968D01*
X158431104Y-150661203D01*
X158298901Y-150406064D01*
X158298897Y-150406058D01*
X158133191Y-150171304D01*
X157937054Y-149961293D01*
X157714141Y-149779940D01*
X157468628Y-149630640D01*
X157360303Y-149583588D01*
X157205058Y-149516156D01*
X157127530Y-149494433D01*
X156928357Y-149438628D01*
X156682805Y-149404878D01*
X156643678Y-149399500D01*
X156356322Y-149399500D01*
X156321922Y-149404228D01*
X156071642Y-149438628D01*
X155794942Y-149516156D01*
X155531371Y-149630640D01*
X155285858Y-149779940D01*
X155062945Y-149961293D01*
X154866808Y-150171304D01*
X154701102Y-150406058D01*
X154701098Y-150406064D01*
X154701099Y-150406064D01*
X154568896Y-150661203D01*
X154568894Y-150661206D01*
X154568895Y-150661206D01*
X154472664Y-150931971D01*
X154414201Y-151213312D01*
X154394592Y-151500000D01*
X148605408Y-151500000D01*
X148585798Y-151213314D01*
X148527334Y-150931968D01*
X148431104Y-150661203D01*
X148298901Y-150406064D01*
X148298897Y-150406058D01*
X148133191Y-150171304D01*
X147937054Y-149961293D01*
X147714141Y-149779940D01*
X147468628Y-149630640D01*
X147360303Y-149583588D01*
X147205058Y-149516156D01*
X147127530Y-149494433D01*
X146928357Y-149438628D01*
X146682805Y-149404878D01*
X146643678Y-149399500D01*
X146356322Y-149399500D01*
X146321922Y-149404228D01*
X146071642Y-149438628D01*
X145794942Y-149516156D01*
X145531371Y-149630640D01*
X145285858Y-149779940D01*
X145062945Y-149961293D01*
X144866808Y-150171304D01*
X144701102Y-150406058D01*
X144701098Y-150406064D01*
X144701099Y-150406064D01*
X144568896Y-150661203D01*
X144568894Y-150661206D01*
X144568895Y-150661206D01*
X144472664Y-150931971D01*
X144414201Y-151213312D01*
X144394592Y-151500000D01*
X138605408Y-151500000D01*
X138585798Y-151213314D01*
X138527334Y-150931968D01*
X138431104Y-150661203D01*
X138298901Y-150406064D01*
X138298897Y-150406058D01*
X138133191Y-150171304D01*
X137937054Y-149961293D01*
X137714141Y-149779940D01*
X137468628Y-149630640D01*
X137360303Y-149583588D01*
X137205058Y-149516156D01*
X137127530Y-149494433D01*
X136928357Y-149438628D01*
X136682805Y-149404878D01*
X136643678Y-149399500D01*
X136356322Y-149399500D01*
X136321922Y-149404228D01*
X136071642Y-149438628D01*
X135794942Y-149516156D01*
X135531371Y-149630640D01*
X135285858Y-149779940D01*
X135062945Y-149961293D01*
X134866808Y-150171304D01*
X134701102Y-150406058D01*
X134701098Y-150406064D01*
X134701099Y-150406064D01*
X134568896Y-150661203D01*
X134568894Y-150661206D01*
X134568895Y-150661206D01*
X134472664Y-150931971D01*
X134414201Y-151213312D01*
X134394592Y-151500000D01*
X128605408Y-151500000D01*
X128585798Y-151213314D01*
X128527334Y-150931968D01*
X128431104Y-150661203D01*
X128298901Y-150406064D01*
X128298897Y-150406058D01*
X128133191Y-150171304D01*
X127937054Y-149961293D01*
X127714141Y-149779940D01*
X127468628Y-149630640D01*
X127360303Y-149583588D01*
X127205058Y-149516156D01*
X127127530Y-149494433D01*
X126928357Y-149438628D01*
X126682805Y-149404878D01*
X126643678Y-149399500D01*
X126356322Y-149399500D01*
X126321922Y-149404228D01*
X126071642Y-149438628D01*
X125794942Y-149516156D01*
X125531371Y-149630640D01*
X125285858Y-149779940D01*
X125062945Y-149961293D01*
X124866808Y-150171304D01*
X124701102Y-150406058D01*
X124701098Y-150406064D01*
X124701099Y-150406064D01*
X124568896Y-150661203D01*
X124568894Y-150661206D01*
X124568895Y-150661206D01*
X124472664Y-150931971D01*
X124414201Y-151213312D01*
X124394592Y-151500000D01*
X118605408Y-151500000D01*
X118585798Y-151213314D01*
X118527334Y-150931968D01*
X118431104Y-150661203D01*
X118298901Y-150406064D01*
X118298897Y-150406058D01*
X118133191Y-150171304D01*
X117937054Y-149961293D01*
X117714141Y-149779940D01*
X117468628Y-149630640D01*
X117360303Y-149583588D01*
X117205058Y-149516156D01*
X117127530Y-149494433D01*
X116928357Y-149438628D01*
X116682805Y-149404878D01*
X116643678Y-149399500D01*
X116356322Y-149399500D01*
X116321922Y-149404228D01*
X116071642Y-149438628D01*
X115794942Y-149516156D01*
X115531371Y-149630640D01*
X115285858Y-149779940D01*
X115062945Y-149961293D01*
X114866808Y-150171304D01*
X114701102Y-150406058D01*
X114701098Y-150406064D01*
X114701099Y-150406064D01*
X114568896Y-150661203D01*
X114568894Y-150661206D01*
X114568895Y-150661206D01*
X114472664Y-150931971D01*
X114414201Y-151213312D01*
X114394592Y-151500000D01*
X108605408Y-151500000D01*
X108585798Y-151213314D01*
X108527334Y-150931968D01*
X108431104Y-150661203D01*
X108298901Y-150406064D01*
X108298897Y-150406058D01*
X108133191Y-150171304D01*
X107937054Y-149961293D01*
X107714141Y-149779940D01*
X107468628Y-149630640D01*
X107360303Y-149583588D01*
X107205058Y-149516156D01*
X107127530Y-149494433D01*
X106928357Y-149438628D01*
X106682805Y-149404878D01*
X106643678Y-149399500D01*
X106356322Y-149399500D01*
X106321922Y-149404228D01*
X106071642Y-149438628D01*
X105794942Y-149516156D01*
X105531371Y-149630640D01*
X105285858Y-149779940D01*
X105062945Y-149961293D01*
X104866808Y-150171304D01*
X104701102Y-150406058D01*
X104701098Y-150406064D01*
X104701099Y-150406064D01*
X104568896Y-150661203D01*
X104568894Y-150661206D01*
X104568895Y-150661206D01*
X104472664Y-150931971D01*
X104414201Y-151213312D01*
X104394592Y-151500000D01*
X93339447Y-151500000D01*
X92880854Y-150931971D01*
X88033006Y-144927257D01*
X88016673Y-144897999D01*
X88011036Y-144864970D01*
X88016564Y-139573000D01*
X173940195Y-139573000D01*
X173961280Y-139706124D01*
X173961280Y-139706125D01*
X173961281Y-139706126D01*
X174022472Y-139826220D01*
X174117780Y-139921528D01*
X174237874Y-139982719D01*
X174371000Y-140003804D01*
X174504126Y-139982719D01*
X174624220Y-139921528D01*
X174719528Y-139826220D01*
X174780719Y-139706126D01*
X174801804Y-139573000D01*
X175083195Y-139573000D01*
X175104280Y-139706124D01*
X175104280Y-139706125D01*
X175104281Y-139706126D01*
X175165472Y-139826220D01*
X175260780Y-139921528D01*
X175380874Y-139982719D01*
X175514000Y-140003804D01*
X175647126Y-139982719D01*
X175767220Y-139921528D01*
X175862528Y-139826220D01*
X175923719Y-139706126D01*
X175944804Y-139573000D01*
X176226195Y-139573000D01*
X176247280Y-139706124D01*
X176247280Y-139706125D01*
X176247281Y-139706126D01*
X176308472Y-139826220D01*
X176403780Y-139921528D01*
X176523874Y-139982719D01*
X176657000Y-140003804D01*
X176790126Y-139982719D01*
X176910220Y-139921528D01*
X177005528Y-139826220D01*
X177066719Y-139706126D01*
X177087804Y-139573000D01*
X177066719Y-139439874D01*
X177005528Y-139319780D01*
X176910220Y-139224472D01*
X176790126Y-139163281D01*
X176790125Y-139163280D01*
X176790124Y-139163280D01*
X176657000Y-139142195D01*
X176523875Y-139163280D01*
X176403781Y-139224471D01*
X176308471Y-139319781D01*
X176247280Y-139439875D01*
X176226195Y-139573000D01*
X175944804Y-139573000D01*
X175923719Y-139439874D01*
X175862528Y-139319780D01*
X175767220Y-139224472D01*
X175647126Y-139163281D01*
X175647125Y-139163280D01*
X175647124Y-139163280D01*
X175514000Y-139142195D01*
X175380875Y-139163280D01*
X175260781Y-139224471D01*
X175165471Y-139319781D01*
X175104280Y-139439875D01*
X175083195Y-139573000D01*
X174801804Y-139573000D01*
X174780719Y-139439874D01*
X174719528Y-139319780D01*
X174624220Y-139224472D01*
X174504126Y-139163281D01*
X174504125Y-139163280D01*
X174504124Y-139163280D01*
X174371000Y-139142195D01*
X174237875Y-139163280D01*
X174117781Y-139224471D01*
X174022471Y-139319781D01*
X173961280Y-139439875D01*
X173940195Y-139573000D01*
X88016564Y-139573000D01*
X88024298Y-132168293D01*
X88039940Y-132114992D01*
X88081830Y-132078504D01*
X88136774Y-132070323D01*
X88356322Y-132100500D01*
X88643677Y-132100500D01*
X88643678Y-132100500D01*
X88928358Y-132061371D01*
X89205058Y-131983844D01*
X89468625Y-131869361D01*
X89550465Y-131819592D01*
X89714141Y-131720059D01*
X89714142Y-131720057D01*
X89714147Y-131720055D01*
X89937053Y-131538708D01*
X90133189Y-131328698D01*
X90298901Y-131093936D01*
X90431104Y-130838797D01*
X90527334Y-130568032D01*
X90585798Y-130286686D01*
X90605408Y-130000000D01*
X90585798Y-129713314D01*
X90549945Y-129540780D01*
X90527335Y-129431971D01*
X90502892Y-129363196D01*
X90431104Y-129161203D01*
X90298901Y-128906064D01*
X90298897Y-128906058D01*
X90133191Y-128671304D01*
X89937054Y-128461293D01*
X89714141Y-128279940D01*
X89468628Y-128130640D01*
X89279457Y-128048472D01*
X89205058Y-128016156D01*
X89102001Y-127987281D01*
X88928357Y-127938628D01*
X88682805Y-127904878D01*
X88643678Y-127899500D01*
X88356322Y-127899500D01*
X88293894Y-127908080D01*
X88141309Y-127929053D01*
X88086298Y-127920843D01*
X88044396Y-127884268D01*
X88028828Y-127830874D01*
X88034741Y-122169731D01*
X88050384Y-122116428D01*
X88092274Y-122079940D01*
X88147220Y-122071759D01*
X88356322Y-122100500D01*
X88643677Y-122100500D01*
X88643678Y-122100500D01*
X88928358Y-122061371D01*
X89205058Y-121983844D01*
X89468625Y-121869361D01*
X89634740Y-121768344D01*
X89714141Y-121720059D01*
X89714142Y-121720057D01*
X89714147Y-121720055D01*
X89937053Y-121538708D01*
X90133189Y-121328698D01*
X90298901Y-121093936D01*
X90431104Y-120838797D01*
X90527334Y-120568032D01*
X90585798Y-120286686D01*
X90605408Y-120000000D01*
X90585798Y-119713314D01*
X90527334Y-119431968D01*
X90431104Y-119161203D01*
X90298901Y-118906064D01*
X90184660Y-118744220D01*
X90133191Y-118671304D01*
X89937054Y-118461293D01*
X89933655Y-118458528D01*
X89714147Y-118279945D01*
X89714141Y-118279940D01*
X89468628Y-118130640D01*
X89354991Y-118081281D01*
X89205058Y-118016156D01*
X89127530Y-117994433D01*
X88928357Y-117938628D01*
X88682805Y-117904878D01*
X88643678Y-117899500D01*
X88356322Y-117899500D01*
X88151754Y-117927617D01*
X88096744Y-117919407D01*
X88054842Y-117882832D01*
X88039275Y-117829439D01*
X88045185Y-112171164D01*
X88060827Y-112117863D01*
X88102717Y-112081375D01*
X88157662Y-112073194D01*
X88356322Y-112100500D01*
X88643677Y-112100500D01*
X88643678Y-112100500D01*
X88928358Y-112061371D01*
X89205058Y-111983844D01*
X89468625Y-111869361D01*
X89600411Y-111789220D01*
X89714141Y-111720059D01*
X89714142Y-111720057D01*
X89714147Y-111720055D01*
X89937053Y-111538708D01*
X90133189Y-111328698D01*
X90298901Y-111093936D01*
X90431104Y-110838797D01*
X90527334Y-110568032D01*
X90585798Y-110286686D01*
X90605408Y-110000000D01*
X90585798Y-109713314D01*
X90546498Y-109524193D01*
X90527335Y-109431971D01*
X90494959Y-109340874D01*
X90431104Y-109161203D01*
X90298901Y-108906064D01*
X90219249Y-108793222D01*
X90133191Y-108671304D01*
X89937054Y-108461293D01*
X89714141Y-108279940D01*
X89468628Y-108130640D01*
X89360303Y-108083588D01*
X89205058Y-108016156D01*
X89127530Y-107994433D01*
X88928357Y-107938628D01*
X88682805Y-107904878D01*
X88643678Y-107899500D01*
X88356322Y-107899500D01*
X88162201Y-107926181D01*
X88107191Y-107917971D01*
X88065289Y-107881396D01*
X88049721Y-107828002D01*
X88055628Y-102172602D01*
X88071271Y-102119299D01*
X88113161Y-102082811D01*
X88168107Y-102074630D01*
X88356322Y-102100500D01*
X88643677Y-102100500D01*
X88643678Y-102100500D01*
X88928358Y-102061371D01*
X89205058Y-101983844D01*
X89468625Y-101869361D01*
X89620828Y-101776804D01*
X89714141Y-101720059D01*
X89714142Y-101720057D01*
X89714147Y-101720055D01*
X89937053Y-101538708D01*
X90133189Y-101328698D01*
X90298901Y-101093936D01*
X90431104Y-100838797D01*
X90527334Y-100568032D01*
X90543659Y-100489472D01*
X90585798Y-100286687D01*
X90594927Y-100153220D01*
X90605408Y-100000000D01*
X90585798Y-99713314D01*
X90571972Y-99646780D01*
X90527335Y-99431971D01*
X90485408Y-99314000D01*
X90431104Y-99161203D01*
X90298901Y-98906064D01*
X90298897Y-98906058D01*
X90133191Y-98671304D01*
X89937054Y-98461293D01*
X89714141Y-98279940D01*
X89468628Y-98130640D01*
X89360303Y-98083588D01*
X89205058Y-98016156D01*
X89127529Y-97994433D01*
X88928357Y-97938628D01*
X88682805Y-97904878D01*
X88643678Y-97899500D01*
X88356322Y-97899500D01*
X88172647Y-97924745D01*
X88117637Y-97916536D01*
X88075735Y-97879961D01*
X88060168Y-97826568D01*
X88066072Y-92174036D01*
X88081714Y-92120734D01*
X88123604Y-92084246D01*
X88178549Y-92076065D01*
X88356322Y-92100500D01*
X88643677Y-92100500D01*
X88643678Y-92100500D01*
X88928358Y-92061371D01*
X89205058Y-91983844D01*
X89468625Y-91869361D01*
X89659610Y-91753220D01*
X89714141Y-91720059D01*
X89714142Y-91720057D01*
X89714147Y-91720055D01*
X89937053Y-91538708D01*
X90133189Y-91328698D01*
X90298901Y-91093936D01*
X90431104Y-90838797D01*
X90527334Y-90568032D01*
X90572957Y-90348483D01*
X90585798Y-90286687D01*
X90587053Y-90268332D01*
X90605408Y-90000000D01*
X90585798Y-89713314D01*
X90575866Y-89665519D01*
X90527335Y-89431971D01*
X90497679Y-89348528D01*
X90431104Y-89161203D01*
X90298901Y-88906064D01*
X90146586Y-88690281D01*
X90133191Y-88671304D01*
X89937054Y-88461293D01*
X89714141Y-88279940D01*
X89468628Y-88130640D01*
X89298941Y-88056935D01*
X89205058Y-88016156D01*
X89127530Y-87994433D01*
X88928357Y-87938628D01*
X88650953Y-87900500D01*
X88643678Y-87899500D01*
X88356322Y-87899500D01*
X88183093Y-87923309D01*
X88128083Y-87915099D01*
X88086181Y-87878524D01*
X88070614Y-87825133D01*
X88076515Y-82175473D01*
X88092158Y-82122170D01*
X88134048Y-82085682D01*
X88188995Y-82077501D01*
X88356322Y-82100500D01*
X88643677Y-82100500D01*
X88643678Y-82100500D01*
X88928358Y-82061371D01*
X89205058Y-81983844D01*
X89468625Y-81869361D01*
X89550465Y-81819592D01*
X89714141Y-81720059D01*
X89714142Y-81720057D01*
X89714147Y-81720055D01*
X89937053Y-81538708D01*
X90133189Y-81328698D01*
X90298901Y-81093936D01*
X90431104Y-80838797D01*
X90527334Y-80568032D01*
X90536458Y-80524126D01*
X90585798Y-80286687D01*
X90594260Y-80162972D01*
X90605408Y-80000000D01*
X90585798Y-79713314D01*
X90527334Y-79431968D01*
X90431104Y-79161203D01*
X90298901Y-78906064D01*
X90258288Y-78848528D01*
X90133191Y-78671304D01*
X89937054Y-78461293D01*
X89714141Y-78279940D01*
X89468628Y-78130640D01*
X89360303Y-78083588D01*
X89205058Y-78016156D01*
X89127530Y-77994433D01*
X88928357Y-77938628D01*
X88682806Y-77904878D01*
X88643678Y-77899500D01*
X88356322Y-77899500D01*
X88193540Y-77921873D01*
X88138530Y-77913663D01*
X88096628Y-77877088D01*
X88081061Y-77823695D01*
X88086959Y-72176907D01*
X88102601Y-72123605D01*
X88144491Y-72087117D01*
X88199436Y-72078936D01*
X88356322Y-72100500D01*
X88643677Y-72100500D01*
X88643678Y-72100500D01*
X88928358Y-72061371D01*
X89205058Y-71983844D01*
X89468625Y-71869361D01*
X89554321Y-71817248D01*
X89714141Y-71720059D01*
X89714142Y-71720057D01*
X89714147Y-71720055D01*
X89937053Y-71538708D01*
X90133189Y-71328698D01*
X90298901Y-71093936D01*
X90431104Y-70838797D01*
X90527334Y-70568032D01*
X90585798Y-70286686D01*
X90605408Y-70000000D01*
X90585798Y-69713314D01*
X90561342Y-69595626D01*
X90527335Y-69431971D01*
X90490872Y-69329374D01*
X90431104Y-69161203D01*
X90298901Y-68906064D01*
X90186467Y-68746780D01*
X90133191Y-68671304D01*
X89937054Y-68461293D01*
X89714141Y-68279940D01*
X89468628Y-68130640D01*
X89360303Y-68083588D01*
X89205058Y-68016156D01*
X89127530Y-67994433D01*
X88928357Y-67938628D01*
X88682805Y-67904878D01*
X88643678Y-67899500D01*
X88356322Y-67899500D01*
X88203986Y-67920437D01*
X88148976Y-67912227D01*
X88107074Y-67875652D01*
X88091507Y-67822261D01*
X88097402Y-62178344D01*
X88113045Y-62125041D01*
X88154935Y-62088553D01*
X88209882Y-62080372D01*
X88356322Y-62100500D01*
X88643677Y-62100500D01*
X88643678Y-62100500D01*
X88928358Y-62061371D01*
X89205058Y-61983844D01*
X89468625Y-61869361D01*
X89603160Y-61787548D01*
X89714141Y-61720059D01*
X89714142Y-61720057D01*
X89714147Y-61720055D01*
X89937053Y-61538708D01*
X90133189Y-61328698D01*
X90298901Y-61093936D01*
X90431104Y-60838797D01*
X90527334Y-60568032D01*
X90585798Y-60286686D01*
X90605408Y-60000000D01*
X90585798Y-59713314D01*
X90572947Y-59651472D01*
X90527335Y-59431971D01*
X90483631Y-59309000D01*
X90431104Y-59161203D01*
X90298901Y-58906064D01*
X90170249Y-58723804D01*
X90133191Y-58671304D01*
X89937054Y-58461293D01*
X89714141Y-58279940D01*
X89468628Y-58130640D01*
X89360303Y-58083588D01*
X89205058Y-58016156D01*
X89127529Y-57994433D01*
X88928357Y-57938628D01*
X88682805Y-57904878D01*
X88643678Y-57899500D01*
X88356322Y-57899500D01*
X88214433Y-57919001D01*
X88159423Y-57910791D01*
X88117521Y-57874216D01*
X88101954Y-57820823D01*
X88110932Y-49224452D01*
X88124198Y-49175054D01*
X88160352Y-49138869D01*
X88209741Y-49125559D01*
X98236755Y-49106275D01*
X98284695Y-49118553D01*
G37*
%TD.AperFunction*%
%TD*%
%TA.AperFunction,Conductor*%
%TO.N,Vdrive*%
G36*
X98331703Y-64392932D02*
G01*
X98332446Y-64396106D01*
X98333582Y-64401677D01*
X98347106Y-64479340D01*
X98361282Y-64521323D01*
X98363879Y-64530433D01*
X98373977Y-64573582D01*
X98373979Y-64573586D01*
X98399293Y-64636396D01*
X98403445Y-64646696D01*
X98405418Y-64652030D01*
X98430643Y-64726730D01*
X98451061Y-64766056D01*
X98455021Y-64774666D01*
X98471586Y-64815768D01*
X98511878Y-64883541D01*
X98514624Y-64888476D01*
X98550964Y-64958465D01*
X98577142Y-64994208D01*
X98582369Y-65002112D01*
X98605019Y-65040211D01*
X98655181Y-65101035D01*
X98658664Y-65105514D01*
X98705249Y-65169119D01*
X98736599Y-65200469D01*
X98742954Y-65207464D01*
X98757141Y-65224668D01*
X98771147Y-65241652D01*
X98829988Y-65294090D01*
X98834125Y-65297995D01*
X129220626Y-95684496D01*
X129229355Y-95694483D01*
X129235249Y-95702215D01*
X129316897Y-95780794D01*
X129318249Y-95782119D01*
X129352152Y-95816022D01*
X129352157Y-95816026D01*
X129362359Y-95824773D01*
X129366570Y-95828599D01*
X129412314Y-95872622D01*
X129423386Y-95883278D01*
X129459652Y-95908786D01*
X129467099Y-95914576D01*
X129500751Y-95943430D01*
X129500756Y-95943433D01*
X129567736Y-95985011D01*
X129572469Y-95988140D01*
X129636956Y-96033499D01*
X129676684Y-96053169D01*
X129684929Y-96057755D01*
X129722596Y-96081137D01*
X129795156Y-96112010D01*
X129800277Y-96114365D01*
X129870953Y-96149359D01*
X129913207Y-96162731D01*
X129922078Y-96166013D01*
X129962862Y-96183366D01*
X130025830Y-96199379D01*
X130039273Y-96202798D01*
X130044738Y-96204356D01*
X130119895Y-96228141D01*
X130163681Y-96234903D01*
X130172961Y-96236795D01*
X130215917Y-96247720D01*
X130294399Y-96255259D01*
X130299999Y-96255960D01*
X130377945Y-96268000D01*
X130422261Y-96268000D01*
X130431729Y-96268454D01*
X130435659Y-96268831D01*
X130475831Y-96272691D01*
X130554531Y-96268163D01*
X130560218Y-96268000D01*
X133866070Y-96268000D01*
X133901832Y-96274685D01*
X133932764Y-96293837D01*
X137445582Y-99496044D01*
X137465096Y-99520533D01*
X137475986Y-99549893D01*
X137519919Y-99770753D01*
X137608194Y-100030804D01*
X137612641Y-100043902D01*
X137740222Y-100302611D01*
X137865079Y-100489472D01*
X137900482Y-100542457D01*
X138090672Y-100759327D01*
X138307542Y-100949517D01*
X138307544Y-100949518D01*
X138307546Y-100949520D01*
X138547389Y-101109778D01*
X138806098Y-101237359D01*
X139079247Y-101330081D01*
X139362161Y-101386356D01*
X139496828Y-101395182D01*
X139529115Y-101402874D01*
X139557046Y-101420807D01*
X162207955Y-122068870D01*
X162366222Y-122213142D01*
X162391350Y-122249296D01*
X162397584Y-122264764D01*
X162437878Y-122332541D01*
X162440624Y-122337476D01*
X162476964Y-122407465D01*
X162503142Y-122443208D01*
X162508369Y-122451112D01*
X162531019Y-122489211D01*
X162581181Y-122550035D01*
X162584664Y-122554514D01*
X162631249Y-122618119D01*
X162662599Y-122649469D01*
X162668954Y-122656464D01*
X162683141Y-122673668D01*
X162697147Y-122690652D01*
X162755988Y-122743090D01*
X162760125Y-122746995D01*
X177868044Y-137854914D01*
X177889871Y-137887931D01*
X177897021Y-137926859D01*
X177889389Y-138316130D01*
X177872965Y-139153752D01*
X177800000Y-139142195D01*
X177666875Y-139163280D01*
X177546781Y-139224471D01*
X177451471Y-139319781D01*
X177390280Y-139439875D01*
X177369195Y-139573000D01*
X177390280Y-139706124D01*
X177390280Y-139706125D01*
X177390281Y-139706126D01*
X177451472Y-139826220D01*
X177546780Y-139921528D01*
X177666874Y-139982719D01*
X177800000Y-140003804D01*
X177856471Y-139994859D01*
X177800000Y-142875000D01*
X97790000Y-142240000D01*
X97758853Y-139573000D01*
X173940195Y-139573000D01*
X173961280Y-139706124D01*
X173961280Y-139706125D01*
X173961281Y-139706126D01*
X174022472Y-139826220D01*
X174117780Y-139921528D01*
X174237874Y-139982719D01*
X174371000Y-140003804D01*
X174504126Y-139982719D01*
X174624220Y-139921528D01*
X174719528Y-139826220D01*
X174780719Y-139706126D01*
X174801804Y-139573000D01*
X175083195Y-139573000D01*
X175104280Y-139706124D01*
X175104280Y-139706125D01*
X175104281Y-139706126D01*
X175165472Y-139826220D01*
X175260780Y-139921528D01*
X175380874Y-139982719D01*
X175514000Y-140003804D01*
X175647126Y-139982719D01*
X175767220Y-139921528D01*
X175862528Y-139826220D01*
X175923719Y-139706126D01*
X175944804Y-139573000D01*
X176226195Y-139573000D01*
X176247280Y-139706124D01*
X176247280Y-139706125D01*
X176247281Y-139706126D01*
X176308472Y-139826220D01*
X176403780Y-139921528D01*
X176523874Y-139982719D01*
X176657000Y-140003804D01*
X176790126Y-139982719D01*
X176910220Y-139921528D01*
X177005528Y-139826220D01*
X177066719Y-139706126D01*
X177087804Y-139573000D01*
X177066719Y-139439874D01*
X177005528Y-139319780D01*
X176910220Y-139224472D01*
X176790126Y-139163281D01*
X176790125Y-139163280D01*
X176790124Y-139163280D01*
X176657000Y-139142195D01*
X176523875Y-139163280D01*
X176403781Y-139224471D01*
X176308471Y-139319781D01*
X176247280Y-139439875D01*
X176226195Y-139573000D01*
X175944804Y-139573000D01*
X175923719Y-139439874D01*
X175862528Y-139319780D01*
X175767220Y-139224472D01*
X175647126Y-139163281D01*
X175647125Y-139163280D01*
X175647124Y-139163280D01*
X175514000Y-139142195D01*
X175380875Y-139163280D01*
X175260781Y-139224471D01*
X175165471Y-139319781D01*
X175104280Y-139439875D01*
X175083195Y-139573000D01*
X174801804Y-139573000D01*
X174780719Y-139439874D01*
X174719528Y-139319780D01*
X174624220Y-139224472D01*
X174504126Y-139163281D01*
X174504125Y-139163280D01*
X174504124Y-139163280D01*
X174371000Y-139142195D01*
X174237875Y-139163280D01*
X174117781Y-139224471D01*
X174022471Y-139319781D01*
X173961280Y-139439875D01*
X173940195Y-139573000D01*
X97758853Y-139573000D01*
X97619435Y-127635000D01*
X157557195Y-127635000D01*
X157578280Y-127768124D01*
X157578280Y-127768125D01*
X157578281Y-127768126D01*
X157639472Y-127888220D01*
X157734780Y-127983528D01*
X157854874Y-128044719D01*
X157988000Y-128065804D01*
X158121126Y-128044719D01*
X158241220Y-127983528D01*
X158336528Y-127888220D01*
X158397719Y-127768126D01*
X158418804Y-127635000D01*
X159970195Y-127635000D01*
X159991280Y-127768124D01*
X159991280Y-127768125D01*
X159991281Y-127768126D01*
X160052472Y-127888220D01*
X160147780Y-127983528D01*
X160267874Y-128044719D01*
X160401000Y-128065804D01*
X160534126Y-128044719D01*
X160654220Y-127983528D01*
X160749528Y-127888220D01*
X160810719Y-127768126D01*
X160831804Y-127635000D01*
X162383195Y-127635000D01*
X162404280Y-127768124D01*
X162404280Y-127768125D01*
X162404281Y-127768126D01*
X162465472Y-127888220D01*
X162560780Y-127983528D01*
X162680874Y-128044719D01*
X162814000Y-128065804D01*
X162947126Y-128044719D01*
X163067220Y-127983528D01*
X163162528Y-127888220D01*
X163223719Y-127768126D01*
X163244804Y-127635000D01*
X163223719Y-127501874D01*
X163162528Y-127381780D01*
X163067220Y-127286472D01*
X162947126Y-127225281D01*
X162947125Y-127225280D01*
X162947124Y-127225280D01*
X162814000Y-127204195D01*
X162680875Y-127225280D01*
X162560781Y-127286471D01*
X162465471Y-127381781D01*
X162404280Y-127501875D01*
X162383195Y-127635000D01*
X160831804Y-127635000D01*
X160810719Y-127501874D01*
X160749528Y-127381780D01*
X160654220Y-127286472D01*
X160534126Y-127225281D01*
X160534125Y-127225280D01*
X160534124Y-127225280D01*
X160401000Y-127204195D01*
X160267875Y-127225280D01*
X160147781Y-127286471D01*
X160052471Y-127381781D01*
X159991280Y-127501875D01*
X159970195Y-127635000D01*
X158418804Y-127635000D01*
X158397719Y-127501874D01*
X158336528Y-127381780D01*
X158241220Y-127286472D01*
X158121126Y-127225281D01*
X158121125Y-127225280D01*
X158121124Y-127225280D01*
X157988000Y-127204195D01*
X157854875Y-127225280D01*
X157734781Y-127286471D01*
X157639471Y-127381781D01*
X157578280Y-127501875D01*
X157557195Y-127635000D01*
X97619435Y-127635000D01*
X97577906Y-124079000D01*
X155779195Y-124079000D01*
X155800280Y-124212124D01*
X155800280Y-124212125D01*
X155800281Y-124212126D01*
X155861472Y-124332220D01*
X155956780Y-124427528D01*
X156076874Y-124488719D01*
X156210000Y-124509804D01*
X156343126Y-124488719D01*
X156463220Y-124427528D01*
X156558528Y-124332220D01*
X156619719Y-124212126D01*
X156640804Y-124079000D01*
X156619719Y-123945874D01*
X156558528Y-123825780D01*
X156463220Y-123730472D01*
X156343126Y-123669281D01*
X156343125Y-123669280D01*
X156343124Y-123669280D01*
X156210000Y-123648195D01*
X156076875Y-123669280D01*
X155956781Y-123730471D01*
X155861471Y-123825781D01*
X155800280Y-123945875D01*
X155779195Y-124079000D01*
X97577906Y-124079000D01*
X97558056Y-122379330D01*
X157980207Y-122379330D01*
X158001292Y-122512454D01*
X158001292Y-122512455D01*
X158001293Y-122512456D01*
X158062484Y-122632550D01*
X158157792Y-122727858D01*
X158277886Y-122789049D01*
X158411012Y-122810134D01*
X158544138Y-122789049D01*
X158544140Y-122789047D01*
X158554309Y-122787437D01*
X158585999Y-122779830D01*
X160145429Y-122779830D01*
X160183315Y-122787366D01*
X160215433Y-122808826D01*
X161655657Y-124249049D01*
X161673860Y-124274104D01*
X161703472Y-124332220D01*
X161798780Y-124427528D01*
X161918874Y-124488719D01*
X162052000Y-124509804D01*
X162185126Y-124488719D01*
X162305220Y-124427528D01*
X162400528Y-124332220D01*
X162461719Y-124212126D01*
X162482804Y-124079000D01*
X162461719Y-123945874D01*
X162400528Y-123825780D01*
X162305220Y-123730472D01*
X162247104Y-123700860D01*
X162222049Y-123682657D01*
X160608264Y-122068871D01*
X160608264Y-122068870D01*
X160608261Y-122068868D01*
X160590672Y-122051279D01*
X160569180Y-122040328D01*
X160555940Y-122032215D01*
X160536420Y-122018034D01*
X160513471Y-122010577D01*
X160499126Y-122004635D01*
X160477634Y-121993684D01*
X160477633Y-121993683D01*
X160477632Y-121993683D01*
X160453804Y-121989909D01*
X160438703Y-121986283D01*
X160415763Y-121978830D01*
X160383849Y-121978830D01*
X158585999Y-121978830D01*
X158554309Y-121971222D01*
X158411012Y-121948525D01*
X158277887Y-121969610D01*
X158157793Y-122030801D01*
X158062483Y-122126111D01*
X158001292Y-122246205D01*
X157980207Y-122379330D01*
X97558056Y-122379330D01*
X97392462Y-108199999D01*
X135459195Y-108199999D01*
X135480280Y-108333124D01*
X135480280Y-108333125D01*
X135480281Y-108333126D01*
X135541472Y-108453220D01*
X135636780Y-108548528D01*
X135756874Y-108609719D01*
X135890000Y-108630804D01*
X136023126Y-108609719D01*
X136143220Y-108548528D01*
X136238528Y-108453220D01*
X136299719Y-108333126D01*
X136320804Y-108200000D01*
X136316294Y-108171528D01*
X136299719Y-108066875D01*
X136299719Y-108066874D01*
X136238528Y-107946780D01*
X136143220Y-107851472D01*
X136023126Y-107790281D01*
X136023125Y-107790280D01*
X136023124Y-107790280D01*
X135890000Y-107769195D01*
X135756875Y-107790280D01*
X135636781Y-107851471D01*
X135541471Y-107946781D01*
X135480280Y-108066875D01*
X135459195Y-108199999D01*
X97392462Y-108199999D01*
X97242976Y-95400000D01*
X115544357Y-95400000D01*
X115564885Y-95621536D01*
X115623240Y-95826633D01*
X115625772Y-95835530D01*
X115724940Y-96034686D01*
X115724941Y-96034687D01*
X115724942Y-96034689D01*
X115859019Y-96212236D01*
X116023438Y-96362124D01*
X116212599Y-96479247D01*
X116420060Y-96559618D01*
X116420063Y-96559619D01*
X116638755Y-96600500D01*
X116638757Y-96600500D01*
X116861243Y-96600500D01*
X116861245Y-96600500D01*
X117079936Y-96559619D01*
X117079937Y-96559618D01*
X117079940Y-96559618D01*
X117287401Y-96479247D01*
X117476562Y-96362124D01*
X117640981Y-96212236D01*
X117775058Y-96034689D01*
X117874229Y-95835528D01*
X117935115Y-95621536D01*
X117955643Y-95400000D01*
X117935115Y-95178464D01*
X117874229Y-94964472D01*
X117775058Y-94765311D01*
X117640981Y-94587764D01*
X117476562Y-94437876D01*
X117287401Y-94320753D01*
X117287399Y-94320752D01*
X117079936Y-94240380D01*
X116861245Y-94199500D01*
X116861243Y-94199500D01*
X116638757Y-94199500D01*
X116638755Y-94199500D01*
X116420063Y-94240380D01*
X116212600Y-94320752D01*
X116023436Y-94437877D01*
X115859020Y-94587763D01*
X115724940Y-94765313D01*
X115625772Y-94964469D01*
X115625771Y-94964472D01*
X115578923Y-95129126D01*
X115564885Y-95178464D01*
X115546561Y-95376220D01*
X115544357Y-95400000D01*
X97242976Y-95400000D01*
X97220787Y-93500000D01*
X122069195Y-93500000D01*
X122090280Y-93633124D01*
X122090280Y-93633125D01*
X122090281Y-93633126D01*
X122151472Y-93753220D01*
X122246780Y-93848528D01*
X122366874Y-93909719D01*
X122500000Y-93930804D01*
X122633126Y-93909719D01*
X122753220Y-93848528D01*
X122848528Y-93753220D01*
X122909719Y-93633126D01*
X122930804Y-93500000D01*
X122909719Y-93366874D01*
X122848528Y-93246780D01*
X122753220Y-93151472D01*
X122633126Y-93090281D01*
X122633125Y-93090280D01*
X122633124Y-93090280D01*
X122500000Y-93069195D01*
X122366875Y-93090280D01*
X122246781Y-93151471D01*
X122151471Y-93246781D01*
X122090280Y-93366875D01*
X122069195Y-93500000D01*
X97220787Y-93500000D01*
X97123855Y-85200000D01*
X115544357Y-85200000D01*
X115564885Y-85421535D01*
X115625772Y-85635530D01*
X115724940Y-85834686D01*
X115724941Y-85834687D01*
X115724942Y-85834689D01*
X115859019Y-86012236D01*
X116023438Y-86162124D01*
X116212599Y-86279247D01*
X116403545Y-86353220D01*
X116420063Y-86359619D01*
X116638755Y-86400500D01*
X116638757Y-86400500D01*
X116861243Y-86400500D01*
X116861245Y-86400500D01*
X117079936Y-86359619D01*
X117079937Y-86359618D01*
X117079940Y-86359618D01*
X117287401Y-86279247D01*
X117476562Y-86162124D01*
X117640981Y-86012236D01*
X117775058Y-85834689D01*
X117874229Y-85635528D01*
X117935115Y-85421536D01*
X117955643Y-85200000D01*
X117935115Y-84978464D01*
X117874229Y-84764472D01*
X117775058Y-84565311D01*
X117640981Y-84387764D01*
X117476562Y-84237876D01*
X117287401Y-84120753D01*
X117287399Y-84120752D01*
X117079936Y-84040380D01*
X116861245Y-83999500D01*
X116861243Y-83999500D01*
X116638757Y-83999500D01*
X116638755Y-83999500D01*
X116420063Y-84040380D01*
X116212600Y-84120752D01*
X116023436Y-84237877D01*
X115859020Y-84387763D01*
X115724940Y-84565313D01*
X115625772Y-84764469D01*
X115564885Y-84978464D01*
X115544357Y-85200000D01*
X97123855Y-85200000D01*
X97052188Y-79063338D01*
X97042768Y-76199999D01*
X106376195Y-76199999D01*
X106397280Y-76333124D01*
X106397280Y-76333125D01*
X106397281Y-76333126D01*
X106458472Y-76453220D01*
X106553780Y-76548528D01*
X106673874Y-76609719D01*
X106807000Y-76630804D01*
X106940126Y-76609719D01*
X107060220Y-76548528D01*
X107155528Y-76453220D01*
X107216719Y-76333126D01*
X107237804Y-76200000D01*
X107216719Y-76066874D01*
X107178029Y-75990941D01*
X107167240Y-75945999D01*
X107178031Y-75901055D01*
X107216719Y-75825126D01*
X107237804Y-75692000D01*
X107216719Y-75558874D01*
X107178030Y-75482943D01*
X107167240Y-75438000D01*
X107178030Y-75393056D01*
X107216719Y-75317126D01*
X107237804Y-75184000D01*
X107216719Y-75050874D01*
X107178030Y-74974943D01*
X107167240Y-74930000D01*
X107178031Y-74885055D01*
X107216719Y-74809126D01*
X107237804Y-74676000D01*
X107216719Y-74542874D01*
X107155528Y-74422780D01*
X107060220Y-74327472D01*
X106940126Y-74266281D01*
X106940125Y-74266280D01*
X106940124Y-74266280D01*
X106806999Y-74245195D01*
X106673875Y-74266280D01*
X106553781Y-74327471D01*
X106458471Y-74422781D01*
X106397280Y-74542875D01*
X106376195Y-74676000D01*
X106397280Y-74809124D01*
X106435969Y-74885055D01*
X106446759Y-74930000D01*
X106435969Y-74974945D01*
X106397280Y-75050875D01*
X106376195Y-75184000D01*
X106397280Y-75317124D01*
X106397280Y-75317125D01*
X106397281Y-75317126D01*
X106435969Y-75393056D01*
X106446759Y-75437999D01*
X106435969Y-75482943D01*
X106397281Y-75558873D01*
X106376195Y-75692000D01*
X106397280Y-75825124D01*
X106435969Y-75901055D01*
X106446759Y-75946000D01*
X106435969Y-75990945D01*
X106397280Y-76066875D01*
X106376195Y-76199999D01*
X97042768Y-76199999D01*
X97000000Y-63200000D01*
X98331703Y-64392932D01*
G37*
%TD.AperFunction*%
%TD*%
%TA.AperFunction,Conductor*%
%TO.N,VDESAFED*%
G36*
X143460500Y-57013263D02*
G01*
X143496737Y-57049500D01*
X143510000Y-57099000D01*
X143510000Y-57421578D01*
X143497231Y-57470212D01*
X143462217Y-57506300D01*
X143413135Y-57535971D01*
X143155969Y-57737447D01*
X142924947Y-57968469D01*
X142723471Y-58225635D01*
X142554455Y-58505220D01*
X142420371Y-58803141D01*
X142323178Y-59115048D01*
X142264289Y-59436395D01*
X142244563Y-59762500D01*
X142264289Y-60088604D01*
X142323178Y-60409951D01*
X142420371Y-60721858D01*
X142554454Y-61019778D01*
X142554455Y-61019779D01*
X142723470Y-61299363D01*
X142924952Y-61556536D01*
X143155964Y-61787548D01*
X143413137Y-61989030D01*
X143461978Y-62018555D01*
X143462217Y-62018700D01*
X143497231Y-62054788D01*
X143510000Y-62103422D01*
X143510000Y-84737000D01*
X143496737Y-84786500D01*
X143460500Y-84822737D01*
X143411000Y-84836000D01*
X123924908Y-84836000D01*
X123875147Y-84822586D01*
X123838872Y-84785978D01*
X123825912Y-84736097D01*
X123861785Y-80804648D01*
X123910829Y-75429891D01*
X123925659Y-75378670D01*
X123944165Y-75361650D01*
X123942131Y-75359616D01*
X123953217Y-75348529D01*
X123953220Y-75348528D01*
X124048528Y-75253220D01*
X124109719Y-75133126D01*
X124130804Y-75000000D01*
X124109719Y-74866874D01*
X124048528Y-74746780D01*
X123953220Y-74651472D01*
X123953217Y-74651470D01*
X123947621Y-74645874D01*
X123925989Y-74613338D01*
X123918630Y-74574975D01*
X124030632Y-62300649D01*
X124046736Y-62247426D01*
X124088996Y-62211279D01*
X124207279Y-62158045D01*
X124486863Y-61989030D01*
X124744036Y-61787548D01*
X124975048Y-61556536D01*
X125176530Y-61299363D01*
X125345545Y-61019779D01*
X125479627Y-60721861D01*
X125576821Y-60409953D01*
X125635710Y-60088604D01*
X125655436Y-59762500D01*
X125635710Y-59436396D01*
X125576821Y-59115047D01*
X125479627Y-58803139D01*
X125345545Y-58505221D01*
X125176530Y-58225637D01*
X124975048Y-57968464D01*
X124744036Y-57737452D01*
X124486863Y-57535970D01*
X124207279Y-57366955D01*
X124135143Y-57334489D01*
X124092393Y-57297582D01*
X124076779Y-57243309D01*
X124078104Y-57098096D01*
X124091667Y-57048979D01*
X124127862Y-57013113D01*
X124177101Y-57000000D01*
X143411000Y-57000000D01*
X143460500Y-57013263D01*
G37*
%TD.AperFunction*%
%TD*%
M02*
