M48
; DRILL file {KiCad 7.0.1-0} date 2023 March 21, Tuesday 21:14:59
; FORMAT={-:-/ absolute / metric / decimal}
; #@! TF.CreationDate,2023-03-21T21:14:59-05:00
; #@! TF.GenerationSoftware,Kicad,Pcbnew,7.0.1-0
; #@! TF.FileFunction,Plated,1,4,PTH
FMAT,2
METRIC
; #@! TA.AperFunction,Plated,PTH,ViaDrill
T1C0.200
; #@! TA.AperFunction,Plated,PTH,ComponentDrill
T2C0.600
; #@! TA.AperFunction,Plated,PTH,ComponentDrill
T3C1.090
; #@! TA.AperFunction,Plated,PTH,ComponentDrill
T4C1.100
; #@! TA.AperFunction,Plated,PTH,ComponentDrill
T5C1.300
; #@! TA.AperFunction,Plated,PTH,ComponentDrill
T6C2.100
; #@! TA.AperFunction,Plated,PTH,ComponentDrill
T7C2.700
; #@! TA.AperFunction,Plated,PTH,ComponentDrill
T8C3.050
; #@! TA.AperFunction,Plated,PTH,ComponentDrill
T9C3.200
; #@! TA.AperFunction,Plated,PTH,ComponentDrill
T10C3.800
; #@! TA.AperFunction,Plated,PTH,ComponentDrill
T11C4.500
%
G90
G05
T1
X84.0Y-156.0
X94.5Y-60.5
X94.5Y-61.0
X94.5Y-61.5
X94.5Y-62.0
X94.5Y-70.5
X94.5Y-71.0
X94.5Y-71.5
X94.5Y-72.0
X94.5Y-80.5
X94.5Y-81.0
X94.5Y-81.5
X94.5Y-82.0
X94.5Y-90.5
X94.5Y-91.0
X94.5Y-91.5
X94.5Y-92.0
X94.5Y-100.5
X94.5Y-101.0
X94.5Y-101.5
X94.5Y-102.0
X94.5Y-110.5
X94.5Y-111.0
X94.5Y-111.5
X94.5Y-112.0
X94.5Y-120.5
X94.5Y-121.0
X94.5Y-121.5
X94.5Y-122.0
X94.5Y-130.5
X94.5Y-131.0
X94.5Y-131.5
X94.5Y-132.0
X106.807Y-74.676
X106.807Y-75.184
X106.807Y-75.692
X106.807Y-76.2
X107.0Y-145.5
X107.5Y-145.5
X108.0Y-145.5
X108.5Y-145.5
X113.5Y-38.5
X117.0Y-145.5
X117.5Y-145.5
X118.0Y-145.5
X118.5Y-145.5
X120.523Y-71.501
X122.5Y-93.5
X123.0Y-38.5
X123.063Y-73.406
X123.7Y-75.0
X127.0Y-145.5
X127.5Y-145.5
X128.0Y-145.5
X128.5Y-145.5
X130.0Y-55.5
X135.0Y-38.5
X135.89Y-108.2
X137.0Y-145.5
X137.5Y-145.5
X138.0Y-145.5
X138.5Y-145.5
X140.5Y-55.5
X142.5Y-38.5
X144.0Y-71.5
X144.0Y-73.5
X144.0Y-76.0
X144.0Y-78.5
X147.0Y-145.5
X147.447Y-66.802
X147.5Y-83.0
X147.5Y-89.0
X147.5Y-93.5
X147.5Y-145.5
X148.0Y-55.5
X148.0Y-145.5
X148.5Y-145.5
X154.7Y-99.9
X155.0Y-72.5
X155.0Y-77.0
X155.067Y-104.394
X155.067Y-105.791
X156.21Y-124.079
X157.0Y-145.5
X157.099Y-105.029
X157.353Y-107.696
X157.5Y-145.5
X157.862Y-93.612
X157.988Y-127.635
X158.0Y-145.5
X158.3Y-99.6
X158.411Y-122.379
X158.5Y-145.5
X159.385Y-118.11
X159.6Y-81.5
X160.1Y-91.5
X160.225Y-95.275
X160.401Y-127.635
X160.5Y-37.5
X160.5Y-53.0
X160.528Y-114.554
X161.671Y-101.346
X161.798Y-110.617
X161.798Y-111.252
X161.798Y-111.887
X161.925Y-118.11
X162.0Y-63.5
X162.052Y-107.823
X162.052Y-124.079
X162.306Y-110.109
X162.433Y-68.834
X162.687Y-116.84
X162.814Y-127.635
X162.941Y-110.109
X163.0Y-74.554
X163.068Y-86.614
X163.068Y-116.332
X163.068Y-117.348
X163.449Y-116.84
X163.576Y-110.109
X163.83Y-53.086
X163.83Y-83.058
X163.83Y-103.124
X163.83Y-116.332
X163.83Y-117.348
X164.211Y-110.109
X164.211Y-116.84
X164.5Y-56.0
X164.592Y-116.332
X164.592Y-117.348
X164.973Y-116.84
X165.1Y-106.5
X165.354Y-84.6
X165.354Y-86.1
X165.354Y-87.6
X165.354Y-89.1
X165.354Y-90.6
X165.354Y-91.694
X165.354Y-93.98
X165.354Y-95.123
X165.674Y-102.489
X166.624Y-103.886
X167.0Y-145.5
X167.132Y-84.328
X167.5Y-145.5
X167.894Y-81.915
X167.894Y-94.107
X168.0Y-145.5
X168.021Y-100.838
X168.3Y-49.4
X168.3Y-60.0
X168.402Y-88.138
X168.402Y-117.221
X168.5Y-145.5
X168.529Y-94.107
X168.783Y-85.852
X169.164Y-88.138
X169.291Y-111.379
X169.418Y-85.852
X172.0Y-55.0
X172.339Y-91.821
X172.847Y-116.205
X173.0Y-72.35
X173.482Y-116.459
X173.863Y-80.391
X173.863Y-116.967
X173.99Y-70.485
X173.99Y-81.534
X174.0Y-51.0
X174.0Y-69.0
X174.371Y-117.348
X174.371Y-117.983
X174.371Y-118.618
X174.371Y-139.573
X174.498Y-92.964
X174.498Y-101.346
X174.625Y-94.996
X174.752Y-55.753
X174.752Y-83.439
X175.387Y-90.932
X175.387Y-99.314
X175.514Y-139.573
X175.641Y-55.118
X176.0Y-71.77
X176.276Y-102.743
X176.5Y-57.0
X176.657Y-139.573
X177.0Y-145.5
X177.292Y-53.721
X177.5Y-145.5
X177.8Y-139.573
X177.927Y-59.309
X178.0Y-145.5
X178.5Y-145.5
X178.784Y-139.573
X178.8Y-103.9
X178.943Y-50.546
X179.832Y-59.309
X180.721Y-125.857
X181.61Y-58.293
X181.61Y-99.314
X181.737Y-63.5
X181.737Y-92.583
X181.864Y-123.444
X181.864Y-129.794
X181.991Y-109.474
X181.991Y-116.459
X182.245Y-82.55
X182.372Y-76.454
X182.372Y-87.503
X182.562Y-63.944
X182.626Y-74.422
X182.753Y-118.491
X182.753Y-125.476
X182.85Y-111.506
X182.88Y-107.442
X182.88Y-114.427
X182.88Y-121.412
X183.261Y-128.397
X183.648Y-69.462
X183.648Y-80.511
X184.404Y-97.028
X184.5Y-38.0
X184.912Y-90.043
X185.166Y-85.217
X185.42Y-74.295
X185.547Y-95.25
X185.674Y-56.261
X185.674Y-91.821
X185.674Y-97.028
X186.817Y-105.41
X187.0Y-65.5
X187.198Y-101.05
X188.722Y-101.219
X189.103Y-109.22
X189.865Y-57.023
X190.5Y-58.5
X191.0Y-55.5
X192.357Y-60.071
X192.659Y-44.958
X193.167Y-42.291
X193.548Y-53.975
X193.929Y-56.134
X194.0Y-50.165
X194.5Y-52.0
X194.5Y-58.0
X195.0Y-55.5
X202.0Y-45.0
X202.5Y-59.5
T3
X170.96Y-46.346
X172.345Y-43.505
X173.73Y-46.346
X175.115Y-43.505
X176.5Y-46.346
X177.885Y-43.505
X179.27Y-46.346
X180.655Y-43.505
X182.04Y-46.346
T4
X116.75Y-85.2
X116.75Y-95.4
T5
X194.5Y-65.0
X194.5Y-70.0
X194.5Y-76.5
X194.5Y-81.5
X194.5Y-88.0
X194.5Y-93.0
X194.5Y-98.0
X194.5Y-104.5
X194.5Y-109.5
X194.5Y-114.5
X194.5Y-121.0
X194.5Y-126.0
X194.5Y-131.0
T6
X129.55Y-81.4
X132.05Y-99.2
X139.65Y-99.2
T7
X83.5Y-60.0
X83.5Y-70.0
X83.5Y-80.0
X83.5Y-90.0
X83.5Y-100.0
X83.5Y-110.0
X83.5Y-120.0
X83.5Y-130.0
X88.5Y-60.0
X88.5Y-70.0
X88.5Y-80.0
X88.5Y-90.0
X88.5Y-100.0
X88.5Y-110.0
X88.5Y-120.0
X88.5Y-130.0
X106.5Y-151.5
X106.5Y-156.5
X116.5Y-151.5
X116.5Y-156.5
X126.5Y-151.5
X126.5Y-156.5
X136.5Y-151.5
X136.5Y-156.5
X146.5Y-151.5
X146.5Y-156.5
X156.5Y-151.5
X156.5Y-156.5
X166.5Y-151.5
X166.5Y-156.5
X176.5Y-151.5
X176.5Y-156.5
T8
X164.005Y-44.925
X188.995Y-44.925
T9
X80.0Y-40.0
X80.0Y-160.0
X200.0Y-40.0
X200.0Y-160.0
T10
X112.05Y-59.762
X122.95Y-59.762
X134.05Y-59.762
X144.95Y-59.762
T11
X90.5Y-44.8
X90.5Y-52.0
X100.0Y-44.8
X100.0Y-52.0
X155.5Y-44.8
X155.5Y-52.0
X188.0Y-139.0
X188.0Y-148.5
X195.2Y-139.0
X195.2Y-148.5
T2
X108.05Y-49.762G85X108.05Y-50.962
G05
X126.95Y-49.762G85X126.95Y-50.962
G05
X130.05Y-49.762G85X130.05Y-50.962
G05
X148.95Y-49.762G85X148.95Y-50.962
G05
T0
M30
