%TF.GenerationSoftware,KiCad,Pcbnew,7.0.1-0*%
%TF.CreationDate,2023-03-21T21:14:35-05:00*%
%TF.ProjectId,actuation,61637475-6174-4696-9f6e-2e6b69636164,rev?*%
%TF.SameCoordinates,Original*%
%TF.FileFunction,Soldermask,Bot*%
%TF.FilePolarity,Negative*%
%FSLAX46Y46*%
G04 Gerber Fmt 4.6, Leading zero omitted, Abs format (unit mm)*
G04 Created by KiCad (PCBNEW 7.0.1-0) date 2023-03-21 21:14:35*
%MOMM*%
%LPD*%
G01*
G04 APERTURE LIST*
G04 Aperture macros list*
%AMRoundRect*
0 Rectangle with rounded corners*
0 $1 Rounding radius*
0 $2 $3 $4 $5 $6 $7 $8 $9 X,Y pos of 4 corners*
0 Add a 4 corners polygon primitive as box body*
4,1,4,$2,$3,$4,$5,$6,$7,$8,$9,$2,$3,0*
0 Add four circle primitives for the rounded corners*
1,1,$1+$1,$2,$3*
1,1,$1+$1,$4,$5*
1,1,$1+$1,$6,$7*
1,1,$1+$1,$8,$9*
0 Add four rect primitives between the rounded corners*
20,1,$1+$1,$2,$3,$4,$5,0*
20,1,$1+$1,$4,$5,$6,$7,0*
20,1,$1+$1,$6,$7,$8,$9,0*
20,1,$1+$1,$8,$9,$2,$3,0*%
G04 Aperture macros list end*
%ADD10C,3.900000*%
%ADD11RoundRect,0.050000X-1.900000X-1.900000X1.900000X-1.900000X1.900000X1.900000X-1.900000X1.900000X0*%
%ADD12RoundRect,0.050000X-0.500000X-1.100000X0.500000X-1.100000X0.500000X1.100000X-0.500000X1.100000X0*%
%ADD13C,5.100000*%
%ADD14RoundRect,1.300000X-1.250000X-1.250000X1.250000X-1.250000X1.250000X1.250000X-1.250000X1.250000X0*%
%ADD15RoundRect,1.550000X1.500000X1.500000X-1.500000X1.500000X-1.500000X-1.500000X1.500000X-1.500000X0*%
%ADD16C,6.100000*%
%ADD17C,5.800000*%
%ADD18RoundRect,0.050000X1.900000X-1.900000X1.900000X1.900000X-1.900000X1.900000X-1.900000X-1.900000X0*%
%ADD19RoundRect,1.550000X-1.500000X1.500000X-1.500000X-1.500000X1.500000X-1.500000X1.500000X1.500000X0*%
%ADD20RoundRect,0.550000X0.500000X-0.500000X0.500000X0.500000X-0.500000X0.500000X-0.500000X-0.500000X0*%
%ADD21C,2.100000*%
%ADD22RoundRect,1.050000X-1.000000X1.000000X-1.000000X-1.000000X1.000000X-1.000000X1.000000X1.000000X0*%
%ADD23C,4.100000*%
%ADD24RoundRect,0.458750X0.408750X0.408750X-0.408750X0.408750X-0.408750X-0.408750X0.408750X-0.408750X0*%
%ADD25C,4.150000*%
G04 APERTURE END LIST*
D10*
%TO.C,J7*%
X88500000Y-110000000D03*
D11*
X83500000Y-110000000D03*
%TD*%
D10*
%TO.C,J5*%
X88500000Y-90000000D03*
D11*
X83500000Y-90000000D03*
%TD*%
D10*
%TO.C,J9*%
X88500000Y-130000000D03*
D11*
X83500000Y-130000000D03*
%TD*%
D12*
%TO.C,J26*%
X148950000Y-50362500D03*
X130050000Y-50362500D03*
D13*
X144950000Y-59762500D03*
D14*
X134050000Y-59762500D03*
%TD*%
D15*
%TO.C,J24*%
X195200000Y-148500000D03*
D16*
X188000000Y-148500000D03*
%TD*%
D17*
%TO.C,REF\u002A\u002A*%
X200000000Y-40000000D03*
%TD*%
D10*
%TO.C,J12*%
X126500000Y-151500000D03*
D18*
X126500000Y-156500000D03*
%TD*%
D16*
%TO.C,J28*%
X90500000Y-52000000D03*
D19*
X90500000Y-44800000D03*
%TD*%
D20*
%TO.C,J18*%
X194500000Y-131000000D03*
D21*
X194500000Y-126000000D03*
X194500000Y-121000000D03*
%TD*%
D10*
%TO.C,J6*%
X88500000Y-100000000D03*
D11*
X83500000Y-100000000D03*
%TD*%
D10*
%TO.C,J14*%
X146500000Y-151500000D03*
D18*
X146500000Y-156500000D03*
%TD*%
D22*
%TO.C,K1*%
X129550000Y-81400000D03*
D21*
X116750000Y-85200000D03*
X116750000Y-95400000D03*
D23*
X132050000Y-99200000D03*
X139650000Y-99200000D03*
%TD*%
D10*
%TO.C,J3*%
X88500000Y-70000000D03*
D11*
X83500000Y-70000000D03*
%TD*%
D16*
%TO.C,J27*%
X155500000Y-52000000D03*
D19*
X155500000Y-44800000D03*
%TD*%
D17*
%TO.C,REF\u002A\u002A*%
X200000000Y-160000000D03*
%TD*%
D10*
%TO.C,J13*%
X136500000Y-151500000D03*
D18*
X136500000Y-156500000D03*
%TD*%
D12*
%TO.C,J23*%
X126950000Y-50362500D03*
X108050000Y-50362500D03*
D13*
X122950000Y-59762500D03*
D14*
X112050000Y-59762500D03*
%TD*%
D20*
%TO.C,J21*%
X194500000Y-81500000D03*
D21*
X194500000Y-76500000D03*
%TD*%
D10*
%TO.C,J11*%
X116500000Y-151500000D03*
D18*
X116500000Y-156500000D03*
%TD*%
D16*
%TO.C,J25*%
X188000000Y-139000000D03*
D15*
X195200000Y-139000000D03*
%TD*%
D10*
%TO.C,J16*%
X166500000Y-151500000D03*
D18*
X166500000Y-156500000D03*
%TD*%
D10*
%TO.C,J15*%
X156500000Y-151500000D03*
D18*
X156500000Y-156500000D03*
%TD*%
D20*
%TO.C,J22*%
X194500000Y-70000000D03*
D21*
X194500000Y-65000000D03*
%TD*%
D10*
%TO.C,J2*%
X88500000Y-60000000D03*
D11*
X83500000Y-60000000D03*
%TD*%
D20*
%TO.C,J19*%
X194500000Y-114500000D03*
D21*
X194500000Y-109500000D03*
X194500000Y-104500000D03*
%TD*%
D10*
%TO.C,J10*%
X106500000Y-151500000D03*
D18*
X106500000Y-156500000D03*
%TD*%
D10*
%TO.C,J4*%
X88500000Y-80000000D03*
D11*
X83500000Y-80000000D03*
%TD*%
D24*
%TO.C,J1*%
X170960000Y-46345500D03*
X173730000Y-46345500D03*
X176500000Y-46345500D03*
X179270000Y-46345500D03*
X182040000Y-46345500D03*
X172345000Y-43505500D03*
X175115000Y-43505500D03*
X177885000Y-43505500D03*
X180655000Y-43505500D03*
D25*
X164005000Y-44925500D03*
X188995000Y-44925500D03*
%TD*%
D10*
%TO.C,J17*%
X176500000Y-151500000D03*
D18*
X176500000Y-156500000D03*
%TD*%
D17*
%TO.C,REF\u002A\u002A*%
X80000000Y-160000000D03*
%TD*%
D16*
%TO.C,J29*%
X100000000Y-52000000D03*
D19*
X100000000Y-44800000D03*
%TD*%
D17*
%TO.C,REF\u002A\u002A*%
X80000000Y-40000000D03*
%TD*%
D20*
%TO.C,J20*%
X194500000Y-98000000D03*
D21*
X194500000Y-93000000D03*
X194500000Y-88000000D03*
%TD*%
D10*
%TO.C,J8*%
X88500000Y-120000000D03*
D11*
X83500000Y-120000000D03*
%TD*%
M02*
