%TF.GenerationSoftware,KiCad,Pcbnew,7.0.1-0*%
%TF.CreationDate,2023-03-21T21:14:59-05:00*%
%TF.ProjectId,actuation,61637475-6174-4696-9f6e-2e6b69636164,rev?*%
%TF.SameCoordinates,Original*%
%TF.FileFunction,Drillmap*%
%TF.FilePolarity,Positive*%
%FSLAX45Y45*%
G04 Gerber Fmt 4.5, Leading zero omitted, Abs format (unit mm)*
G04 Created by KiCad (PCBNEW 7.0.1-0) date 2023-03-21 21:14:59*
%MOMM*%
%LPD*%
G01*
G04 APERTURE LIST*
%ADD10C,0.150000*%
%ADD11C,0.200000*%
%ADD12C,0.020000*%
%ADD13C,0.060000*%
%ADD14C,0.109000*%
%ADD15C,0.110000*%
%ADD16C,0.130000*%
%ADD17C,0.210000*%
%ADD18C,0.270000*%
%ADD19C,0.305000*%
%ADD20C,0.320000*%
%ADD21C,0.380000*%
%ADD22C,0.450000*%
G04 APERTURE END LIST*
D10*
X7500000Y-16000000D02*
G75*
G03*
X8000000Y-16500000I500000J0D01*
G01*
X20000000Y-16500000D02*
X8000000Y-16500000D01*
X8000000Y-3500000D02*
X20000000Y-3500000D01*
X20000000Y-16500000D02*
G75*
G03*
X20500000Y-16000000I0J500000D01*
G01*
X7500000Y-16000000D02*
X7500000Y-4000000D01*
X20500000Y-4000000D02*
X20500000Y-16000000D01*
X8000000Y-3500000D02*
G75*
G03*
X7500000Y-4000000I0J-500000D01*
G01*
X20500000Y-4000000D02*
G75*
G03*
X20000000Y-3500000I-500000J0D01*
G01*
D11*
D12*
X8390000Y-15590000D02*
X8410000Y-15610000D01*
X8410000Y-15590000D02*
X8390000Y-15610000D01*
X9440000Y-6040000D02*
X9460000Y-6060000D01*
X9460000Y-6040000D02*
X9440000Y-6060000D01*
X9440000Y-6090000D02*
X9460000Y-6110000D01*
X9460000Y-6090000D02*
X9440000Y-6110000D01*
X9440000Y-6140000D02*
X9460000Y-6160000D01*
X9460000Y-6140000D02*
X9440000Y-6160000D01*
X9440000Y-6190000D02*
X9460000Y-6210000D01*
X9460000Y-6190000D02*
X9440000Y-6210000D01*
X9440000Y-7040000D02*
X9460000Y-7060000D01*
X9460000Y-7040000D02*
X9440000Y-7060000D01*
X9440000Y-7090000D02*
X9460000Y-7110000D01*
X9460000Y-7090000D02*
X9440000Y-7110000D01*
X9440000Y-7140000D02*
X9460000Y-7160000D01*
X9460000Y-7140000D02*
X9440000Y-7160000D01*
X9440000Y-7190000D02*
X9460000Y-7210000D01*
X9460000Y-7190000D02*
X9440000Y-7210000D01*
X9440000Y-8040000D02*
X9460000Y-8060000D01*
X9460000Y-8040000D02*
X9440000Y-8060000D01*
X9440000Y-8090000D02*
X9460000Y-8110000D01*
X9460000Y-8090000D02*
X9440000Y-8110000D01*
X9440000Y-8140000D02*
X9460000Y-8160000D01*
X9460000Y-8140000D02*
X9440000Y-8160000D01*
X9440000Y-8190000D02*
X9460000Y-8210000D01*
X9460000Y-8190000D02*
X9440000Y-8210000D01*
X9440000Y-9040000D02*
X9460000Y-9060000D01*
X9460000Y-9040000D02*
X9440000Y-9060000D01*
X9440000Y-9090000D02*
X9460000Y-9110000D01*
X9460000Y-9090000D02*
X9440000Y-9110000D01*
X9440000Y-9140000D02*
X9460000Y-9160000D01*
X9460000Y-9140000D02*
X9440000Y-9160000D01*
X9440000Y-9190000D02*
X9460000Y-9210000D01*
X9460000Y-9190000D02*
X9440000Y-9210000D01*
X9440000Y-10040000D02*
X9460000Y-10060000D01*
X9460000Y-10040000D02*
X9440000Y-10060000D01*
X9440000Y-10090000D02*
X9460000Y-10110000D01*
X9460000Y-10090000D02*
X9440000Y-10110000D01*
X9440000Y-10140000D02*
X9460000Y-10160000D01*
X9460000Y-10140000D02*
X9440000Y-10160000D01*
X9440000Y-10190000D02*
X9460000Y-10210000D01*
X9460000Y-10190000D02*
X9440000Y-10210000D01*
X9440000Y-11040000D02*
X9460000Y-11060000D01*
X9460000Y-11040000D02*
X9440000Y-11060000D01*
X9440000Y-11090000D02*
X9460000Y-11110000D01*
X9460000Y-11090000D02*
X9440000Y-11110000D01*
X9440000Y-11140000D02*
X9460000Y-11160000D01*
X9460000Y-11140000D02*
X9440000Y-11160000D01*
X9440000Y-11190000D02*
X9460000Y-11210000D01*
X9460000Y-11190000D02*
X9440000Y-11210000D01*
X9440000Y-12040000D02*
X9460000Y-12060000D01*
X9460000Y-12040000D02*
X9440000Y-12060000D01*
X9440000Y-12090000D02*
X9460000Y-12110000D01*
X9460000Y-12090000D02*
X9440000Y-12110000D01*
X9440000Y-12140000D02*
X9460000Y-12160000D01*
X9460000Y-12140000D02*
X9440000Y-12160000D01*
X9440000Y-12190000D02*
X9460000Y-12210000D01*
X9460000Y-12190000D02*
X9440000Y-12210000D01*
X9440000Y-13040000D02*
X9460000Y-13060000D01*
X9460000Y-13040000D02*
X9440000Y-13060000D01*
X9440000Y-13090000D02*
X9460000Y-13110000D01*
X9460000Y-13090000D02*
X9440000Y-13110000D01*
X9440000Y-13140000D02*
X9460000Y-13160000D01*
X9460000Y-13140000D02*
X9440000Y-13160000D01*
X9440000Y-13190000D02*
X9460000Y-13210000D01*
X9460000Y-13190000D02*
X9440000Y-13210000D01*
X10670700Y-7457600D02*
X10690700Y-7477600D01*
X10690700Y-7457600D02*
X10670700Y-7477600D01*
X10670700Y-7508400D02*
X10690700Y-7528400D01*
X10690700Y-7508400D02*
X10670700Y-7528400D01*
X10670700Y-7559200D02*
X10690700Y-7579200D01*
X10690700Y-7559200D02*
X10670700Y-7579200D01*
X10670700Y-7610000D02*
X10690700Y-7630000D01*
X10690700Y-7610000D02*
X10670700Y-7630000D01*
X10690000Y-14540000D02*
X10710000Y-14560000D01*
X10710000Y-14540000D02*
X10690000Y-14560000D01*
X10740000Y-14540000D02*
X10760000Y-14560000D01*
X10760000Y-14540000D02*
X10740000Y-14560000D01*
X10790000Y-14540000D02*
X10810000Y-14560000D01*
X10810000Y-14540000D02*
X10790000Y-14560000D01*
X10840000Y-14540000D02*
X10860000Y-14560000D01*
X10860000Y-14540000D02*
X10840000Y-14560000D01*
X11340000Y-3840000D02*
X11360000Y-3860000D01*
X11360000Y-3840000D02*
X11340000Y-3860000D01*
X11690000Y-14540000D02*
X11710000Y-14560000D01*
X11710000Y-14540000D02*
X11690000Y-14560000D01*
X11740000Y-14540000D02*
X11760000Y-14560000D01*
X11760000Y-14540000D02*
X11740000Y-14560000D01*
X11790000Y-14540000D02*
X11810000Y-14560000D01*
X11810000Y-14540000D02*
X11790000Y-14560000D01*
X11840000Y-14540000D02*
X11860000Y-14560000D01*
X11860000Y-14540000D02*
X11840000Y-14560000D01*
X12042300Y-7140100D02*
X12062300Y-7160100D01*
X12062300Y-7140100D02*
X12042300Y-7160100D01*
X12240000Y-9340000D02*
X12260000Y-9360000D01*
X12260000Y-9340000D02*
X12240000Y-9360000D01*
X12290000Y-3840000D02*
X12310000Y-3860000D01*
X12310000Y-3840000D02*
X12290000Y-3860000D01*
X12296300Y-7330600D02*
X12316300Y-7350600D01*
X12316300Y-7330600D02*
X12296300Y-7350600D01*
X12360000Y-7490000D02*
X12380000Y-7510000D01*
X12380000Y-7490000D02*
X12360000Y-7510000D01*
X12690000Y-14540000D02*
X12710000Y-14560000D01*
X12710000Y-14540000D02*
X12690000Y-14560000D01*
X12740000Y-14540000D02*
X12760000Y-14560000D01*
X12760000Y-14540000D02*
X12740000Y-14560000D01*
X12790000Y-14540000D02*
X12810000Y-14560000D01*
X12810000Y-14540000D02*
X12790000Y-14560000D01*
X12840000Y-14540000D02*
X12860000Y-14560000D01*
X12860000Y-14540000D02*
X12840000Y-14560000D01*
X12990000Y-5540000D02*
X13010000Y-5560000D01*
X13010000Y-5540000D02*
X12990000Y-5560000D01*
X13490000Y-3840000D02*
X13510000Y-3860000D01*
X13510000Y-3840000D02*
X13490000Y-3860000D01*
X13579000Y-10810000D02*
X13599000Y-10830000D01*
X13599000Y-10810000D02*
X13579000Y-10830000D01*
X13690000Y-14540000D02*
X13710000Y-14560000D01*
X13710000Y-14540000D02*
X13690000Y-14560000D01*
X13740000Y-14540000D02*
X13760000Y-14560000D01*
X13760000Y-14540000D02*
X13740000Y-14560000D01*
X13790000Y-14540000D02*
X13810000Y-14560000D01*
X13810000Y-14540000D02*
X13790000Y-14560000D01*
X13840000Y-14540000D02*
X13860000Y-14560000D01*
X13860000Y-14540000D02*
X13840000Y-14560000D01*
X14040000Y-5540000D02*
X14060000Y-5560000D01*
X14060000Y-5540000D02*
X14040000Y-5560000D01*
X14240000Y-3840000D02*
X14260000Y-3860000D01*
X14260000Y-3840000D02*
X14240000Y-3860000D01*
X14390000Y-7140000D02*
X14410000Y-7160000D01*
X14410000Y-7140000D02*
X14390000Y-7160000D01*
X14390000Y-7340000D02*
X14410000Y-7360000D01*
X14410000Y-7340000D02*
X14390000Y-7360000D01*
X14390000Y-7590000D02*
X14410000Y-7610000D01*
X14410000Y-7590000D02*
X14390000Y-7610000D01*
X14390000Y-7840000D02*
X14410000Y-7860000D01*
X14410000Y-7840000D02*
X14390000Y-7860000D01*
X14690000Y-14540000D02*
X14710000Y-14560000D01*
X14710000Y-14540000D02*
X14690000Y-14560000D01*
X14734700Y-6670200D02*
X14754700Y-6690200D01*
X14754700Y-6670200D02*
X14734700Y-6690200D01*
X14740000Y-8290000D02*
X14760000Y-8310000D01*
X14760000Y-8290000D02*
X14740000Y-8310000D01*
X14740000Y-8890000D02*
X14760000Y-8910000D01*
X14760000Y-8890000D02*
X14740000Y-8910000D01*
X14740000Y-9340000D02*
X14760000Y-9360000D01*
X14760000Y-9340000D02*
X14740000Y-9360000D01*
X14740000Y-14540000D02*
X14760000Y-14560000D01*
X14760000Y-14540000D02*
X14740000Y-14560000D01*
X14790000Y-5540000D02*
X14810000Y-5560000D01*
X14810000Y-5540000D02*
X14790000Y-5560000D01*
X14790000Y-14540000D02*
X14810000Y-14560000D01*
X14810000Y-14540000D02*
X14790000Y-14560000D01*
X14840000Y-14540000D02*
X14860000Y-14560000D01*
X14860000Y-14540000D02*
X14840000Y-14560000D01*
X15460000Y-9980000D02*
X15480000Y-10000000D01*
X15480000Y-9980000D02*
X15460000Y-10000000D01*
X15490000Y-7240000D02*
X15510000Y-7260000D01*
X15510000Y-7240000D02*
X15490000Y-7260000D01*
X15490000Y-7690000D02*
X15510000Y-7710000D01*
X15510000Y-7690000D02*
X15490000Y-7710000D01*
X15496700Y-10429400D02*
X15516700Y-10449400D01*
X15516700Y-10429400D02*
X15496700Y-10449400D01*
X15496700Y-10569100D02*
X15516700Y-10589100D01*
X15516700Y-10569100D02*
X15496700Y-10589100D01*
X15611000Y-12397900D02*
X15631000Y-12417900D01*
X15631000Y-12397900D02*
X15611000Y-12417900D01*
X15690000Y-14540000D02*
X15710000Y-14560000D01*
X15710000Y-14540000D02*
X15690000Y-14560000D01*
X15699900Y-10492900D02*
X15719900Y-10512900D01*
X15719900Y-10492900D02*
X15699900Y-10512900D01*
X15725300Y-10759600D02*
X15745300Y-10779600D01*
X15745300Y-10759600D02*
X15725300Y-10779600D01*
X15740000Y-14540000D02*
X15760000Y-14560000D01*
X15760000Y-14540000D02*
X15740000Y-14560000D01*
X15776250Y-9351250D02*
X15796250Y-9371250D01*
X15796250Y-9351250D02*
X15776250Y-9371250D01*
X15788800Y-12753500D02*
X15808800Y-12773500D01*
X15808800Y-12753500D02*
X15788800Y-12773500D01*
X15790000Y-14540000D02*
X15810000Y-14560000D01*
X15810000Y-14540000D02*
X15790000Y-14560000D01*
X15820000Y-9950000D02*
X15840000Y-9970000D01*
X15840000Y-9950000D02*
X15820000Y-9970000D01*
X15831101Y-12227933D02*
X15851101Y-12247933D01*
X15851101Y-12227933D02*
X15831101Y-12247933D01*
X15840000Y-14540000D02*
X15860000Y-14560000D01*
X15860000Y-14540000D02*
X15840000Y-14560000D01*
X15928500Y-11801000D02*
X15948500Y-11821000D01*
X15948500Y-11801000D02*
X15928500Y-11821000D01*
X15950000Y-8140000D02*
X15970000Y-8160000D01*
X15970000Y-8140000D02*
X15950000Y-8160000D01*
X16000000Y-9140000D02*
X16020000Y-9160000D01*
X16020000Y-9140000D02*
X16000000Y-9160000D01*
X16012500Y-9517500D02*
X16032500Y-9537500D01*
X16032500Y-9517500D02*
X16012500Y-9537500D01*
X16030100Y-12753500D02*
X16050100Y-12773500D01*
X16050100Y-12753500D02*
X16030100Y-12773500D01*
X16040000Y-3740000D02*
X16060000Y-3760000D01*
X16060000Y-3740000D02*
X16040000Y-3760000D01*
X16040000Y-5290000D02*
X16060000Y-5310000D01*
X16060000Y-5290000D02*
X16040000Y-5310000D01*
X16042800Y-11445400D02*
X16062800Y-11465400D01*
X16062800Y-11445400D02*
X16042800Y-11465400D01*
X16157100Y-10124600D02*
X16177100Y-10144600D01*
X16177100Y-10124600D02*
X16157100Y-10144600D01*
X16169800Y-11051700D02*
X16189800Y-11071700D01*
X16189800Y-11051700D02*
X16169800Y-11071700D01*
X16169800Y-11115200D02*
X16189800Y-11135200D01*
X16189800Y-11115200D02*
X16169800Y-11135200D01*
X16169800Y-11178700D02*
X16189800Y-11198700D01*
X16189800Y-11178700D02*
X16169800Y-11198700D01*
X16182500Y-11801000D02*
X16202500Y-11821000D01*
X16202500Y-11801000D02*
X16182500Y-11821000D01*
X16190000Y-6340000D02*
X16210000Y-6360000D01*
X16210000Y-6340000D02*
X16190000Y-6360000D01*
X16195200Y-10772300D02*
X16215200Y-10792300D01*
X16215200Y-10772300D02*
X16195200Y-10792300D01*
X16195200Y-12397900D02*
X16215200Y-12417900D01*
X16215200Y-12397900D02*
X16195200Y-12417900D01*
X16220600Y-11000900D02*
X16240600Y-11020900D01*
X16240600Y-11000900D02*
X16220600Y-11020900D01*
X16233300Y-6873400D02*
X16253300Y-6893400D01*
X16253300Y-6873400D02*
X16233300Y-6893400D01*
X16258700Y-11674000D02*
X16278700Y-11694000D01*
X16278700Y-11674000D02*
X16258700Y-11694000D01*
X16271400Y-12753500D02*
X16291400Y-12773500D01*
X16291400Y-12753500D02*
X16271400Y-12773500D01*
X16284100Y-11000900D02*
X16304100Y-11020900D01*
X16304100Y-11000900D02*
X16284100Y-11020900D01*
X16290000Y-7445400D02*
X16310000Y-7465400D01*
X16310000Y-7445400D02*
X16290000Y-7465400D01*
X16296800Y-8651400D02*
X16316800Y-8671400D01*
X16316800Y-8651400D02*
X16296800Y-8671400D01*
X16296800Y-11623200D02*
X16316800Y-11643200D01*
X16316800Y-11623200D02*
X16296800Y-11643200D01*
X16296800Y-11724800D02*
X16316800Y-11744800D01*
X16316800Y-11724800D02*
X16296800Y-11744800D01*
X16334900Y-11674000D02*
X16354900Y-11694000D01*
X16354900Y-11674000D02*
X16334900Y-11694000D01*
X16347600Y-11000900D02*
X16367600Y-11020900D01*
X16367600Y-11000900D02*
X16347600Y-11020900D01*
X16373000Y-5298600D02*
X16393000Y-5318600D01*
X16393000Y-5298600D02*
X16373000Y-5318600D01*
X16373000Y-8295800D02*
X16393000Y-8315800D01*
X16393000Y-8295800D02*
X16373000Y-8315800D01*
X16373000Y-10302400D02*
X16393000Y-10322400D01*
X16393000Y-10302400D02*
X16373000Y-10322400D01*
X16373000Y-11623200D02*
X16393000Y-11643200D01*
X16393000Y-11623200D02*
X16373000Y-11643200D01*
X16373000Y-11724800D02*
X16393000Y-11744800D01*
X16393000Y-11724800D02*
X16373000Y-11744800D01*
X16411100Y-11000900D02*
X16431100Y-11020900D01*
X16431100Y-11000900D02*
X16411100Y-11020900D01*
X16411100Y-11674000D02*
X16431100Y-11694000D01*
X16431100Y-11674000D02*
X16411100Y-11694000D01*
X16440000Y-5590000D02*
X16460000Y-5610000D01*
X16460000Y-5590000D02*
X16440000Y-5610000D01*
X16449200Y-11623200D02*
X16469200Y-11643200D01*
X16469200Y-11623200D02*
X16449200Y-11643200D01*
X16449200Y-11724800D02*
X16469200Y-11744800D01*
X16469200Y-11724800D02*
X16449200Y-11744800D01*
X16487300Y-11674000D02*
X16507300Y-11694000D01*
X16507300Y-11674000D02*
X16487300Y-11694000D01*
X16500000Y-10640000D02*
X16520000Y-10660000D01*
X16520000Y-10640000D02*
X16500000Y-10660000D01*
X16525400Y-8450000D02*
X16545400Y-8470000D01*
X16545400Y-8450000D02*
X16525400Y-8470000D01*
X16525400Y-8600000D02*
X16545400Y-8620000D01*
X16545400Y-8600000D02*
X16525400Y-8620000D01*
X16525400Y-8750000D02*
X16545400Y-8770000D01*
X16545400Y-8750000D02*
X16525400Y-8770000D01*
X16525400Y-8900000D02*
X16545400Y-8920000D01*
X16545400Y-8900000D02*
X16525400Y-8920000D01*
X16525400Y-9050000D02*
X16545400Y-9070000D01*
X16545400Y-9050000D02*
X16525400Y-9070000D01*
X16525400Y-9159400D02*
X16545400Y-9179400D01*
X16545400Y-9159400D02*
X16525400Y-9179400D01*
X16525400Y-9388000D02*
X16545400Y-9408000D01*
X16545400Y-9388000D02*
X16525400Y-9408000D01*
X16525400Y-9502300D02*
X16545400Y-9522300D01*
X16545400Y-9502300D02*
X16525400Y-9522300D01*
X16557400Y-10238900D02*
X16577400Y-10258900D01*
X16577400Y-10238900D02*
X16557400Y-10258900D01*
X16652400Y-10378600D02*
X16672400Y-10398600D01*
X16672400Y-10378600D02*
X16652400Y-10398600D01*
X16690000Y-14540000D02*
X16710000Y-14560000D01*
X16710000Y-14540000D02*
X16690000Y-14560000D01*
X16703200Y-8422800D02*
X16723200Y-8442800D01*
X16723200Y-8422800D02*
X16703200Y-8442800D01*
X16740000Y-14540000D02*
X16760000Y-14560000D01*
X16760000Y-14540000D02*
X16740000Y-14560000D01*
X16779400Y-8181500D02*
X16799400Y-8201500D01*
X16799400Y-8181500D02*
X16779400Y-8201500D01*
X16779400Y-9400700D02*
X16799400Y-9420700D01*
X16799400Y-9400700D02*
X16779400Y-9420700D01*
X16790000Y-14540000D02*
X16810000Y-14560000D01*
X16810000Y-14540000D02*
X16790000Y-14560000D01*
X16792100Y-10073800D02*
X16812100Y-10093800D01*
X16812100Y-10073800D02*
X16792100Y-10093800D01*
X16820000Y-4930000D02*
X16840000Y-4950000D01*
X16840000Y-4930000D02*
X16820000Y-4950000D01*
X16820000Y-5990000D02*
X16840000Y-6010000D01*
X16840000Y-5990000D02*
X16820000Y-6010000D01*
X16830200Y-8803800D02*
X16850200Y-8823800D01*
X16850200Y-8803800D02*
X16830200Y-8823800D01*
X16830200Y-11712100D02*
X16850200Y-11732100D01*
X16850200Y-11712100D02*
X16830200Y-11732100D01*
X16840000Y-14540000D02*
X16860000Y-14560000D01*
X16860000Y-14540000D02*
X16840000Y-14560000D01*
X16842900Y-9400700D02*
X16862900Y-9420700D01*
X16862900Y-9400700D02*
X16842900Y-9420700D01*
X16868300Y-8575200D02*
X16888300Y-8595200D01*
X16888300Y-8575200D02*
X16868300Y-8595200D01*
X16906400Y-8803800D02*
X16926400Y-8823800D01*
X16926400Y-8803800D02*
X16906400Y-8823800D01*
X16919100Y-11127900D02*
X16939100Y-11147900D01*
X16939100Y-11127900D02*
X16919100Y-11147900D01*
X16931800Y-8575200D02*
X16951800Y-8595200D01*
X16951800Y-8575200D02*
X16931800Y-8595200D01*
X17190000Y-5490000D02*
X17210000Y-5510000D01*
X17210000Y-5490000D02*
X17190000Y-5510000D01*
X17223900Y-9172100D02*
X17243900Y-9192100D01*
X17243900Y-9172100D02*
X17223900Y-9192100D01*
X17274700Y-11610500D02*
X17294700Y-11630500D01*
X17294700Y-11610500D02*
X17274700Y-11630500D01*
X17290000Y-7225000D02*
X17310000Y-7245000D01*
X17310000Y-7225000D02*
X17290000Y-7245000D01*
X17338200Y-11635900D02*
X17358200Y-11655900D01*
X17358200Y-11635900D02*
X17338200Y-11655900D01*
X17376300Y-8029100D02*
X17396300Y-8049100D01*
X17396300Y-8029100D02*
X17376300Y-8049100D01*
X17376300Y-11686700D02*
X17396300Y-11706700D01*
X17396300Y-11686700D02*
X17376300Y-11706700D01*
X17389000Y-7038500D02*
X17409000Y-7058500D01*
X17409000Y-7038500D02*
X17389000Y-7058500D01*
X17389000Y-8143400D02*
X17409000Y-8163400D01*
X17409000Y-8143400D02*
X17389000Y-8163400D01*
X17390000Y-5090000D02*
X17410000Y-5110000D01*
X17410000Y-5090000D02*
X17390000Y-5110000D01*
X17390000Y-6890000D02*
X17410000Y-6910000D01*
X17410000Y-6890000D02*
X17390000Y-6910000D01*
X17427100Y-11724800D02*
X17447100Y-11744800D01*
X17447100Y-11724800D02*
X17427100Y-11744800D01*
X17427100Y-11788300D02*
X17447100Y-11808300D01*
X17447100Y-11788300D02*
X17427100Y-11808300D01*
X17427100Y-11851800D02*
X17447100Y-11871800D01*
X17447100Y-11851800D02*
X17427100Y-11871800D01*
X17427100Y-13947300D02*
X17447100Y-13967300D01*
X17447100Y-13947300D02*
X17427100Y-13967300D01*
X17439800Y-9286400D02*
X17459800Y-9306400D01*
X17459800Y-9286400D02*
X17439800Y-9306400D01*
X17439800Y-10124600D02*
X17459800Y-10144600D01*
X17459800Y-10124600D02*
X17439800Y-10144600D01*
X17452500Y-9489600D02*
X17472500Y-9509600D01*
X17472500Y-9489600D02*
X17452500Y-9509600D01*
X17465200Y-5565300D02*
X17485200Y-5585300D01*
X17485200Y-5565300D02*
X17465200Y-5585300D01*
X17465200Y-8333900D02*
X17485200Y-8353900D01*
X17485200Y-8333900D02*
X17465200Y-8353900D01*
X17528700Y-9083200D02*
X17548700Y-9103200D01*
X17548700Y-9083200D02*
X17528700Y-9103200D01*
X17528700Y-9921400D02*
X17548700Y-9941400D01*
X17548700Y-9921400D02*
X17528700Y-9941400D01*
X17541400Y-13947300D02*
X17561400Y-13967300D01*
X17561400Y-13947300D02*
X17541400Y-13967300D01*
X17554100Y-5501800D02*
X17574100Y-5521800D01*
X17574100Y-5501800D02*
X17554100Y-5521800D01*
X17590000Y-7167000D02*
X17610000Y-7187000D01*
X17610000Y-7167000D02*
X17590000Y-7187000D01*
X17617600Y-10264300D02*
X17637600Y-10284300D01*
X17637600Y-10264300D02*
X17617600Y-10284300D01*
X17640000Y-5690000D02*
X17660000Y-5710000D01*
X17660000Y-5690000D02*
X17640000Y-5710000D01*
X17655700Y-13947300D02*
X17675700Y-13967300D01*
X17675700Y-13947300D02*
X17655700Y-13967300D01*
X17690000Y-14540000D02*
X17710000Y-14560000D01*
X17710000Y-14540000D02*
X17690000Y-14560000D01*
X17719200Y-5362100D02*
X17739200Y-5382100D01*
X17739200Y-5362100D02*
X17719200Y-5382100D01*
X17740000Y-14540000D02*
X17760000Y-14560000D01*
X17760000Y-14540000D02*
X17740000Y-14560000D01*
X17770000Y-13947300D02*
X17790000Y-13967300D01*
X17790000Y-13947300D02*
X17770000Y-13967300D01*
X17782700Y-5920900D02*
X17802700Y-5940900D01*
X17802700Y-5920900D02*
X17782700Y-5940900D01*
X17790000Y-14540000D02*
X17810000Y-14560000D01*
X17810000Y-14540000D02*
X17790000Y-14560000D01*
X17840000Y-14540000D02*
X17860000Y-14560000D01*
X17860000Y-14540000D02*
X17840000Y-14560000D01*
X17868400Y-13947300D02*
X17888400Y-13967300D01*
X17888400Y-13947300D02*
X17868400Y-13967300D01*
X17870000Y-10380000D02*
X17890000Y-10400000D01*
X17890000Y-10380000D02*
X17870000Y-10400000D01*
X17884300Y-5044600D02*
X17904300Y-5064600D01*
X17904300Y-5044600D02*
X17884300Y-5064600D01*
X17973200Y-5920900D02*
X17993200Y-5940900D01*
X17993200Y-5920900D02*
X17973200Y-5940900D01*
X18062100Y-12575700D02*
X18082100Y-12595700D01*
X18082100Y-12575700D02*
X18062100Y-12595700D01*
X18151000Y-5819300D02*
X18171000Y-5839300D01*
X18171000Y-5819300D02*
X18151000Y-5839300D01*
X18151000Y-9921400D02*
X18171000Y-9941400D01*
X18171000Y-9921400D02*
X18151000Y-9941400D01*
X18163700Y-6340000D02*
X18183700Y-6360000D01*
X18183700Y-6340000D02*
X18163700Y-6360000D01*
X18163700Y-9248300D02*
X18183700Y-9268300D01*
X18183700Y-9248300D02*
X18163700Y-9268300D01*
X18176400Y-12334400D02*
X18196400Y-12354400D01*
X18196400Y-12334400D02*
X18176400Y-12354400D01*
X18176400Y-12969400D02*
X18196400Y-12989400D01*
X18196400Y-12969400D02*
X18176400Y-12989400D01*
X18189100Y-10937400D02*
X18209100Y-10957400D01*
X18209100Y-10937400D02*
X18189100Y-10957400D01*
X18189100Y-11635900D02*
X18209100Y-11655900D01*
X18209100Y-11635900D02*
X18189100Y-11655900D01*
X18214500Y-8245000D02*
X18234500Y-8265000D01*
X18234500Y-8245000D02*
X18214500Y-8265000D01*
X18227200Y-7635400D02*
X18247200Y-7655400D01*
X18247200Y-7635400D02*
X18227200Y-7655400D01*
X18227200Y-8740300D02*
X18247200Y-8760300D01*
X18247200Y-8740300D02*
X18227200Y-8760300D01*
X18246250Y-6384450D02*
X18266250Y-6404450D01*
X18266250Y-6384450D02*
X18246250Y-6404450D01*
X18252600Y-7432200D02*
X18272600Y-7452200D01*
X18272600Y-7432200D02*
X18252600Y-7452200D01*
X18265300Y-11839100D02*
X18285300Y-11859100D01*
X18285300Y-11839100D02*
X18265300Y-11859100D01*
X18265300Y-12537600D02*
X18285300Y-12557600D01*
X18285300Y-12537600D02*
X18265300Y-12557600D01*
X18275000Y-11140600D02*
X18295000Y-11160600D01*
X18295000Y-11140600D02*
X18275000Y-11160600D01*
X18278000Y-10734200D02*
X18298000Y-10754200D01*
X18298000Y-10734200D02*
X18278000Y-10754200D01*
X18278000Y-11432700D02*
X18298000Y-11452700D01*
X18298000Y-11432700D02*
X18278000Y-11452700D01*
X18278000Y-12131200D02*
X18298000Y-12151200D01*
X18298000Y-12131200D02*
X18278000Y-12151200D01*
X18316100Y-12829700D02*
X18336100Y-12849700D01*
X18336100Y-12829700D02*
X18316100Y-12849700D01*
X18354850Y-6936250D02*
X18374850Y-6956250D01*
X18374850Y-6936250D02*
X18354850Y-6956250D01*
X18354850Y-8041150D02*
X18374850Y-8061150D01*
X18374850Y-8041150D02*
X18354850Y-8061150D01*
X18430400Y-9692800D02*
X18450400Y-9712800D01*
X18450400Y-9692800D02*
X18430400Y-9712800D01*
X18440000Y-3790000D02*
X18460000Y-3810000D01*
X18460000Y-3790000D02*
X18440000Y-3810000D01*
X18481200Y-8994300D02*
X18501200Y-9014300D01*
X18501200Y-8994300D02*
X18481200Y-9014300D01*
X18506600Y-8511700D02*
X18526600Y-8531700D01*
X18526600Y-8511700D02*
X18506600Y-8531700D01*
X18532000Y-7419500D02*
X18552000Y-7439500D01*
X18552000Y-7419500D02*
X18532000Y-7439500D01*
X18544700Y-9515000D02*
X18564700Y-9535000D01*
X18564700Y-9515000D02*
X18544700Y-9535000D01*
X18557400Y-5616100D02*
X18577400Y-5636100D01*
X18577400Y-5616100D02*
X18557400Y-5636100D01*
X18557400Y-9172100D02*
X18577400Y-9192100D01*
X18577400Y-9172100D02*
X18557400Y-9192100D01*
X18557400Y-9692800D02*
X18577400Y-9712800D01*
X18577400Y-9692800D02*
X18557400Y-9712800D01*
X18671700Y-10531000D02*
X18691700Y-10551000D01*
X18691700Y-10531000D02*
X18671700Y-10551000D01*
X18690000Y-6540000D02*
X18710000Y-6560000D01*
X18710000Y-6540000D02*
X18690000Y-6560000D01*
X18709800Y-10095000D02*
X18729800Y-10115000D01*
X18729800Y-10095000D02*
X18709800Y-10115000D01*
X18862200Y-10111900D02*
X18882200Y-10131900D01*
X18882200Y-10111900D02*
X18862200Y-10131900D01*
X18900300Y-10912000D02*
X18920300Y-10932000D01*
X18920300Y-10912000D02*
X18900300Y-10932000D01*
X18976500Y-5692300D02*
X18996500Y-5712300D01*
X18996500Y-5692300D02*
X18976500Y-5712300D01*
X19040000Y-5840000D02*
X19060000Y-5860000D01*
X19060000Y-5840000D02*
X19040000Y-5860000D01*
X19090000Y-5540000D02*
X19110000Y-5560000D01*
X19110000Y-5540000D02*
X19090000Y-5560000D01*
X19225700Y-5997100D02*
X19245700Y-6017100D01*
X19245700Y-5997100D02*
X19225700Y-6017100D01*
X19255900Y-4485800D02*
X19275900Y-4505800D01*
X19275900Y-4485800D02*
X19255900Y-4505800D01*
X19306700Y-4219100D02*
X19326700Y-4239100D01*
X19326700Y-4219100D02*
X19306700Y-4239100D01*
X19344800Y-5387500D02*
X19364800Y-5407500D01*
X19364800Y-5387500D02*
X19344800Y-5407500D01*
X19382900Y-5603400D02*
X19402900Y-5623400D01*
X19402900Y-5603400D02*
X19382900Y-5623400D01*
X19390000Y-5006500D02*
X19410000Y-5026500D01*
X19410000Y-5006500D02*
X19390000Y-5026500D01*
X19440000Y-5190000D02*
X19460000Y-5210000D01*
X19460000Y-5190000D02*
X19440000Y-5210000D01*
X19440000Y-5790000D02*
X19460000Y-5810000D01*
X19460000Y-5790000D02*
X19440000Y-5810000D01*
X19490000Y-5540000D02*
X19510000Y-5560000D01*
X19510000Y-5540000D02*
X19490000Y-5560000D01*
X20190000Y-4490000D02*
X20210000Y-4510000D01*
X20210000Y-4490000D02*
X20190000Y-4510000D01*
X20240000Y-5940000D02*
X20260000Y-5960000D01*
X20260000Y-5940000D02*
X20240000Y-5960000D01*
D13*
X10835000Y-5036250D02*
G75*
G03*
X10835000Y-5036250I-30000J0D01*
G01*
D11*
X10775000Y-4976250D02*
X10775000Y-5096250D01*
X10775000Y-5096250D02*
G75*
G03*
X10835000Y-5096250I30000J0D01*
G01*
X10835000Y-5096250D02*
X10835000Y-4976250D01*
X10835000Y-4976250D02*
G75*
G03*
X10775000Y-4976250I-30000J0D01*
G01*
D13*
X12725000Y-5036250D02*
G75*
G03*
X12725000Y-5036250I-30000J0D01*
G01*
D11*
X12665000Y-4976250D02*
X12665000Y-5096250D01*
X12665000Y-5096250D02*
G75*
G03*
X12725000Y-5096250I30000J0D01*
G01*
X12725000Y-5096250D02*
X12725000Y-4976250D01*
X12725000Y-4976250D02*
G75*
G03*
X12665000Y-4976250I-30000J0D01*
G01*
D13*
X13035000Y-5036250D02*
G75*
G03*
X13035000Y-5036250I-30000J0D01*
G01*
D11*
X12975000Y-4976250D02*
X12975000Y-5096250D01*
X12975000Y-5096250D02*
G75*
G03*
X13035000Y-5096250I30000J0D01*
G01*
X13035000Y-5096250D02*
X13035000Y-4976250D01*
X13035000Y-4976250D02*
G75*
G03*
X12975000Y-4976250I-30000J0D01*
G01*
D13*
X14925000Y-5036250D02*
G75*
G03*
X14925000Y-5036250I-30000J0D01*
G01*
D11*
X14865000Y-4976250D02*
X14865000Y-5096250D01*
X14865000Y-5096250D02*
G75*
G03*
X14925000Y-5096250I30000J0D01*
G01*
X14925000Y-5096250D02*
X14925000Y-4976250D01*
X14925000Y-4976250D02*
G75*
G03*
X14865000Y-4976250I-30000J0D01*
G01*
D14*
X17096000Y-4580050D02*
X17096000Y-4689050D01*
X17041500Y-4634550D02*
X17150500Y-4634550D01*
X17234500Y-4296050D02*
X17234500Y-4405050D01*
X17180000Y-4350550D02*
X17289000Y-4350550D01*
X17373000Y-4580050D02*
X17373000Y-4689050D01*
X17318500Y-4634550D02*
X17427500Y-4634550D01*
X17511500Y-4296050D02*
X17511500Y-4405050D01*
X17457000Y-4350550D02*
X17566000Y-4350550D01*
X17650000Y-4580050D02*
X17650000Y-4689050D01*
X17595500Y-4634550D02*
X17704500Y-4634550D01*
X17788500Y-4296050D02*
X17788500Y-4405050D01*
X17734000Y-4350550D02*
X17843000Y-4350550D01*
X17927000Y-4580050D02*
X17927000Y-4689050D01*
X17872500Y-4634550D02*
X17981500Y-4634550D01*
X18065500Y-4296050D02*
X18065500Y-4405050D01*
X18011000Y-4350550D02*
X18120000Y-4350550D01*
X18204000Y-4580050D02*
X18204000Y-4689050D01*
X18149500Y-4634550D02*
X18258500Y-4634550D01*
D15*
X11713891Y-8558891D02*
X11713891Y-8481109D01*
X11636109Y-8481109D01*
X11636109Y-8558891D01*
X11713891Y-8558891D01*
X11713891Y-9578891D02*
X11713891Y-9501109D01*
X11636109Y-9501109D01*
X11636109Y-9578891D01*
X11713891Y-9578891D01*
D16*
X19450000Y-6565000D02*
X19515000Y-6500000D01*
X19450000Y-6435000D01*
X19385000Y-6500000D01*
X19450000Y-6565000D01*
X19450000Y-7065000D02*
X19515000Y-7000000D01*
X19450000Y-6935000D01*
X19385000Y-7000000D01*
X19450000Y-7065000D01*
X19450000Y-7715000D02*
X19515000Y-7650000D01*
X19450000Y-7585000D01*
X19385000Y-7650000D01*
X19450000Y-7715000D01*
X19450000Y-8215000D02*
X19515000Y-8150000D01*
X19450000Y-8085000D01*
X19385000Y-8150000D01*
X19450000Y-8215000D01*
X19450000Y-8865000D02*
X19515000Y-8800000D01*
X19450000Y-8735000D01*
X19385000Y-8800000D01*
X19450000Y-8865000D01*
X19450000Y-9365000D02*
X19515000Y-9300000D01*
X19450000Y-9235000D01*
X19385000Y-9300000D01*
X19450000Y-9365000D01*
X19450000Y-9865000D02*
X19515000Y-9800000D01*
X19450000Y-9735000D01*
X19385000Y-9800000D01*
X19450000Y-9865000D01*
X19450000Y-10515000D02*
X19515000Y-10450000D01*
X19450000Y-10385000D01*
X19385000Y-10450000D01*
X19450000Y-10515000D01*
X19450000Y-11015000D02*
X19515000Y-10950000D01*
X19450000Y-10885000D01*
X19385000Y-10950000D01*
X19450000Y-11015000D01*
X19450000Y-11515000D02*
X19515000Y-11450000D01*
X19450000Y-11385000D01*
X19385000Y-11450000D01*
X19450000Y-11515000D01*
X19450000Y-12165000D02*
X19515000Y-12100000D01*
X19450000Y-12035000D01*
X19385000Y-12100000D01*
X19450000Y-12165000D01*
X19450000Y-12665000D02*
X19515000Y-12600000D01*
X19450000Y-12535000D01*
X19385000Y-12600000D01*
X19450000Y-12665000D01*
X19450000Y-13165000D02*
X19515000Y-13100000D01*
X19450000Y-13035000D01*
X19385000Y-13100000D01*
X19450000Y-13165000D01*
D17*
X12850000Y-8035000D02*
X13060000Y-8245000D01*
X13060000Y-8035000D02*
X12850000Y-8245000D01*
X13060000Y-8140000D02*
G75*
G03*
X13060000Y-8140000I-105000J0D01*
G01*
X13100000Y-9815000D02*
X13310000Y-10025000D01*
X13310000Y-9815000D02*
X13100000Y-10025000D01*
X13310000Y-9920000D02*
G75*
G03*
X13310000Y-9920000I-105000J0D01*
G01*
X13860000Y-9815000D02*
X14070000Y-10025000D01*
X14070000Y-9815000D02*
X13860000Y-10025000D01*
X14070000Y-9920000D02*
G75*
G03*
X14070000Y-9920000I-105000J0D01*
G01*
D18*
X8215000Y-5865000D02*
X8485000Y-6135000D01*
X8485000Y-5865000D02*
X8215000Y-6135000D01*
X8350000Y-5865000D02*
X8350000Y-6135000D01*
X8215000Y-6000000D02*
X8485000Y-6000000D01*
X8215000Y-6865000D02*
X8485000Y-7135000D01*
X8485000Y-6865000D02*
X8215000Y-7135000D01*
X8350000Y-6865000D02*
X8350000Y-7135000D01*
X8215000Y-7000000D02*
X8485000Y-7000000D01*
X8215000Y-7865000D02*
X8485000Y-8135000D01*
X8485000Y-7865000D02*
X8215000Y-8135000D01*
X8350000Y-7865000D02*
X8350000Y-8135000D01*
X8215000Y-8000000D02*
X8485000Y-8000000D01*
X8215000Y-8865000D02*
X8485000Y-9135000D01*
X8485000Y-8865000D02*
X8215000Y-9135000D01*
X8350000Y-8865000D02*
X8350000Y-9135000D01*
X8215000Y-9000000D02*
X8485000Y-9000000D01*
X8215000Y-9865000D02*
X8485000Y-10135000D01*
X8485000Y-9865000D02*
X8215000Y-10135000D01*
X8350000Y-9865000D02*
X8350000Y-10135000D01*
X8215000Y-10000000D02*
X8485000Y-10000000D01*
X8215000Y-10865000D02*
X8485000Y-11135000D01*
X8485000Y-10865000D02*
X8215000Y-11135000D01*
X8350000Y-10865000D02*
X8350000Y-11135000D01*
X8215000Y-11000000D02*
X8485000Y-11000000D01*
X8215000Y-11865000D02*
X8485000Y-12135000D01*
X8485000Y-11865000D02*
X8215000Y-12135000D01*
X8350000Y-11865000D02*
X8350000Y-12135000D01*
X8215000Y-12000000D02*
X8485000Y-12000000D01*
X8215000Y-12865000D02*
X8485000Y-13135000D01*
X8485000Y-12865000D02*
X8215000Y-13135000D01*
X8350000Y-12865000D02*
X8350000Y-13135000D01*
X8215000Y-13000000D02*
X8485000Y-13000000D01*
X8715000Y-5865000D02*
X8985000Y-6135000D01*
X8985000Y-5865000D02*
X8715000Y-6135000D01*
X8850000Y-5865000D02*
X8850000Y-6135000D01*
X8715000Y-6000000D02*
X8985000Y-6000000D01*
X8715000Y-6865000D02*
X8985000Y-7135000D01*
X8985000Y-6865000D02*
X8715000Y-7135000D01*
X8850000Y-6865000D02*
X8850000Y-7135000D01*
X8715000Y-7000000D02*
X8985000Y-7000000D01*
X8715000Y-7865000D02*
X8985000Y-8135000D01*
X8985000Y-7865000D02*
X8715000Y-8135000D01*
X8850000Y-7865000D02*
X8850000Y-8135000D01*
X8715000Y-8000000D02*
X8985000Y-8000000D01*
X8715000Y-8865000D02*
X8985000Y-9135000D01*
X8985000Y-8865000D02*
X8715000Y-9135000D01*
X8850000Y-8865000D02*
X8850000Y-9135000D01*
X8715000Y-9000000D02*
X8985000Y-9000000D01*
X8715000Y-9865000D02*
X8985000Y-10135000D01*
X8985000Y-9865000D02*
X8715000Y-10135000D01*
X8850000Y-9865000D02*
X8850000Y-10135000D01*
X8715000Y-10000000D02*
X8985000Y-10000000D01*
X8715000Y-10865000D02*
X8985000Y-11135000D01*
X8985000Y-10865000D02*
X8715000Y-11135000D01*
X8850000Y-10865000D02*
X8850000Y-11135000D01*
X8715000Y-11000000D02*
X8985000Y-11000000D01*
X8715000Y-11865000D02*
X8985000Y-12135000D01*
X8985000Y-11865000D02*
X8715000Y-12135000D01*
X8850000Y-11865000D02*
X8850000Y-12135000D01*
X8715000Y-12000000D02*
X8985000Y-12000000D01*
X8715000Y-12865000D02*
X8985000Y-13135000D01*
X8985000Y-12865000D02*
X8715000Y-13135000D01*
X8850000Y-12865000D02*
X8850000Y-13135000D01*
X8715000Y-13000000D02*
X8985000Y-13000000D01*
X10515000Y-15015000D02*
X10785000Y-15285000D01*
X10785000Y-15015000D02*
X10515000Y-15285000D01*
X10650000Y-15015000D02*
X10650000Y-15285000D01*
X10515000Y-15150000D02*
X10785000Y-15150000D01*
X10515000Y-15515000D02*
X10785000Y-15785000D01*
X10785000Y-15515000D02*
X10515000Y-15785000D01*
X10650000Y-15515000D02*
X10650000Y-15785000D01*
X10515000Y-15650000D02*
X10785000Y-15650000D01*
X11515000Y-15015000D02*
X11785000Y-15285000D01*
X11785000Y-15015000D02*
X11515000Y-15285000D01*
X11650000Y-15015000D02*
X11650000Y-15285000D01*
X11515000Y-15150000D02*
X11785000Y-15150000D01*
X11515000Y-15515000D02*
X11785000Y-15785000D01*
X11785000Y-15515000D02*
X11515000Y-15785000D01*
X11650000Y-15515000D02*
X11650000Y-15785000D01*
X11515000Y-15650000D02*
X11785000Y-15650000D01*
X12515000Y-15015000D02*
X12785000Y-15285000D01*
X12785000Y-15015000D02*
X12515000Y-15285000D01*
X12650000Y-15015000D02*
X12650000Y-15285000D01*
X12515000Y-15150000D02*
X12785000Y-15150000D01*
X12515000Y-15515000D02*
X12785000Y-15785000D01*
X12785000Y-15515000D02*
X12515000Y-15785000D01*
X12650000Y-15515000D02*
X12650000Y-15785000D01*
X12515000Y-15650000D02*
X12785000Y-15650000D01*
X13515000Y-15015000D02*
X13785000Y-15285000D01*
X13785000Y-15015000D02*
X13515000Y-15285000D01*
X13650000Y-15015000D02*
X13650000Y-15285000D01*
X13515000Y-15150000D02*
X13785000Y-15150000D01*
X13515000Y-15515000D02*
X13785000Y-15785000D01*
X13785000Y-15515000D02*
X13515000Y-15785000D01*
X13650000Y-15515000D02*
X13650000Y-15785000D01*
X13515000Y-15650000D02*
X13785000Y-15650000D01*
X14515000Y-15015000D02*
X14785000Y-15285000D01*
X14785000Y-15015000D02*
X14515000Y-15285000D01*
X14650000Y-15015000D02*
X14650000Y-15285000D01*
X14515000Y-15150000D02*
X14785000Y-15150000D01*
X14515000Y-15515000D02*
X14785000Y-15785000D01*
X14785000Y-15515000D02*
X14515000Y-15785000D01*
X14650000Y-15515000D02*
X14650000Y-15785000D01*
X14515000Y-15650000D02*
X14785000Y-15650000D01*
X15515000Y-15015000D02*
X15785000Y-15285000D01*
X15785000Y-15015000D02*
X15515000Y-15285000D01*
X15650000Y-15015000D02*
X15650000Y-15285000D01*
X15515000Y-15150000D02*
X15785000Y-15150000D01*
X15515000Y-15515000D02*
X15785000Y-15785000D01*
X15785000Y-15515000D02*
X15515000Y-15785000D01*
X15650000Y-15515000D02*
X15650000Y-15785000D01*
X15515000Y-15650000D02*
X15785000Y-15650000D01*
X16515000Y-15015000D02*
X16785000Y-15285000D01*
X16785000Y-15015000D02*
X16515000Y-15285000D01*
X16650000Y-15015000D02*
X16650000Y-15285000D01*
X16515000Y-15150000D02*
X16785000Y-15150000D01*
X16515000Y-15515000D02*
X16785000Y-15785000D01*
X16785000Y-15515000D02*
X16515000Y-15785000D01*
X16650000Y-15515000D02*
X16650000Y-15785000D01*
X16515000Y-15650000D02*
X16785000Y-15650000D01*
X17515000Y-15015000D02*
X17785000Y-15285000D01*
X17785000Y-15015000D02*
X17515000Y-15285000D01*
X17650000Y-15015000D02*
X17650000Y-15285000D01*
X17515000Y-15150000D02*
X17785000Y-15150000D01*
X17515000Y-15515000D02*
X17785000Y-15785000D01*
X17785000Y-15515000D02*
X17515000Y-15785000D01*
X17650000Y-15515000D02*
X17650000Y-15785000D01*
X17515000Y-15650000D02*
X17785000Y-15650000D01*
D19*
X16248000Y-4340050D02*
X16553000Y-4645050D01*
X16553000Y-4340050D02*
X16248000Y-4645050D01*
X16508335Y-4600385D02*
X16508335Y-4384715D01*
X16292665Y-4384715D01*
X16292665Y-4600385D01*
X16508335Y-4600385D01*
X18747000Y-4340050D02*
X19052000Y-4645050D01*
X19052000Y-4340050D02*
X18747000Y-4645050D01*
X19007335Y-4600385D02*
X19007335Y-4384715D01*
X18791665Y-4384715D01*
X18791665Y-4600385D01*
X19007335Y-4600385D01*
D20*
X7840000Y-3840000D02*
X8160000Y-4160000D01*
X8160000Y-3840000D02*
X7840000Y-4160000D01*
X8000000Y-4160000D02*
X8160000Y-4000000D01*
X8000000Y-3840000D01*
X7840000Y-4000000D01*
X8000000Y-4160000D01*
X7840000Y-15840000D02*
X8160000Y-16160000D01*
X8160000Y-15840000D02*
X7840000Y-16160000D01*
X8000000Y-16160000D02*
X8160000Y-16000000D01*
X8000000Y-15840000D01*
X7840000Y-16000000D01*
X8000000Y-16160000D01*
X19840000Y-3840000D02*
X20160000Y-4160000D01*
X20160000Y-3840000D02*
X19840000Y-4160000D01*
X20000000Y-4160000D02*
X20160000Y-4000000D01*
X20000000Y-3840000D01*
X19840000Y-4000000D01*
X20000000Y-4160000D01*
X19840000Y-15840000D02*
X20160000Y-16160000D01*
X20160000Y-15840000D02*
X19840000Y-16160000D01*
X20000000Y-16160000D02*
X20160000Y-16000000D01*
X20000000Y-15840000D01*
X19840000Y-16000000D01*
X20000000Y-16160000D01*
D21*
X11205000Y-5786250D02*
X11205000Y-6166250D01*
X11015000Y-5976250D02*
X11395000Y-5976250D01*
X11395000Y-5976250D02*
G75*
G03*
X11395000Y-5976250I-190000J0D01*
G01*
X12295000Y-5786250D02*
X12295000Y-6166250D01*
X12105000Y-5976250D02*
X12485000Y-5976250D01*
X12485000Y-5976250D02*
G75*
G03*
X12485000Y-5976250I-190000J0D01*
G01*
X13405000Y-5786250D02*
X13405000Y-6166250D01*
X13215000Y-5976250D02*
X13595000Y-5976250D01*
X13595000Y-5976250D02*
G75*
G03*
X13595000Y-5976250I-190000J0D01*
G01*
X14495000Y-5786250D02*
X14495000Y-6166250D01*
X14305000Y-5976250D02*
X14685000Y-5976250D01*
X14685000Y-5976250D02*
G75*
G03*
X14685000Y-5976250I-190000J0D01*
G01*
D22*
X9209101Y-4639101D02*
X9209101Y-4320899D01*
X8890899Y-4320899D01*
X8890899Y-4639101D01*
X9209101Y-4639101D01*
X9275000Y-4480000D02*
G75*
G03*
X9275000Y-4480000I-225000J0D01*
G01*
X9209101Y-5359101D02*
X9209101Y-5040899D01*
X8890899Y-5040899D01*
X8890899Y-5359101D01*
X9209101Y-5359101D01*
X9275000Y-5200000D02*
G75*
G03*
X9275000Y-5200000I-225000J0D01*
G01*
X10159101Y-4639101D02*
X10159101Y-4320899D01*
X9840899Y-4320899D01*
X9840899Y-4639101D01*
X10159101Y-4639101D01*
X10225000Y-4480000D02*
G75*
G03*
X10225000Y-4480000I-225000J0D01*
G01*
X10159101Y-5359101D02*
X10159101Y-5040899D01*
X9840899Y-5040899D01*
X9840899Y-5359101D01*
X10159101Y-5359101D01*
X10225000Y-5200000D02*
G75*
G03*
X10225000Y-5200000I-225000J0D01*
G01*
X15709101Y-4639101D02*
X15709101Y-4320899D01*
X15390899Y-4320899D01*
X15390899Y-4639101D01*
X15709101Y-4639101D01*
X15775000Y-4480000D02*
G75*
G03*
X15775000Y-4480000I-225000J0D01*
G01*
X15709101Y-5359101D02*
X15709101Y-5040899D01*
X15390899Y-5040899D01*
X15390899Y-5359101D01*
X15709101Y-5359101D01*
X15775000Y-5200000D02*
G75*
G03*
X15775000Y-5200000I-225000J0D01*
G01*
X18959101Y-14059101D02*
X18959101Y-13740899D01*
X18640899Y-13740899D01*
X18640899Y-14059101D01*
X18959101Y-14059101D01*
X19025000Y-13900000D02*
G75*
G03*
X19025000Y-13900000I-225000J0D01*
G01*
X18959101Y-15009101D02*
X18959101Y-14690899D01*
X18640899Y-14690899D01*
X18640899Y-15009101D01*
X18959101Y-15009101D01*
X19025000Y-14850000D02*
G75*
G03*
X19025000Y-14850000I-225000J0D01*
G01*
X19679101Y-14059101D02*
X19679101Y-13740899D01*
X19360899Y-13740899D01*
X19360899Y-14059101D01*
X19679101Y-14059101D01*
X19745000Y-13900000D02*
G75*
G03*
X19745000Y-13900000I-225000J0D01*
G01*
X19679101Y-15009101D02*
X19679101Y-14690899D01*
X19360899Y-14690899D01*
X19360899Y-15009101D01*
X19679101Y-15009101D01*
X19745000Y-14850000D02*
G75*
G03*
X19745000Y-14850000I-225000J0D01*
G01*
D11*
X7740119Y-16820024D02*
X7740119Y-16620024D01*
X7740119Y-16620024D02*
X7787738Y-16620024D01*
X7787738Y-16620024D02*
X7816309Y-16629548D01*
X7816309Y-16629548D02*
X7835357Y-16648595D01*
X7835357Y-16648595D02*
X7844881Y-16667643D01*
X7844881Y-16667643D02*
X7854405Y-16705738D01*
X7854405Y-16705738D02*
X7854405Y-16734309D01*
X7854405Y-16734309D02*
X7844881Y-16772405D01*
X7844881Y-16772405D02*
X7835357Y-16791452D01*
X7835357Y-16791452D02*
X7816309Y-16810500D01*
X7816309Y-16810500D02*
X7787738Y-16820024D01*
X7787738Y-16820024D02*
X7740119Y-16820024D01*
X7940119Y-16820024D02*
X7940119Y-16686690D01*
X7940119Y-16724786D02*
X7949643Y-16705738D01*
X7949643Y-16705738D02*
X7959167Y-16696214D01*
X7959167Y-16696214D02*
X7978214Y-16686690D01*
X7978214Y-16686690D02*
X7997262Y-16686690D01*
X8063928Y-16820024D02*
X8063928Y-16686690D01*
X8063928Y-16620024D02*
X8054405Y-16629548D01*
X8054405Y-16629548D02*
X8063928Y-16639071D01*
X8063928Y-16639071D02*
X8073452Y-16629548D01*
X8073452Y-16629548D02*
X8063928Y-16620024D01*
X8063928Y-16620024D02*
X8063928Y-16639071D01*
X8187738Y-16820024D02*
X8168690Y-16810500D01*
X8168690Y-16810500D02*
X8159167Y-16791452D01*
X8159167Y-16791452D02*
X8159167Y-16620024D01*
X8292500Y-16820024D02*
X8273452Y-16810500D01*
X8273452Y-16810500D02*
X8263928Y-16791452D01*
X8263928Y-16791452D02*
X8263928Y-16620024D01*
X8521071Y-16820024D02*
X8521071Y-16620024D01*
X8521071Y-16620024D02*
X8587738Y-16762881D01*
X8587738Y-16762881D02*
X8654405Y-16620024D01*
X8654405Y-16620024D02*
X8654405Y-16820024D01*
X8835357Y-16820024D02*
X8835357Y-16715262D01*
X8835357Y-16715262D02*
X8825833Y-16696214D01*
X8825833Y-16696214D02*
X8806786Y-16686690D01*
X8806786Y-16686690D02*
X8768690Y-16686690D01*
X8768690Y-16686690D02*
X8749643Y-16696214D01*
X8835357Y-16810500D02*
X8816310Y-16820024D01*
X8816310Y-16820024D02*
X8768690Y-16820024D01*
X8768690Y-16820024D02*
X8749643Y-16810500D01*
X8749643Y-16810500D02*
X8740119Y-16791452D01*
X8740119Y-16791452D02*
X8740119Y-16772405D01*
X8740119Y-16772405D02*
X8749643Y-16753357D01*
X8749643Y-16753357D02*
X8768690Y-16743833D01*
X8768690Y-16743833D02*
X8816310Y-16743833D01*
X8816310Y-16743833D02*
X8835357Y-16734309D01*
X8930595Y-16686690D02*
X8930595Y-16886690D01*
X8930595Y-16696214D02*
X8949643Y-16686690D01*
X8949643Y-16686690D02*
X8987738Y-16686690D01*
X8987738Y-16686690D02*
X9006786Y-16696214D01*
X9006786Y-16696214D02*
X9016310Y-16705738D01*
X9016310Y-16705738D02*
X9025833Y-16724786D01*
X9025833Y-16724786D02*
X9025833Y-16781929D01*
X9025833Y-16781929D02*
X9016310Y-16800976D01*
X9016310Y-16800976D02*
X9006786Y-16810500D01*
X9006786Y-16810500D02*
X8987738Y-16820024D01*
X8987738Y-16820024D02*
X8949643Y-16820024D01*
X8949643Y-16820024D02*
X8930595Y-16810500D01*
X9111548Y-16800976D02*
X9121071Y-16810500D01*
X9121071Y-16810500D02*
X9111548Y-16820024D01*
X9111548Y-16820024D02*
X9102024Y-16810500D01*
X9102024Y-16810500D02*
X9111548Y-16800976D01*
X9111548Y-16800976D02*
X9111548Y-16820024D01*
X9111548Y-16696214D02*
X9121071Y-16705738D01*
X9121071Y-16705738D02*
X9111548Y-16715262D01*
X9111548Y-16715262D02*
X9102024Y-16705738D01*
X9102024Y-16705738D02*
X9111548Y-16696214D01*
X9111548Y-16696214D02*
X9111548Y-16715262D01*
D12*
X7472500Y-17137500D02*
X7492500Y-17157500D01*
X7492500Y-17137500D02*
X7472500Y-17157500D01*
D11*
X7778214Y-17040024D02*
X7797262Y-17040024D01*
X7797262Y-17040024D02*
X7816309Y-17049548D01*
X7816309Y-17049548D02*
X7825833Y-17059071D01*
X7825833Y-17059071D02*
X7835357Y-17078119D01*
X7835357Y-17078119D02*
X7844881Y-17116214D01*
X7844881Y-17116214D02*
X7844881Y-17163833D01*
X7844881Y-17163833D02*
X7835357Y-17201929D01*
X7835357Y-17201929D02*
X7825833Y-17220976D01*
X7825833Y-17220976D02*
X7816309Y-17230500D01*
X7816309Y-17230500D02*
X7797262Y-17240024D01*
X7797262Y-17240024D02*
X7778214Y-17240024D01*
X7778214Y-17240024D02*
X7759167Y-17230500D01*
X7759167Y-17230500D02*
X7749643Y-17220976D01*
X7749643Y-17220976D02*
X7740119Y-17201929D01*
X7740119Y-17201929D02*
X7730595Y-17163833D01*
X7730595Y-17163833D02*
X7730595Y-17116214D01*
X7730595Y-17116214D02*
X7740119Y-17078119D01*
X7740119Y-17078119D02*
X7749643Y-17059071D01*
X7749643Y-17059071D02*
X7759167Y-17049548D01*
X7759167Y-17049548D02*
X7778214Y-17040024D01*
X7930595Y-17220976D02*
X7940119Y-17230500D01*
X7940119Y-17230500D02*
X7930595Y-17240024D01*
X7930595Y-17240024D02*
X7921071Y-17230500D01*
X7921071Y-17230500D02*
X7930595Y-17220976D01*
X7930595Y-17220976D02*
X7930595Y-17240024D01*
X8016309Y-17059071D02*
X8025833Y-17049548D01*
X8025833Y-17049548D02*
X8044881Y-17040024D01*
X8044881Y-17040024D02*
X8092500Y-17040024D01*
X8092500Y-17040024D02*
X8111548Y-17049548D01*
X8111548Y-17049548D02*
X8121071Y-17059071D01*
X8121071Y-17059071D02*
X8130595Y-17078119D01*
X8130595Y-17078119D02*
X8130595Y-17097167D01*
X8130595Y-17097167D02*
X8121071Y-17125738D01*
X8121071Y-17125738D02*
X8006786Y-17240024D01*
X8006786Y-17240024D02*
X8130595Y-17240024D01*
X8254405Y-17040024D02*
X8273452Y-17040024D01*
X8273452Y-17040024D02*
X8292500Y-17049548D01*
X8292500Y-17049548D02*
X8302024Y-17059071D01*
X8302024Y-17059071D02*
X8311548Y-17078119D01*
X8311548Y-17078119D02*
X8321071Y-17116214D01*
X8321071Y-17116214D02*
X8321071Y-17163833D01*
X8321071Y-17163833D02*
X8311548Y-17201929D01*
X8311548Y-17201929D02*
X8302024Y-17220976D01*
X8302024Y-17220976D02*
X8292500Y-17230500D01*
X8292500Y-17230500D02*
X8273452Y-17240024D01*
X8273452Y-17240024D02*
X8254405Y-17240024D01*
X8254405Y-17240024D02*
X8235357Y-17230500D01*
X8235357Y-17230500D02*
X8225833Y-17220976D01*
X8225833Y-17220976D02*
X8216309Y-17201929D01*
X8216309Y-17201929D02*
X8206786Y-17163833D01*
X8206786Y-17163833D02*
X8206786Y-17116214D01*
X8206786Y-17116214D02*
X8216309Y-17078119D01*
X8216309Y-17078119D02*
X8225833Y-17059071D01*
X8225833Y-17059071D02*
X8235357Y-17049548D01*
X8235357Y-17049548D02*
X8254405Y-17040024D01*
X8444881Y-17040024D02*
X8463929Y-17040024D01*
X8463929Y-17040024D02*
X8482976Y-17049548D01*
X8482976Y-17049548D02*
X8492500Y-17059071D01*
X8492500Y-17059071D02*
X8502024Y-17078119D01*
X8502024Y-17078119D02*
X8511548Y-17116214D01*
X8511548Y-17116214D02*
X8511548Y-17163833D01*
X8511548Y-17163833D02*
X8502024Y-17201929D01*
X8502024Y-17201929D02*
X8492500Y-17220976D01*
X8492500Y-17220976D02*
X8482976Y-17230500D01*
X8482976Y-17230500D02*
X8463929Y-17240024D01*
X8463929Y-17240024D02*
X8444881Y-17240024D01*
X8444881Y-17240024D02*
X8425833Y-17230500D01*
X8425833Y-17230500D02*
X8416310Y-17220976D01*
X8416310Y-17220976D02*
X8406786Y-17201929D01*
X8406786Y-17201929D02*
X8397262Y-17163833D01*
X8397262Y-17163833D02*
X8397262Y-17116214D01*
X8397262Y-17116214D02*
X8406786Y-17078119D01*
X8406786Y-17078119D02*
X8416310Y-17059071D01*
X8416310Y-17059071D02*
X8425833Y-17049548D01*
X8425833Y-17049548D02*
X8444881Y-17040024D01*
X8597262Y-17240024D02*
X8597262Y-17106690D01*
X8597262Y-17125738D02*
X8606786Y-17116214D01*
X8606786Y-17116214D02*
X8625833Y-17106690D01*
X8625833Y-17106690D02*
X8654405Y-17106690D01*
X8654405Y-17106690D02*
X8673452Y-17116214D01*
X8673452Y-17116214D02*
X8682976Y-17135262D01*
X8682976Y-17135262D02*
X8682976Y-17240024D01*
X8682976Y-17135262D02*
X8692500Y-17116214D01*
X8692500Y-17116214D02*
X8711548Y-17106690D01*
X8711548Y-17106690D02*
X8740119Y-17106690D01*
X8740119Y-17106690D02*
X8759167Y-17116214D01*
X8759167Y-17116214D02*
X8768691Y-17135262D01*
X8768691Y-17135262D02*
X8768691Y-17240024D01*
X8863929Y-17240024D02*
X8863929Y-17106690D01*
X8863929Y-17125738D02*
X8873452Y-17116214D01*
X8873452Y-17116214D02*
X8892500Y-17106690D01*
X8892500Y-17106690D02*
X8921072Y-17106690D01*
X8921072Y-17106690D02*
X8940119Y-17116214D01*
X8940119Y-17116214D02*
X8949643Y-17135262D01*
X8949643Y-17135262D02*
X8949643Y-17240024D01*
X8949643Y-17135262D02*
X8959167Y-17116214D01*
X8959167Y-17116214D02*
X8978214Y-17106690D01*
X8978214Y-17106690D02*
X9006786Y-17106690D01*
X9006786Y-17106690D02*
X9025833Y-17116214D01*
X9025833Y-17116214D02*
X9035357Y-17135262D01*
X9035357Y-17135262D02*
X9035357Y-17240024D01*
X9425833Y-17030500D02*
X9254405Y-17287643D01*
X9682976Y-17040024D02*
X9702024Y-17040024D01*
X9702024Y-17040024D02*
X9721072Y-17049548D01*
X9721072Y-17049548D02*
X9730595Y-17059071D01*
X9730595Y-17059071D02*
X9740119Y-17078119D01*
X9740119Y-17078119D02*
X9749643Y-17116214D01*
X9749643Y-17116214D02*
X9749643Y-17163833D01*
X9749643Y-17163833D02*
X9740119Y-17201929D01*
X9740119Y-17201929D02*
X9730595Y-17220976D01*
X9730595Y-17220976D02*
X9721072Y-17230500D01*
X9721072Y-17230500D02*
X9702024Y-17240024D01*
X9702024Y-17240024D02*
X9682976Y-17240024D01*
X9682976Y-17240024D02*
X9663929Y-17230500D01*
X9663929Y-17230500D02*
X9654405Y-17220976D01*
X9654405Y-17220976D02*
X9644881Y-17201929D01*
X9644881Y-17201929D02*
X9635357Y-17163833D01*
X9635357Y-17163833D02*
X9635357Y-17116214D01*
X9635357Y-17116214D02*
X9644881Y-17078119D01*
X9644881Y-17078119D02*
X9654405Y-17059071D01*
X9654405Y-17059071D02*
X9663929Y-17049548D01*
X9663929Y-17049548D02*
X9682976Y-17040024D01*
X9835357Y-17220976D02*
X9844881Y-17230500D01*
X9844881Y-17230500D02*
X9835357Y-17240024D01*
X9835357Y-17240024D02*
X9825834Y-17230500D01*
X9825834Y-17230500D02*
X9835357Y-17220976D01*
X9835357Y-17220976D02*
X9835357Y-17240024D01*
X9968691Y-17040024D02*
X9987738Y-17040024D01*
X9987738Y-17040024D02*
X10006786Y-17049548D01*
X10006786Y-17049548D02*
X10016310Y-17059071D01*
X10016310Y-17059071D02*
X10025834Y-17078119D01*
X10025834Y-17078119D02*
X10035357Y-17116214D01*
X10035357Y-17116214D02*
X10035357Y-17163833D01*
X10035357Y-17163833D02*
X10025834Y-17201929D01*
X10025834Y-17201929D02*
X10016310Y-17220976D01*
X10016310Y-17220976D02*
X10006786Y-17230500D01*
X10006786Y-17230500D02*
X9987738Y-17240024D01*
X9987738Y-17240024D02*
X9968691Y-17240024D01*
X9968691Y-17240024D02*
X9949643Y-17230500D01*
X9949643Y-17230500D02*
X9940119Y-17220976D01*
X9940119Y-17220976D02*
X9930595Y-17201929D01*
X9930595Y-17201929D02*
X9921072Y-17163833D01*
X9921072Y-17163833D02*
X9921072Y-17116214D01*
X9921072Y-17116214D02*
X9930595Y-17078119D01*
X9930595Y-17078119D02*
X9940119Y-17059071D01*
X9940119Y-17059071D02*
X9949643Y-17049548D01*
X9949643Y-17049548D02*
X9968691Y-17040024D01*
X10159167Y-17040024D02*
X10178215Y-17040024D01*
X10178215Y-17040024D02*
X10197262Y-17049548D01*
X10197262Y-17049548D02*
X10206786Y-17059071D01*
X10206786Y-17059071D02*
X10216310Y-17078119D01*
X10216310Y-17078119D02*
X10225834Y-17116214D01*
X10225834Y-17116214D02*
X10225834Y-17163833D01*
X10225834Y-17163833D02*
X10216310Y-17201929D01*
X10216310Y-17201929D02*
X10206786Y-17220976D01*
X10206786Y-17220976D02*
X10197262Y-17230500D01*
X10197262Y-17230500D02*
X10178215Y-17240024D01*
X10178215Y-17240024D02*
X10159167Y-17240024D01*
X10159167Y-17240024D02*
X10140119Y-17230500D01*
X10140119Y-17230500D02*
X10130595Y-17220976D01*
X10130595Y-17220976D02*
X10121072Y-17201929D01*
X10121072Y-17201929D02*
X10111548Y-17163833D01*
X10111548Y-17163833D02*
X10111548Y-17116214D01*
X10111548Y-17116214D02*
X10121072Y-17078119D01*
X10121072Y-17078119D02*
X10130595Y-17059071D01*
X10130595Y-17059071D02*
X10140119Y-17049548D01*
X10140119Y-17049548D02*
X10159167Y-17040024D01*
X10292500Y-17040024D02*
X10425834Y-17040024D01*
X10425834Y-17040024D02*
X10340119Y-17240024D01*
X10511548Y-17240024D02*
X10549643Y-17240024D01*
X10549643Y-17240024D02*
X10568691Y-17230500D01*
X10568691Y-17230500D02*
X10578215Y-17220976D01*
X10578215Y-17220976D02*
X10597262Y-17192405D01*
X10597262Y-17192405D02*
X10606786Y-17154310D01*
X10606786Y-17154310D02*
X10606786Y-17078119D01*
X10606786Y-17078119D02*
X10597262Y-17059071D01*
X10597262Y-17059071D02*
X10587738Y-17049548D01*
X10587738Y-17049548D02*
X10568691Y-17040024D01*
X10568691Y-17040024D02*
X10530595Y-17040024D01*
X10530595Y-17040024D02*
X10511548Y-17049548D01*
X10511548Y-17049548D02*
X10502024Y-17059071D01*
X10502024Y-17059071D02*
X10492500Y-17078119D01*
X10492500Y-17078119D02*
X10492500Y-17125738D01*
X10492500Y-17125738D02*
X10502024Y-17144786D01*
X10502024Y-17144786D02*
X10511548Y-17154310D01*
X10511548Y-17154310D02*
X10530595Y-17163833D01*
X10530595Y-17163833D02*
X10568691Y-17163833D01*
X10568691Y-17163833D02*
X10587738Y-17154310D01*
X10587738Y-17154310D02*
X10597262Y-17144786D01*
X10597262Y-17144786D02*
X10606786Y-17125738D01*
X10682976Y-17040024D02*
X10682976Y-17078119D01*
X10759167Y-17040024D02*
X10759167Y-17078119D01*
X11054405Y-17316214D02*
X11044881Y-17306690D01*
X11044881Y-17306690D02*
X11025834Y-17278119D01*
X11025834Y-17278119D02*
X11016310Y-17259071D01*
X11016310Y-17259071D02*
X11006786Y-17230500D01*
X11006786Y-17230500D02*
X10997262Y-17182881D01*
X10997262Y-17182881D02*
X10997262Y-17144786D01*
X10997262Y-17144786D02*
X11006786Y-17097167D01*
X11006786Y-17097167D02*
X11016310Y-17068595D01*
X11016310Y-17068595D02*
X11025834Y-17049548D01*
X11025834Y-17049548D02*
X11044881Y-17020976D01*
X11044881Y-17020976D02*
X11054405Y-17011452D01*
X11121072Y-17059071D02*
X11130596Y-17049548D01*
X11130596Y-17049548D02*
X11149643Y-17040024D01*
X11149643Y-17040024D02*
X11197262Y-17040024D01*
X11197262Y-17040024D02*
X11216310Y-17049548D01*
X11216310Y-17049548D02*
X11225834Y-17059071D01*
X11225834Y-17059071D02*
X11235357Y-17078119D01*
X11235357Y-17078119D02*
X11235357Y-17097167D01*
X11235357Y-17097167D02*
X11225834Y-17125738D01*
X11225834Y-17125738D02*
X11111548Y-17240024D01*
X11111548Y-17240024D02*
X11235357Y-17240024D01*
X11406786Y-17106690D02*
X11406786Y-17240024D01*
X11359167Y-17030500D02*
X11311548Y-17173357D01*
X11311548Y-17173357D02*
X11435357Y-17173357D01*
X11521072Y-17240024D02*
X11559167Y-17240024D01*
X11559167Y-17240024D02*
X11578215Y-17230500D01*
X11578215Y-17230500D02*
X11587738Y-17220976D01*
X11587738Y-17220976D02*
X11606786Y-17192405D01*
X11606786Y-17192405D02*
X11616310Y-17154310D01*
X11616310Y-17154310D02*
X11616310Y-17078119D01*
X11616310Y-17078119D02*
X11606786Y-17059071D01*
X11606786Y-17059071D02*
X11597262Y-17049548D01*
X11597262Y-17049548D02*
X11578215Y-17040024D01*
X11578215Y-17040024D02*
X11540119Y-17040024D01*
X11540119Y-17040024D02*
X11521072Y-17049548D01*
X11521072Y-17049548D02*
X11511548Y-17059071D01*
X11511548Y-17059071D02*
X11502024Y-17078119D01*
X11502024Y-17078119D02*
X11502024Y-17125738D01*
X11502024Y-17125738D02*
X11511548Y-17144786D01*
X11511548Y-17144786D02*
X11521072Y-17154310D01*
X11521072Y-17154310D02*
X11540119Y-17163833D01*
X11540119Y-17163833D02*
X11578215Y-17163833D01*
X11578215Y-17163833D02*
X11597262Y-17154310D01*
X11597262Y-17154310D02*
X11606786Y-17144786D01*
X11606786Y-17144786D02*
X11616310Y-17125738D01*
X11854405Y-17240024D02*
X11854405Y-17040024D01*
X11940119Y-17240024D02*
X11940119Y-17135262D01*
X11940119Y-17135262D02*
X11930596Y-17116214D01*
X11930596Y-17116214D02*
X11911548Y-17106690D01*
X11911548Y-17106690D02*
X11882976Y-17106690D01*
X11882976Y-17106690D02*
X11863929Y-17116214D01*
X11863929Y-17116214D02*
X11854405Y-17125738D01*
X12063929Y-17240024D02*
X12044881Y-17230500D01*
X12044881Y-17230500D02*
X12035357Y-17220976D01*
X12035357Y-17220976D02*
X12025834Y-17201929D01*
X12025834Y-17201929D02*
X12025834Y-17144786D01*
X12025834Y-17144786D02*
X12035357Y-17125738D01*
X12035357Y-17125738D02*
X12044881Y-17116214D01*
X12044881Y-17116214D02*
X12063929Y-17106690D01*
X12063929Y-17106690D02*
X12092500Y-17106690D01*
X12092500Y-17106690D02*
X12111548Y-17116214D01*
X12111548Y-17116214D02*
X12121072Y-17125738D01*
X12121072Y-17125738D02*
X12130596Y-17144786D01*
X12130596Y-17144786D02*
X12130596Y-17201929D01*
X12130596Y-17201929D02*
X12121072Y-17220976D01*
X12121072Y-17220976D02*
X12111548Y-17230500D01*
X12111548Y-17230500D02*
X12092500Y-17240024D01*
X12092500Y-17240024D02*
X12063929Y-17240024D01*
X12244881Y-17240024D02*
X12225834Y-17230500D01*
X12225834Y-17230500D02*
X12216310Y-17211452D01*
X12216310Y-17211452D02*
X12216310Y-17040024D01*
X12397262Y-17230500D02*
X12378215Y-17240024D01*
X12378215Y-17240024D02*
X12340119Y-17240024D01*
X12340119Y-17240024D02*
X12321072Y-17230500D01*
X12321072Y-17230500D02*
X12311548Y-17211452D01*
X12311548Y-17211452D02*
X12311548Y-17135262D01*
X12311548Y-17135262D02*
X12321072Y-17116214D01*
X12321072Y-17116214D02*
X12340119Y-17106690D01*
X12340119Y-17106690D02*
X12378215Y-17106690D01*
X12378215Y-17106690D02*
X12397262Y-17116214D01*
X12397262Y-17116214D02*
X12406786Y-17135262D01*
X12406786Y-17135262D02*
X12406786Y-17154310D01*
X12406786Y-17154310D02*
X12311548Y-17173357D01*
X12482977Y-17230500D02*
X12502024Y-17240024D01*
X12502024Y-17240024D02*
X12540119Y-17240024D01*
X12540119Y-17240024D02*
X12559167Y-17230500D01*
X12559167Y-17230500D02*
X12568691Y-17211452D01*
X12568691Y-17211452D02*
X12568691Y-17201929D01*
X12568691Y-17201929D02*
X12559167Y-17182881D01*
X12559167Y-17182881D02*
X12540119Y-17173357D01*
X12540119Y-17173357D02*
X12511548Y-17173357D01*
X12511548Y-17173357D02*
X12492500Y-17163833D01*
X12492500Y-17163833D02*
X12482977Y-17144786D01*
X12482977Y-17144786D02*
X12482977Y-17135262D01*
X12482977Y-17135262D02*
X12492500Y-17116214D01*
X12492500Y-17116214D02*
X12511548Y-17106690D01*
X12511548Y-17106690D02*
X12540119Y-17106690D01*
X12540119Y-17106690D02*
X12559167Y-17116214D01*
X12635358Y-17316214D02*
X12644881Y-17306690D01*
X12644881Y-17306690D02*
X12663929Y-17278119D01*
X12663929Y-17278119D02*
X12673453Y-17259071D01*
X12673453Y-17259071D02*
X12682977Y-17230500D01*
X12682977Y-17230500D02*
X12692500Y-17182881D01*
X12692500Y-17182881D02*
X12692500Y-17144786D01*
X12692500Y-17144786D02*
X12682977Y-17097167D01*
X12682977Y-17097167D02*
X12673453Y-17068595D01*
X12673453Y-17068595D02*
X12663929Y-17049548D01*
X12663929Y-17049548D02*
X12644881Y-17020976D01*
X12644881Y-17020976D02*
X12635358Y-17011452D01*
D13*
X7492500Y-17411500D02*
G75*
G03*
X7492500Y-17411500I-30000J0D01*
G01*
D11*
X7778214Y-17304024D02*
X7797262Y-17304024D01*
X7797262Y-17304024D02*
X7816309Y-17313548D01*
X7816309Y-17313548D02*
X7825833Y-17323071D01*
X7825833Y-17323071D02*
X7835357Y-17342119D01*
X7835357Y-17342119D02*
X7844881Y-17380214D01*
X7844881Y-17380214D02*
X7844881Y-17427833D01*
X7844881Y-17427833D02*
X7835357Y-17465929D01*
X7835357Y-17465929D02*
X7825833Y-17484976D01*
X7825833Y-17484976D02*
X7816309Y-17494500D01*
X7816309Y-17494500D02*
X7797262Y-17504024D01*
X7797262Y-17504024D02*
X7778214Y-17504024D01*
X7778214Y-17504024D02*
X7759167Y-17494500D01*
X7759167Y-17494500D02*
X7749643Y-17484976D01*
X7749643Y-17484976D02*
X7740119Y-17465929D01*
X7740119Y-17465929D02*
X7730595Y-17427833D01*
X7730595Y-17427833D02*
X7730595Y-17380214D01*
X7730595Y-17380214D02*
X7740119Y-17342119D01*
X7740119Y-17342119D02*
X7749643Y-17323071D01*
X7749643Y-17323071D02*
X7759167Y-17313548D01*
X7759167Y-17313548D02*
X7778214Y-17304024D01*
X7930595Y-17484976D02*
X7940119Y-17494500D01*
X7940119Y-17494500D02*
X7930595Y-17504024D01*
X7930595Y-17504024D02*
X7921071Y-17494500D01*
X7921071Y-17494500D02*
X7930595Y-17484976D01*
X7930595Y-17484976D02*
X7930595Y-17504024D01*
X8111548Y-17304024D02*
X8073452Y-17304024D01*
X8073452Y-17304024D02*
X8054405Y-17313548D01*
X8054405Y-17313548D02*
X8044881Y-17323071D01*
X8044881Y-17323071D02*
X8025833Y-17351643D01*
X8025833Y-17351643D02*
X8016309Y-17389738D01*
X8016309Y-17389738D02*
X8016309Y-17465929D01*
X8016309Y-17465929D02*
X8025833Y-17484976D01*
X8025833Y-17484976D02*
X8035357Y-17494500D01*
X8035357Y-17494500D02*
X8054405Y-17504024D01*
X8054405Y-17504024D02*
X8092500Y-17504024D01*
X8092500Y-17504024D02*
X8111548Y-17494500D01*
X8111548Y-17494500D02*
X8121071Y-17484976D01*
X8121071Y-17484976D02*
X8130595Y-17465929D01*
X8130595Y-17465929D02*
X8130595Y-17418310D01*
X8130595Y-17418310D02*
X8121071Y-17399262D01*
X8121071Y-17399262D02*
X8111548Y-17389738D01*
X8111548Y-17389738D02*
X8092500Y-17380214D01*
X8092500Y-17380214D02*
X8054405Y-17380214D01*
X8054405Y-17380214D02*
X8035357Y-17389738D01*
X8035357Y-17389738D02*
X8025833Y-17399262D01*
X8025833Y-17399262D02*
X8016309Y-17418310D01*
X8254405Y-17304024D02*
X8273452Y-17304024D01*
X8273452Y-17304024D02*
X8292500Y-17313548D01*
X8292500Y-17313548D02*
X8302024Y-17323071D01*
X8302024Y-17323071D02*
X8311548Y-17342119D01*
X8311548Y-17342119D02*
X8321071Y-17380214D01*
X8321071Y-17380214D02*
X8321071Y-17427833D01*
X8321071Y-17427833D02*
X8311548Y-17465929D01*
X8311548Y-17465929D02*
X8302024Y-17484976D01*
X8302024Y-17484976D02*
X8292500Y-17494500D01*
X8292500Y-17494500D02*
X8273452Y-17504024D01*
X8273452Y-17504024D02*
X8254405Y-17504024D01*
X8254405Y-17504024D02*
X8235357Y-17494500D01*
X8235357Y-17494500D02*
X8225833Y-17484976D01*
X8225833Y-17484976D02*
X8216309Y-17465929D01*
X8216309Y-17465929D02*
X8206786Y-17427833D01*
X8206786Y-17427833D02*
X8206786Y-17380214D01*
X8206786Y-17380214D02*
X8216309Y-17342119D01*
X8216309Y-17342119D02*
X8225833Y-17323071D01*
X8225833Y-17323071D02*
X8235357Y-17313548D01*
X8235357Y-17313548D02*
X8254405Y-17304024D01*
X8444881Y-17304024D02*
X8463929Y-17304024D01*
X8463929Y-17304024D02*
X8482976Y-17313548D01*
X8482976Y-17313548D02*
X8492500Y-17323071D01*
X8492500Y-17323071D02*
X8502024Y-17342119D01*
X8502024Y-17342119D02*
X8511548Y-17380214D01*
X8511548Y-17380214D02*
X8511548Y-17427833D01*
X8511548Y-17427833D02*
X8502024Y-17465929D01*
X8502024Y-17465929D02*
X8492500Y-17484976D01*
X8492500Y-17484976D02*
X8482976Y-17494500D01*
X8482976Y-17494500D02*
X8463929Y-17504024D01*
X8463929Y-17504024D02*
X8444881Y-17504024D01*
X8444881Y-17504024D02*
X8425833Y-17494500D01*
X8425833Y-17494500D02*
X8416310Y-17484976D01*
X8416310Y-17484976D02*
X8406786Y-17465929D01*
X8406786Y-17465929D02*
X8397262Y-17427833D01*
X8397262Y-17427833D02*
X8397262Y-17380214D01*
X8397262Y-17380214D02*
X8406786Y-17342119D01*
X8406786Y-17342119D02*
X8416310Y-17323071D01*
X8416310Y-17323071D02*
X8425833Y-17313548D01*
X8425833Y-17313548D02*
X8444881Y-17304024D01*
X8597262Y-17504024D02*
X8597262Y-17370690D01*
X8597262Y-17389738D02*
X8606786Y-17380214D01*
X8606786Y-17380214D02*
X8625833Y-17370690D01*
X8625833Y-17370690D02*
X8654405Y-17370690D01*
X8654405Y-17370690D02*
X8673452Y-17380214D01*
X8673452Y-17380214D02*
X8682976Y-17399262D01*
X8682976Y-17399262D02*
X8682976Y-17504024D01*
X8682976Y-17399262D02*
X8692500Y-17380214D01*
X8692500Y-17380214D02*
X8711548Y-17370690D01*
X8711548Y-17370690D02*
X8740119Y-17370690D01*
X8740119Y-17370690D02*
X8759167Y-17380214D01*
X8759167Y-17380214D02*
X8768691Y-17399262D01*
X8768691Y-17399262D02*
X8768691Y-17504024D01*
X8863929Y-17504024D02*
X8863929Y-17370690D01*
X8863929Y-17389738D02*
X8873452Y-17380214D01*
X8873452Y-17380214D02*
X8892500Y-17370690D01*
X8892500Y-17370690D02*
X8921072Y-17370690D01*
X8921072Y-17370690D02*
X8940119Y-17380214D01*
X8940119Y-17380214D02*
X8949643Y-17399262D01*
X8949643Y-17399262D02*
X8949643Y-17504024D01*
X8949643Y-17399262D02*
X8959167Y-17380214D01*
X8959167Y-17380214D02*
X8978214Y-17370690D01*
X8978214Y-17370690D02*
X9006786Y-17370690D01*
X9006786Y-17370690D02*
X9025833Y-17380214D01*
X9025833Y-17380214D02*
X9035357Y-17399262D01*
X9035357Y-17399262D02*
X9035357Y-17504024D01*
X9425833Y-17294500D02*
X9254405Y-17551643D01*
X9682976Y-17304024D02*
X9702024Y-17304024D01*
X9702024Y-17304024D02*
X9721072Y-17313548D01*
X9721072Y-17313548D02*
X9730595Y-17323071D01*
X9730595Y-17323071D02*
X9740119Y-17342119D01*
X9740119Y-17342119D02*
X9749643Y-17380214D01*
X9749643Y-17380214D02*
X9749643Y-17427833D01*
X9749643Y-17427833D02*
X9740119Y-17465929D01*
X9740119Y-17465929D02*
X9730595Y-17484976D01*
X9730595Y-17484976D02*
X9721072Y-17494500D01*
X9721072Y-17494500D02*
X9702024Y-17504024D01*
X9702024Y-17504024D02*
X9682976Y-17504024D01*
X9682976Y-17504024D02*
X9663929Y-17494500D01*
X9663929Y-17494500D02*
X9654405Y-17484976D01*
X9654405Y-17484976D02*
X9644881Y-17465929D01*
X9644881Y-17465929D02*
X9635357Y-17427833D01*
X9635357Y-17427833D02*
X9635357Y-17380214D01*
X9635357Y-17380214D02*
X9644881Y-17342119D01*
X9644881Y-17342119D02*
X9654405Y-17323071D01*
X9654405Y-17323071D02*
X9663929Y-17313548D01*
X9663929Y-17313548D02*
X9682976Y-17304024D01*
X9835357Y-17484976D02*
X9844881Y-17494500D01*
X9844881Y-17494500D02*
X9835357Y-17504024D01*
X9835357Y-17504024D02*
X9825834Y-17494500D01*
X9825834Y-17494500D02*
X9835357Y-17484976D01*
X9835357Y-17484976D02*
X9835357Y-17504024D01*
X9968691Y-17304024D02*
X9987738Y-17304024D01*
X9987738Y-17304024D02*
X10006786Y-17313548D01*
X10006786Y-17313548D02*
X10016310Y-17323071D01*
X10016310Y-17323071D02*
X10025834Y-17342119D01*
X10025834Y-17342119D02*
X10035357Y-17380214D01*
X10035357Y-17380214D02*
X10035357Y-17427833D01*
X10035357Y-17427833D02*
X10025834Y-17465929D01*
X10025834Y-17465929D02*
X10016310Y-17484976D01*
X10016310Y-17484976D02*
X10006786Y-17494500D01*
X10006786Y-17494500D02*
X9987738Y-17504024D01*
X9987738Y-17504024D02*
X9968691Y-17504024D01*
X9968691Y-17504024D02*
X9949643Y-17494500D01*
X9949643Y-17494500D02*
X9940119Y-17484976D01*
X9940119Y-17484976D02*
X9930595Y-17465929D01*
X9930595Y-17465929D02*
X9921072Y-17427833D01*
X9921072Y-17427833D02*
X9921072Y-17380214D01*
X9921072Y-17380214D02*
X9930595Y-17342119D01*
X9930595Y-17342119D02*
X9940119Y-17323071D01*
X9940119Y-17323071D02*
X9949643Y-17313548D01*
X9949643Y-17313548D02*
X9968691Y-17304024D01*
X10111548Y-17323071D02*
X10121072Y-17313548D01*
X10121072Y-17313548D02*
X10140119Y-17304024D01*
X10140119Y-17304024D02*
X10187738Y-17304024D01*
X10187738Y-17304024D02*
X10206786Y-17313548D01*
X10206786Y-17313548D02*
X10216310Y-17323071D01*
X10216310Y-17323071D02*
X10225834Y-17342119D01*
X10225834Y-17342119D02*
X10225834Y-17361167D01*
X10225834Y-17361167D02*
X10216310Y-17389738D01*
X10216310Y-17389738D02*
X10102024Y-17504024D01*
X10102024Y-17504024D02*
X10225834Y-17504024D01*
X10292500Y-17304024D02*
X10416310Y-17304024D01*
X10416310Y-17304024D02*
X10349643Y-17380214D01*
X10349643Y-17380214D02*
X10378215Y-17380214D01*
X10378215Y-17380214D02*
X10397262Y-17389738D01*
X10397262Y-17389738D02*
X10406786Y-17399262D01*
X10406786Y-17399262D02*
X10416310Y-17418310D01*
X10416310Y-17418310D02*
X10416310Y-17465929D01*
X10416310Y-17465929D02*
X10406786Y-17484976D01*
X10406786Y-17484976D02*
X10397262Y-17494500D01*
X10397262Y-17494500D02*
X10378215Y-17504024D01*
X10378215Y-17504024D02*
X10321072Y-17504024D01*
X10321072Y-17504024D02*
X10302024Y-17494500D01*
X10302024Y-17494500D02*
X10292500Y-17484976D01*
X10587738Y-17304024D02*
X10549643Y-17304024D01*
X10549643Y-17304024D02*
X10530595Y-17313548D01*
X10530595Y-17313548D02*
X10521072Y-17323071D01*
X10521072Y-17323071D02*
X10502024Y-17351643D01*
X10502024Y-17351643D02*
X10492500Y-17389738D01*
X10492500Y-17389738D02*
X10492500Y-17465929D01*
X10492500Y-17465929D02*
X10502024Y-17484976D01*
X10502024Y-17484976D02*
X10511548Y-17494500D01*
X10511548Y-17494500D02*
X10530595Y-17504024D01*
X10530595Y-17504024D02*
X10568691Y-17504024D01*
X10568691Y-17504024D02*
X10587738Y-17494500D01*
X10587738Y-17494500D02*
X10597262Y-17484976D01*
X10597262Y-17484976D02*
X10606786Y-17465929D01*
X10606786Y-17465929D02*
X10606786Y-17418310D01*
X10606786Y-17418310D02*
X10597262Y-17399262D01*
X10597262Y-17399262D02*
X10587738Y-17389738D01*
X10587738Y-17389738D02*
X10568691Y-17380214D01*
X10568691Y-17380214D02*
X10530595Y-17380214D01*
X10530595Y-17380214D02*
X10511548Y-17389738D01*
X10511548Y-17389738D02*
X10502024Y-17399262D01*
X10502024Y-17399262D02*
X10492500Y-17418310D01*
X10682976Y-17304024D02*
X10682976Y-17342119D01*
X10759167Y-17304024D02*
X10759167Y-17342119D01*
X11054405Y-17580214D02*
X11044881Y-17570690D01*
X11044881Y-17570690D02*
X11025834Y-17542119D01*
X11025834Y-17542119D02*
X11016310Y-17523071D01*
X11016310Y-17523071D02*
X11006786Y-17494500D01*
X11006786Y-17494500D02*
X10997262Y-17446881D01*
X10997262Y-17446881D02*
X10997262Y-17408786D01*
X10997262Y-17408786D02*
X11006786Y-17361167D01*
X11006786Y-17361167D02*
X11016310Y-17332595D01*
X11016310Y-17332595D02*
X11025834Y-17313548D01*
X11025834Y-17313548D02*
X11044881Y-17284976D01*
X11044881Y-17284976D02*
X11054405Y-17275452D01*
X11168691Y-17304024D02*
X11187738Y-17304024D01*
X11187738Y-17304024D02*
X11206786Y-17313548D01*
X11206786Y-17313548D02*
X11216310Y-17323071D01*
X11216310Y-17323071D02*
X11225834Y-17342119D01*
X11225834Y-17342119D02*
X11235357Y-17380214D01*
X11235357Y-17380214D02*
X11235357Y-17427833D01*
X11235357Y-17427833D02*
X11225834Y-17465929D01*
X11225834Y-17465929D02*
X11216310Y-17484976D01*
X11216310Y-17484976D02*
X11206786Y-17494500D01*
X11206786Y-17494500D02*
X11187738Y-17504024D01*
X11187738Y-17504024D02*
X11168691Y-17504024D01*
X11168691Y-17504024D02*
X11149643Y-17494500D01*
X11149643Y-17494500D02*
X11140119Y-17484976D01*
X11140119Y-17484976D02*
X11130596Y-17465929D01*
X11130596Y-17465929D02*
X11121072Y-17427833D01*
X11121072Y-17427833D02*
X11121072Y-17380214D01*
X11121072Y-17380214D02*
X11130596Y-17342119D01*
X11130596Y-17342119D02*
X11140119Y-17323071D01*
X11140119Y-17323071D02*
X11149643Y-17313548D01*
X11149643Y-17313548D02*
X11168691Y-17304024D01*
X11473453Y-17504024D02*
X11473453Y-17304024D01*
X11559167Y-17504024D02*
X11559167Y-17399262D01*
X11559167Y-17399262D02*
X11549643Y-17380214D01*
X11549643Y-17380214D02*
X11530596Y-17370690D01*
X11530596Y-17370690D02*
X11502024Y-17370690D01*
X11502024Y-17370690D02*
X11482976Y-17380214D01*
X11482976Y-17380214D02*
X11473453Y-17389738D01*
X11682976Y-17504024D02*
X11663929Y-17494500D01*
X11663929Y-17494500D02*
X11654405Y-17484976D01*
X11654405Y-17484976D02*
X11644881Y-17465929D01*
X11644881Y-17465929D02*
X11644881Y-17408786D01*
X11644881Y-17408786D02*
X11654405Y-17389738D01*
X11654405Y-17389738D02*
X11663929Y-17380214D01*
X11663929Y-17380214D02*
X11682976Y-17370690D01*
X11682976Y-17370690D02*
X11711548Y-17370690D01*
X11711548Y-17370690D02*
X11730596Y-17380214D01*
X11730596Y-17380214D02*
X11740119Y-17389738D01*
X11740119Y-17389738D02*
X11749643Y-17408786D01*
X11749643Y-17408786D02*
X11749643Y-17465929D01*
X11749643Y-17465929D02*
X11740119Y-17484976D01*
X11740119Y-17484976D02*
X11730596Y-17494500D01*
X11730596Y-17494500D02*
X11711548Y-17504024D01*
X11711548Y-17504024D02*
X11682976Y-17504024D01*
X11863929Y-17504024D02*
X11844881Y-17494500D01*
X11844881Y-17494500D02*
X11835357Y-17475452D01*
X11835357Y-17475452D02*
X11835357Y-17304024D01*
X12016310Y-17494500D02*
X11997262Y-17504024D01*
X11997262Y-17504024D02*
X11959167Y-17504024D01*
X11959167Y-17504024D02*
X11940119Y-17494500D01*
X11940119Y-17494500D02*
X11930596Y-17475452D01*
X11930596Y-17475452D02*
X11930596Y-17399262D01*
X11930596Y-17399262D02*
X11940119Y-17380214D01*
X11940119Y-17380214D02*
X11959167Y-17370690D01*
X11959167Y-17370690D02*
X11997262Y-17370690D01*
X11997262Y-17370690D02*
X12016310Y-17380214D01*
X12016310Y-17380214D02*
X12025834Y-17399262D01*
X12025834Y-17399262D02*
X12025834Y-17418310D01*
X12025834Y-17418310D02*
X11930596Y-17437357D01*
X12102024Y-17494500D02*
X12121072Y-17504024D01*
X12121072Y-17504024D02*
X12159167Y-17504024D01*
X12159167Y-17504024D02*
X12178215Y-17494500D01*
X12178215Y-17494500D02*
X12187738Y-17475452D01*
X12187738Y-17475452D02*
X12187738Y-17465929D01*
X12187738Y-17465929D02*
X12178215Y-17446881D01*
X12178215Y-17446881D02*
X12159167Y-17437357D01*
X12159167Y-17437357D02*
X12130596Y-17437357D01*
X12130596Y-17437357D02*
X12111548Y-17427833D01*
X12111548Y-17427833D02*
X12102024Y-17408786D01*
X12102024Y-17408786D02*
X12102024Y-17399262D01*
X12102024Y-17399262D02*
X12111548Y-17380214D01*
X12111548Y-17380214D02*
X12130596Y-17370690D01*
X12130596Y-17370690D02*
X12159167Y-17370690D01*
X12159167Y-17370690D02*
X12178215Y-17380214D01*
X12425834Y-17427833D02*
X12578215Y-17427833D01*
X12502024Y-17504024D02*
X12502024Y-17351643D01*
X12911548Y-17370690D02*
X12911548Y-17504024D01*
X12863929Y-17294500D02*
X12816310Y-17437357D01*
X12816310Y-17437357D02*
X12940119Y-17437357D01*
X13159167Y-17494500D02*
X13178215Y-17504024D01*
X13178215Y-17504024D02*
X13216310Y-17504024D01*
X13216310Y-17504024D02*
X13235358Y-17494500D01*
X13235358Y-17494500D02*
X13244881Y-17475452D01*
X13244881Y-17475452D02*
X13244881Y-17465929D01*
X13244881Y-17465929D02*
X13235358Y-17446881D01*
X13235358Y-17446881D02*
X13216310Y-17437357D01*
X13216310Y-17437357D02*
X13187739Y-17437357D01*
X13187739Y-17437357D02*
X13168691Y-17427833D01*
X13168691Y-17427833D02*
X13159167Y-17408786D01*
X13159167Y-17408786D02*
X13159167Y-17399262D01*
X13159167Y-17399262D02*
X13168691Y-17380214D01*
X13168691Y-17380214D02*
X13187739Y-17370690D01*
X13187739Y-17370690D02*
X13216310Y-17370690D01*
X13216310Y-17370690D02*
X13235358Y-17380214D01*
X13359167Y-17504024D02*
X13340120Y-17494500D01*
X13340120Y-17494500D02*
X13330596Y-17475452D01*
X13330596Y-17475452D02*
X13330596Y-17304024D01*
X13463929Y-17504024D02*
X13444881Y-17494500D01*
X13444881Y-17494500D02*
X13435358Y-17484976D01*
X13435358Y-17484976D02*
X13425834Y-17465929D01*
X13425834Y-17465929D02*
X13425834Y-17408786D01*
X13425834Y-17408786D02*
X13435358Y-17389738D01*
X13435358Y-17389738D02*
X13444881Y-17380214D01*
X13444881Y-17380214D02*
X13463929Y-17370690D01*
X13463929Y-17370690D02*
X13492501Y-17370690D01*
X13492501Y-17370690D02*
X13511548Y-17380214D01*
X13511548Y-17380214D02*
X13521072Y-17389738D01*
X13521072Y-17389738D02*
X13530596Y-17408786D01*
X13530596Y-17408786D02*
X13530596Y-17465929D01*
X13530596Y-17465929D02*
X13521072Y-17484976D01*
X13521072Y-17484976D02*
X13511548Y-17494500D01*
X13511548Y-17494500D02*
X13492501Y-17504024D01*
X13492501Y-17504024D02*
X13463929Y-17504024D01*
X13587739Y-17370690D02*
X13663929Y-17370690D01*
X13616310Y-17304024D02*
X13616310Y-17475452D01*
X13616310Y-17475452D02*
X13625834Y-17494500D01*
X13625834Y-17494500D02*
X13644881Y-17504024D01*
X13644881Y-17504024D02*
X13663929Y-17504024D01*
X13721072Y-17494500D02*
X13740120Y-17504024D01*
X13740120Y-17504024D02*
X13778215Y-17504024D01*
X13778215Y-17504024D02*
X13797262Y-17494500D01*
X13797262Y-17494500D02*
X13806786Y-17475452D01*
X13806786Y-17475452D02*
X13806786Y-17465929D01*
X13806786Y-17465929D02*
X13797262Y-17446881D01*
X13797262Y-17446881D02*
X13778215Y-17437357D01*
X13778215Y-17437357D02*
X13749643Y-17437357D01*
X13749643Y-17437357D02*
X13730596Y-17427833D01*
X13730596Y-17427833D02*
X13721072Y-17408786D01*
X13721072Y-17408786D02*
X13721072Y-17399262D01*
X13721072Y-17399262D02*
X13730596Y-17380214D01*
X13730596Y-17380214D02*
X13749643Y-17370690D01*
X13749643Y-17370690D02*
X13778215Y-17370690D01*
X13778215Y-17370690D02*
X13797262Y-17380214D01*
X13873453Y-17580214D02*
X13882977Y-17570690D01*
X13882977Y-17570690D02*
X13902024Y-17542119D01*
X13902024Y-17542119D02*
X13911548Y-17523071D01*
X13911548Y-17523071D02*
X13921072Y-17494500D01*
X13921072Y-17494500D02*
X13930596Y-17446881D01*
X13930596Y-17446881D02*
X13930596Y-17408786D01*
X13930596Y-17408786D02*
X13921072Y-17361167D01*
X13921072Y-17361167D02*
X13911548Y-17332595D01*
X13911548Y-17332595D02*
X13902024Y-17313548D01*
X13902024Y-17313548D02*
X13882977Y-17284976D01*
X13882977Y-17284976D02*
X13873453Y-17275452D01*
D14*
X7438000Y-17621000D02*
X7438000Y-17730000D01*
X7383500Y-17675500D02*
X7492500Y-17675500D01*
D11*
X7844881Y-17768024D02*
X7730595Y-17768024D01*
X7787738Y-17768024D02*
X7787738Y-17568024D01*
X7787738Y-17568024D02*
X7768690Y-17596595D01*
X7768690Y-17596595D02*
X7749643Y-17615643D01*
X7749643Y-17615643D02*
X7730595Y-17625167D01*
X7930595Y-17748976D02*
X7940119Y-17758500D01*
X7940119Y-17758500D02*
X7930595Y-17768024D01*
X7930595Y-17768024D02*
X7921071Y-17758500D01*
X7921071Y-17758500D02*
X7930595Y-17748976D01*
X7930595Y-17748976D02*
X7930595Y-17768024D01*
X8063928Y-17568024D02*
X8082976Y-17568024D01*
X8082976Y-17568024D02*
X8102024Y-17577548D01*
X8102024Y-17577548D02*
X8111548Y-17587071D01*
X8111548Y-17587071D02*
X8121071Y-17606119D01*
X8121071Y-17606119D02*
X8130595Y-17644214D01*
X8130595Y-17644214D02*
X8130595Y-17691833D01*
X8130595Y-17691833D02*
X8121071Y-17729929D01*
X8121071Y-17729929D02*
X8111548Y-17748976D01*
X8111548Y-17748976D02*
X8102024Y-17758500D01*
X8102024Y-17758500D02*
X8082976Y-17768024D01*
X8082976Y-17768024D02*
X8063928Y-17768024D01*
X8063928Y-17768024D02*
X8044881Y-17758500D01*
X8044881Y-17758500D02*
X8035357Y-17748976D01*
X8035357Y-17748976D02*
X8025833Y-17729929D01*
X8025833Y-17729929D02*
X8016309Y-17691833D01*
X8016309Y-17691833D02*
X8016309Y-17644214D01*
X8016309Y-17644214D02*
X8025833Y-17606119D01*
X8025833Y-17606119D02*
X8035357Y-17587071D01*
X8035357Y-17587071D02*
X8044881Y-17577548D01*
X8044881Y-17577548D02*
X8063928Y-17568024D01*
X8225833Y-17768024D02*
X8263928Y-17768024D01*
X8263928Y-17768024D02*
X8282976Y-17758500D01*
X8282976Y-17758500D02*
X8292500Y-17748976D01*
X8292500Y-17748976D02*
X8311548Y-17720405D01*
X8311548Y-17720405D02*
X8321071Y-17682310D01*
X8321071Y-17682310D02*
X8321071Y-17606119D01*
X8321071Y-17606119D02*
X8311548Y-17587071D01*
X8311548Y-17587071D02*
X8302024Y-17577548D01*
X8302024Y-17577548D02*
X8282976Y-17568024D01*
X8282976Y-17568024D02*
X8244881Y-17568024D01*
X8244881Y-17568024D02*
X8225833Y-17577548D01*
X8225833Y-17577548D02*
X8216309Y-17587071D01*
X8216309Y-17587071D02*
X8206786Y-17606119D01*
X8206786Y-17606119D02*
X8206786Y-17653738D01*
X8206786Y-17653738D02*
X8216309Y-17672786D01*
X8216309Y-17672786D02*
X8225833Y-17682310D01*
X8225833Y-17682310D02*
X8244881Y-17691833D01*
X8244881Y-17691833D02*
X8282976Y-17691833D01*
X8282976Y-17691833D02*
X8302024Y-17682310D01*
X8302024Y-17682310D02*
X8311548Y-17672786D01*
X8311548Y-17672786D02*
X8321071Y-17653738D01*
X8444881Y-17568024D02*
X8463929Y-17568024D01*
X8463929Y-17568024D02*
X8482976Y-17577548D01*
X8482976Y-17577548D02*
X8492500Y-17587071D01*
X8492500Y-17587071D02*
X8502024Y-17606119D01*
X8502024Y-17606119D02*
X8511548Y-17644214D01*
X8511548Y-17644214D02*
X8511548Y-17691833D01*
X8511548Y-17691833D02*
X8502024Y-17729929D01*
X8502024Y-17729929D02*
X8492500Y-17748976D01*
X8492500Y-17748976D02*
X8482976Y-17758500D01*
X8482976Y-17758500D02*
X8463929Y-17768024D01*
X8463929Y-17768024D02*
X8444881Y-17768024D01*
X8444881Y-17768024D02*
X8425833Y-17758500D01*
X8425833Y-17758500D02*
X8416310Y-17748976D01*
X8416310Y-17748976D02*
X8406786Y-17729929D01*
X8406786Y-17729929D02*
X8397262Y-17691833D01*
X8397262Y-17691833D02*
X8397262Y-17644214D01*
X8397262Y-17644214D02*
X8406786Y-17606119D01*
X8406786Y-17606119D02*
X8416310Y-17587071D01*
X8416310Y-17587071D02*
X8425833Y-17577548D01*
X8425833Y-17577548D02*
X8444881Y-17568024D01*
X8597262Y-17768024D02*
X8597262Y-17634690D01*
X8597262Y-17653738D02*
X8606786Y-17644214D01*
X8606786Y-17644214D02*
X8625833Y-17634690D01*
X8625833Y-17634690D02*
X8654405Y-17634690D01*
X8654405Y-17634690D02*
X8673452Y-17644214D01*
X8673452Y-17644214D02*
X8682976Y-17663262D01*
X8682976Y-17663262D02*
X8682976Y-17768024D01*
X8682976Y-17663262D02*
X8692500Y-17644214D01*
X8692500Y-17644214D02*
X8711548Y-17634690D01*
X8711548Y-17634690D02*
X8740119Y-17634690D01*
X8740119Y-17634690D02*
X8759167Y-17644214D01*
X8759167Y-17644214D02*
X8768691Y-17663262D01*
X8768691Y-17663262D02*
X8768691Y-17768024D01*
X8863929Y-17768024D02*
X8863929Y-17634690D01*
X8863929Y-17653738D02*
X8873452Y-17644214D01*
X8873452Y-17644214D02*
X8892500Y-17634690D01*
X8892500Y-17634690D02*
X8921072Y-17634690D01*
X8921072Y-17634690D02*
X8940119Y-17644214D01*
X8940119Y-17644214D02*
X8949643Y-17663262D01*
X8949643Y-17663262D02*
X8949643Y-17768024D01*
X8949643Y-17663262D02*
X8959167Y-17644214D01*
X8959167Y-17644214D02*
X8978214Y-17634690D01*
X8978214Y-17634690D02*
X9006786Y-17634690D01*
X9006786Y-17634690D02*
X9025833Y-17644214D01*
X9025833Y-17644214D02*
X9035357Y-17663262D01*
X9035357Y-17663262D02*
X9035357Y-17768024D01*
X9425833Y-17558500D02*
X9254405Y-17815643D01*
X9682976Y-17568024D02*
X9702024Y-17568024D01*
X9702024Y-17568024D02*
X9721072Y-17577548D01*
X9721072Y-17577548D02*
X9730595Y-17587071D01*
X9730595Y-17587071D02*
X9740119Y-17606119D01*
X9740119Y-17606119D02*
X9749643Y-17644214D01*
X9749643Y-17644214D02*
X9749643Y-17691833D01*
X9749643Y-17691833D02*
X9740119Y-17729929D01*
X9740119Y-17729929D02*
X9730595Y-17748976D01*
X9730595Y-17748976D02*
X9721072Y-17758500D01*
X9721072Y-17758500D02*
X9702024Y-17768024D01*
X9702024Y-17768024D02*
X9682976Y-17768024D01*
X9682976Y-17768024D02*
X9663929Y-17758500D01*
X9663929Y-17758500D02*
X9654405Y-17748976D01*
X9654405Y-17748976D02*
X9644881Y-17729929D01*
X9644881Y-17729929D02*
X9635357Y-17691833D01*
X9635357Y-17691833D02*
X9635357Y-17644214D01*
X9635357Y-17644214D02*
X9644881Y-17606119D01*
X9644881Y-17606119D02*
X9654405Y-17587071D01*
X9654405Y-17587071D02*
X9663929Y-17577548D01*
X9663929Y-17577548D02*
X9682976Y-17568024D01*
X9835357Y-17748976D02*
X9844881Y-17758500D01*
X9844881Y-17758500D02*
X9835357Y-17768024D01*
X9835357Y-17768024D02*
X9825834Y-17758500D01*
X9825834Y-17758500D02*
X9835357Y-17748976D01*
X9835357Y-17748976D02*
X9835357Y-17768024D01*
X9968691Y-17568024D02*
X9987738Y-17568024D01*
X9987738Y-17568024D02*
X10006786Y-17577548D01*
X10006786Y-17577548D02*
X10016310Y-17587071D01*
X10016310Y-17587071D02*
X10025834Y-17606119D01*
X10025834Y-17606119D02*
X10035357Y-17644214D01*
X10035357Y-17644214D02*
X10035357Y-17691833D01*
X10035357Y-17691833D02*
X10025834Y-17729929D01*
X10025834Y-17729929D02*
X10016310Y-17748976D01*
X10016310Y-17748976D02*
X10006786Y-17758500D01*
X10006786Y-17758500D02*
X9987738Y-17768024D01*
X9987738Y-17768024D02*
X9968691Y-17768024D01*
X9968691Y-17768024D02*
X9949643Y-17758500D01*
X9949643Y-17758500D02*
X9940119Y-17748976D01*
X9940119Y-17748976D02*
X9930595Y-17729929D01*
X9930595Y-17729929D02*
X9921072Y-17691833D01*
X9921072Y-17691833D02*
X9921072Y-17644214D01*
X9921072Y-17644214D02*
X9930595Y-17606119D01*
X9930595Y-17606119D02*
X9940119Y-17587071D01*
X9940119Y-17587071D02*
X9949643Y-17577548D01*
X9949643Y-17577548D02*
X9968691Y-17568024D01*
X10206786Y-17634690D02*
X10206786Y-17768024D01*
X10159167Y-17558500D02*
X10111548Y-17701357D01*
X10111548Y-17701357D02*
X10235357Y-17701357D01*
X10302024Y-17587071D02*
X10311548Y-17577548D01*
X10311548Y-17577548D02*
X10330595Y-17568024D01*
X10330595Y-17568024D02*
X10378215Y-17568024D01*
X10378215Y-17568024D02*
X10397262Y-17577548D01*
X10397262Y-17577548D02*
X10406786Y-17587071D01*
X10406786Y-17587071D02*
X10416310Y-17606119D01*
X10416310Y-17606119D02*
X10416310Y-17625167D01*
X10416310Y-17625167D02*
X10406786Y-17653738D01*
X10406786Y-17653738D02*
X10292500Y-17768024D01*
X10292500Y-17768024D02*
X10416310Y-17768024D01*
X10511548Y-17768024D02*
X10549643Y-17768024D01*
X10549643Y-17768024D02*
X10568691Y-17758500D01*
X10568691Y-17758500D02*
X10578215Y-17748976D01*
X10578215Y-17748976D02*
X10597262Y-17720405D01*
X10597262Y-17720405D02*
X10606786Y-17682310D01*
X10606786Y-17682310D02*
X10606786Y-17606119D01*
X10606786Y-17606119D02*
X10597262Y-17587071D01*
X10597262Y-17587071D02*
X10587738Y-17577548D01*
X10587738Y-17577548D02*
X10568691Y-17568024D01*
X10568691Y-17568024D02*
X10530595Y-17568024D01*
X10530595Y-17568024D02*
X10511548Y-17577548D01*
X10511548Y-17577548D02*
X10502024Y-17587071D01*
X10502024Y-17587071D02*
X10492500Y-17606119D01*
X10492500Y-17606119D02*
X10492500Y-17653738D01*
X10492500Y-17653738D02*
X10502024Y-17672786D01*
X10502024Y-17672786D02*
X10511548Y-17682310D01*
X10511548Y-17682310D02*
X10530595Y-17691833D01*
X10530595Y-17691833D02*
X10568691Y-17691833D01*
X10568691Y-17691833D02*
X10587738Y-17682310D01*
X10587738Y-17682310D02*
X10597262Y-17672786D01*
X10597262Y-17672786D02*
X10606786Y-17653738D01*
X10682976Y-17568024D02*
X10682976Y-17606119D01*
X10759167Y-17568024D02*
X10759167Y-17606119D01*
X11054405Y-17844214D02*
X11044881Y-17834690D01*
X11044881Y-17834690D02*
X11025834Y-17806119D01*
X11025834Y-17806119D02*
X11016310Y-17787071D01*
X11016310Y-17787071D02*
X11006786Y-17758500D01*
X11006786Y-17758500D02*
X10997262Y-17710881D01*
X10997262Y-17710881D02*
X10997262Y-17672786D01*
X10997262Y-17672786D02*
X11006786Y-17625167D01*
X11006786Y-17625167D02*
X11016310Y-17596595D01*
X11016310Y-17596595D02*
X11025834Y-17577548D01*
X11025834Y-17577548D02*
X11044881Y-17548976D01*
X11044881Y-17548976D02*
X11054405Y-17539452D01*
X11140119Y-17768024D02*
X11178215Y-17768024D01*
X11178215Y-17768024D02*
X11197262Y-17758500D01*
X11197262Y-17758500D02*
X11206786Y-17748976D01*
X11206786Y-17748976D02*
X11225834Y-17720405D01*
X11225834Y-17720405D02*
X11235357Y-17682310D01*
X11235357Y-17682310D02*
X11235357Y-17606119D01*
X11235357Y-17606119D02*
X11225834Y-17587071D01*
X11225834Y-17587071D02*
X11216310Y-17577548D01*
X11216310Y-17577548D02*
X11197262Y-17568024D01*
X11197262Y-17568024D02*
X11159167Y-17568024D01*
X11159167Y-17568024D02*
X11140119Y-17577548D01*
X11140119Y-17577548D02*
X11130596Y-17587071D01*
X11130596Y-17587071D02*
X11121072Y-17606119D01*
X11121072Y-17606119D02*
X11121072Y-17653738D01*
X11121072Y-17653738D02*
X11130596Y-17672786D01*
X11130596Y-17672786D02*
X11140119Y-17682310D01*
X11140119Y-17682310D02*
X11159167Y-17691833D01*
X11159167Y-17691833D02*
X11197262Y-17691833D01*
X11197262Y-17691833D02*
X11216310Y-17682310D01*
X11216310Y-17682310D02*
X11225834Y-17672786D01*
X11225834Y-17672786D02*
X11235357Y-17653738D01*
X11473453Y-17768024D02*
X11473453Y-17568024D01*
X11559167Y-17768024D02*
X11559167Y-17663262D01*
X11559167Y-17663262D02*
X11549643Y-17644214D01*
X11549643Y-17644214D02*
X11530596Y-17634690D01*
X11530596Y-17634690D02*
X11502024Y-17634690D01*
X11502024Y-17634690D02*
X11482976Y-17644214D01*
X11482976Y-17644214D02*
X11473453Y-17653738D01*
X11682976Y-17768024D02*
X11663929Y-17758500D01*
X11663929Y-17758500D02*
X11654405Y-17748976D01*
X11654405Y-17748976D02*
X11644881Y-17729929D01*
X11644881Y-17729929D02*
X11644881Y-17672786D01*
X11644881Y-17672786D02*
X11654405Y-17653738D01*
X11654405Y-17653738D02*
X11663929Y-17644214D01*
X11663929Y-17644214D02*
X11682976Y-17634690D01*
X11682976Y-17634690D02*
X11711548Y-17634690D01*
X11711548Y-17634690D02*
X11730596Y-17644214D01*
X11730596Y-17644214D02*
X11740119Y-17653738D01*
X11740119Y-17653738D02*
X11749643Y-17672786D01*
X11749643Y-17672786D02*
X11749643Y-17729929D01*
X11749643Y-17729929D02*
X11740119Y-17748976D01*
X11740119Y-17748976D02*
X11730596Y-17758500D01*
X11730596Y-17758500D02*
X11711548Y-17768024D01*
X11711548Y-17768024D02*
X11682976Y-17768024D01*
X11863929Y-17768024D02*
X11844881Y-17758500D01*
X11844881Y-17758500D02*
X11835357Y-17739452D01*
X11835357Y-17739452D02*
X11835357Y-17568024D01*
X12016310Y-17758500D02*
X11997262Y-17768024D01*
X11997262Y-17768024D02*
X11959167Y-17768024D01*
X11959167Y-17768024D02*
X11940119Y-17758500D01*
X11940119Y-17758500D02*
X11930596Y-17739452D01*
X11930596Y-17739452D02*
X11930596Y-17663262D01*
X11930596Y-17663262D02*
X11940119Y-17644214D01*
X11940119Y-17644214D02*
X11959167Y-17634690D01*
X11959167Y-17634690D02*
X11997262Y-17634690D01*
X11997262Y-17634690D02*
X12016310Y-17644214D01*
X12016310Y-17644214D02*
X12025834Y-17663262D01*
X12025834Y-17663262D02*
X12025834Y-17682310D01*
X12025834Y-17682310D02*
X11930596Y-17701357D01*
X12102024Y-17758500D02*
X12121072Y-17768024D01*
X12121072Y-17768024D02*
X12159167Y-17768024D01*
X12159167Y-17768024D02*
X12178215Y-17758500D01*
X12178215Y-17758500D02*
X12187738Y-17739452D01*
X12187738Y-17739452D02*
X12187738Y-17729929D01*
X12187738Y-17729929D02*
X12178215Y-17710881D01*
X12178215Y-17710881D02*
X12159167Y-17701357D01*
X12159167Y-17701357D02*
X12130596Y-17701357D01*
X12130596Y-17701357D02*
X12111548Y-17691833D01*
X12111548Y-17691833D02*
X12102024Y-17672786D01*
X12102024Y-17672786D02*
X12102024Y-17663262D01*
X12102024Y-17663262D02*
X12111548Y-17644214D01*
X12111548Y-17644214D02*
X12130596Y-17634690D01*
X12130596Y-17634690D02*
X12159167Y-17634690D01*
X12159167Y-17634690D02*
X12178215Y-17644214D01*
X12254405Y-17844214D02*
X12263929Y-17834690D01*
X12263929Y-17834690D02*
X12282977Y-17806119D01*
X12282977Y-17806119D02*
X12292500Y-17787071D01*
X12292500Y-17787071D02*
X12302024Y-17758500D01*
X12302024Y-17758500D02*
X12311548Y-17710881D01*
X12311548Y-17710881D02*
X12311548Y-17672786D01*
X12311548Y-17672786D02*
X12302024Y-17625167D01*
X12302024Y-17625167D02*
X12292500Y-17596595D01*
X12292500Y-17596595D02*
X12282977Y-17577548D01*
X12282977Y-17577548D02*
X12263929Y-17548976D01*
X12263929Y-17548976D02*
X12254405Y-17539452D01*
D15*
X7476391Y-17978391D02*
X7476391Y-17900609D01*
X7398609Y-17900609D01*
X7398609Y-17978391D01*
X7476391Y-17978391D01*
D11*
X7844881Y-18032024D02*
X7730595Y-18032024D01*
X7787738Y-18032024D02*
X7787738Y-17832024D01*
X7787738Y-17832024D02*
X7768690Y-17860595D01*
X7768690Y-17860595D02*
X7749643Y-17879643D01*
X7749643Y-17879643D02*
X7730595Y-17889167D01*
X7930595Y-18012976D02*
X7940119Y-18022500D01*
X7940119Y-18022500D02*
X7930595Y-18032024D01*
X7930595Y-18032024D02*
X7921071Y-18022500D01*
X7921071Y-18022500D02*
X7930595Y-18012976D01*
X7930595Y-18012976D02*
X7930595Y-18032024D01*
X8130595Y-18032024D02*
X8016309Y-18032024D01*
X8073452Y-18032024D02*
X8073452Y-17832024D01*
X8073452Y-17832024D02*
X8054405Y-17860595D01*
X8054405Y-17860595D02*
X8035357Y-17879643D01*
X8035357Y-17879643D02*
X8016309Y-17889167D01*
X8254405Y-17832024D02*
X8273452Y-17832024D01*
X8273452Y-17832024D02*
X8292500Y-17841548D01*
X8292500Y-17841548D02*
X8302024Y-17851071D01*
X8302024Y-17851071D02*
X8311548Y-17870119D01*
X8311548Y-17870119D02*
X8321071Y-17908214D01*
X8321071Y-17908214D02*
X8321071Y-17955833D01*
X8321071Y-17955833D02*
X8311548Y-17993929D01*
X8311548Y-17993929D02*
X8302024Y-18012976D01*
X8302024Y-18012976D02*
X8292500Y-18022500D01*
X8292500Y-18022500D02*
X8273452Y-18032024D01*
X8273452Y-18032024D02*
X8254405Y-18032024D01*
X8254405Y-18032024D02*
X8235357Y-18022500D01*
X8235357Y-18022500D02*
X8225833Y-18012976D01*
X8225833Y-18012976D02*
X8216309Y-17993929D01*
X8216309Y-17993929D02*
X8206786Y-17955833D01*
X8206786Y-17955833D02*
X8206786Y-17908214D01*
X8206786Y-17908214D02*
X8216309Y-17870119D01*
X8216309Y-17870119D02*
X8225833Y-17851071D01*
X8225833Y-17851071D02*
X8235357Y-17841548D01*
X8235357Y-17841548D02*
X8254405Y-17832024D01*
X8444881Y-17832024D02*
X8463929Y-17832024D01*
X8463929Y-17832024D02*
X8482976Y-17841548D01*
X8482976Y-17841548D02*
X8492500Y-17851071D01*
X8492500Y-17851071D02*
X8502024Y-17870119D01*
X8502024Y-17870119D02*
X8511548Y-17908214D01*
X8511548Y-17908214D02*
X8511548Y-17955833D01*
X8511548Y-17955833D02*
X8502024Y-17993929D01*
X8502024Y-17993929D02*
X8492500Y-18012976D01*
X8492500Y-18012976D02*
X8482976Y-18022500D01*
X8482976Y-18022500D02*
X8463929Y-18032024D01*
X8463929Y-18032024D02*
X8444881Y-18032024D01*
X8444881Y-18032024D02*
X8425833Y-18022500D01*
X8425833Y-18022500D02*
X8416310Y-18012976D01*
X8416310Y-18012976D02*
X8406786Y-17993929D01*
X8406786Y-17993929D02*
X8397262Y-17955833D01*
X8397262Y-17955833D02*
X8397262Y-17908214D01*
X8397262Y-17908214D02*
X8406786Y-17870119D01*
X8406786Y-17870119D02*
X8416310Y-17851071D01*
X8416310Y-17851071D02*
X8425833Y-17841548D01*
X8425833Y-17841548D02*
X8444881Y-17832024D01*
X8597262Y-18032024D02*
X8597262Y-17898690D01*
X8597262Y-17917738D02*
X8606786Y-17908214D01*
X8606786Y-17908214D02*
X8625833Y-17898690D01*
X8625833Y-17898690D02*
X8654405Y-17898690D01*
X8654405Y-17898690D02*
X8673452Y-17908214D01*
X8673452Y-17908214D02*
X8682976Y-17927262D01*
X8682976Y-17927262D02*
X8682976Y-18032024D01*
X8682976Y-17927262D02*
X8692500Y-17908214D01*
X8692500Y-17908214D02*
X8711548Y-17898690D01*
X8711548Y-17898690D02*
X8740119Y-17898690D01*
X8740119Y-17898690D02*
X8759167Y-17908214D01*
X8759167Y-17908214D02*
X8768691Y-17927262D01*
X8768691Y-17927262D02*
X8768691Y-18032024D01*
X8863929Y-18032024D02*
X8863929Y-17898690D01*
X8863929Y-17917738D02*
X8873452Y-17908214D01*
X8873452Y-17908214D02*
X8892500Y-17898690D01*
X8892500Y-17898690D02*
X8921072Y-17898690D01*
X8921072Y-17898690D02*
X8940119Y-17908214D01*
X8940119Y-17908214D02*
X8949643Y-17927262D01*
X8949643Y-17927262D02*
X8949643Y-18032024D01*
X8949643Y-17927262D02*
X8959167Y-17908214D01*
X8959167Y-17908214D02*
X8978214Y-17898690D01*
X8978214Y-17898690D02*
X9006786Y-17898690D01*
X9006786Y-17898690D02*
X9025833Y-17908214D01*
X9025833Y-17908214D02*
X9035357Y-17927262D01*
X9035357Y-17927262D02*
X9035357Y-18032024D01*
X9425833Y-17822500D02*
X9254405Y-18079643D01*
X9682976Y-17832024D02*
X9702024Y-17832024D01*
X9702024Y-17832024D02*
X9721072Y-17841548D01*
X9721072Y-17841548D02*
X9730595Y-17851071D01*
X9730595Y-17851071D02*
X9740119Y-17870119D01*
X9740119Y-17870119D02*
X9749643Y-17908214D01*
X9749643Y-17908214D02*
X9749643Y-17955833D01*
X9749643Y-17955833D02*
X9740119Y-17993929D01*
X9740119Y-17993929D02*
X9730595Y-18012976D01*
X9730595Y-18012976D02*
X9721072Y-18022500D01*
X9721072Y-18022500D02*
X9702024Y-18032024D01*
X9702024Y-18032024D02*
X9682976Y-18032024D01*
X9682976Y-18032024D02*
X9663929Y-18022500D01*
X9663929Y-18022500D02*
X9654405Y-18012976D01*
X9654405Y-18012976D02*
X9644881Y-17993929D01*
X9644881Y-17993929D02*
X9635357Y-17955833D01*
X9635357Y-17955833D02*
X9635357Y-17908214D01*
X9635357Y-17908214D02*
X9644881Y-17870119D01*
X9644881Y-17870119D02*
X9654405Y-17851071D01*
X9654405Y-17851071D02*
X9663929Y-17841548D01*
X9663929Y-17841548D02*
X9682976Y-17832024D01*
X9835357Y-18012976D02*
X9844881Y-18022500D01*
X9844881Y-18022500D02*
X9835357Y-18032024D01*
X9835357Y-18032024D02*
X9825834Y-18022500D01*
X9825834Y-18022500D02*
X9835357Y-18012976D01*
X9835357Y-18012976D02*
X9835357Y-18032024D01*
X9968691Y-17832024D02*
X9987738Y-17832024D01*
X9987738Y-17832024D02*
X10006786Y-17841548D01*
X10006786Y-17841548D02*
X10016310Y-17851071D01*
X10016310Y-17851071D02*
X10025834Y-17870119D01*
X10025834Y-17870119D02*
X10035357Y-17908214D01*
X10035357Y-17908214D02*
X10035357Y-17955833D01*
X10035357Y-17955833D02*
X10025834Y-17993929D01*
X10025834Y-17993929D02*
X10016310Y-18012976D01*
X10016310Y-18012976D02*
X10006786Y-18022500D01*
X10006786Y-18022500D02*
X9987738Y-18032024D01*
X9987738Y-18032024D02*
X9968691Y-18032024D01*
X9968691Y-18032024D02*
X9949643Y-18022500D01*
X9949643Y-18022500D02*
X9940119Y-18012976D01*
X9940119Y-18012976D02*
X9930595Y-17993929D01*
X9930595Y-17993929D02*
X9921072Y-17955833D01*
X9921072Y-17955833D02*
X9921072Y-17908214D01*
X9921072Y-17908214D02*
X9930595Y-17870119D01*
X9930595Y-17870119D02*
X9940119Y-17851071D01*
X9940119Y-17851071D02*
X9949643Y-17841548D01*
X9949643Y-17841548D02*
X9968691Y-17832024D01*
X10206786Y-17898690D02*
X10206786Y-18032024D01*
X10159167Y-17822500D02*
X10111548Y-17965357D01*
X10111548Y-17965357D02*
X10235357Y-17965357D01*
X10292500Y-17832024D02*
X10416310Y-17832024D01*
X10416310Y-17832024D02*
X10349643Y-17908214D01*
X10349643Y-17908214D02*
X10378215Y-17908214D01*
X10378215Y-17908214D02*
X10397262Y-17917738D01*
X10397262Y-17917738D02*
X10406786Y-17927262D01*
X10406786Y-17927262D02*
X10416310Y-17946310D01*
X10416310Y-17946310D02*
X10416310Y-17993929D01*
X10416310Y-17993929D02*
X10406786Y-18012976D01*
X10406786Y-18012976D02*
X10397262Y-18022500D01*
X10397262Y-18022500D02*
X10378215Y-18032024D01*
X10378215Y-18032024D02*
X10321072Y-18032024D01*
X10321072Y-18032024D02*
X10302024Y-18022500D01*
X10302024Y-18022500D02*
X10292500Y-18012976D01*
X10482976Y-17832024D02*
X10606786Y-17832024D01*
X10606786Y-17832024D02*
X10540119Y-17908214D01*
X10540119Y-17908214D02*
X10568691Y-17908214D01*
X10568691Y-17908214D02*
X10587738Y-17917738D01*
X10587738Y-17917738D02*
X10597262Y-17927262D01*
X10597262Y-17927262D02*
X10606786Y-17946310D01*
X10606786Y-17946310D02*
X10606786Y-17993929D01*
X10606786Y-17993929D02*
X10597262Y-18012976D01*
X10597262Y-18012976D02*
X10587738Y-18022500D01*
X10587738Y-18022500D02*
X10568691Y-18032024D01*
X10568691Y-18032024D02*
X10511548Y-18032024D01*
X10511548Y-18032024D02*
X10492500Y-18022500D01*
X10492500Y-18022500D02*
X10482976Y-18012976D01*
X10682976Y-17832024D02*
X10682976Y-17870119D01*
X10759167Y-17832024D02*
X10759167Y-17870119D01*
X11054405Y-18108214D02*
X11044881Y-18098690D01*
X11044881Y-18098690D02*
X11025834Y-18070119D01*
X11025834Y-18070119D02*
X11016310Y-18051071D01*
X11016310Y-18051071D02*
X11006786Y-18022500D01*
X11006786Y-18022500D02*
X10997262Y-17974881D01*
X10997262Y-17974881D02*
X10997262Y-17936786D01*
X10997262Y-17936786D02*
X11006786Y-17889167D01*
X11006786Y-17889167D02*
X11016310Y-17860595D01*
X11016310Y-17860595D02*
X11025834Y-17841548D01*
X11025834Y-17841548D02*
X11044881Y-17812976D01*
X11044881Y-17812976D02*
X11054405Y-17803452D01*
X11121072Y-17851071D02*
X11130596Y-17841548D01*
X11130596Y-17841548D02*
X11149643Y-17832024D01*
X11149643Y-17832024D02*
X11197262Y-17832024D01*
X11197262Y-17832024D02*
X11216310Y-17841548D01*
X11216310Y-17841548D02*
X11225834Y-17851071D01*
X11225834Y-17851071D02*
X11235357Y-17870119D01*
X11235357Y-17870119D02*
X11235357Y-17889167D01*
X11235357Y-17889167D02*
X11225834Y-17917738D01*
X11225834Y-17917738D02*
X11111548Y-18032024D01*
X11111548Y-18032024D02*
X11235357Y-18032024D01*
X11473453Y-18032024D02*
X11473453Y-17832024D01*
X11559167Y-18032024D02*
X11559167Y-17927262D01*
X11559167Y-17927262D02*
X11549643Y-17908214D01*
X11549643Y-17908214D02*
X11530596Y-17898690D01*
X11530596Y-17898690D02*
X11502024Y-17898690D01*
X11502024Y-17898690D02*
X11482976Y-17908214D01*
X11482976Y-17908214D02*
X11473453Y-17917738D01*
X11682976Y-18032024D02*
X11663929Y-18022500D01*
X11663929Y-18022500D02*
X11654405Y-18012976D01*
X11654405Y-18012976D02*
X11644881Y-17993929D01*
X11644881Y-17993929D02*
X11644881Y-17936786D01*
X11644881Y-17936786D02*
X11654405Y-17917738D01*
X11654405Y-17917738D02*
X11663929Y-17908214D01*
X11663929Y-17908214D02*
X11682976Y-17898690D01*
X11682976Y-17898690D02*
X11711548Y-17898690D01*
X11711548Y-17898690D02*
X11730596Y-17908214D01*
X11730596Y-17908214D02*
X11740119Y-17917738D01*
X11740119Y-17917738D02*
X11749643Y-17936786D01*
X11749643Y-17936786D02*
X11749643Y-17993929D01*
X11749643Y-17993929D02*
X11740119Y-18012976D01*
X11740119Y-18012976D02*
X11730596Y-18022500D01*
X11730596Y-18022500D02*
X11711548Y-18032024D01*
X11711548Y-18032024D02*
X11682976Y-18032024D01*
X11863929Y-18032024D02*
X11844881Y-18022500D01*
X11844881Y-18022500D02*
X11835357Y-18003452D01*
X11835357Y-18003452D02*
X11835357Y-17832024D01*
X12016310Y-18022500D02*
X11997262Y-18032024D01*
X11997262Y-18032024D02*
X11959167Y-18032024D01*
X11959167Y-18032024D02*
X11940119Y-18022500D01*
X11940119Y-18022500D02*
X11930596Y-18003452D01*
X11930596Y-18003452D02*
X11930596Y-17927262D01*
X11930596Y-17927262D02*
X11940119Y-17908214D01*
X11940119Y-17908214D02*
X11959167Y-17898690D01*
X11959167Y-17898690D02*
X11997262Y-17898690D01*
X11997262Y-17898690D02*
X12016310Y-17908214D01*
X12016310Y-17908214D02*
X12025834Y-17927262D01*
X12025834Y-17927262D02*
X12025834Y-17946310D01*
X12025834Y-17946310D02*
X11930596Y-17965357D01*
X12102024Y-18022500D02*
X12121072Y-18032024D01*
X12121072Y-18032024D02*
X12159167Y-18032024D01*
X12159167Y-18032024D02*
X12178215Y-18022500D01*
X12178215Y-18022500D02*
X12187738Y-18003452D01*
X12187738Y-18003452D02*
X12187738Y-17993929D01*
X12187738Y-17993929D02*
X12178215Y-17974881D01*
X12178215Y-17974881D02*
X12159167Y-17965357D01*
X12159167Y-17965357D02*
X12130596Y-17965357D01*
X12130596Y-17965357D02*
X12111548Y-17955833D01*
X12111548Y-17955833D02*
X12102024Y-17936786D01*
X12102024Y-17936786D02*
X12102024Y-17927262D01*
X12102024Y-17927262D02*
X12111548Y-17908214D01*
X12111548Y-17908214D02*
X12130596Y-17898690D01*
X12130596Y-17898690D02*
X12159167Y-17898690D01*
X12159167Y-17898690D02*
X12178215Y-17908214D01*
X12254405Y-18108214D02*
X12263929Y-18098690D01*
X12263929Y-18098690D02*
X12282977Y-18070119D01*
X12282977Y-18070119D02*
X12292500Y-18051071D01*
X12292500Y-18051071D02*
X12302024Y-18022500D01*
X12302024Y-18022500D02*
X12311548Y-17974881D01*
X12311548Y-17974881D02*
X12311548Y-17936786D01*
X12311548Y-17936786D02*
X12302024Y-17889167D01*
X12302024Y-17889167D02*
X12292500Y-17860595D01*
X12292500Y-17860595D02*
X12282977Y-17841548D01*
X12282977Y-17841548D02*
X12263929Y-17812976D01*
X12263929Y-17812976D02*
X12254405Y-17803452D01*
D16*
X7427500Y-18268500D02*
X7492500Y-18203500D01*
X7427500Y-18138500D01*
X7362500Y-18203500D01*
X7427500Y-18268500D01*
D11*
X7844881Y-18296024D02*
X7730595Y-18296024D01*
X7787738Y-18296024D02*
X7787738Y-18096024D01*
X7787738Y-18096024D02*
X7768690Y-18124595D01*
X7768690Y-18124595D02*
X7749643Y-18143643D01*
X7749643Y-18143643D02*
X7730595Y-18153167D01*
X7930595Y-18276976D02*
X7940119Y-18286500D01*
X7940119Y-18286500D02*
X7930595Y-18296024D01*
X7930595Y-18296024D02*
X7921071Y-18286500D01*
X7921071Y-18286500D02*
X7930595Y-18276976D01*
X7930595Y-18276976D02*
X7930595Y-18296024D01*
X8006786Y-18096024D02*
X8130595Y-18096024D01*
X8130595Y-18096024D02*
X8063928Y-18172214D01*
X8063928Y-18172214D02*
X8092500Y-18172214D01*
X8092500Y-18172214D02*
X8111548Y-18181738D01*
X8111548Y-18181738D02*
X8121071Y-18191262D01*
X8121071Y-18191262D02*
X8130595Y-18210310D01*
X8130595Y-18210310D02*
X8130595Y-18257929D01*
X8130595Y-18257929D02*
X8121071Y-18276976D01*
X8121071Y-18276976D02*
X8111548Y-18286500D01*
X8111548Y-18286500D02*
X8092500Y-18296024D01*
X8092500Y-18296024D02*
X8035357Y-18296024D01*
X8035357Y-18296024D02*
X8016309Y-18286500D01*
X8016309Y-18286500D02*
X8006786Y-18276976D01*
X8254405Y-18096024D02*
X8273452Y-18096024D01*
X8273452Y-18096024D02*
X8292500Y-18105548D01*
X8292500Y-18105548D02*
X8302024Y-18115071D01*
X8302024Y-18115071D02*
X8311548Y-18134119D01*
X8311548Y-18134119D02*
X8321071Y-18172214D01*
X8321071Y-18172214D02*
X8321071Y-18219833D01*
X8321071Y-18219833D02*
X8311548Y-18257929D01*
X8311548Y-18257929D02*
X8302024Y-18276976D01*
X8302024Y-18276976D02*
X8292500Y-18286500D01*
X8292500Y-18286500D02*
X8273452Y-18296024D01*
X8273452Y-18296024D02*
X8254405Y-18296024D01*
X8254405Y-18296024D02*
X8235357Y-18286500D01*
X8235357Y-18286500D02*
X8225833Y-18276976D01*
X8225833Y-18276976D02*
X8216309Y-18257929D01*
X8216309Y-18257929D02*
X8206786Y-18219833D01*
X8206786Y-18219833D02*
X8206786Y-18172214D01*
X8206786Y-18172214D02*
X8216309Y-18134119D01*
X8216309Y-18134119D02*
X8225833Y-18115071D01*
X8225833Y-18115071D02*
X8235357Y-18105548D01*
X8235357Y-18105548D02*
X8254405Y-18096024D01*
X8444881Y-18096024D02*
X8463929Y-18096024D01*
X8463929Y-18096024D02*
X8482976Y-18105548D01*
X8482976Y-18105548D02*
X8492500Y-18115071D01*
X8492500Y-18115071D02*
X8502024Y-18134119D01*
X8502024Y-18134119D02*
X8511548Y-18172214D01*
X8511548Y-18172214D02*
X8511548Y-18219833D01*
X8511548Y-18219833D02*
X8502024Y-18257929D01*
X8502024Y-18257929D02*
X8492500Y-18276976D01*
X8492500Y-18276976D02*
X8482976Y-18286500D01*
X8482976Y-18286500D02*
X8463929Y-18296024D01*
X8463929Y-18296024D02*
X8444881Y-18296024D01*
X8444881Y-18296024D02*
X8425833Y-18286500D01*
X8425833Y-18286500D02*
X8416310Y-18276976D01*
X8416310Y-18276976D02*
X8406786Y-18257929D01*
X8406786Y-18257929D02*
X8397262Y-18219833D01*
X8397262Y-18219833D02*
X8397262Y-18172214D01*
X8397262Y-18172214D02*
X8406786Y-18134119D01*
X8406786Y-18134119D02*
X8416310Y-18115071D01*
X8416310Y-18115071D02*
X8425833Y-18105548D01*
X8425833Y-18105548D02*
X8444881Y-18096024D01*
X8597262Y-18296024D02*
X8597262Y-18162690D01*
X8597262Y-18181738D02*
X8606786Y-18172214D01*
X8606786Y-18172214D02*
X8625833Y-18162690D01*
X8625833Y-18162690D02*
X8654405Y-18162690D01*
X8654405Y-18162690D02*
X8673452Y-18172214D01*
X8673452Y-18172214D02*
X8682976Y-18191262D01*
X8682976Y-18191262D02*
X8682976Y-18296024D01*
X8682976Y-18191262D02*
X8692500Y-18172214D01*
X8692500Y-18172214D02*
X8711548Y-18162690D01*
X8711548Y-18162690D02*
X8740119Y-18162690D01*
X8740119Y-18162690D02*
X8759167Y-18172214D01*
X8759167Y-18172214D02*
X8768691Y-18191262D01*
X8768691Y-18191262D02*
X8768691Y-18296024D01*
X8863929Y-18296024D02*
X8863929Y-18162690D01*
X8863929Y-18181738D02*
X8873452Y-18172214D01*
X8873452Y-18172214D02*
X8892500Y-18162690D01*
X8892500Y-18162690D02*
X8921072Y-18162690D01*
X8921072Y-18162690D02*
X8940119Y-18172214D01*
X8940119Y-18172214D02*
X8949643Y-18191262D01*
X8949643Y-18191262D02*
X8949643Y-18296024D01*
X8949643Y-18191262D02*
X8959167Y-18172214D01*
X8959167Y-18172214D02*
X8978214Y-18162690D01*
X8978214Y-18162690D02*
X9006786Y-18162690D01*
X9006786Y-18162690D02*
X9025833Y-18172214D01*
X9025833Y-18172214D02*
X9035357Y-18191262D01*
X9035357Y-18191262D02*
X9035357Y-18296024D01*
X9425833Y-18086500D02*
X9254405Y-18343643D01*
X9682976Y-18096024D02*
X9702024Y-18096024D01*
X9702024Y-18096024D02*
X9721072Y-18105548D01*
X9721072Y-18105548D02*
X9730595Y-18115071D01*
X9730595Y-18115071D02*
X9740119Y-18134119D01*
X9740119Y-18134119D02*
X9749643Y-18172214D01*
X9749643Y-18172214D02*
X9749643Y-18219833D01*
X9749643Y-18219833D02*
X9740119Y-18257929D01*
X9740119Y-18257929D02*
X9730595Y-18276976D01*
X9730595Y-18276976D02*
X9721072Y-18286500D01*
X9721072Y-18286500D02*
X9702024Y-18296024D01*
X9702024Y-18296024D02*
X9682976Y-18296024D01*
X9682976Y-18296024D02*
X9663929Y-18286500D01*
X9663929Y-18286500D02*
X9654405Y-18276976D01*
X9654405Y-18276976D02*
X9644881Y-18257929D01*
X9644881Y-18257929D02*
X9635357Y-18219833D01*
X9635357Y-18219833D02*
X9635357Y-18172214D01*
X9635357Y-18172214D02*
X9644881Y-18134119D01*
X9644881Y-18134119D02*
X9654405Y-18115071D01*
X9654405Y-18115071D02*
X9663929Y-18105548D01*
X9663929Y-18105548D02*
X9682976Y-18096024D01*
X9835357Y-18276976D02*
X9844881Y-18286500D01*
X9844881Y-18286500D02*
X9835357Y-18296024D01*
X9835357Y-18296024D02*
X9825834Y-18286500D01*
X9825834Y-18286500D02*
X9835357Y-18276976D01*
X9835357Y-18276976D02*
X9835357Y-18296024D01*
X9968691Y-18096024D02*
X9987738Y-18096024D01*
X9987738Y-18096024D02*
X10006786Y-18105548D01*
X10006786Y-18105548D02*
X10016310Y-18115071D01*
X10016310Y-18115071D02*
X10025834Y-18134119D01*
X10025834Y-18134119D02*
X10035357Y-18172214D01*
X10035357Y-18172214D02*
X10035357Y-18219833D01*
X10035357Y-18219833D02*
X10025834Y-18257929D01*
X10025834Y-18257929D02*
X10016310Y-18276976D01*
X10016310Y-18276976D02*
X10006786Y-18286500D01*
X10006786Y-18286500D02*
X9987738Y-18296024D01*
X9987738Y-18296024D02*
X9968691Y-18296024D01*
X9968691Y-18296024D02*
X9949643Y-18286500D01*
X9949643Y-18286500D02*
X9940119Y-18276976D01*
X9940119Y-18276976D02*
X9930595Y-18257929D01*
X9930595Y-18257929D02*
X9921072Y-18219833D01*
X9921072Y-18219833D02*
X9921072Y-18172214D01*
X9921072Y-18172214D02*
X9930595Y-18134119D01*
X9930595Y-18134119D02*
X9940119Y-18115071D01*
X9940119Y-18115071D02*
X9949643Y-18105548D01*
X9949643Y-18105548D02*
X9968691Y-18096024D01*
X10216310Y-18096024D02*
X10121072Y-18096024D01*
X10121072Y-18096024D02*
X10111548Y-18191262D01*
X10111548Y-18191262D02*
X10121072Y-18181738D01*
X10121072Y-18181738D02*
X10140119Y-18172214D01*
X10140119Y-18172214D02*
X10187738Y-18172214D01*
X10187738Y-18172214D02*
X10206786Y-18181738D01*
X10206786Y-18181738D02*
X10216310Y-18191262D01*
X10216310Y-18191262D02*
X10225834Y-18210310D01*
X10225834Y-18210310D02*
X10225834Y-18257929D01*
X10225834Y-18257929D02*
X10216310Y-18276976D01*
X10216310Y-18276976D02*
X10206786Y-18286500D01*
X10206786Y-18286500D02*
X10187738Y-18296024D01*
X10187738Y-18296024D02*
X10140119Y-18296024D01*
X10140119Y-18296024D02*
X10121072Y-18286500D01*
X10121072Y-18286500D02*
X10111548Y-18276976D01*
X10416310Y-18296024D02*
X10302024Y-18296024D01*
X10359167Y-18296024D02*
X10359167Y-18096024D01*
X10359167Y-18096024D02*
X10340119Y-18124595D01*
X10340119Y-18124595D02*
X10321072Y-18143643D01*
X10321072Y-18143643D02*
X10302024Y-18153167D01*
X10492500Y-18115071D02*
X10502024Y-18105548D01*
X10502024Y-18105548D02*
X10521072Y-18096024D01*
X10521072Y-18096024D02*
X10568691Y-18096024D01*
X10568691Y-18096024D02*
X10587738Y-18105548D01*
X10587738Y-18105548D02*
X10597262Y-18115071D01*
X10597262Y-18115071D02*
X10606786Y-18134119D01*
X10606786Y-18134119D02*
X10606786Y-18153167D01*
X10606786Y-18153167D02*
X10597262Y-18181738D01*
X10597262Y-18181738D02*
X10482976Y-18296024D01*
X10482976Y-18296024D02*
X10606786Y-18296024D01*
X10682976Y-18096024D02*
X10682976Y-18134119D01*
X10759167Y-18096024D02*
X10759167Y-18134119D01*
X11054405Y-18372214D02*
X11044881Y-18362690D01*
X11044881Y-18362690D02*
X11025834Y-18334119D01*
X11025834Y-18334119D02*
X11016310Y-18315071D01*
X11016310Y-18315071D02*
X11006786Y-18286500D01*
X11006786Y-18286500D02*
X10997262Y-18238881D01*
X10997262Y-18238881D02*
X10997262Y-18200786D01*
X10997262Y-18200786D02*
X11006786Y-18153167D01*
X11006786Y-18153167D02*
X11016310Y-18124595D01*
X11016310Y-18124595D02*
X11025834Y-18105548D01*
X11025834Y-18105548D02*
X11044881Y-18076976D01*
X11044881Y-18076976D02*
X11054405Y-18067452D01*
X11235357Y-18296024D02*
X11121072Y-18296024D01*
X11178215Y-18296024D02*
X11178215Y-18096024D01*
X11178215Y-18096024D02*
X11159167Y-18124595D01*
X11159167Y-18124595D02*
X11140119Y-18143643D01*
X11140119Y-18143643D02*
X11121072Y-18153167D01*
X11302024Y-18096024D02*
X11425834Y-18096024D01*
X11425834Y-18096024D02*
X11359167Y-18172214D01*
X11359167Y-18172214D02*
X11387738Y-18172214D01*
X11387738Y-18172214D02*
X11406786Y-18181738D01*
X11406786Y-18181738D02*
X11416310Y-18191262D01*
X11416310Y-18191262D02*
X11425834Y-18210310D01*
X11425834Y-18210310D02*
X11425834Y-18257929D01*
X11425834Y-18257929D02*
X11416310Y-18276976D01*
X11416310Y-18276976D02*
X11406786Y-18286500D01*
X11406786Y-18286500D02*
X11387738Y-18296024D01*
X11387738Y-18296024D02*
X11330595Y-18296024D01*
X11330595Y-18296024D02*
X11311548Y-18286500D01*
X11311548Y-18286500D02*
X11302024Y-18276976D01*
X11663929Y-18296024D02*
X11663929Y-18096024D01*
X11749643Y-18296024D02*
X11749643Y-18191262D01*
X11749643Y-18191262D02*
X11740119Y-18172214D01*
X11740119Y-18172214D02*
X11721072Y-18162690D01*
X11721072Y-18162690D02*
X11692500Y-18162690D01*
X11692500Y-18162690D02*
X11673453Y-18172214D01*
X11673453Y-18172214D02*
X11663929Y-18181738D01*
X11873453Y-18296024D02*
X11854405Y-18286500D01*
X11854405Y-18286500D02*
X11844881Y-18276976D01*
X11844881Y-18276976D02*
X11835357Y-18257929D01*
X11835357Y-18257929D02*
X11835357Y-18200786D01*
X11835357Y-18200786D02*
X11844881Y-18181738D01*
X11844881Y-18181738D02*
X11854405Y-18172214D01*
X11854405Y-18172214D02*
X11873453Y-18162690D01*
X11873453Y-18162690D02*
X11902024Y-18162690D01*
X11902024Y-18162690D02*
X11921072Y-18172214D01*
X11921072Y-18172214D02*
X11930596Y-18181738D01*
X11930596Y-18181738D02*
X11940119Y-18200786D01*
X11940119Y-18200786D02*
X11940119Y-18257929D01*
X11940119Y-18257929D02*
X11930596Y-18276976D01*
X11930596Y-18276976D02*
X11921072Y-18286500D01*
X11921072Y-18286500D02*
X11902024Y-18296024D01*
X11902024Y-18296024D02*
X11873453Y-18296024D01*
X12054405Y-18296024D02*
X12035357Y-18286500D01*
X12035357Y-18286500D02*
X12025834Y-18267452D01*
X12025834Y-18267452D02*
X12025834Y-18096024D01*
X12206786Y-18286500D02*
X12187738Y-18296024D01*
X12187738Y-18296024D02*
X12149643Y-18296024D01*
X12149643Y-18296024D02*
X12130596Y-18286500D01*
X12130596Y-18286500D02*
X12121072Y-18267452D01*
X12121072Y-18267452D02*
X12121072Y-18191262D01*
X12121072Y-18191262D02*
X12130596Y-18172214D01*
X12130596Y-18172214D02*
X12149643Y-18162690D01*
X12149643Y-18162690D02*
X12187738Y-18162690D01*
X12187738Y-18162690D02*
X12206786Y-18172214D01*
X12206786Y-18172214D02*
X12216310Y-18191262D01*
X12216310Y-18191262D02*
X12216310Y-18210310D01*
X12216310Y-18210310D02*
X12121072Y-18229357D01*
X12292500Y-18286500D02*
X12311548Y-18296024D01*
X12311548Y-18296024D02*
X12349643Y-18296024D01*
X12349643Y-18296024D02*
X12368691Y-18286500D01*
X12368691Y-18286500D02*
X12378215Y-18267452D01*
X12378215Y-18267452D02*
X12378215Y-18257929D01*
X12378215Y-18257929D02*
X12368691Y-18238881D01*
X12368691Y-18238881D02*
X12349643Y-18229357D01*
X12349643Y-18229357D02*
X12321072Y-18229357D01*
X12321072Y-18229357D02*
X12302024Y-18219833D01*
X12302024Y-18219833D02*
X12292500Y-18200786D01*
X12292500Y-18200786D02*
X12292500Y-18191262D01*
X12292500Y-18191262D02*
X12302024Y-18172214D01*
X12302024Y-18172214D02*
X12321072Y-18162690D01*
X12321072Y-18162690D02*
X12349643Y-18162690D01*
X12349643Y-18162690D02*
X12368691Y-18172214D01*
X12444881Y-18372214D02*
X12454405Y-18362690D01*
X12454405Y-18362690D02*
X12473453Y-18334119D01*
X12473453Y-18334119D02*
X12482977Y-18315071D01*
X12482977Y-18315071D02*
X12492500Y-18286500D01*
X12492500Y-18286500D02*
X12502024Y-18238881D01*
X12502024Y-18238881D02*
X12502024Y-18200786D01*
X12502024Y-18200786D02*
X12492500Y-18153167D01*
X12492500Y-18153167D02*
X12482977Y-18124595D01*
X12482977Y-18124595D02*
X12473453Y-18105548D01*
X12473453Y-18105548D02*
X12454405Y-18076976D01*
X12454405Y-18076976D02*
X12444881Y-18067452D01*
X7292500Y-18367500D02*
X7492500Y-18567500D01*
X7492500Y-18367500D02*
X7292500Y-18567500D01*
X7492500Y-18467500D02*
G75*
G03*
X7492500Y-18467500I-100000J0D01*
G01*
X7730595Y-18379071D02*
X7740119Y-18369548D01*
X7740119Y-18369548D02*
X7759167Y-18360024D01*
X7759167Y-18360024D02*
X7806786Y-18360024D01*
X7806786Y-18360024D02*
X7825833Y-18369548D01*
X7825833Y-18369548D02*
X7835357Y-18379071D01*
X7835357Y-18379071D02*
X7844881Y-18398119D01*
X7844881Y-18398119D02*
X7844881Y-18417167D01*
X7844881Y-18417167D02*
X7835357Y-18445738D01*
X7835357Y-18445738D02*
X7721071Y-18560024D01*
X7721071Y-18560024D02*
X7844881Y-18560024D01*
X7930595Y-18540976D02*
X7940119Y-18550500D01*
X7940119Y-18550500D02*
X7930595Y-18560024D01*
X7930595Y-18560024D02*
X7921071Y-18550500D01*
X7921071Y-18550500D02*
X7930595Y-18540976D01*
X7930595Y-18540976D02*
X7930595Y-18560024D01*
X8130595Y-18560024D02*
X8016309Y-18560024D01*
X8073452Y-18560024D02*
X8073452Y-18360024D01*
X8073452Y-18360024D02*
X8054405Y-18388595D01*
X8054405Y-18388595D02*
X8035357Y-18407643D01*
X8035357Y-18407643D02*
X8016309Y-18417167D01*
X8254405Y-18360024D02*
X8273452Y-18360024D01*
X8273452Y-18360024D02*
X8292500Y-18369548D01*
X8292500Y-18369548D02*
X8302024Y-18379071D01*
X8302024Y-18379071D02*
X8311548Y-18398119D01*
X8311548Y-18398119D02*
X8321071Y-18436214D01*
X8321071Y-18436214D02*
X8321071Y-18483833D01*
X8321071Y-18483833D02*
X8311548Y-18521929D01*
X8311548Y-18521929D02*
X8302024Y-18540976D01*
X8302024Y-18540976D02*
X8292500Y-18550500D01*
X8292500Y-18550500D02*
X8273452Y-18560024D01*
X8273452Y-18560024D02*
X8254405Y-18560024D01*
X8254405Y-18560024D02*
X8235357Y-18550500D01*
X8235357Y-18550500D02*
X8225833Y-18540976D01*
X8225833Y-18540976D02*
X8216309Y-18521929D01*
X8216309Y-18521929D02*
X8206786Y-18483833D01*
X8206786Y-18483833D02*
X8206786Y-18436214D01*
X8206786Y-18436214D02*
X8216309Y-18398119D01*
X8216309Y-18398119D02*
X8225833Y-18379071D01*
X8225833Y-18379071D02*
X8235357Y-18369548D01*
X8235357Y-18369548D02*
X8254405Y-18360024D01*
X8444881Y-18360024D02*
X8463929Y-18360024D01*
X8463929Y-18360024D02*
X8482976Y-18369548D01*
X8482976Y-18369548D02*
X8492500Y-18379071D01*
X8492500Y-18379071D02*
X8502024Y-18398119D01*
X8502024Y-18398119D02*
X8511548Y-18436214D01*
X8511548Y-18436214D02*
X8511548Y-18483833D01*
X8511548Y-18483833D02*
X8502024Y-18521929D01*
X8502024Y-18521929D02*
X8492500Y-18540976D01*
X8492500Y-18540976D02*
X8482976Y-18550500D01*
X8482976Y-18550500D02*
X8463929Y-18560024D01*
X8463929Y-18560024D02*
X8444881Y-18560024D01*
X8444881Y-18560024D02*
X8425833Y-18550500D01*
X8425833Y-18550500D02*
X8416310Y-18540976D01*
X8416310Y-18540976D02*
X8406786Y-18521929D01*
X8406786Y-18521929D02*
X8397262Y-18483833D01*
X8397262Y-18483833D02*
X8397262Y-18436214D01*
X8397262Y-18436214D02*
X8406786Y-18398119D01*
X8406786Y-18398119D02*
X8416310Y-18379071D01*
X8416310Y-18379071D02*
X8425833Y-18369548D01*
X8425833Y-18369548D02*
X8444881Y-18360024D01*
X8597262Y-18560024D02*
X8597262Y-18426690D01*
X8597262Y-18445738D02*
X8606786Y-18436214D01*
X8606786Y-18436214D02*
X8625833Y-18426690D01*
X8625833Y-18426690D02*
X8654405Y-18426690D01*
X8654405Y-18426690D02*
X8673452Y-18436214D01*
X8673452Y-18436214D02*
X8682976Y-18455262D01*
X8682976Y-18455262D02*
X8682976Y-18560024D01*
X8682976Y-18455262D02*
X8692500Y-18436214D01*
X8692500Y-18436214D02*
X8711548Y-18426690D01*
X8711548Y-18426690D02*
X8740119Y-18426690D01*
X8740119Y-18426690D02*
X8759167Y-18436214D01*
X8759167Y-18436214D02*
X8768691Y-18455262D01*
X8768691Y-18455262D02*
X8768691Y-18560024D01*
X8863929Y-18560024D02*
X8863929Y-18426690D01*
X8863929Y-18445738D02*
X8873452Y-18436214D01*
X8873452Y-18436214D02*
X8892500Y-18426690D01*
X8892500Y-18426690D02*
X8921072Y-18426690D01*
X8921072Y-18426690D02*
X8940119Y-18436214D01*
X8940119Y-18436214D02*
X8949643Y-18455262D01*
X8949643Y-18455262D02*
X8949643Y-18560024D01*
X8949643Y-18455262D02*
X8959167Y-18436214D01*
X8959167Y-18436214D02*
X8978214Y-18426690D01*
X8978214Y-18426690D02*
X9006786Y-18426690D01*
X9006786Y-18426690D02*
X9025833Y-18436214D01*
X9025833Y-18436214D02*
X9035357Y-18455262D01*
X9035357Y-18455262D02*
X9035357Y-18560024D01*
X9425833Y-18350500D02*
X9254405Y-18607643D01*
X9682976Y-18360024D02*
X9702024Y-18360024D01*
X9702024Y-18360024D02*
X9721072Y-18369548D01*
X9721072Y-18369548D02*
X9730595Y-18379071D01*
X9730595Y-18379071D02*
X9740119Y-18398119D01*
X9740119Y-18398119D02*
X9749643Y-18436214D01*
X9749643Y-18436214D02*
X9749643Y-18483833D01*
X9749643Y-18483833D02*
X9740119Y-18521929D01*
X9740119Y-18521929D02*
X9730595Y-18540976D01*
X9730595Y-18540976D02*
X9721072Y-18550500D01*
X9721072Y-18550500D02*
X9702024Y-18560024D01*
X9702024Y-18560024D02*
X9682976Y-18560024D01*
X9682976Y-18560024D02*
X9663929Y-18550500D01*
X9663929Y-18550500D02*
X9654405Y-18540976D01*
X9654405Y-18540976D02*
X9644881Y-18521929D01*
X9644881Y-18521929D02*
X9635357Y-18483833D01*
X9635357Y-18483833D02*
X9635357Y-18436214D01*
X9635357Y-18436214D02*
X9644881Y-18398119D01*
X9644881Y-18398119D02*
X9654405Y-18379071D01*
X9654405Y-18379071D02*
X9663929Y-18369548D01*
X9663929Y-18369548D02*
X9682976Y-18360024D01*
X9835357Y-18540976D02*
X9844881Y-18550500D01*
X9844881Y-18550500D02*
X9835357Y-18560024D01*
X9835357Y-18560024D02*
X9825834Y-18550500D01*
X9825834Y-18550500D02*
X9835357Y-18540976D01*
X9835357Y-18540976D02*
X9835357Y-18560024D01*
X9968691Y-18360024D02*
X9987738Y-18360024D01*
X9987738Y-18360024D02*
X10006786Y-18369548D01*
X10006786Y-18369548D02*
X10016310Y-18379071D01*
X10016310Y-18379071D02*
X10025834Y-18398119D01*
X10025834Y-18398119D02*
X10035357Y-18436214D01*
X10035357Y-18436214D02*
X10035357Y-18483833D01*
X10035357Y-18483833D02*
X10025834Y-18521929D01*
X10025834Y-18521929D02*
X10016310Y-18540976D01*
X10016310Y-18540976D02*
X10006786Y-18550500D01*
X10006786Y-18550500D02*
X9987738Y-18560024D01*
X9987738Y-18560024D02*
X9968691Y-18560024D01*
X9968691Y-18560024D02*
X9949643Y-18550500D01*
X9949643Y-18550500D02*
X9940119Y-18540976D01*
X9940119Y-18540976D02*
X9930595Y-18521929D01*
X9930595Y-18521929D02*
X9921072Y-18483833D01*
X9921072Y-18483833D02*
X9921072Y-18436214D01*
X9921072Y-18436214D02*
X9930595Y-18398119D01*
X9930595Y-18398119D02*
X9940119Y-18379071D01*
X9940119Y-18379071D02*
X9949643Y-18369548D01*
X9949643Y-18369548D02*
X9968691Y-18360024D01*
X10149643Y-18445738D02*
X10130595Y-18436214D01*
X10130595Y-18436214D02*
X10121072Y-18426690D01*
X10121072Y-18426690D02*
X10111548Y-18407643D01*
X10111548Y-18407643D02*
X10111548Y-18398119D01*
X10111548Y-18398119D02*
X10121072Y-18379071D01*
X10121072Y-18379071D02*
X10130595Y-18369548D01*
X10130595Y-18369548D02*
X10149643Y-18360024D01*
X10149643Y-18360024D02*
X10187738Y-18360024D01*
X10187738Y-18360024D02*
X10206786Y-18369548D01*
X10206786Y-18369548D02*
X10216310Y-18379071D01*
X10216310Y-18379071D02*
X10225834Y-18398119D01*
X10225834Y-18398119D02*
X10225834Y-18407643D01*
X10225834Y-18407643D02*
X10216310Y-18426690D01*
X10216310Y-18426690D02*
X10206786Y-18436214D01*
X10206786Y-18436214D02*
X10187738Y-18445738D01*
X10187738Y-18445738D02*
X10149643Y-18445738D01*
X10149643Y-18445738D02*
X10130595Y-18455262D01*
X10130595Y-18455262D02*
X10121072Y-18464786D01*
X10121072Y-18464786D02*
X10111548Y-18483833D01*
X10111548Y-18483833D02*
X10111548Y-18521929D01*
X10111548Y-18521929D02*
X10121072Y-18540976D01*
X10121072Y-18540976D02*
X10130595Y-18550500D01*
X10130595Y-18550500D02*
X10149643Y-18560024D01*
X10149643Y-18560024D02*
X10187738Y-18560024D01*
X10187738Y-18560024D02*
X10206786Y-18550500D01*
X10206786Y-18550500D02*
X10216310Y-18540976D01*
X10216310Y-18540976D02*
X10225834Y-18521929D01*
X10225834Y-18521929D02*
X10225834Y-18483833D01*
X10225834Y-18483833D02*
X10216310Y-18464786D01*
X10216310Y-18464786D02*
X10206786Y-18455262D01*
X10206786Y-18455262D02*
X10187738Y-18445738D01*
X10302024Y-18379071D02*
X10311548Y-18369548D01*
X10311548Y-18369548D02*
X10330595Y-18360024D01*
X10330595Y-18360024D02*
X10378215Y-18360024D01*
X10378215Y-18360024D02*
X10397262Y-18369548D01*
X10397262Y-18369548D02*
X10406786Y-18379071D01*
X10406786Y-18379071D02*
X10416310Y-18398119D01*
X10416310Y-18398119D02*
X10416310Y-18417167D01*
X10416310Y-18417167D02*
X10406786Y-18445738D01*
X10406786Y-18445738D02*
X10292500Y-18560024D01*
X10292500Y-18560024D02*
X10416310Y-18560024D01*
X10482976Y-18360024D02*
X10616310Y-18360024D01*
X10616310Y-18360024D02*
X10530595Y-18560024D01*
X10682976Y-18360024D02*
X10682976Y-18398119D01*
X10759167Y-18360024D02*
X10759167Y-18398119D01*
X11054405Y-18636214D02*
X11044881Y-18626690D01*
X11044881Y-18626690D02*
X11025834Y-18598119D01*
X11025834Y-18598119D02*
X11016310Y-18579071D01*
X11016310Y-18579071D02*
X11006786Y-18550500D01*
X11006786Y-18550500D02*
X10997262Y-18502881D01*
X10997262Y-18502881D02*
X10997262Y-18464786D01*
X10997262Y-18464786D02*
X11006786Y-18417167D01*
X11006786Y-18417167D02*
X11016310Y-18388595D01*
X11016310Y-18388595D02*
X11025834Y-18369548D01*
X11025834Y-18369548D02*
X11044881Y-18340976D01*
X11044881Y-18340976D02*
X11054405Y-18331452D01*
X11111548Y-18360024D02*
X11235357Y-18360024D01*
X11235357Y-18360024D02*
X11168691Y-18436214D01*
X11168691Y-18436214D02*
X11197262Y-18436214D01*
X11197262Y-18436214D02*
X11216310Y-18445738D01*
X11216310Y-18445738D02*
X11225834Y-18455262D01*
X11225834Y-18455262D02*
X11235357Y-18474310D01*
X11235357Y-18474310D02*
X11235357Y-18521929D01*
X11235357Y-18521929D02*
X11225834Y-18540976D01*
X11225834Y-18540976D02*
X11216310Y-18550500D01*
X11216310Y-18550500D02*
X11197262Y-18560024D01*
X11197262Y-18560024D02*
X11140119Y-18560024D01*
X11140119Y-18560024D02*
X11121072Y-18550500D01*
X11121072Y-18550500D02*
X11111548Y-18540976D01*
X11473453Y-18560024D02*
X11473453Y-18360024D01*
X11559167Y-18560024D02*
X11559167Y-18455262D01*
X11559167Y-18455262D02*
X11549643Y-18436214D01*
X11549643Y-18436214D02*
X11530596Y-18426690D01*
X11530596Y-18426690D02*
X11502024Y-18426690D01*
X11502024Y-18426690D02*
X11482976Y-18436214D01*
X11482976Y-18436214D02*
X11473453Y-18445738D01*
X11682976Y-18560024D02*
X11663929Y-18550500D01*
X11663929Y-18550500D02*
X11654405Y-18540976D01*
X11654405Y-18540976D02*
X11644881Y-18521929D01*
X11644881Y-18521929D02*
X11644881Y-18464786D01*
X11644881Y-18464786D02*
X11654405Y-18445738D01*
X11654405Y-18445738D02*
X11663929Y-18436214D01*
X11663929Y-18436214D02*
X11682976Y-18426690D01*
X11682976Y-18426690D02*
X11711548Y-18426690D01*
X11711548Y-18426690D02*
X11730596Y-18436214D01*
X11730596Y-18436214D02*
X11740119Y-18445738D01*
X11740119Y-18445738D02*
X11749643Y-18464786D01*
X11749643Y-18464786D02*
X11749643Y-18521929D01*
X11749643Y-18521929D02*
X11740119Y-18540976D01*
X11740119Y-18540976D02*
X11730596Y-18550500D01*
X11730596Y-18550500D02*
X11711548Y-18560024D01*
X11711548Y-18560024D02*
X11682976Y-18560024D01*
X11863929Y-18560024D02*
X11844881Y-18550500D01*
X11844881Y-18550500D02*
X11835357Y-18531452D01*
X11835357Y-18531452D02*
X11835357Y-18360024D01*
X12016310Y-18550500D02*
X11997262Y-18560024D01*
X11997262Y-18560024D02*
X11959167Y-18560024D01*
X11959167Y-18560024D02*
X11940119Y-18550500D01*
X11940119Y-18550500D02*
X11930596Y-18531452D01*
X11930596Y-18531452D02*
X11930596Y-18455262D01*
X11930596Y-18455262D02*
X11940119Y-18436214D01*
X11940119Y-18436214D02*
X11959167Y-18426690D01*
X11959167Y-18426690D02*
X11997262Y-18426690D01*
X11997262Y-18426690D02*
X12016310Y-18436214D01*
X12016310Y-18436214D02*
X12025834Y-18455262D01*
X12025834Y-18455262D02*
X12025834Y-18474310D01*
X12025834Y-18474310D02*
X11930596Y-18493357D01*
X12102024Y-18550500D02*
X12121072Y-18560024D01*
X12121072Y-18560024D02*
X12159167Y-18560024D01*
X12159167Y-18560024D02*
X12178215Y-18550500D01*
X12178215Y-18550500D02*
X12187738Y-18531452D01*
X12187738Y-18531452D02*
X12187738Y-18521929D01*
X12187738Y-18521929D02*
X12178215Y-18502881D01*
X12178215Y-18502881D02*
X12159167Y-18493357D01*
X12159167Y-18493357D02*
X12130596Y-18493357D01*
X12130596Y-18493357D02*
X12111548Y-18483833D01*
X12111548Y-18483833D02*
X12102024Y-18464786D01*
X12102024Y-18464786D02*
X12102024Y-18455262D01*
X12102024Y-18455262D02*
X12111548Y-18436214D01*
X12111548Y-18436214D02*
X12130596Y-18426690D01*
X12130596Y-18426690D02*
X12159167Y-18426690D01*
X12159167Y-18426690D02*
X12178215Y-18436214D01*
X12254405Y-18636214D02*
X12263929Y-18626690D01*
X12263929Y-18626690D02*
X12282977Y-18598119D01*
X12282977Y-18598119D02*
X12292500Y-18579071D01*
X12292500Y-18579071D02*
X12302024Y-18550500D01*
X12302024Y-18550500D02*
X12311548Y-18502881D01*
X12311548Y-18502881D02*
X12311548Y-18464786D01*
X12311548Y-18464786D02*
X12302024Y-18417167D01*
X12302024Y-18417167D02*
X12292500Y-18388595D01*
X12292500Y-18388595D02*
X12282977Y-18369548D01*
X12282977Y-18369548D02*
X12263929Y-18340976D01*
X12263929Y-18340976D02*
X12254405Y-18331452D01*
X7292500Y-18687500D02*
X7492500Y-18887500D01*
X7492500Y-18687500D02*
X7292500Y-18887500D01*
X7392500Y-18687500D02*
X7392500Y-18887500D01*
X7292500Y-18787500D02*
X7492500Y-18787500D01*
X7730595Y-18699071D02*
X7740119Y-18689548D01*
X7740119Y-18689548D02*
X7759167Y-18680024D01*
X7759167Y-18680024D02*
X7806786Y-18680024D01*
X7806786Y-18680024D02*
X7825833Y-18689548D01*
X7825833Y-18689548D02*
X7835357Y-18699071D01*
X7835357Y-18699071D02*
X7844881Y-18718119D01*
X7844881Y-18718119D02*
X7844881Y-18737167D01*
X7844881Y-18737167D02*
X7835357Y-18765738D01*
X7835357Y-18765738D02*
X7721071Y-18880024D01*
X7721071Y-18880024D02*
X7844881Y-18880024D01*
X7930595Y-18860976D02*
X7940119Y-18870500D01*
X7940119Y-18870500D02*
X7930595Y-18880024D01*
X7930595Y-18880024D02*
X7921071Y-18870500D01*
X7921071Y-18870500D02*
X7930595Y-18860976D01*
X7930595Y-18860976D02*
X7930595Y-18880024D01*
X8006786Y-18680024D02*
X8140119Y-18680024D01*
X8140119Y-18680024D02*
X8054405Y-18880024D01*
X8254405Y-18680024D02*
X8273452Y-18680024D01*
X8273452Y-18680024D02*
X8292500Y-18689548D01*
X8292500Y-18689548D02*
X8302024Y-18699071D01*
X8302024Y-18699071D02*
X8311548Y-18718119D01*
X8311548Y-18718119D02*
X8321071Y-18756214D01*
X8321071Y-18756214D02*
X8321071Y-18803833D01*
X8321071Y-18803833D02*
X8311548Y-18841929D01*
X8311548Y-18841929D02*
X8302024Y-18860976D01*
X8302024Y-18860976D02*
X8292500Y-18870500D01*
X8292500Y-18870500D02*
X8273452Y-18880024D01*
X8273452Y-18880024D02*
X8254405Y-18880024D01*
X8254405Y-18880024D02*
X8235357Y-18870500D01*
X8235357Y-18870500D02*
X8225833Y-18860976D01*
X8225833Y-18860976D02*
X8216309Y-18841929D01*
X8216309Y-18841929D02*
X8206786Y-18803833D01*
X8206786Y-18803833D02*
X8206786Y-18756214D01*
X8206786Y-18756214D02*
X8216309Y-18718119D01*
X8216309Y-18718119D02*
X8225833Y-18699071D01*
X8225833Y-18699071D02*
X8235357Y-18689548D01*
X8235357Y-18689548D02*
X8254405Y-18680024D01*
X8444881Y-18680024D02*
X8463929Y-18680024D01*
X8463929Y-18680024D02*
X8482976Y-18689548D01*
X8482976Y-18689548D02*
X8492500Y-18699071D01*
X8492500Y-18699071D02*
X8502024Y-18718119D01*
X8502024Y-18718119D02*
X8511548Y-18756214D01*
X8511548Y-18756214D02*
X8511548Y-18803833D01*
X8511548Y-18803833D02*
X8502024Y-18841929D01*
X8502024Y-18841929D02*
X8492500Y-18860976D01*
X8492500Y-18860976D02*
X8482976Y-18870500D01*
X8482976Y-18870500D02*
X8463929Y-18880024D01*
X8463929Y-18880024D02*
X8444881Y-18880024D01*
X8444881Y-18880024D02*
X8425833Y-18870500D01*
X8425833Y-18870500D02*
X8416310Y-18860976D01*
X8416310Y-18860976D02*
X8406786Y-18841929D01*
X8406786Y-18841929D02*
X8397262Y-18803833D01*
X8397262Y-18803833D02*
X8397262Y-18756214D01*
X8397262Y-18756214D02*
X8406786Y-18718119D01*
X8406786Y-18718119D02*
X8416310Y-18699071D01*
X8416310Y-18699071D02*
X8425833Y-18689548D01*
X8425833Y-18689548D02*
X8444881Y-18680024D01*
X8597262Y-18880024D02*
X8597262Y-18746690D01*
X8597262Y-18765738D02*
X8606786Y-18756214D01*
X8606786Y-18756214D02*
X8625833Y-18746690D01*
X8625833Y-18746690D02*
X8654405Y-18746690D01*
X8654405Y-18746690D02*
X8673452Y-18756214D01*
X8673452Y-18756214D02*
X8682976Y-18775262D01*
X8682976Y-18775262D02*
X8682976Y-18880024D01*
X8682976Y-18775262D02*
X8692500Y-18756214D01*
X8692500Y-18756214D02*
X8711548Y-18746690D01*
X8711548Y-18746690D02*
X8740119Y-18746690D01*
X8740119Y-18746690D02*
X8759167Y-18756214D01*
X8759167Y-18756214D02*
X8768691Y-18775262D01*
X8768691Y-18775262D02*
X8768691Y-18880024D01*
X8863929Y-18880024D02*
X8863929Y-18746690D01*
X8863929Y-18765738D02*
X8873452Y-18756214D01*
X8873452Y-18756214D02*
X8892500Y-18746690D01*
X8892500Y-18746690D02*
X8921072Y-18746690D01*
X8921072Y-18746690D02*
X8940119Y-18756214D01*
X8940119Y-18756214D02*
X8949643Y-18775262D01*
X8949643Y-18775262D02*
X8949643Y-18880024D01*
X8949643Y-18775262D02*
X8959167Y-18756214D01*
X8959167Y-18756214D02*
X8978214Y-18746690D01*
X8978214Y-18746690D02*
X9006786Y-18746690D01*
X9006786Y-18746690D02*
X9025833Y-18756214D01*
X9025833Y-18756214D02*
X9035357Y-18775262D01*
X9035357Y-18775262D02*
X9035357Y-18880024D01*
X9425833Y-18670500D02*
X9254405Y-18927643D01*
X9682976Y-18680024D02*
X9702024Y-18680024D01*
X9702024Y-18680024D02*
X9721072Y-18689548D01*
X9721072Y-18689548D02*
X9730595Y-18699071D01*
X9730595Y-18699071D02*
X9740119Y-18718119D01*
X9740119Y-18718119D02*
X9749643Y-18756214D01*
X9749643Y-18756214D02*
X9749643Y-18803833D01*
X9749643Y-18803833D02*
X9740119Y-18841929D01*
X9740119Y-18841929D02*
X9730595Y-18860976D01*
X9730595Y-18860976D02*
X9721072Y-18870500D01*
X9721072Y-18870500D02*
X9702024Y-18880024D01*
X9702024Y-18880024D02*
X9682976Y-18880024D01*
X9682976Y-18880024D02*
X9663929Y-18870500D01*
X9663929Y-18870500D02*
X9654405Y-18860976D01*
X9654405Y-18860976D02*
X9644881Y-18841929D01*
X9644881Y-18841929D02*
X9635357Y-18803833D01*
X9635357Y-18803833D02*
X9635357Y-18756214D01*
X9635357Y-18756214D02*
X9644881Y-18718119D01*
X9644881Y-18718119D02*
X9654405Y-18699071D01*
X9654405Y-18699071D02*
X9663929Y-18689548D01*
X9663929Y-18689548D02*
X9682976Y-18680024D01*
X9835357Y-18860976D02*
X9844881Y-18870500D01*
X9844881Y-18870500D02*
X9835357Y-18880024D01*
X9835357Y-18880024D02*
X9825834Y-18870500D01*
X9825834Y-18870500D02*
X9835357Y-18860976D01*
X9835357Y-18860976D02*
X9835357Y-18880024D01*
X10035357Y-18880024D02*
X9921072Y-18880024D01*
X9978214Y-18880024D02*
X9978214Y-18680024D01*
X9978214Y-18680024D02*
X9959167Y-18708595D01*
X9959167Y-18708595D02*
X9940119Y-18727643D01*
X9940119Y-18727643D02*
X9921072Y-18737167D01*
X10159167Y-18680024D02*
X10178215Y-18680024D01*
X10178215Y-18680024D02*
X10197262Y-18689548D01*
X10197262Y-18689548D02*
X10206786Y-18699071D01*
X10206786Y-18699071D02*
X10216310Y-18718119D01*
X10216310Y-18718119D02*
X10225834Y-18756214D01*
X10225834Y-18756214D02*
X10225834Y-18803833D01*
X10225834Y-18803833D02*
X10216310Y-18841929D01*
X10216310Y-18841929D02*
X10206786Y-18860976D01*
X10206786Y-18860976D02*
X10197262Y-18870500D01*
X10197262Y-18870500D02*
X10178215Y-18880024D01*
X10178215Y-18880024D02*
X10159167Y-18880024D01*
X10159167Y-18880024D02*
X10140119Y-18870500D01*
X10140119Y-18870500D02*
X10130595Y-18860976D01*
X10130595Y-18860976D02*
X10121072Y-18841929D01*
X10121072Y-18841929D02*
X10111548Y-18803833D01*
X10111548Y-18803833D02*
X10111548Y-18756214D01*
X10111548Y-18756214D02*
X10121072Y-18718119D01*
X10121072Y-18718119D02*
X10130595Y-18699071D01*
X10130595Y-18699071D02*
X10140119Y-18689548D01*
X10140119Y-18689548D02*
X10159167Y-18680024D01*
X10397262Y-18680024D02*
X10359167Y-18680024D01*
X10359167Y-18680024D02*
X10340119Y-18689548D01*
X10340119Y-18689548D02*
X10330595Y-18699071D01*
X10330595Y-18699071D02*
X10311548Y-18727643D01*
X10311548Y-18727643D02*
X10302024Y-18765738D01*
X10302024Y-18765738D02*
X10302024Y-18841929D01*
X10302024Y-18841929D02*
X10311548Y-18860976D01*
X10311548Y-18860976D02*
X10321072Y-18870500D01*
X10321072Y-18870500D02*
X10340119Y-18880024D01*
X10340119Y-18880024D02*
X10378215Y-18880024D01*
X10378215Y-18880024D02*
X10397262Y-18870500D01*
X10397262Y-18870500D02*
X10406786Y-18860976D01*
X10406786Y-18860976D02*
X10416310Y-18841929D01*
X10416310Y-18841929D02*
X10416310Y-18794310D01*
X10416310Y-18794310D02*
X10406786Y-18775262D01*
X10406786Y-18775262D02*
X10397262Y-18765738D01*
X10397262Y-18765738D02*
X10378215Y-18756214D01*
X10378215Y-18756214D02*
X10340119Y-18756214D01*
X10340119Y-18756214D02*
X10321072Y-18765738D01*
X10321072Y-18765738D02*
X10311548Y-18775262D01*
X10311548Y-18775262D02*
X10302024Y-18794310D01*
X10482976Y-18680024D02*
X10606786Y-18680024D01*
X10606786Y-18680024D02*
X10540119Y-18756214D01*
X10540119Y-18756214D02*
X10568691Y-18756214D01*
X10568691Y-18756214D02*
X10587738Y-18765738D01*
X10587738Y-18765738D02*
X10597262Y-18775262D01*
X10597262Y-18775262D02*
X10606786Y-18794310D01*
X10606786Y-18794310D02*
X10606786Y-18841929D01*
X10606786Y-18841929D02*
X10597262Y-18860976D01*
X10597262Y-18860976D02*
X10587738Y-18870500D01*
X10587738Y-18870500D02*
X10568691Y-18880024D01*
X10568691Y-18880024D02*
X10511548Y-18880024D01*
X10511548Y-18880024D02*
X10492500Y-18870500D01*
X10492500Y-18870500D02*
X10482976Y-18860976D01*
X10682976Y-18680024D02*
X10682976Y-18718119D01*
X10759167Y-18680024D02*
X10759167Y-18718119D01*
X11054405Y-18956214D02*
X11044881Y-18946690D01*
X11044881Y-18946690D02*
X11025834Y-18918119D01*
X11025834Y-18918119D02*
X11016310Y-18899071D01*
X11016310Y-18899071D02*
X11006786Y-18870500D01*
X11006786Y-18870500D02*
X10997262Y-18822881D01*
X10997262Y-18822881D02*
X10997262Y-18784786D01*
X10997262Y-18784786D02*
X11006786Y-18737167D01*
X11006786Y-18737167D02*
X11016310Y-18708595D01*
X11016310Y-18708595D02*
X11025834Y-18689548D01*
X11025834Y-18689548D02*
X11044881Y-18660976D01*
X11044881Y-18660976D02*
X11054405Y-18651452D01*
X11111548Y-18680024D02*
X11235357Y-18680024D01*
X11235357Y-18680024D02*
X11168691Y-18756214D01*
X11168691Y-18756214D02*
X11197262Y-18756214D01*
X11197262Y-18756214D02*
X11216310Y-18765738D01*
X11216310Y-18765738D02*
X11225834Y-18775262D01*
X11225834Y-18775262D02*
X11235357Y-18794310D01*
X11235357Y-18794310D02*
X11235357Y-18841929D01*
X11235357Y-18841929D02*
X11225834Y-18860976D01*
X11225834Y-18860976D02*
X11216310Y-18870500D01*
X11216310Y-18870500D02*
X11197262Y-18880024D01*
X11197262Y-18880024D02*
X11140119Y-18880024D01*
X11140119Y-18880024D02*
X11121072Y-18870500D01*
X11121072Y-18870500D02*
X11111548Y-18860976D01*
X11311548Y-18699071D02*
X11321072Y-18689548D01*
X11321072Y-18689548D02*
X11340119Y-18680024D01*
X11340119Y-18680024D02*
X11387738Y-18680024D01*
X11387738Y-18680024D02*
X11406786Y-18689548D01*
X11406786Y-18689548D02*
X11416310Y-18699071D01*
X11416310Y-18699071D02*
X11425834Y-18718119D01*
X11425834Y-18718119D02*
X11425834Y-18737167D01*
X11425834Y-18737167D02*
X11416310Y-18765738D01*
X11416310Y-18765738D02*
X11302024Y-18880024D01*
X11302024Y-18880024D02*
X11425834Y-18880024D01*
X11663929Y-18880024D02*
X11663929Y-18680024D01*
X11749643Y-18880024D02*
X11749643Y-18775262D01*
X11749643Y-18775262D02*
X11740119Y-18756214D01*
X11740119Y-18756214D02*
X11721072Y-18746690D01*
X11721072Y-18746690D02*
X11692500Y-18746690D01*
X11692500Y-18746690D02*
X11673453Y-18756214D01*
X11673453Y-18756214D02*
X11663929Y-18765738D01*
X11873453Y-18880024D02*
X11854405Y-18870500D01*
X11854405Y-18870500D02*
X11844881Y-18860976D01*
X11844881Y-18860976D02*
X11835357Y-18841929D01*
X11835357Y-18841929D02*
X11835357Y-18784786D01*
X11835357Y-18784786D02*
X11844881Y-18765738D01*
X11844881Y-18765738D02*
X11854405Y-18756214D01*
X11854405Y-18756214D02*
X11873453Y-18746690D01*
X11873453Y-18746690D02*
X11902024Y-18746690D01*
X11902024Y-18746690D02*
X11921072Y-18756214D01*
X11921072Y-18756214D02*
X11930596Y-18765738D01*
X11930596Y-18765738D02*
X11940119Y-18784786D01*
X11940119Y-18784786D02*
X11940119Y-18841929D01*
X11940119Y-18841929D02*
X11930596Y-18860976D01*
X11930596Y-18860976D02*
X11921072Y-18870500D01*
X11921072Y-18870500D02*
X11902024Y-18880024D01*
X11902024Y-18880024D02*
X11873453Y-18880024D01*
X12054405Y-18880024D02*
X12035357Y-18870500D01*
X12035357Y-18870500D02*
X12025834Y-18851452D01*
X12025834Y-18851452D02*
X12025834Y-18680024D01*
X12206786Y-18870500D02*
X12187738Y-18880024D01*
X12187738Y-18880024D02*
X12149643Y-18880024D01*
X12149643Y-18880024D02*
X12130596Y-18870500D01*
X12130596Y-18870500D02*
X12121072Y-18851452D01*
X12121072Y-18851452D02*
X12121072Y-18775262D01*
X12121072Y-18775262D02*
X12130596Y-18756214D01*
X12130596Y-18756214D02*
X12149643Y-18746690D01*
X12149643Y-18746690D02*
X12187738Y-18746690D01*
X12187738Y-18746690D02*
X12206786Y-18756214D01*
X12206786Y-18756214D02*
X12216310Y-18775262D01*
X12216310Y-18775262D02*
X12216310Y-18794310D01*
X12216310Y-18794310D02*
X12121072Y-18813357D01*
X12292500Y-18870500D02*
X12311548Y-18880024D01*
X12311548Y-18880024D02*
X12349643Y-18880024D01*
X12349643Y-18880024D02*
X12368691Y-18870500D01*
X12368691Y-18870500D02*
X12378215Y-18851452D01*
X12378215Y-18851452D02*
X12378215Y-18841929D01*
X12378215Y-18841929D02*
X12368691Y-18822881D01*
X12368691Y-18822881D02*
X12349643Y-18813357D01*
X12349643Y-18813357D02*
X12321072Y-18813357D01*
X12321072Y-18813357D02*
X12302024Y-18803833D01*
X12302024Y-18803833D02*
X12292500Y-18784786D01*
X12292500Y-18784786D02*
X12292500Y-18775262D01*
X12292500Y-18775262D02*
X12302024Y-18756214D01*
X12302024Y-18756214D02*
X12321072Y-18746690D01*
X12321072Y-18746690D02*
X12349643Y-18746690D01*
X12349643Y-18746690D02*
X12368691Y-18756214D01*
X12444881Y-18956214D02*
X12454405Y-18946690D01*
X12454405Y-18946690D02*
X12473453Y-18918119D01*
X12473453Y-18918119D02*
X12482977Y-18899071D01*
X12482977Y-18899071D02*
X12492500Y-18870500D01*
X12492500Y-18870500D02*
X12502024Y-18822881D01*
X12502024Y-18822881D02*
X12502024Y-18784786D01*
X12502024Y-18784786D02*
X12492500Y-18737167D01*
X12492500Y-18737167D02*
X12482977Y-18708595D01*
X12482977Y-18708595D02*
X12473453Y-18689548D01*
X12473453Y-18689548D02*
X12454405Y-18660976D01*
X12454405Y-18660976D02*
X12444881Y-18651452D01*
X7292500Y-19007500D02*
X7492500Y-19207500D01*
X7492500Y-19007500D02*
X7292500Y-19207500D01*
X7463211Y-19178211D02*
X7463211Y-19036789D01*
X7321789Y-19036789D01*
X7321789Y-19178211D01*
X7463211Y-19178211D01*
X7721071Y-19000024D02*
X7844881Y-19000024D01*
X7844881Y-19000024D02*
X7778214Y-19076214D01*
X7778214Y-19076214D02*
X7806786Y-19076214D01*
X7806786Y-19076214D02*
X7825833Y-19085738D01*
X7825833Y-19085738D02*
X7835357Y-19095262D01*
X7835357Y-19095262D02*
X7844881Y-19114310D01*
X7844881Y-19114310D02*
X7844881Y-19161929D01*
X7844881Y-19161929D02*
X7835357Y-19180976D01*
X7835357Y-19180976D02*
X7825833Y-19190500D01*
X7825833Y-19190500D02*
X7806786Y-19200024D01*
X7806786Y-19200024D02*
X7749643Y-19200024D01*
X7749643Y-19200024D02*
X7730595Y-19190500D01*
X7730595Y-19190500D02*
X7721071Y-19180976D01*
X7930595Y-19180976D02*
X7940119Y-19190500D01*
X7940119Y-19190500D02*
X7930595Y-19200024D01*
X7930595Y-19200024D02*
X7921071Y-19190500D01*
X7921071Y-19190500D02*
X7930595Y-19180976D01*
X7930595Y-19180976D02*
X7930595Y-19200024D01*
X8063928Y-19000024D02*
X8082976Y-19000024D01*
X8082976Y-19000024D02*
X8102024Y-19009548D01*
X8102024Y-19009548D02*
X8111548Y-19019071D01*
X8111548Y-19019071D02*
X8121071Y-19038119D01*
X8121071Y-19038119D02*
X8130595Y-19076214D01*
X8130595Y-19076214D02*
X8130595Y-19123833D01*
X8130595Y-19123833D02*
X8121071Y-19161929D01*
X8121071Y-19161929D02*
X8111548Y-19180976D01*
X8111548Y-19180976D02*
X8102024Y-19190500D01*
X8102024Y-19190500D02*
X8082976Y-19200024D01*
X8082976Y-19200024D02*
X8063928Y-19200024D01*
X8063928Y-19200024D02*
X8044881Y-19190500D01*
X8044881Y-19190500D02*
X8035357Y-19180976D01*
X8035357Y-19180976D02*
X8025833Y-19161929D01*
X8025833Y-19161929D02*
X8016309Y-19123833D01*
X8016309Y-19123833D02*
X8016309Y-19076214D01*
X8016309Y-19076214D02*
X8025833Y-19038119D01*
X8025833Y-19038119D02*
X8035357Y-19019071D01*
X8035357Y-19019071D02*
X8044881Y-19009548D01*
X8044881Y-19009548D02*
X8063928Y-19000024D01*
X8311548Y-19000024D02*
X8216309Y-19000024D01*
X8216309Y-19000024D02*
X8206786Y-19095262D01*
X8206786Y-19095262D02*
X8216309Y-19085738D01*
X8216309Y-19085738D02*
X8235357Y-19076214D01*
X8235357Y-19076214D02*
X8282976Y-19076214D01*
X8282976Y-19076214D02*
X8302024Y-19085738D01*
X8302024Y-19085738D02*
X8311548Y-19095262D01*
X8311548Y-19095262D02*
X8321071Y-19114310D01*
X8321071Y-19114310D02*
X8321071Y-19161929D01*
X8321071Y-19161929D02*
X8311548Y-19180976D01*
X8311548Y-19180976D02*
X8302024Y-19190500D01*
X8302024Y-19190500D02*
X8282976Y-19200024D01*
X8282976Y-19200024D02*
X8235357Y-19200024D01*
X8235357Y-19200024D02*
X8216309Y-19190500D01*
X8216309Y-19190500D02*
X8206786Y-19180976D01*
X8444881Y-19000024D02*
X8463929Y-19000024D01*
X8463929Y-19000024D02*
X8482976Y-19009548D01*
X8482976Y-19009548D02*
X8492500Y-19019071D01*
X8492500Y-19019071D02*
X8502024Y-19038119D01*
X8502024Y-19038119D02*
X8511548Y-19076214D01*
X8511548Y-19076214D02*
X8511548Y-19123833D01*
X8511548Y-19123833D02*
X8502024Y-19161929D01*
X8502024Y-19161929D02*
X8492500Y-19180976D01*
X8492500Y-19180976D02*
X8482976Y-19190500D01*
X8482976Y-19190500D02*
X8463929Y-19200024D01*
X8463929Y-19200024D02*
X8444881Y-19200024D01*
X8444881Y-19200024D02*
X8425833Y-19190500D01*
X8425833Y-19190500D02*
X8416310Y-19180976D01*
X8416310Y-19180976D02*
X8406786Y-19161929D01*
X8406786Y-19161929D02*
X8397262Y-19123833D01*
X8397262Y-19123833D02*
X8397262Y-19076214D01*
X8397262Y-19076214D02*
X8406786Y-19038119D01*
X8406786Y-19038119D02*
X8416310Y-19019071D01*
X8416310Y-19019071D02*
X8425833Y-19009548D01*
X8425833Y-19009548D02*
X8444881Y-19000024D01*
X8597262Y-19200024D02*
X8597262Y-19066690D01*
X8597262Y-19085738D02*
X8606786Y-19076214D01*
X8606786Y-19076214D02*
X8625833Y-19066690D01*
X8625833Y-19066690D02*
X8654405Y-19066690D01*
X8654405Y-19066690D02*
X8673452Y-19076214D01*
X8673452Y-19076214D02*
X8682976Y-19095262D01*
X8682976Y-19095262D02*
X8682976Y-19200024D01*
X8682976Y-19095262D02*
X8692500Y-19076214D01*
X8692500Y-19076214D02*
X8711548Y-19066690D01*
X8711548Y-19066690D02*
X8740119Y-19066690D01*
X8740119Y-19066690D02*
X8759167Y-19076214D01*
X8759167Y-19076214D02*
X8768691Y-19095262D01*
X8768691Y-19095262D02*
X8768691Y-19200024D01*
X8863929Y-19200024D02*
X8863929Y-19066690D01*
X8863929Y-19085738D02*
X8873452Y-19076214D01*
X8873452Y-19076214D02*
X8892500Y-19066690D01*
X8892500Y-19066690D02*
X8921072Y-19066690D01*
X8921072Y-19066690D02*
X8940119Y-19076214D01*
X8940119Y-19076214D02*
X8949643Y-19095262D01*
X8949643Y-19095262D02*
X8949643Y-19200024D01*
X8949643Y-19095262D02*
X8959167Y-19076214D01*
X8959167Y-19076214D02*
X8978214Y-19066690D01*
X8978214Y-19066690D02*
X9006786Y-19066690D01*
X9006786Y-19066690D02*
X9025833Y-19076214D01*
X9025833Y-19076214D02*
X9035357Y-19095262D01*
X9035357Y-19095262D02*
X9035357Y-19200024D01*
X9425833Y-18990500D02*
X9254405Y-19247643D01*
X9682976Y-19000024D02*
X9702024Y-19000024D01*
X9702024Y-19000024D02*
X9721072Y-19009548D01*
X9721072Y-19009548D02*
X9730595Y-19019071D01*
X9730595Y-19019071D02*
X9740119Y-19038119D01*
X9740119Y-19038119D02*
X9749643Y-19076214D01*
X9749643Y-19076214D02*
X9749643Y-19123833D01*
X9749643Y-19123833D02*
X9740119Y-19161929D01*
X9740119Y-19161929D02*
X9730595Y-19180976D01*
X9730595Y-19180976D02*
X9721072Y-19190500D01*
X9721072Y-19190500D02*
X9702024Y-19200024D01*
X9702024Y-19200024D02*
X9682976Y-19200024D01*
X9682976Y-19200024D02*
X9663929Y-19190500D01*
X9663929Y-19190500D02*
X9654405Y-19180976D01*
X9654405Y-19180976D02*
X9644881Y-19161929D01*
X9644881Y-19161929D02*
X9635357Y-19123833D01*
X9635357Y-19123833D02*
X9635357Y-19076214D01*
X9635357Y-19076214D02*
X9644881Y-19038119D01*
X9644881Y-19038119D02*
X9654405Y-19019071D01*
X9654405Y-19019071D02*
X9663929Y-19009548D01*
X9663929Y-19009548D02*
X9682976Y-19000024D01*
X9835357Y-19180976D02*
X9844881Y-19190500D01*
X9844881Y-19190500D02*
X9835357Y-19200024D01*
X9835357Y-19200024D02*
X9825834Y-19190500D01*
X9825834Y-19190500D02*
X9835357Y-19180976D01*
X9835357Y-19180976D02*
X9835357Y-19200024D01*
X10035357Y-19200024D02*
X9921072Y-19200024D01*
X9978214Y-19200024D02*
X9978214Y-19000024D01*
X9978214Y-19000024D02*
X9959167Y-19028595D01*
X9959167Y-19028595D02*
X9940119Y-19047643D01*
X9940119Y-19047643D02*
X9921072Y-19057167D01*
X10111548Y-19019071D02*
X10121072Y-19009548D01*
X10121072Y-19009548D02*
X10140119Y-19000024D01*
X10140119Y-19000024D02*
X10187738Y-19000024D01*
X10187738Y-19000024D02*
X10206786Y-19009548D01*
X10206786Y-19009548D02*
X10216310Y-19019071D01*
X10216310Y-19019071D02*
X10225834Y-19038119D01*
X10225834Y-19038119D02*
X10225834Y-19057167D01*
X10225834Y-19057167D02*
X10216310Y-19085738D01*
X10216310Y-19085738D02*
X10102024Y-19200024D01*
X10102024Y-19200024D02*
X10225834Y-19200024D01*
X10349643Y-19000024D02*
X10368691Y-19000024D01*
X10368691Y-19000024D02*
X10387738Y-19009548D01*
X10387738Y-19009548D02*
X10397262Y-19019071D01*
X10397262Y-19019071D02*
X10406786Y-19038119D01*
X10406786Y-19038119D02*
X10416310Y-19076214D01*
X10416310Y-19076214D02*
X10416310Y-19123833D01*
X10416310Y-19123833D02*
X10406786Y-19161929D01*
X10406786Y-19161929D02*
X10397262Y-19180976D01*
X10397262Y-19180976D02*
X10387738Y-19190500D01*
X10387738Y-19190500D02*
X10368691Y-19200024D01*
X10368691Y-19200024D02*
X10349643Y-19200024D01*
X10349643Y-19200024D02*
X10330595Y-19190500D01*
X10330595Y-19190500D02*
X10321072Y-19180976D01*
X10321072Y-19180976D02*
X10311548Y-19161929D01*
X10311548Y-19161929D02*
X10302024Y-19123833D01*
X10302024Y-19123833D02*
X10302024Y-19076214D01*
X10302024Y-19076214D02*
X10311548Y-19038119D01*
X10311548Y-19038119D02*
X10321072Y-19019071D01*
X10321072Y-19019071D02*
X10330595Y-19009548D01*
X10330595Y-19009548D02*
X10349643Y-19000024D01*
X10606786Y-19200024D02*
X10492500Y-19200024D01*
X10549643Y-19200024D02*
X10549643Y-19000024D01*
X10549643Y-19000024D02*
X10530595Y-19028595D01*
X10530595Y-19028595D02*
X10511548Y-19047643D01*
X10511548Y-19047643D02*
X10492500Y-19057167D01*
X10682976Y-19000024D02*
X10682976Y-19038119D01*
X10759167Y-19000024D02*
X10759167Y-19038119D01*
X11054405Y-19276214D02*
X11044881Y-19266690D01*
X11044881Y-19266690D02*
X11025834Y-19238119D01*
X11025834Y-19238119D02*
X11016310Y-19219071D01*
X11016310Y-19219071D02*
X11006786Y-19190500D01*
X11006786Y-19190500D02*
X10997262Y-19142881D01*
X10997262Y-19142881D02*
X10997262Y-19104786D01*
X10997262Y-19104786D02*
X11006786Y-19057167D01*
X11006786Y-19057167D02*
X11016310Y-19028595D01*
X11016310Y-19028595D02*
X11025834Y-19009548D01*
X11025834Y-19009548D02*
X11044881Y-18980976D01*
X11044881Y-18980976D02*
X11054405Y-18971452D01*
X11121072Y-19019071D02*
X11130596Y-19009548D01*
X11130596Y-19009548D02*
X11149643Y-19000024D01*
X11149643Y-19000024D02*
X11197262Y-19000024D01*
X11197262Y-19000024D02*
X11216310Y-19009548D01*
X11216310Y-19009548D02*
X11225834Y-19019071D01*
X11225834Y-19019071D02*
X11235357Y-19038119D01*
X11235357Y-19038119D02*
X11235357Y-19057167D01*
X11235357Y-19057167D02*
X11225834Y-19085738D01*
X11225834Y-19085738D02*
X11111548Y-19200024D01*
X11111548Y-19200024D02*
X11235357Y-19200024D01*
X11473453Y-19200024D02*
X11473453Y-19000024D01*
X11559167Y-19200024D02*
X11559167Y-19095262D01*
X11559167Y-19095262D02*
X11549643Y-19076214D01*
X11549643Y-19076214D02*
X11530596Y-19066690D01*
X11530596Y-19066690D02*
X11502024Y-19066690D01*
X11502024Y-19066690D02*
X11482976Y-19076214D01*
X11482976Y-19076214D02*
X11473453Y-19085738D01*
X11682976Y-19200024D02*
X11663929Y-19190500D01*
X11663929Y-19190500D02*
X11654405Y-19180976D01*
X11654405Y-19180976D02*
X11644881Y-19161929D01*
X11644881Y-19161929D02*
X11644881Y-19104786D01*
X11644881Y-19104786D02*
X11654405Y-19085738D01*
X11654405Y-19085738D02*
X11663929Y-19076214D01*
X11663929Y-19076214D02*
X11682976Y-19066690D01*
X11682976Y-19066690D02*
X11711548Y-19066690D01*
X11711548Y-19066690D02*
X11730596Y-19076214D01*
X11730596Y-19076214D02*
X11740119Y-19085738D01*
X11740119Y-19085738D02*
X11749643Y-19104786D01*
X11749643Y-19104786D02*
X11749643Y-19161929D01*
X11749643Y-19161929D02*
X11740119Y-19180976D01*
X11740119Y-19180976D02*
X11730596Y-19190500D01*
X11730596Y-19190500D02*
X11711548Y-19200024D01*
X11711548Y-19200024D02*
X11682976Y-19200024D01*
X11863929Y-19200024D02*
X11844881Y-19190500D01*
X11844881Y-19190500D02*
X11835357Y-19171452D01*
X11835357Y-19171452D02*
X11835357Y-19000024D01*
X12016310Y-19190500D02*
X11997262Y-19200024D01*
X11997262Y-19200024D02*
X11959167Y-19200024D01*
X11959167Y-19200024D02*
X11940119Y-19190500D01*
X11940119Y-19190500D02*
X11930596Y-19171452D01*
X11930596Y-19171452D02*
X11930596Y-19095262D01*
X11930596Y-19095262D02*
X11940119Y-19076214D01*
X11940119Y-19076214D02*
X11959167Y-19066690D01*
X11959167Y-19066690D02*
X11997262Y-19066690D01*
X11997262Y-19066690D02*
X12016310Y-19076214D01*
X12016310Y-19076214D02*
X12025834Y-19095262D01*
X12025834Y-19095262D02*
X12025834Y-19114310D01*
X12025834Y-19114310D02*
X11930596Y-19133357D01*
X12102024Y-19190500D02*
X12121072Y-19200024D01*
X12121072Y-19200024D02*
X12159167Y-19200024D01*
X12159167Y-19200024D02*
X12178215Y-19190500D01*
X12178215Y-19190500D02*
X12187738Y-19171452D01*
X12187738Y-19171452D02*
X12187738Y-19161929D01*
X12187738Y-19161929D02*
X12178215Y-19142881D01*
X12178215Y-19142881D02*
X12159167Y-19133357D01*
X12159167Y-19133357D02*
X12130596Y-19133357D01*
X12130596Y-19133357D02*
X12111548Y-19123833D01*
X12111548Y-19123833D02*
X12102024Y-19104786D01*
X12102024Y-19104786D02*
X12102024Y-19095262D01*
X12102024Y-19095262D02*
X12111548Y-19076214D01*
X12111548Y-19076214D02*
X12130596Y-19066690D01*
X12130596Y-19066690D02*
X12159167Y-19066690D01*
X12159167Y-19066690D02*
X12178215Y-19076214D01*
X12254405Y-19276214D02*
X12263929Y-19266690D01*
X12263929Y-19266690D02*
X12282977Y-19238119D01*
X12282977Y-19238119D02*
X12292500Y-19219071D01*
X12292500Y-19219071D02*
X12302024Y-19190500D01*
X12302024Y-19190500D02*
X12311548Y-19142881D01*
X12311548Y-19142881D02*
X12311548Y-19104786D01*
X12311548Y-19104786D02*
X12302024Y-19057167D01*
X12302024Y-19057167D02*
X12292500Y-19028595D01*
X12292500Y-19028595D02*
X12282977Y-19009548D01*
X12282977Y-19009548D02*
X12263929Y-18980976D01*
X12263929Y-18980976D02*
X12254405Y-18971452D01*
X7292500Y-19327500D02*
X7492500Y-19527500D01*
X7492500Y-19327500D02*
X7292500Y-19527500D01*
X7392500Y-19527500D02*
X7492500Y-19427500D01*
X7392500Y-19327500D01*
X7292500Y-19427500D01*
X7392500Y-19527500D01*
X7721071Y-19320024D02*
X7844881Y-19320024D01*
X7844881Y-19320024D02*
X7778214Y-19396214D01*
X7778214Y-19396214D02*
X7806786Y-19396214D01*
X7806786Y-19396214D02*
X7825833Y-19405738D01*
X7825833Y-19405738D02*
X7835357Y-19415262D01*
X7835357Y-19415262D02*
X7844881Y-19434310D01*
X7844881Y-19434310D02*
X7844881Y-19481929D01*
X7844881Y-19481929D02*
X7835357Y-19500976D01*
X7835357Y-19500976D02*
X7825833Y-19510500D01*
X7825833Y-19510500D02*
X7806786Y-19520024D01*
X7806786Y-19520024D02*
X7749643Y-19520024D01*
X7749643Y-19520024D02*
X7730595Y-19510500D01*
X7730595Y-19510500D02*
X7721071Y-19500976D01*
X7930595Y-19500976D02*
X7940119Y-19510500D01*
X7940119Y-19510500D02*
X7930595Y-19520024D01*
X7930595Y-19520024D02*
X7921071Y-19510500D01*
X7921071Y-19510500D02*
X7930595Y-19500976D01*
X7930595Y-19500976D02*
X7930595Y-19520024D01*
X8016309Y-19339071D02*
X8025833Y-19329548D01*
X8025833Y-19329548D02*
X8044881Y-19320024D01*
X8044881Y-19320024D02*
X8092500Y-19320024D01*
X8092500Y-19320024D02*
X8111548Y-19329548D01*
X8111548Y-19329548D02*
X8121071Y-19339071D01*
X8121071Y-19339071D02*
X8130595Y-19358119D01*
X8130595Y-19358119D02*
X8130595Y-19377167D01*
X8130595Y-19377167D02*
X8121071Y-19405738D01*
X8121071Y-19405738D02*
X8006786Y-19520024D01*
X8006786Y-19520024D02*
X8130595Y-19520024D01*
X8254405Y-19320024D02*
X8273452Y-19320024D01*
X8273452Y-19320024D02*
X8292500Y-19329548D01*
X8292500Y-19329548D02*
X8302024Y-19339071D01*
X8302024Y-19339071D02*
X8311548Y-19358119D01*
X8311548Y-19358119D02*
X8321071Y-19396214D01*
X8321071Y-19396214D02*
X8321071Y-19443833D01*
X8321071Y-19443833D02*
X8311548Y-19481929D01*
X8311548Y-19481929D02*
X8302024Y-19500976D01*
X8302024Y-19500976D02*
X8292500Y-19510500D01*
X8292500Y-19510500D02*
X8273452Y-19520024D01*
X8273452Y-19520024D02*
X8254405Y-19520024D01*
X8254405Y-19520024D02*
X8235357Y-19510500D01*
X8235357Y-19510500D02*
X8225833Y-19500976D01*
X8225833Y-19500976D02*
X8216309Y-19481929D01*
X8216309Y-19481929D02*
X8206786Y-19443833D01*
X8206786Y-19443833D02*
X8206786Y-19396214D01*
X8206786Y-19396214D02*
X8216309Y-19358119D01*
X8216309Y-19358119D02*
X8225833Y-19339071D01*
X8225833Y-19339071D02*
X8235357Y-19329548D01*
X8235357Y-19329548D02*
X8254405Y-19320024D01*
X8444881Y-19320024D02*
X8463929Y-19320024D01*
X8463929Y-19320024D02*
X8482976Y-19329548D01*
X8482976Y-19329548D02*
X8492500Y-19339071D01*
X8492500Y-19339071D02*
X8502024Y-19358119D01*
X8502024Y-19358119D02*
X8511548Y-19396214D01*
X8511548Y-19396214D02*
X8511548Y-19443833D01*
X8511548Y-19443833D02*
X8502024Y-19481929D01*
X8502024Y-19481929D02*
X8492500Y-19500976D01*
X8492500Y-19500976D02*
X8482976Y-19510500D01*
X8482976Y-19510500D02*
X8463929Y-19520024D01*
X8463929Y-19520024D02*
X8444881Y-19520024D01*
X8444881Y-19520024D02*
X8425833Y-19510500D01*
X8425833Y-19510500D02*
X8416310Y-19500976D01*
X8416310Y-19500976D02*
X8406786Y-19481929D01*
X8406786Y-19481929D02*
X8397262Y-19443833D01*
X8397262Y-19443833D02*
X8397262Y-19396214D01*
X8397262Y-19396214D02*
X8406786Y-19358119D01*
X8406786Y-19358119D02*
X8416310Y-19339071D01*
X8416310Y-19339071D02*
X8425833Y-19329548D01*
X8425833Y-19329548D02*
X8444881Y-19320024D01*
X8597262Y-19520024D02*
X8597262Y-19386690D01*
X8597262Y-19405738D02*
X8606786Y-19396214D01*
X8606786Y-19396214D02*
X8625833Y-19386690D01*
X8625833Y-19386690D02*
X8654405Y-19386690D01*
X8654405Y-19386690D02*
X8673452Y-19396214D01*
X8673452Y-19396214D02*
X8682976Y-19415262D01*
X8682976Y-19415262D02*
X8682976Y-19520024D01*
X8682976Y-19415262D02*
X8692500Y-19396214D01*
X8692500Y-19396214D02*
X8711548Y-19386690D01*
X8711548Y-19386690D02*
X8740119Y-19386690D01*
X8740119Y-19386690D02*
X8759167Y-19396214D01*
X8759167Y-19396214D02*
X8768691Y-19415262D01*
X8768691Y-19415262D02*
X8768691Y-19520024D01*
X8863929Y-19520024D02*
X8863929Y-19386690D01*
X8863929Y-19405738D02*
X8873452Y-19396214D01*
X8873452Y-19396214D02*
X8892500Y-19386690D01*
X8892500Y-19386690D02*
X8921072Y-19386690D01*
X8921072Y-19386690D02*
X8940119Y-19396214D01*
X8940119Y-19396214D02*
X8949643Y-19415262D01*
X8949643Y-19415262D02*
X8949643Y-19520024D01*
X8949643Y-19415262D02*
X8959167Y-19396214D01*
X8959167Y-19396214D02*
X8978214Y-19386690D01*
X8978214Y-19386690D02*
X9006786Y-19386690D01*
X9006786Y-19386690D02*
X9025833Y-19396214D01*
X9025833Y-19396214D02*
X9035357Y-19415262D01*
X9035357Y-19415262D02*
X9035357Y-19520024D01*
X9425833Y-19310500D02*
X9254405Y-19567643D01*
X9682976Y-19320024D02*
X9702024Y-19320024D01*
X9702024Y-19320024D02*
X9721072Y-19329548D01*
X9721072Y-19329548D02*
X9730595Y-19339071D01*
X9730595Y-19339071D02*
X9740119Y-19358119D01*
X9740119Y-19358119D02*
X9749643Y-19396214D01*
X9749643Y-19396214D02*
X9749643Y-19443833D01*
X9749643Y-19443833D02*
X9740119Y-19481929D01*
X9740119Y-19481929D02*
X9730595Y-19500976D01*
X9730595Y-19500976D02*
X9721072Y-19510500D01*
X9721072Y-19510500D02*
X9702024Y-19520024D01*
X9702024Y-19520024D02*
X9682976Y-19520024D01*
X9682976Y-19520024D02*
X9663929Y-19510500D01*
X9663929Y-19510500D02*
X9654405Y-19500976D01*
X9654405Y-19500976D02*
X9644881Y-19481929D01*
X9644881Y-19481929D02*
X9635357Y-19443833D01*
X9635357Y-19443833D02*
X9635357Y-19396214D01*
X9635357Y-19396214D02*
X9644881Y-19358119D01*
X9644881Y-19358119D02*
X9654405Y-19339071D01*
X9654405Y-19339071D02*
X9663929Y-19329548D01*
X9663929Y-19329548D02*
X9682976Y-19320024D01*
X9835357Y-19500976D02*
X9844881Y-19510500D01*
X9844881Y-19510500D02*
X9835357Y-19520024D01*
X9835357Y-19520024D02*
X9825834Y-19510500D01*
X9825834Y-19510500D02*
X9835357Y-19500976D01*
X9835357Y-19500976D02*
X9835357Y-19520024D01*
X10035357Y-19520024D02*
X9921072Y-19520024D01*
X9978214Y-19520024D02*
X9978214Y-19320024D01*
X9978214Y-19320024D02*
X9959167Y-19348595D01*
X9959167Y-19348595D02*
X9940119Y-19367643D01*
X9940119Y-19367643D02*
X9921072Y-19377167D01*
X10111548Y-19339071D02*
X10121072Y-19329548D01*
X10121072Y-19329548D02*
X10140119Y-19320024D01*
X10140119Y-19320024D02*
X10187738Y-19320024D01*
X10187738Y-19320024D02*
X10206786Y-19329548D01*
X10206786Y-19329548D02*
X10216310Y-19339071D01*
X10216310Y-19339071D02*
X10225834Y-19358119D01*
X10225834Y-19358119D02*
X10225834Y-19377167D01*
X10225834Y-19377167D02*
X10216310Y-19405738D01*
X10216310Y-19405738D02*
X10102024Y-19520024D01*
X10102024Y-19520024D02*
X10225834Y-19520024D01*
X10397262Y-19320024D02*
X10359167Y-19320024D01*
X10359167Y-19320024D02*
X10340119Y-19329548D01*
X10340119Y-19329548D02*
X10330595Y-19339071D01*
X10330595Y-19339071D02*
X10311548Y-19367643D01*
X10311548Y-19367643D02*
X10302024Y-19405738D01*
X10302024Y-19405738D02*
X10302024Y-19481929D01*
X10302024Y-19481929D02*
X10311548Y-19500976D01*
X10311548Y-19500976D02*
X10321072Y-19510500D01*
X10321072Y-19510500D02*
X10340119Y-19520024D01*
X10340119Y-19520024D02*
X10378215Y-19520024D01*
X10378215Y-19520024D02*
X10397262Y-19510500D01*
X10397262Y-19510500D02*
X10406786Y-19500976D01*
X10406786Y-19500976D02*
X10416310Y-19481929D01*
X10416310Y-19481929D02*
X10416310Y-19434310D01*
X10416310Y-19434310D02*
X10406786Y-19415262D01*
X10406786Y-19415262D02*
X10397262Y-19405738D01*
X10397262Y-19405738D02*
X10378215Y-19396214D01*
X10378215Y-19396214D02*
X10340119Y-19396214D01*
X10340119Y-19396214D02*
X10321072Y-19405738D01*
X10321072Y-19405738D02*
X10311548Y-19415262D01*
X10311548Y-19415262D02*
X10302024Y-19434310D01*
X10540119Y-19320024D02*
X10559167Y-19320024D01*
X10559167Y-19320024D02*
X10578215Y-19329548D01*
X10578215Y-19329548D02*
X10587738Y-19339071D01*
X10587738Y-19339071D02*
X10597262Y-19358119D01*
X10597262Y-19358119D02*
X10606786Y-19396214D01*
X10606786Y-19396214D02*
X10606786Y-19443833D01*
X10606786Y-19443833D02*
X10597262Y-19481929D01*
X10597262Y-19481929D02*
X10587738Y-19500976D01*
X10587738Y-19500976D02*
X10578215Y-19510500D01*
X10578215Y-19510500D02*
X10559167Y-19520024D01*
X10559167Y-19520024D02*
X10540119Y-19520024D01*
X10540119Y-19520024D02*
X10521072Y-19510500D01*
X10521072Y-19510500D02*
X10511548Y-19500976D01*
X10511548Y-19500976D02*
X10502024Y-19481929D01*
X10502024Y-19481929D02*
X10492500Y-19443833D01*
X10492500Y-19443833D02*
X10492500Y-19396214D01*
X10492500Y-19396214D02*
X10502024Y-19358119D01*
X10502024Y-19358119D02*
X10511548Y-19339071D01*
X10511548Y-19339071D02*
X10521072Y-19329548D01*
X10521072Y-19329548D02*
X10540119Y-19320024D01*
X10682976Y-19320024D02*
X10682976Y-19358119D01*
X10759167Y-19320024D02*
X10759167Y-19358119D01*
X11054405Y-19596214D02*
X11044881Y-19586690D01*
X11044881Y-19586690D02*
X11025834Y-19558119D01*
X11025834Y-19558119D02*
X11016310Y-19539071D01*
X11016310Y-19539071D02*
X11006786Y-19510500D01*
X11006786Y-19510500D02*
X10997262Y-19462881D01*
X10997262Y-19462881D02*
X10997262Y-19424786D01*
X10997262Y-19424786D02*
X11006786Y-19377167D01*
X11006786Y-19377167D02*
X11016310Y-19348595D01*
X11016310Y-19348595D02*
X11025834Y-19329548D01*
X11025834Y-19329548D02*
X11044881Y-19300976D01*
X11044881Y-19300976D02*
X11054405Y-19291452D01*
X11216310Y-19386690D02*
X11216310Y-19520024D01*
X11168691Y-19310500D02*
X11121072Y-19453357D01*
X11121072Y-19453357D02*
X11244881Y-19453357D01*
X11473453Y-19520024D02*
X11473453Y-19320024D01*
X11559167Y-19520024D02*
X11559167Y-19415262D01*
X11559167Y-19415262D02*
X11549643Y-19396214D01*
X11549643Y-19396214D02*
X11530596Y-19386690D01*
X11530596Y-19386690D02*
X11502024Y-19386690D01*
X11502024Y-19386690D02*
X11482976Y-19396214D01*
X11482976Y-19396214D02*
X11473453Y-19405738D01*
X11682976Y-19520024D02*
X11663929Y-19510500D01*
X11663929Y-19510500D02*
X11654405Y-19500976D01*
X11654405Y-19500976D02*
X11644881Y-19481929D01*
X11644881Y-19481929D02*
X11644881Y-19424786D01*
X11644881Y-19424786D02*
X11654405Y-19405738D01*
X11654405Y-19405738D02*
X11663929Y-19396214D01*
X11663929Y-19396214D02*
X11682976Y-19386690D01*
X11682976Y-19386690D02*
X11711548Y-19386690D01*
X11711548Y-19386690D02*
X11730596Y-19396214D01*
X11730596Y-19396214D02*
X11740119Y-19405738D01*
X11740119Y-19405738D02*
X11749643Y-19424786D01*
X11749643Y-19424786D02*
X11749643Y-19481929D01*
X11749643Y-19481929D02*
X11740119Y-19500976D01*
X11740119Y-19500976D02*
X11730596Y-19510500D01*
X11730596Y-19510500D02*
X11711548Y-19520024D01*
X11711548Y-19520024D02*
X11682976Y-19520024D01*
X11863929Y-19520024D02*
X11844881Y-19510500D01*
X11844881Y-19510500D02*
X11835357Y-19491452D01*
X11835357Y-19491452D02*
X11835357Y-19320024D01*
X12016310Y-19510500D02*
X11997262Y-19520024D01*
X11997262Y-19520024D02*
X11959167Y-19520024D01*
X11959167Y-19520024D02*
X11940119Y-19510500D01*
X11940119Y-19510500D02*
X11930596Y-19491452D01*
X11930596Y-19491452D02*
X11930596Y-19415262D01*
X11930596Y-19415262D02*
X11940119Y-19396214D01*
X11940119Y-19396214D02*
X11959167Y-19386690D01*
X11959167Y-19386690D02*
X11997262Y-19386690D01*
X11997262Y-19386690D02*
X12016310Y-19396214D01*
X12016310Y-19396214D02*
X12025834Y-19415262D01*
X12025834Y-19415262D02*
X12025834Y-19434310D01*
X12025834Y-19434310D02*
X11930596Y-19453357D01*
X12102024Y-19510500D02*
X12121072Y-19520024D01*
X12121072Y-19520024D02*
X12159167Y-19520024D01*
X12159167Y-19520024D02*
X12178215Y-19510500D01*
X12178215Y-19510500D02*
X12187738Y-19491452D01*
X12187738Y-19491452D02*
X12187738Y-19481929D01*
X12187738Y-19481929D02*
X12178215Y-19462881D01*
X12178215Y-19462881D02*
X12159167Y-19453357D01*
X12159167Y-19453357D02*
X12130596Y-19453357D01*
X12130596Y-19453357D02*
X12111548Y-19443833D01*
X12111548Y-19443833D02*
X12102024Y-19424786D01*
X12102024Y-19424786D02*
X12102024Y-19415262D01*
X12102024Y-19415262D02*
X12111548Y-19396214D01*
X12111548Y-19396214D02*
X12130596Y-19386690D01*
X12130596Y-19386690D02*
X12159167Y-19386690D01*
X12159167Y-19386690D02*
X12178215Y-19396214D01*
X12254405Y-19596214D02*
X12263929Y-19586690D01*
X12263929Y-19586690D02*
X12282977Y-19558119D01*
X12282977Y-19558119D02*
X12292500Y-19539071D01*
X12292500Y-19539071D02*
X12302024Y-19510500D01*
X12302024Y-19510500D02*
X12311548Y-19462881D01*
X12311548Y-19462881D02*
X12311548Y-19424786D01*
X12311548Y-19424786D02*
X12302024Y-19377167D01*
X12302024Y-19377167D02*
X12292500Y-19348595D01*
X12292500Y-19348595D02*
X12282977Y-19329548D01*
X12282977Y-19329548D02*
X12263929Y-19300976D01*
X12263929Y-19300976D02*
X12254405Y-19291452D01*
X7392500Y-19647500D02*
X7392500Y-19847500D01*
X7292500Y-19747500D02*
X7492500Y-19747500D01*
X7492500Y-19747500D02*
G75*
G03*
X7492500Y-19747500I-100000J0D01*
G01*
X7721071Y-19640024D02*
X7844881Y-19640024D01*
X7844881Y-19640024D02*
X7778214Y-19716214D01*
X7778214Y-19716214D02*
X7806786Y-19716214D01*
X7806786Y-19716214D02*
X7825833Y-19725738D01*
X7825833Y-19725738D02*
X7835357Y-19735262D01*
X7835357Y-19735262D02*
X7844881Y-19754310D01*
X7844881Y-19754310D02*
X7844881Y-19801929D01*
X7844881Y-19801929D02*
X7835357Y-19820976D01*
X7835357Y-19820976D02*
X7825833Y-19830500D01*
X7825833Y-19830500D02*
X7806786Y-19840024D01*
X7806786Y-19840024D02*
X7749643Y-19840024D01*
X7749643Y-19840024D02*
X7730595Y-19830500D01*
X7730595Y-19830500D02*
X7721071Y-19820976D01*
X7930595Y-19820976D02*
X7940119Y-19830500D01*
X7940119Y-19830500D02*
X7930595Y-19840024D01*
X7930595Y-19840024D02*
X7921071Y-19830500D01*
X7921071Y-19830500D02*
X7930595Y-19820976D01*
X7930595Y-19820976D02*
X7930595Y-19840024D01*
X8054405Y-19725738D02*
X8035357Y-19716214D01*
X8035357Y-19716214D02*
X8025833Y-19706690D01*
X8025833Y-19706690D02*
X8016309Y-19687643D01*
X8016309Y-19687643D02*
X8016309Y-19678119D01*
X8016309Y-19678119D02*
X8025833Y-19659071D01*
X8025833Y-19659071D02*
X8035357Y-19649548D01*
X8035357Y-19649548D02*
X8054405Y-19640024D01*
X8054405Y-19640024D02*
X8092500Y-19640024D01*
X8092500Y-19640024D02*
X8111548Y-19649548D01*
X8111548Y-19649548D02*
X8121071Y-19659071D01*
X8121071Y-19659071D02*
X8130595Y-19678119D01*
X8130595Y-19678119D02*
X8130595Y-19687643D01*
X8130595Y-19687643D02*
X8121071Y-19706690D01*
X8121071Y-19706690D02*
X8111548Y-19716214D01*
X8111548Y-19716214D02*
X8092500Y-19725738D01*
X8092500Y-19725738D02*
X8054405Y-19725738D01*
X8054405Y-19725738D02*
X8035357Y-19735262D01*
X8035357Y-19735262D02*
X8025833Y-19744786D01*
X8025833Y-19744786D02*
X8016309Y-19763833D01*
X8016309Y-19763833D02*
X8016309Y-19801929D01*
X8016309Y-19801929D02*
X8025833Y-19820976D01*
X8025833Y-19820976D02*
X8035357Y-19830500D01*
X8035357Y-19830500D02*
X8054405Y-19840024D01*
X8054405Y-19840024D02*
X8092500Y-19840024D01*
X8092500Y-19840024D02*
X8111548Y-19830500D01*
X8111548Y-19830500D02*
X8121071Y-19820976D01*
X8121071Y-19820976D02*
X8130595Y-19801929D01*
X8130595Y-19801929D02*
X8130595Y-19763833D01*
X8130595Y-19763833D02*
X8121071Y-19744786D01*
X8121071Y-19744786D02*
X8111548Y-19735262D01*
X8111548Y-19735262D02*
X8092500Y-19725738D01*
X8254405Y-19640024D02*
X8273452Y-19640024D01*
X8273452Y-19640024D02*
X8292500Y-19649548D01*
X8292500Y-19649548D02*
X8302024Y-19659071D01*
X8302024Y-19659071D02*
X8311548Y-19678119D01*
X8311548Y-19678119D02*
X8321071Y-19716214D01*
X8321071Y-19716214D02*
X8321071Y-19763833D01*
X8321071Y-19763833D02*
X8311548Y-19801929D01*
X8311548Y-19801929D02*
X8302024Y-19820976D01*
X8302024Y-19820976D02*
X8292500Y-19830500D01*
X8292500Y-19830500D02*
X8273452Y-19840024D01*
X8273452Y-19840024D02*
X8254405Y-19840024D01*
X8254405Y-19840024D02*
X8235357Y-19830500D01*
X8235357Y-19830500D02*
X8225833Y-19820976D01*
X8225833Y-19820976D02*
X8216309Y-19801929D01*
X8216309Y-19801929D02*
X8206786Y-19763833D01*
X8206786Y-19763833D02*
X8206786Y-19716214D01*
X8206786Y-19716214D02*
X8216309Y-19678119D01*
X8216309Y-19678119D02*
X8225833Y-19659071D01*
X8225833Y-19659071D02*
X8235357Y-19649548D01*
X8235357Y-19649548D02*
X8254405Y-19640024D01*
X8444881Y-19640024D02*
X8463929Y-19640024D01*
X8463929Y-19640024D02*
X8482976Y-19649548D01*
X8482976Y-19649548D02*
X8492500Y-19659071D01*
X8492500Y-19659071D02*
X8502024Y-19678119D01*
X8502024Y-19678119D02*
X8511548Y-19716214D01*
X8511548Y-19716214D02*
X8511548Y-19763833D01*
X8511548Y-19763833D02*
X8502024Y-19801929D01*
X8502024Y-19801929D02*
X8492500Y-19820976D01*
X8492500Y-19820976D02*
X8482976Y-19830500D01*
X8482976Y-19830500D02*
X8463929Y-19840024D01*
X8463929Y-19840024D02*
X8444881Y-19840024D01*
X8444881Y-19840024D02*
X8425833Y-19830500D01*
X8425833Y-19830500D02*
X8416310Y-19820976D01*
X8416310Y-19820976D02*
X8406786Y-19801929D01*
X8406786Y-19801929D02*
X8397262Y-19763833D01*
X8397262Y-19763833D02*
X8397262Y-19716214D01*
X8397262Y-19716214D02*
X8406786Y-19678119D01*
X8406786Y-19678119D02*
X8416310Y-19659071D01*
X8416310Y-19659071D02*
X8425833Y-19649548D01*
X8425833Y-19649548D02*
X8444881Y-19640024D01*
X8597262Y-19840024D02*
X8597262Y-19706690D01*
X8597262Y-19725738D02*
X8606786Y-19716214D01*
X8606786Y-19716214D02*
X8625833Y-19706690D01*
X8625833Y-19706690D02*
X8654405Y-19706690D01*
X8654405Y-19706690D02*
X8673452Y-19716214D01*
X8673452Y-19716214D02*
X8682976Y-19735262D01*
X8682976Y-19735262D02*
X8682976Y-19840024D01*
X8682976Y-19735262D02*
X8692500Y-19716214D01*
X8692500Y-19716214D02*
X8711548Y-19706690D01*
X8711548Y-19706690D02*
X8740119Y-19706690D01*
X8740119Y-19706690D02*
X8759167Y-19716214D01*
X8759167Y-19716214D02*
X8768691Y-19735262D01*
X8768691Y-19735262D02*
X8768691Y-19840024D01*
X8863929Y-19840024D02*
X8863929Y-19706690D01*
X8863929Y-19725738D02*
X8873452Y-19716214D01*
X8873452Y-19716214D02*
X8892500Y-19706690D01*
X8892500Y-19706690D02*
X8921072Y-19706690D01*
X8921072Y-19706690D02*
X8940119Y-19716214D01*
X8940119Y-19716214D02*
X8949643Y-19735262D01*
X8949643Y-19735262D02*
X8949643Y-19840024D01*
X8949643Y-19735262D02*
X8959167Y-19716214D01*
X8959167Y-19716214D02*
X8978214Y-19706690D01*
X8978214Y-19706690D02*
X9006786Y-19706690D01*
X9006786Y-19706690D02*
X9025833Y-19716214D01*
X9025833Y-19716214D02*
X9035357Y-19735262D01*
X9035357Y-19735262D02*
X9035357Y-19840024D01*
X9425833Y-19630500D02*
X9254405Y-19887643D01*
X9682976Y-19640024D02*
X9702024Y-19640024D01*
X9702024Y-19640024D02*
X9721072Y-19649548D01*
X9721072Y-19649548D02*
X9730595Y-19659071D01*
X9730595Y-19659071D02*
X9740119Y-19678119D01*
X9740119Y-19678119D02*
X9749643Y-19716214D01*
X9749643Y-19716214D02*
X9749643Y-19763833D01*
X9749643Y-19763833D02*
X9740119Y-19801929D01*
X9740119Y-19801929D02*
X9730595Y-19820976D01*
X9730595Y-19820976D02*
X9721072Y-19830500D01*
X9721072Y-19830500D02*
X9702024Y-19840024D01*
X9702024Y-19840024D02*
X9682976Y-19840024D01*
X9682976Y-19840024D02*
X9663929Y-19830500D01*
X9663929Y-19830500D02*
X9654405Y-19820976D01*
X9654405Y-19820976D02*
X9644881Y-19801929D01*
X9644881Y-19801929D02*
X9635357Y-19763833D01*
X9635357Y-19763833D02*
X9635357Y-19716214D01*
X9635357Y-19716214D02*
X9644881Y-19678119D01*
X9644881Y-19678119D02*
X9654405Y-19659071D01*
X9654405Y-19659071D02*
X9663929Y-19649548D01*
X9663929Y-19649548D02*
X9682976Y-19640024D01*
X9835357Y-19820976D02*
X9844881Y-19830500D01*
X9844881Y-19830500D02*
X9835357Y-19840024D01*
X9835357Y-19840024D02*
X9825834Y-19830500D01*
X9825834Y-19830500D02*
X9835357Y-19820976D01*
X9835357Y-19820976D02*
X9835357Y-19840024D01*
X10035357Y-19840024D02*
X9921072Y-19840024D01*
X9978214Y-19840024D02*
X9978214Y-19640024D01*
X9978214Y-19640024D02*
X9959167Y-19668595D01*
X9959167Y-19668595D02*
X9940119Y-19687643D01*
X9940119Y-19687643D02*
X9921072Y-19697167D01*
X10206786Y-19706690D02*
X10206786Y-19840024D01*
X10159167Y-19630500D02*
X10111548Y-19773357D01*
X10111548Y-19773357D02*
X10235357Y-19773357D01*
X10321072Y-19840024D02*
X10359167Y-19840024D01*
X10359167Y-19840024D02*
X10378215Y-19830500D01*
X10378215Y-19830500D02*
X10387738Y-19820976D01*
X10387738Y-19820976D02*
X10406786Y-19792405D01*
X10406786Y-19792405D02*
X10416310Y-19754310D01*
X10416310Y-19754310D02*
X10416310Y-19678119D01*
X10416310Y-19678119D02*
X10406786Y-19659071D01*
X10406786Y-19659071D02*
X10397262Y-19649548D01*
X10397262Y-19649548D02*
X10378215Y-19640024D01*
X10378215Y-19640024D02*
X10340119Y-19640024D01*
X10340119Y-19640024D02*
X10321072Y-19649548D01*
X10321072Y-19649548D02*
X10311548Y-19659071D01*
X10311548Y-19659071D02*
X10302024Y-19678119D01*
X10302024Y-19678119D02*
X10302024Y-19725738D01*
X10302024Y-19725738D02*
X10311548Y-19744786D01*
X10311548Y-19744786D02*
X10321072Y-19754310D01*
X10321072Y-19754310D02*
X10340119Y-19763833D01*
X10340119Y-19763833D02*
X10378215Y-19763833D01*
X10378215Y-19763833D02*
X10397262Y-19754310D01*
X10397262Y-19754310D02*
X10406786Y-19744786D01*
X10406786Y-19744786D02*
X10416310Y-19725738D01*
X10587738Y-19640024D02*
X10549643Y-19640024D01*
X10549643Y-19640024D02*
X10530595Y-19649548D01*
X10530595Y-19649548D02*
X10521072Y-19659071D01*
X10521072Y-19659071D02*
X10502024Y-19687643D01*
X10502024Y-19687643D02*
X10492500Y-19725738D01*
X10492500Y-19725738D02*
X10492500Y-19801929D01*
X10492500Y-19801929D02*
X10502024Y-19820976D01*
X10502024Y-19820976D02*
X10511548Y-19830500D01*
X10511548Y-19830500D02*
X10530595Y-19840024D01*
X10530595Y-19840024D02*
X10568691Y-19840024D01*
X10568691Y-19840024D02*
X10587738Y-19830500D01*
X10587738Y-19830500D02*
X10597262Y-19820976D01*
X10597262Y-19820976D02*
X10606786Y-19801929D01*
X10606786Y-19801929D02*
X10606786Y-19754310D01*
X10606786Y-19754310D02*
X10597262Y-19735262D01*
X10597262Y-19735262D02*
X10587738Y-19725738D01*
X10587738Y-19725738D02*
X10568691Y-19716214D01*
X10568691Y-19716214D02*
X10530595Y-19716214D01*
X10530595Y-19716214D02*
X10511548Y-19725738D01*
X10511548Y-19725738D02*
X10502024Y-19735262D01*
X10502024Y-19735262D02*
X10492500Y-19754310D01*
X10682976Y-19640024D02*
X10682976Y-19678119D01*
X10759167Y-19640024D02*
X10759167Y-19678119D01*
X11054405Y-19916214D02*
X11044881Y-19906690D01*
X11044881Y-19906690D02*
X11025834Y-19878119D01*
X11025834Y-19878119D02*
X11016310Y-19859071D01*
X11016310Y-19859071D02*
X11006786Y-19830500D01*
X11006786Y-19830500D02*
X10997262Y-19782881D01*
X10997262Y-19782881D02*
X10997262Y-19744786D01*
X10997262Y-19744786D02*
X11006786Y-19697167D01*
X11006786Y-19697167D02*
X11016310Y-19668595D01*
X11016310Y-19668595D02*
X11025834Y-19649548D01*
X11025834Y-19649548D02*
X11044881Y-19620976D01*
X11044881Y-19620976D02*
X11054405Y-19611452D01*
X11216310Y-19706690D02*
X11216310Y-19840024D01*
X11168691Y-19630500D02*
X11121072Y-19773357D01*
X11121072Y-19773357D02*
X11244881Y-19773357D01*
X11473453Y-19840024D02*
X11473453Y-19640024D01*
X11559167Y-19840024D02*
X11559167Y-19735262D01*
X11559167Y-19735262D02*
X11549643Y-19716214D01*
X11549643Y-19716214D02*
X11530596Y-19706690D01*
X11530596Y-19706690D02*
X11502024Y-19706690D01*
X11502024Y-19706690D02*
X11482976Y-19716214D01*
X11482976Y-19716214D02*
X11473453Y-19725738D01*
X11682976Y-19840024D02*
X11663929Y-19830500D01*
X11663929Y-19830500D02*
X11654405Y-19820976D01*
X11654405Y-19820976D02*
X11644881Y-19801929D01*
X11644881Y-19801929D02*
X11644881Y-19744786D01*
X11644881Y-19744786D02*
X11654405Y-19725738D01*
X11654405Y-19725738D02*
X11663929Y-19716214D01*
X11663929Y-19716214D02*
X11682976Y-19706690D01*
X11682976Y-19706690D02*
X11711548Y-19706690D01*
X11711548Y-19706690D02*
X11730596Y-19716214D01*
X11730596Y-19716214D02*
X11740119Y-19725738D01*
X11740119Y-19725738D02*
X11749643Y-19744786D01*
X11749643Y-19744786D02*
X11749643Y-19801929D01*
X11749643Y-19801929D02*
X11740119Y-19820976D01*
X11740119Y-19820976D02*
X11730596Y-19830500D01*
X11730596Y-19830500D02*
X11711548Y-19840024D01*
X11711548Y-19840024D02*
X11682976Y-19840024D01*
X11863929Y-19840024D02*
X11844881Y-19830500D01*
X11844881Y-19830500D02*
X11835357Y-19811452D01*
X11835357Y-19811452D02*
X11835357Y-19640024D01*
X12016310Y-19830500D02*
X11997262Y-19840024D01*
X11997262Y-19840024D02*
X11959167Y-19840024D01*
X11959167Y-19840024D02*
X11940119Y-19830500D01*
X11940119Y-19830500D02*
X11930596Y-19811452D01*
X11930596Y-19811452D02*
X11930596Y-19735262D01*
X11930596Y-19735262D02*
X11940119Y-19716214D01*
X11940119Y-19716214D02*
X11959167Y-19706690D01*
X11959167Y-19706690D02*
X11997262Y-19706690D01*
X11997262Y-19706690D02*
X12016310Y-19716214D01*
X12016310Y-19716214D02*
X12025834Y-19735262D01*
X12025834Y-19735262D02*
X12025834Y-19754310D01*
X12025834Y-19754310D02*
X11930596Y-19773357D01*
X12102024Y-19830500D02*
X12121072Y-19840024D01*
X12121072Y-19840024D02*
X12159167Y-19840024D01*
X12159167Y-19840024D02*
X12178215Y-19830500D01*
X12178215Y-19830500D02*
X12187738Y-19811452D01*
X12187738Y-19811452D02*
X12187738Y-19801929D01*
X12187738Y-19801929D02*
X12178215Y-19782881D01*
X12178215Y-19782881D02*
X12159167Y-19773357D01*
X12159167Y-19773357D02*
X12130596Y-19773357D01*
X12130596Y-19773357D02*
X12111548Y-19763833D01*
X12111548Y-19763833D02*
X12102024Y-19744786D01*
X12102024Y-19744786D02*
X12102024Y-19735262D01*
X12102024Y-19735262D02*
X12111548Y-19716214D01*
X12111548Y-19716214D02*
X12130596Y-19706690D01*
X12130596Y-19706690D02*
X12159167Y-19706690D01*
X12159167Y-19706690D02*
X12178215Y-19716214D01*
X12254405Y-19916214D02*
X12263929Y-19906690D01*
X12263929Y-19906690D02*
X12282977Y-19878119D01*
X12282977Y-19878119D02*
X12292500Y-19859071D01*
X12292500Y-19859071D02*
X12302024Y-19830500D01*
X12302024Y-19830500D02*
X12311548Y-19782881D01*
X12311548Y-19782881D02*
X12311548Y-19744786D01*
X12311548Y-19744786D02*
X12302024Y-19697167D01*
X12302024Y-19697167D02*
X12292500Y-19668595D01*
X12292500Y-19668595D02*
X12282977Y-19649548D01*
X12282977Y-19649548D02*
X12263929Y-19620976D01*
X12263929Y-19620976D02*
X12254405Y-19611452D01*
X7463211Y-20138211D02*
X7463211Y-19996789D01*
X7321789Y-19996789D01*
X7321789Y-20138211D01*
X7463211Y-20138211D01*
X7492500Y-20067500D02*
G75*
G03*
X7492500Y-20067500I-100000J0D01*
G01*
X7825833Y-20026690D02*
X7825833Y-20160024D01*
X7778214Y-19950500D02*
X7730595Y-20093357D01*
X7730595Y-20093357D02*
X7854405Y-20093357D01*
X7930595Y-20140976D02*
X7940119Y-20150500D01*
X7940119Y-20150500D02*
X7930595Y-20160024D01*
X7930595Y-20160024D02*
X7921071Y-20150500D01*
X7921071Y-20150500D02*
X7930595Y-20140976D01*
X7930595Y-20140976D02*
X7930595Y-20160024D01*
X8121071Y-19960024D02*
X8025833Y-19960024D01*
X8025833Y-19960024D02*
X8016309Y-20055262D01*
X8016309Y-20055262D02*
X8025833Y-20045738D01*
X8025833Y-20045738D02*
X8044881Y-20036214D01*
X8044881Y-20036214D02*
X8092500Y-20036214D01*
X8092500Y-20036214D02*
X8111548Y-20045738D01*
X8111548Y-20045738D02*
X8121071Y-20055262D01*
X8121071Y-20055262D02*
X8130595Y-20074310D01*
X8130595Y-20074310D02*
X8130595Y-20121929D01*
X8130595Y-20121929D02*
X8121071Y-20140976D01*
X8121071Y-20140976D02*
X8111548Y-20150500D01*
X8111548Y-20150500D02*
X8092500Y-20160024D01*
X8092500Y-20160024D02*
X8044881Y-20160024D01*
X8044881Y-20160024D02*
X8025833Y-20150500D01*
X8025833Y-20150500D02*
X8016309Y-20140976D01*
X8254405Y-19960024D02*
X8273452Y-19960024D01*
X8273452Y-19960024D02*
X8292500Y-19969548D01*
X8292500Y-19969548D02*
X8302024Y-19979071D01*
X8302024Y-19979071D02*
X8311548Y-19998119D01*
X8311548Y-19998119D02*
X8321071Y-20036214D01*
X8321071Y-20036214D02*
X8321071Y-20083833D01*
X8321071Y-20083833D02*
X8311548Y-20121929D01*
X8311548Y-20121929D02*
X8302024Y-20140976D01*
X8302024Y-20140976D02*
X8292500Y-20150500D01*
X8292500Y-20150500D02*
X8273452Y-20160024D01*
X8273452Y-20160024D02*
X8254405Y-20160024D01*
X8254405Y-20160024D02*
X8235357Y-20150500D01*
X8235357Y-20150500D02*
X8225833Y-20140976D01*
X8225833Y-20140976D02*
X8216309Y-20121929D01*
X8216309Y-20121929D02*
X8206786Y-20083833D01*
X8206786Y-20083833D02*
X8206786Y-20036214D01*
X8206786Y-20036214D02*
X8216309Y-19998119D01*
X8216309Y-19998119D02*
X8225833Y-19979071D01*
X8225833Y-19979071D02*
X8235357Y-19969548D01*
X8235357Y-19969548D02*
X8254405Y-19960024D01*
X8444881Y-19960024D02*
X8463929Y-19960024D01*
X8463929Y-19960024D02*
X8482976Y-19969548D01*
X8482976Y-19969548D02*
X8492500Y-19979071D01*
X8492500Y-19979071D02*
X8502024Y-19998119D01*
X8502024Y-19998119D02*
X8511548Y-20036214D01*
X8511548Y-20036214D02*
X8511548Y-20083833D01*
X8511548Y-20083833D02*
X8502024Y-20121929D01*
X8502024Y-20121929D02*
X8492500Y-20140976D01*
X8492500Y-20140976D02*
X8482976Y-20150500D01*
X8482976Y-20150500D02*
X8463929Y-20160024D01*
X8463929Y-20160024D02*
X8444881Y-20160024D01*
X8444881Y-20160024D02*
X8425833Y-20150500D01*
X8425833Y-20150500D02*
X8416310Y-20140976D01*
X8416310Y-20140976D02*
X8406786Y-20121929D01*
X8406786Y-20121929D02*
X8397262Y-20083833D01*
X8397262Y-20083833D02*
X8397262Y-20036214D01*
X8397262Y-20036214D02*
X8406786Y-19998119D01*
X8406786Y-19998119D02*
X8416310Y-19979071D01*
X8416310Y-19979071D02*
X8425833Y-19969548D01*
X8425833Y-19969548D02*
X8444881Y-19960024D01*
X8597262Y-20160024D02*
X8597262Y-20026690D01*
X8597262Y-20045738D02*
X8606786Y-20036214D01*
X8606786Y-20036214D02*
X8625833Y-20026690D01*
X8625833Y-20026690D02*
X8654405Y-20026690D01*
X8654405Y-20026690D02*
X8673452Y-20036214D01*
X8673452Y-20036214D02*
X8682976Y-20055262D01*
X8682976Y-20055262D02*
X8682976Y-20160024D01*
X8682976Y-20055262D02*
X8692500Y-20036214D01*
X8692500Y-20036214D02*
X8711548Y-20026690D01*
X8711548Y-20026690D02*
X8740119Y-20026690D01*
X8740119Y-20026690D02*
X8759167Y-20036214D01*
X8759167Y-20036214D02*
X8768691Y-20055262D01*
X8768691Y-20055262D02*
X8768691Y-20160024D01*
X8863929Y-20160024D02*
X8863929Y-20026690D01*
X8863929Y-20045738D02*
X8873452Y-20036214D01*
X8873452Y-20036214D02*
X8892500Y-20026690D01*
X8892500Y-20026690D02*
X8921072Y-20026690D01*
X8921072Y-20026690D02*
X8940119Y-20036214D01*
X8940119Y-20036214D02*
X8949643Y-20055262D01*
X8949643Y-20055262D02*
X8949643Y-20160024D01*
X8949643Y-20055262D02*
X8959167Y-20036214D01*
X8959167Y-20036214D02*
X8978214Y-20026690D01*
X8978214Y-20026690D02*
X9006786Y-20026690D01*
X9006786Y-20026690D02*
X9025833Y-20036214D01*
X9025833Y-20036214D02*
X9035357Y-20055262D01*
X9035357Y-20055262D02*
X9035357Y-20160024D01*
X9425833Y-19950500D02*
X9254405Y-20207643D01*
X9682976Y-19960024D02*
X9702024Y-19960024D01*
X9702024Y-19960024D02*
X9721072Y-19969548D01*
X9721072Y-19969548D02*
X9730595Y-19979071D01*
X9730595Y-19979071D02*
X9740119Y-19998119D01*
X9740119Y-19998119D02*
X9749643Y-20036214D01*
X9749643Y-20036214D02*
X9749643Y-20083833D01*
X9749643Y-20083833D02*
X9740119Y-20121929D01*
X9740119Y-20121929D02*
X9730595Y-20140976D01*
X9730595Y-20140976D02*
X9721072Y-20150500D01*
X9721072Y-20150500D02*
X9702024Y-20160024D01*
X9702024Y-20160024D02*
X9682976Y-20160024D01*
X9682976Y-20160024D02*
X9663929Y-20150500D01*
X9663929Y-20150500D02*
X9654405Y-20140976D01*
X9654405Y-20140976D02*
X9644881Y-20121929D01*
X9644881Y-20121929D02*
X9635357Y-20083833D01*
X9635357Y-20083833D02*
X9635357Y-20036214D01*
X9635357Y-20036214D02*
X9644881Y-19998119D01*
X9644881Y-19998119D02*
X9654405Y-19979071D01*
X9654405Y-19979071D02*
X9663929Y-19969548D01*
X9663929Y-19969548D02*
X9682976Y-19960024D01*
X9835357Y-20140976D02*
X9844881Y-20150500D01*
X9844881Y-20150500D02*
X9835357Y-20160024D01*
X9835357Y-20160024D02*
X9825834Y-20150500D01*
X9825834Y-20150500D02*
X9835357Y-20140976D01*
X9835357Y-20140976D02*
X9835357Y-20160024D01*
X10035357Y-20160024D02*
X9921072Y-20160024D01*
X9978214Y-20160024D02*
X9978214Y-19960024D01*
X9978214Y-19960024D02*
X9959167Y-19988595D01*
X9959167Y-19988595D02*
X9940119Y-20007643D01*
X9940119Y-20007643D02*
X9921072Y-20017167D01*
X10102024Y-19960024D02*
X10235357Y-19960024D01*
X10235357Y-19960024D02*
X10149643Y-20160024D01*
X10292500Y-19960024D02*
X10425834Y-19960024D01*
X10425834Y-19960024D02*
X10340119Y-20160024D01*
X10492500Y-19979071D02*
X10502024Y-19969548D01*
X10502024Y-19969548D02*
X10521072Y-19960024D01*
X10521072Y-19960024D02*
X10568691Y-19960024D01*
X10568691Y-19960024D02*
X10587738Y-19969548D01*
X10587738Y-19969548D02*
X10597262Y-19979071D01*
X10597262Y-19979071D02*
X10606786Y-19998119D01*
X10606786Y-19998119D02*
X10606786Y-20017167D01*
X10606786Y-20017167D02*
X10597262Y-20045738D01*
X10597262Y-20045738D02*
X10482976Y-20160024D01*
X10482976Y-20160024D02*
X10606786Y-20160024D01*
X10682976Y-19960024D02*
X10682976Y-19998119D01*
X10759167Y-19960024D02*
X10759167Y-19998119D01*
X11054405Y-20236214D02*
X11044881Y-20226690D01*
X11044881Y-20226690D02*
X11025834Y-20198119D01*
X11025834Y-20198119D02*
X11016310Y-20179071D01*
X11016310Y-20179071D02*
X11006786Y-20150500D01*
X11006786Y-20150500D02*
X10997262Y-20102881D01*
X10997262Y-20102881D02*
X10997262Y-20064786D01*
X10997262Y-20064786D02*
X11006786Y-20017167D01*
X11006786Y-20017167D02*
X11016310Y-19988595D01*
X11016310Y-19988595D02*
X11025834Y-19969548D01*
X11025834Y-19969548D02*
X11044881Y-19940976D01*
X11044881Y-19940976D02*
X11054405Y-19931452D01*
X11235357Y-20160024D02*
X11121072Y-20160024D01*
X11178215Y-20160024D02*
X11178215Y-19960024D01*
X11178215Y-19960024D02*
X11159167Y-19988595D01*
X11159167Y-19988595D02*
X11140119Y-20007643D01*
X11140119Y-20007643D02*
X11121072Y-20017167D01*
X11359167Y-19960024D02*
X11378215Y-19960024D01*
X11378215Y-19960024D02*
X11397262Y-19969548D01*
X11397262Y-19969548D02*
X11406786Y-19979071D01*
X11406786Y-19979071D02*
X11416310Y-19998119D01*
X11416310Y-19998119D02*
X11425834Y-20036214D01*
X11425834Y-20036214D02*
X11425834Y-20083833D01*
X11425834Y-20083833D02*
X11416310Y-20121929D01*
X11416310Y-20121929D02*
X11406786Y-20140976D01*
X11406786Y-20140976D02*
X11397262Y-20150500D01*
X11397262Y-20150500D02*
X11378215Y-20160024D01*
X11378215Y-20160024D02*
X11359167Y-20160024D01*
X11359167Y-20160024D02*
X11340119Y-20150500D01*
X11340119Y-20150500D02*
X11330595Y-20140976D01*
X11330595Y-20140976D02*
X11321072Y-20121929D01*
X11321072Y-20121929D02*
X11311548Y-20083833D01*
X11311548Y-20083833D02*
X11311548Y-20036214D01*
X11311548Y-20036214D02*
X11321072Y-19998119D01*
X11321072Y-19998119D02*
X11330595Y-19979071D01*
X11330595Y-19979071D02*
X11340119Y-19969548D01*
X11340119Y-19969548D02*
X11359167Y-19960024D01*
X11663929Y-20160024D02*
X11663929Y-19960024D01*
X11749643Y-20160024D02*
X11749643Y-20055262D01*
X11749643Y-20055262D02*
X11740119Y-20036214D01*
X11740119Y-20036214D02*
X11721072Y-20026690D01*
X11721072Y-20026690D02*
X11692500Y-20026690D01*
X11692500Y-20026690D02*
X11673453Y-20036214D01*
X11673453Y-20036214D02*
X11663929Y-20045738D01*
X11873453Y-20160024D02*
X11854405Y-20150500D01*
X11854405Y-20150500D02*
X11844881Y-20140976D01*
X11844881Y-20140976D02*
X11835357Y-20121929D01*
X11835357Y-20121929D02*
X11835357Y-20064786D01*
X11835357Y-20064786D02*
X11844881Y-20045738D01*
X11844881Y-20045738D02*
X11854405Y-20036214D01*
X11854405Y-20036214D02*
X11873453Y-20026690D01*
X11873453Y-20026690D02*
X11902024Y-20026690D01*
X11902024Y-20026690D02*
X11921072Y-20036214D01*
X11921072Y-20036214D02*
X11930596Y-20045738D01*
X11930596Y-20045738D02*
X11940119Y-20064786D01*
X11940119Y-20064786D02*
X11940119Y-20121929D01*
X11940119Y-20121929D02*
X11930596Y-20140976D01*
X11930596Y-20140976D02*
X11921072Y-20150500D01*
X11921072Y-20150500D02*
X11902024Y-20160024D01*
X11902024Y-20160024D02*
X11873453Y-20160024D01*
X12054405Y-20160024D02*
X12035357Y-20150500D01*
X12035357Y-20150500D02*
X12025834Y-20131452D01*
X12025834Y-20131452D02*
X12025834Y-19960024D01*
X12206786Y-20150500D02*
X12187738Y-20160024D01*
X12187738Y-20160024D02*
X12149643Y-20160024D01*
X12149643Y-20160024D02*
X12130596Y-20150500D01*
X12130596Y-20150500D02*
X12121072Y-20131452D01*
X12121072Y-20131452D02*
X12121072Y-20055262D01*
X12121072Y-20055262D02*
X12130596Y-20036214D01*
X12130596Y-20036214D02*
X12149643Y-20026690D01*
X12149643Y-20026690D02*
X12187738Y-20026690D01*
X12187738Y-20026690D02*
X12206786Y-20036214D01*
X12206786Y-20036214D02*
X12216310Y-20055262D01*
X12216310Y-20055262D02*
X12216310Y-20074310D01*
X12216310Y-20074310D02*
X12121072Y-20093357D01*
X12292500Y-20150500D02*
X12311548Y-20160024D01*
X12311548Y-20160024D02*
X12349643Y-20160024D01*
X12349643Y-20160024D02*
X12368691Y-20150500D01*
X12368691Y-20150500D02*
X12378215Y-20131452D01*
X12378215Y-20131452D02*
X12378215Y-20121929D01*
X12378215Y-20121929D02*
X12368691Y-20102881D01*
X12368691Y-20102881D02*
X12349643Y-20093357D01*
X12349643Y-20093357D02*
X12321072Y-20093357D01*
X12321072Y-20093357D02*
X12302024Y-20083833D01*
X12302024Y-20083833D02*
X12292500Y-20064786D01*
X12292500Y-20064786D02*
X12292500Y-20055262D01*
X12292500Y-20055262D02*
X12302024Y-20036214D01*
X12302024Y-20036214D02*
X12321072Y-20026690D01*
X12321072Y-20026690D02*
X12349643Y-20026690D01*
X12349643Y-20026690D02*
X12368691Y-20036214D01*
X12444881Y-20236214D02*
X12454405Y-20226690D01*
X12454405Y-20226690D02*
X12473453Y-20198119D01*
X12473453Y-20198119D02*
X12482977Y-20179071D01*
X12482977Y-20179071D02*
X12492500Y-20150500D01*
X12492500Y-20150500D02*
X12502024Y-20102881D01*
X12502024Y-20102881D02*
X12502024Y-20064786D01*
X12502024Y-20064786D02*
X12492500Y-20017167D01*
X12492500Y-20017167D02*
X12482977Y-19988595D01*
X12482977Y-19988595D02*
X12473453Y-19969548D01*
X12473453Y-19969548D02*
X12454405Y-19940976D01*
X12454405Y-19940976D02*
X12444881Y-19931452D01*
M02*
