%TF.GenerationSoftware,KiCad,Pcbnew,7.0.1-0*%
%TF.CreationDate,2023-03-21T21:14:35-05:00*%
%TF.ProjectId,actuation,61637475-6174-4696-9f6e-2e6b69636164,rev?*%
%TF.SameCoordinates,Original*%
%TF.FileFunction,Soldermask,Top*%
%TF.FilePolarity,Negative*%
%FSLAX46Y46*%
G04 Gerber Fmt 4.6, Leading zero omitted, Abs format (unit mm)*
G04 Created by KiCad (PCBNEW 7.0.1-0) date 2023-03-21 21:14:35*
%MOMM*%
%LPD*%
G01*
G04 APERTURE LIST*
G04 Aperture macros list*
%AMRoundRect*
0 Rectangle with rounded corners*
0 $1 Rounding radius*
0 $2 $3 $4 $5 $6 $7 $8 $9 X,Y pos of 4 corners*
0 Add a 4 corners polygon primitive as box body*
4,1,4,$2,$3,$4,$5,$6,$7,$8,$9,$2,$3,0*
0 Add four circle primitives for the rounded corners*
1,1,$1+$1,$2,$3*
1,1,$1+$1,$4,$5*
1,1,$1+$1,$6,$7*
1,1,$1+$1,$8,$9*
0 Add four rect primitives between the rounded corners*
20,1,$1+$1,$2,$3,$4,$5,0*
20,1,$1+$1,$4,$5,$6,$7,0*
20,1,$1+$1,$6,$7,$8,$9,0*
20,1,$1+$1,$8,$9,$2,$3,0*%
%AMFreePoly0*
4,1,25,1.407855,0.530355,1.422500,0.495000,1.422500,0.090000,1.407855,0.054645,1.372500,0.040000,0.912500,0.040000,0.912500,-0.115000,1.372500,-0.115000,1.407855,-0.129645,1.422500,-0.165000,1.422500,-0.587500,1.407855,-0.622855,1.372500,-0.637500,0.612500,-0.637500,0.577145,-0.622855,0.562500,-0.587500,0.562500,-0.545000,-0.862500,-0.545000,-0.897855,-0.530355,-0.912500,-0.495000,
-0.912500,0.495000,-0.897855,0.530355,-0.862500,0.545000,1.372500,0.545000,1.407855,0.530355,1.407855,0.530355,$1*%
%AMFreePoly1*
4,1,25,1.407855,0.622855,1.422500,0.587500,1.422500,0.165000,1.407855,0.129645,1.372500,0.115000,0.912500,0.115000,0.912500,-0.040000,1.372500,-0.040000,1.407855,-0.054645,1.422500,-0.090000,1.422500,-0.495000,1.407855,-0.530355,1.372500,-0.545000,-0.862500,-0.545000,-0.897855,-0.530355,-0.912500,-0.495000,-0.912500,0.495000,-0.897855,0.530355,-0.862500,0.545000,0.562500,0.545000,
0.562500,0.587500,0.577145,0.622855,0.612500,0.637500,1.372500,0.637500,1.407855,0.622855,1.407855,0.622855,$1*%
%AMFreePoly2*
4,1,21,0.365355,0.735355,0.380000,0.700000,0.380000,-0.700000,0.365355,-0.735355,0.330000,-0.750000,-0.980000,-0.750000,-1.015355,-0.735355,-1.030000,-0.700000,-1.030000,-0.300000,-1.015355,-0.264645,-0.980000,-0.250000,-0.380000,-0.250000,-0.380000,0.250000,-0.980000,0.250000,-1.015355,0.264645,-1.030000,0.300000,-1.030000,0.700000,-1.015355,0.735355,-0.980000,0.750000,0.330000,0.750000,
0.365355,0.735355,0.365355,0.735355,$1*%
%AMFreePoly3*
4,1,24,1.785355,3.830355,1.800000,3.795000,1.800000,-1.535000,1.785355,-1.570355,1.750000,-1.585000,-1.750000,-1.585000,-1.785355,-1.570355,-1.800000,-1.535000,-1.800000,1.535000,-1.785355,1.570355,-1.750000,1.585000,-0.175000,1.585000,-0.175000,3.595000,-0.173746,3.606126,-0.153940,3.692903,-0.144285,3.712952,-0.088789,3.782541,-0.071392,3.796414,0.008802,3.835034,0.030496,3.839986,
0.062896,3.839986,0.075000,3.845000,1.750000,3.845000,1.785355,3.830355,1.785355,3.830355,$1*%
%AMFreePoly4*
4,1,24,1.785355,1.570355,1.800000,1.535000,1.800000,-1.535000,1.785355,-1.570355,1.750000,-1.585000,-0.575000,-1.585000,-0.575000,-3.595000,-0.576254,-3.606126,-0.596060,-3.692903,-0.605715,-3.712952,-0.661211,-3.782541,-0.678608,-3.796414,-0.758802,-3.835034,-0.780496,-3.839986,-0.812896,-3.839986,-0.825000,-3.845000,-1.750000,-3.845000,-1.785355,-3.830355,-1.800000,-3.795000,-1.800000,1.535000,
-1.785355,1.570355,-1.750000,1.585000,1.750000,1.585000,1.785355,1.570355,1.785355,1.570355,$1*%
G04 Aperture macros list end*
%ADD10C,0.400000*%
%ADD11RoundRect,0.200000X0.450000X0.250000X-0.450000X0.250000X-0.450000X-0.250000X0.450000X-0.250000X0*%
%ADD12RoundRect,0.350000X0.500000X0.450000X-0.500000X0.450000X-0.500000X-0.450000X0.500000X-0.450000X0*%
%ADD13RoundRect,0.350000X-0.450000X0.500000X-0.450000X-0.500000X0.450000X-0.500000X0.450000X0.500000X0*%
%ADD14RoundRect,0.250000X0.200000X0.275000X-0.200000X0.275000X-0.200000X-0.275000X0.200000X-0.275000X0*%
%ADD15RoundRect,0.050000X-0.900000X1.250000X-0.900000X-1.250000X0.900000X-1.250000X0.900000X1.250000X0*%
%ADD16RoundRect,0.250000X-0.200000X-0.275000X0.200000X-0.275000X0.200000X0.275000X-0.200000X0.275000X0*%
%ADD17RoundRect,0.250000X0.275000X-0.200000X0.275000X0.200000X-0.275000X0.200000X-0.275000X-0.200000X0*%
%ADD18RoundRect,0.275000X0.225000X0.250000X-0.225000X0.250000X-0.225000X-0.250000X0.225000X-0.250000X0*%
%ADD19C,3.900000*%
%ADD20RoundRect,0.050000X-1.900000X-1.900000X1.900000X-1.900000X1.900000X1.900000X-1.900000X1.900000X0*%
%ADD21RoundRect,0.300000X-0.650000X0.325000X-0.650000X-0.325000X0.650000X-0.325000X0.650000X0.325000X0*%
%ADD22RoundRect,0.275000X0.250000X-0.225000X0.250000X0.225000X-0.250000X0.225000X-0.250000X-0.225000X0*%
%ADD23C,2.100000*%
%ADD24RoundRect,0.268750X0.256250X-0.218750X0.256250X0.218750X-0.256250X0.218750X-0.256250X-0.218750X0*%
%ADD25RoundRect,0.275000X-0.225000X-0.250000X0.225000X-0.250000X0.225000X0.250000X-0.225000X0.250000X0*%
%ADD26RoundRect,0.300000X-1.100000X0.325000X-1.100000X-0.325000X1.100000X-0.325000X1.100000X0.325000X0*%
%ADD27RoundRect,0.050000X-0.500000X-1.100000X0.500000X-1.100000X0.500000X1.100000X-0.500000X1.100000X0*%
%ADD28C,5.100000*%
%ADD29RoundRect,1.300000X-1.250000X-1.250000X1.250000X-1.250000X1.250000X1.250000X-1.250000X1.250000X0*%
%ADD30RoundRect,0.268750X-0.218750X-0.256250X0.218750X-0.256250X0.218750X0.256250X-0.218750X0.256250X0*%
%ADD31RoundRect,0.268750X0.218750X0.256250X-0.218750X0.256250X-0.218750X-0.256250X0.218750X-0.256250X0*%
%ADD32RoundRect,1.550000X1.500000X1.500000X-1.500000X1.500000X-1.500000X-1.500000X1.500000X-1.500000X0*%
%ADD33C,6.100000*%
%ADD34C,5.800000*%
%ADD35RoundRect,0.050000X1.250000X0.900000X-1.250000X0.900000X-1.250000X-0.900000X1.250000X-0.900000X0*%
%ADD36RoundRect,0.143750X0.106250X-0.093750X0.106250X0.093750X-0.106250X0.093750X-0.106250X-0.093750X0*%
%ADD37RoundRect,0.050000X0.800000X-0.500000X0.800000X0.500000X-0.800000X0.500000X-0.800000X-0.500000X0*%
%ADD38RoundRect,0.268750X-0.256250X0.218750X-0.256250X-0.218750X0.256250X-0.218750X0.256250X0.218750X0*%
%ADD39RoundRect,0.150000X0.637500X0.100000X-0.637500X0.100000X-0.637500X-0.100000X0.637500X-0.100000X0*%
%ADD40RoundRect,0.050000X1.900000X-1.900000X1.900000X1.900000X-1.900000X1.900000X-1.900000X-1.900000X0*%
%ADD41RoundRect,0.050000X-0.225000X0.300000X-0.225000X-0.300000X0.225000X-0.300000X0.225000X0.300000X0*%
%ADD42RoundRect,1.550000X-1.500000X1.500000X-1.500000X-1.500000X1.500000X-1.500000X1.500000X1.500000X0*%
%ADD43RoundRect,0.550000X0.500000X-0.500000X0.500000X0.500000X-0.500000X0.500000X-0.500000X-0.500000X0*%
%ADD44RoundRect,0.200000X0.512500X0.150000X-0.512500X0.150000X-0.512500X-0.150000X0.512500X-0.150000X0*%
%ADD45RoundRect,1.050000X-1.000000X1.000000X-1.000000X-1.000000X1.000000X-1.000000X1.000000X1.000000X0*%
%ADD46C,4.100000*%
%ADD47RoundRect,0.050000X-0.495000X-0.202500X0.495000X-0.202500X0.495000X0.202500X-0.495000X0.202500X0*%
%ADD48FreePoly0,0.000000*%
%ADD49FreePoly1,0.000000*%
%ADD50RoundRect,0.050000X0.800000X-0.650000X0.800000X0.650000X-0.800000X0.650000X-0.800000X-0.650000X0*%
%ADD51RoundRect,0.050000X0.800000X-1.000000X0.800000X1.000000X-0.800000X1.000000X-0.800000X-1.000000X0*%
%ADD52FreePoly2,90.000000*%
%ADD53RoundRect,0.050000X0.200000X-0.650000X0.200000X0.650000X-0.200000X0.650000X-0.200000X-0.650000X0*%
%ADD54FreePoly3,90.000000*%
%ADD55FreePoly4,90.000000*%
%ADD56RoundRect,0.200000X-0.150000X0.512500X-0.150000X-0.512500X0.150000X-0.512500X0.150000X0.512500X0*%
%ADD57RoundRect,0.050000X0.275000X-0.150000X0.275000X0.150000X-0.275000X0.150000X-0.275000X-0.150000X0*%
%ADD58RoundRect,0.050000X0.275000X-0.200000X0.275000X0.200000X-0.275000X0.200000X-0.275000X-0.200000X0*%
%ADD59RoundRect,0.150000X0.100000X-0.637500X0.100000X0.637500X-0.100000X0.637500X-0.100000X-0.637500X0*%
%ADD60RoundRect,0.300000X0.325000X1.100000X-0.325000X1.100000X-0.325000X-1.100000X0.325000X-1.100000X0*%
%ADD61RoundRect,0.050000X0.200000X-0.325000X0.200000X0.325000X-0.200000X0.325000X-0.200000X-0.325000X0*%
%ADD62RoundRect,0.200000X-0.820000X-0.150000X0.820000X-0.150000X0.820000X0.150000X-0.820000X0.150000X0*%
%ADD63RoundRect,0.050000X-1.310000X-1.755000X1.310000X-1.755000X1.310000X1.755000X-1.310000X1.755000X0*%
%ADD64RoundRect,0.275000X-0.250000X0.225000X-0.250000X-0.225000X0.250000X-0.225000X0.250000X0.225000X0*%
%ADD65RoundRect,0.250000X-0.275000X0.200000X-0.275000X-0.200000X0.275000X-0.200000X0.275000X0.200000X0*%
%ADD66RoundRect,0.300000X-0.250000X-0.475000X0.250000X-0.475000X0.250000X0.475000X-0.250000X0.475000X0*%
%ADD67RoundRect,0.300000X0.325000X0.650000X-0.325000X0.650000X-0.325000X-0.650000X0.325000X-0.650000X0*%
%ADD68RoundRect,0.050000X0.550000X0.125000X-0.550000X0.125000X-0.550000X-0.125000X0.550000X-0.125000X0*%
%ADD69RoundRect,0.050000X1.395000X-0.951500X1.395000X0.951500X-1.395000X0.951500X-1.395000X-0.951500X0*%
%ADD70RoundRect,0.150000X-0.637500X-0.100000X0.637500X-0.100000X0.637500X0.100000X-0.637500X0.100000X0*%
%ADD71RoundRect,0.112500X-0.362500X-0.062500X0.362500X-0.062500X0.362500X0.062500X-0.362500X0.062500X0*%
%ADD72RoundRect,0.050000X-0.825000X-1.190000X0.825000X-1.190000X0.825000X1.190000X-0.825000X1.190000X0*%
%ADD73RoundRect,0.458750X0.408750X0.408750X-0.408750X0.408750X-0.408750X-0.408750X0.408750X-0.408750X0*%
%ADD74C,4.150000*%
%ADD75RoundRect,0.150000X-0.100000X0.637500X-0.100000X-0.637500X0.100000X-0.637500X0.100000X0.637500X0*%
G04 APERTURE END LIST*
D10*
G36*
X111030653Y-123954500D02*
G01*
X110658768Y-123954500D01*
X110491926Y-123451164D01*
X109659400Y-123451164D01*
X109494243Y-123954500D01*
X109152132Y-123954500D01*
X109395186Y-123163543D01*
X109746472Y-123163543D01*
X110409909Y-123163543D01*
X110122851Y-122233833D01*
X110072292Y-122047891D01*
X110027352Y-122231586D01*
X109746472Y-123163543D01*
X109395186Y-123163543D01*
X109914438Y-121473774D01*
X110263852Y-121473774D01*
X111030653Y-123954500D01*
G37*
G36*
X112796821Y-123892706D02*
G01*
X112758358Y-123904542D01*
X112720212Y-123915615D01*
X112682381Y-123925924D01*
X112644866Y-123935470D01*
X112607667Y-123944252D01*
X112570784Y-123952270D01*
X112534217Y-123959525D01*
X112497966Y-123966016D01*
X112462031Y-123971743D01*
X112426412Y-123976707D01*
X112391109Y-123980907D01*
X112356122Y-123984343D01*
X112321451Y-123987016D01*
X112287096Y-123988925D01*
X112253057Y-123990070D01*
X112219334Y-123990452D01*
X112185863Y-123989971D01*
X112152862Y-123988530D01*
X112120330Y-123986127D01*
X112088268Y-123982763D01*
X112056676Y-123978438D01*
X112025553Y-123973152D01*
X111994900Y-123966904D01*
X111964717Y-123959696D01*
X111935003Y-123951526D01*
X111905758Y-123942395D01*
X111876983Y-123932303D01*
X111848678Y-123921250D01*
X111820843Y-123909236D01*
X111793477Y-123896261D01*
X111766580Y-123882324D01*
X111740154Y-123867427D01*
X111714389Y-123851709D01*
X111689341Y-123835310D01*
X111665007Y-123818231D01*
X111641389Y-123800472D01*
X111618487Y-123782033D01*
X111596299Y-123762914D01*
X111574828Y-123743114D01*
X111554071Y-123722634D01*
X111534030Y-123701473D01*
X111514704Y-123679633D01*
X111496094Y-123657112D01*
X111478199Y-123633911D01*
X111461019Y-123610030D01*
X111444554Y-123585468D01*
X111428805Y-123560226D01*
X111413772Y-123534304D01*
X111399623Y-123507750D01*
X111386386Y-123480753D01*
X111374063Y-123453312D01*
X111362652Y-123425428D01*
X111352154Y-123397101D01*
X111342569Y-123368331D01*
X111333897Y-123339117D01*
X111326138Y-123309460D01*
X111319291Y-123279360D01*
X111313358Y-123248817D01*
X111308337Y-123217830D01*
X111304229Y-123186400D01*
X111301034Y-123154527D01*
X111298752Y-123122210D01*
X111297383Y-123089451D01*
X111296926Y-123056248D01*
X111297186Y-123031242D01*
X111297964Y-123006501D01*
X111299261Y-122982026D01*
X111301078Y-122957817D01*
X111303413Y-122933873D01*
X111306268Y-122910195D01*
X111309641Y-122886782D01*
X111313533Y-122863635D01*
X111317944Y-122840753D01*
X111322874Y-122818137D01*
X111328324Y-122795786D01*
X111334292Y-122773701D01*
X111340779Y-122751881D01*
X111347785Y-122730327D01*
X111355310Y-122709038D01*
X111363354Y-122688015D01*
X111380999Y-122646765D01*
X111400720Y-122606577D01*
X111422516Y-122567452D01*
X111446389Y-122529388D01*
X111459104Y-122510755D01*
X111472337Y-122492387D01*
X111486090Y-122474284D01*
X111500362Y-122456447D01*
X111515152Y-122438876D01*
X111530462Y-122421570D01*
X111546290Y-122404530D01*
X111562638Y-122387755D01*
X111579352Y-122371338D01*
X111596280Y-122355443D01*
X111613422Y-122340069D01*
X111630777Y-122325215D01*
X111648347Y-122310883D01*
X111666131Y-122297073D01*
X111702340Y-122271014D01*
X111739405Y-122247041D01*
X111777326Y-122225152D01*
X111816103Y-122205348D01*
X111855735Y-122187628D01*
X111896224Y-122171994D01*
X111937568Y-122158443D01*
X111979768Y-122146978D01*
X112022823Y-122137597D01*
X112066735Y-122130301D01*
X112111502Y-122125089D01*
X112134207Y-122123265D01*
X112157125Y-122121962D01*
X112180258Y-122121180D01*
X112203604Y-122120920D01*
X112238113Y-122121352D01*
X112272964Y-122122649D01*
X112308157Y-122124810D01*
X112343693Y-122127836D01*
X112379571Y-122131727D01*
X112415791Y-122136482D01*
X112452354Y-122142102D01*
X112489259Y-122148586D01*
X112526506Y-122155935D01*
X112564095Y-122164149D01*
X112602027Y-122173227D01*
X112640301Y-122183169D01*
X112678918Y-122193977D01*
X112717877Y-122205649D01*
X112757178Y-122218185D01*
X112796821Y-122231586D01*
X112796821Y-122557406D01*
X112756096Y-122539379D01*
X112716077Y-122522516D01*
X112676765Y-122506815D01*
X112638160Y-122492277D01*
X112600261Y-122478902D01*
X112563068Y-122466691D01*
X112526583Y-122455642D01*
X112490803Y-122445756D01*
X112455731Y-122437034D01*
X112421365Y-122429474D01*
X112387705Y-122423078D01*
X112354753Y-122417844D01*
X112322506Y-122413774D01*
X112290967Y-122410866D01*
X112260134Y-122409121D01*
X112230007Y-122408540D01*
X112200893Y-122409211D01*
X112172115Y-122411226D01*
X112143673Y-122414583D01*
X112115566Y-122419284D01*
X112087795Y-122425327D01*
X112060360Y-122432713D01*
X112033261Y-122441442D01*
X112006497Y-122451515D01*
X111980069Y-122462930D01*
X111953977Y-122475688D01*
X111936769Y-122484939D01*
X111911712Y-122499919D01*
X111887731Y-122516420D01*
X111864827Y-122534441D01*
X111842999Y-122553983D01*
X111822248Y-122575045D01*
X111802572Y-122597629D01*
X111783973Y-122621733D01*
X111766451Y-122647358D01*
X111750005Y-122674503D01*
X111734635Y-122703169D01*
X111724986Y-122723125D01*
X111711634Y-122753654D01*
X111699595Y-122784361D01*
X111688870Y-122815245D01*
X111679457Y-122846308D01*
X111671358Y-122877548D01*
X111664573Y-122908966D01*
X111659101Y-122940562D01*
X111654942Y-122972335D01*
X111652096Y-123004286D01*
X111650564Y-123036415D01*
X111650272Y-123057933D01*
X111650836Y-123086567D01*
X111652528Y-123115030D01*
X111655348Y-123143322D01*
X111659295Y-123171443D01*
X111664371Y-123199393D01*
X111670575Y-123227171D01*
X111677906Y-123254779D01*
X111686365Y-123282215D01*
X111695952Y-123309480D01*
X111706667Y-123336574D01*
X111718511Y-123363497D01*
X111731481Y-123390248D01*
X111745580Y-123416829D01*
X111760807Y-123443238D01*
X111777162Y-123469476D01*
X111794644Y-123495543D01*
X111813331Y-123520644D01*
X111833300Y-123544126D01*
X111854550Y-123565989D01*
X111877082Y-123586232D01*
X111900896Y-123604855D01*
X111925990Y-123621859D01*
X111952367Y-123637244D01*
X111980024Y-123651009D01*
X112008964Y-123663155D01*
X112039185Y-123673682D01*
X112070687Y-123682589D01*
X112103471Y-123689876D01*
X112137536Y-123695544D01*
X112172883Y-123699593D01*
X112209512Y-123702022D01*
X112247422Y-123702832D01*
X112270972Y-123702630D01*
X112294434Y-123702024D01*
X112317808Y-123701015D01*
X112341095Y-123699602D01*
X112364294Y-123697785D01*
X112387405Y-123695564D01*
X112410428Y-123692939D01*
X112433364Y-123689911D01*
X112459073Y-123685443D01*
X112482053Y-123680468D01*
X112508203Y-123674101D01*
X112537522Y-123666341D01*
X112570011Y-123657189D01*
X112593432Y-123650314D01*
X112618261Y-123642820D01*
X112644499Y-123634707D01*
X112672146Y-123625976D01*
X112701202Y-123616626D01*
X112731666Y-123606657D01*
X112763539Y-123596069D01*
X112796821Y-123584862D01*
X112796821Y-123892706D01*
G37*
G36*
X114719721Y-123860686D02*
G01*
X114692822Y-123872250D01*
X114666898Y-123883209D01*
X114641948Y-123893562D01*
X114617972Y-123903309D01*
X114594971Y-123912451D01*
X114572944Y-123920987D01*
X114551891Y-123928918D01*
X114522139Y-123939678D01*
X114494579Y-123949075D01*
X114469211Y-123957110D01*
X114446035Y-123963782D01*
X114418544Y-123970558D01*
X114406260Y-123973038D01*
X114382762Y-123977119D01*
X114359458Y-123980656D01*
X114336347Y-123983650D01*
X114313429Y-123986098D01*
X114290704Y-123988003D01*
X114268172Y-123989364D01*
X114240279Y-123990299D01*
X114223688Y-123990452D01*
X114200353Y-123990171D01*
X114177255Y-123989329D01*
X114154394Y-123987924D01*
X114131770Y-123985958D01*
X114109383Y-123983430D01*
X114076247Y-123978585D01*
X114043645Y-123972476D01*
X114011575Y-123965103D01*
X113980039Y-123956466D01*
X113949035Y-123946565D01*
X113918565Y-123935400D01*
X113888629Y-123922971D01*
X113878768Y-123918547D01*
X113850053Y-123904352D01*
X113822680Y-123888943D01*
X113796651Y-123872319D01*
X113771964Y-123854480D01*
X113748620Y-123835427D01*
X113726620Y-123815159D01*
X113705962Y-123793677D01*
X113686647Y-123770980D01*
X113668675Y-123747069D01*
X113652046Y-123721942D01*
X113641706Y-123704517D01*
X113627350Y-123676560D01*
X113614406Y-123645987D01*
X113606561Y-123624150D01*
X113599344Y-123601151D01*
X113592754Y-123576989D01*
X113586792Y-123551664D01*
X113581458Y-123525176D01*
X113576751Y-123497524D01*
X113572671Y-123468710D01*
X113569220Y-123438733D01*
X113566396Y-123407592D01*
X113564199Y-123375289D01*
X113562630Y-123341823D01*
X113561689Y-123307193D01*
X113561375Y-123271401D01*
X113561375Y-122588303D01*
X113122641Y-122588303D01*
X113122641Y-122300682D01*
X113561375Y-122300682D01*
X113561375Y-121617584D01*
X113889442Y-121617584D01*
X113889442Y-122300682D01*
X114670848Y-122300682D01*
X114670848Y-122588303D01*
X113889442Y-122588303D01*
X113889442Y-123260728D01*
X113889628Y-123285671D01*
X113890188Y-123309662D01*
X113891120Y-123332701D01*
X113893219Y-123365473D01*
X113896157Y-123396103D01*
X113899934Y-123424589D01*
X113904550Y-123450933D01*
X113910006Y-123475135D01*
X113916301Y-123497193D01*
X113926000Y-123523271D01*
X113937191Y-123545539D01*
X113949629Y-123565095D01*
X113963067Y-123583318D01*
X113981272Y-123604219D01*
X114001041Y-123623036D01*
X114022373Y-123639768D01*
X114045268Y-123654415D01*
X114064710Y-123664632D01*
X114090393Y-123675637D01*
X114112025Y-123683098D01*
X114134623Y-123689365D01*
X114158186Y-123694438D01*
X114182714Y-123698318D01*
X114208208Y-123701004D01*
X114234668Y-123702496D01*
X114255147Y-123702832D01*
X114281319Y-123702268D01*
X114307873Y-123700576D01*
X114334809Y-123697756D01*
X114362126Y-123693808D01*
X114389826Y-123688733D01*
X114417907Y-123682529D01*
X114446371Y-123675198D01*
X114475216Y-123666739D01*
X114504442Y-123657151D01*
X114534051Y-123646436D01*
X114564041Y-123634593D01*
X114594414Y-123621622D01*
X114625168Y-123607524D01*
X114656304Y-123592297D01*
X114687821Y-123575942D01*
X114719721Y-123558460D01*
X114719721Y-123860686D01*
G37*
G36*
X116628576Y-122156872D02*
G01*
X116628576Y-123954500D01*
X116299948Y-123954500D01*
X116299948Y-123612950D01*
X116285855Y-123633231D01*
X116271245Y-123653063D01*
X116256117Y-123672448D01*
X116240472Y-123691386D01*
X116224308Y-123709876D01*
X116207626Y-123727918D01*
X116190427Y-123745512D01*
X116172709Y-123762659D01*
X116154474Y-123779358D01*
X116135721Y-123795610D01*
X116116450Y-123811413D01*
X116096661Y-123826770D01*
X116076355Y-123841678D01*
X116055530Y-123856139D01*
X116034188Y-123870152D01*
X116012327Y-123883718D01*
X115990206Y-123896643D01*
X115968080Y-123908734D01*
X115945950Y-123919991D01*
X115923815Y-123930414D01*
X115901676Y-123940003D01*
X115879533Y-123948759D01*
X115857385Y-123956681D01*
X115835233Y-123963769D01*
X115813076Y-123970022D01*
X115790915Y-123975443D01*
X115768750Y-123980029D01*
X115746580Y-123983781D01*
X115713318Y-123987846D01*
X115680045Y-123990035D01*
X115657858Y-123990452D01*
X115628176Y-123989702D01*
X115598959Y-123987450D01*
X115570205Y-123983698D01*
X115541916Y-123978444D01*
X115514091Y-123971690D01*
X115486730Y-123963435D01*
X115459833Y-123953679D01*
X115433400Y-123942422D01*
X115407431Y-123929664D01*
X115381927Y-123915405D01*
X115365181Y-123905065D01*
X115341030Y-123888595D01*
X115318290Y-123871208D01*
X115296962Y-123852902D01*
X115277047Y-123833678D01*
X115258543Y-123813535D01*
X115241452Y-123792474D01*
X115225773Y-123770494D01*
X115211505Y-123747597D01*
X115198650Y-123723781D01*
X115187207Y-123699046D01*
X115180363Y-123682047D01*
X115171127Y-123653904D01*
X115162799Y-123621298D01*
X115157752Y-123597081D01*
X115153109Y-123570880D01*
X115148869Y-123542695D01*
X115145034Y-123512527D01*
X115141602Y-123480375D01*
X115138573Y-123446240D01*
X115135949Y-123410120D01*
X115133728Y-123372017D01*
X115131911Y-123331931D01*
X115130498Y-123289860D01*
X115129489Y-123245806D01*
X115129135Y-123223035D01*
X115128883Y-123199768D01*
X115128732Y-123176005D01*
X115128681Y-123151747D01*
X115128681Y-122156872D01*
X115457310Y-122156872D01*
X115457310Y-123198372D01*
X115457400Y-123229219D01*
X115457670Y-123258700D01*
X115458120Y-123286817D01*
X115458749Y-123313568D01*
X115459559Y-123338955D01*
X115460549Y-123362977D01*
X115461718Y-123385633D01*
X115463810Y-123417060D01*
X115466307Y-123445415D01*
X115469208Y-123470699D01*
X115473707Y-123499634D01*
X115478925Y-123523109D01*
X115480342Y-123528125D01*
X115488607Y-123551651D01*
X115498654Y-123573779D01*
X115510484Y-123594507D01*
X115524098Y-123613837D01*
X115539494Y-123631768D01*
X115556673Y-123648299D01*
X115564044Y-123654520D01*
X115583209Y-123668438D01*
X115602786Y-123679997D01*
X115626821Y-123690754D01*
X115651448Y-123698114D01*
X115676668Y-123702077D01*
X115693810Y-123702832D01*
X115721634Y-123701573D01*
X115749911Y-123697796D01*
X115778643Y-123691500D01*
X115807830Y-123682687D01*
X115837470Y-123671356D01*
X115867565Y-123657507D01*
X115887880Y-123646875D01*
X115908398Y-123635124D01*
X115929117Y-123622254D01*
X115950038Y-123608265D01*
X115971161Y-123593157D01*
X115992486Y-123576930D01*
X116014013Y-123559583D01*
X116035471Y-123541394D01*
X116056452Y-123522639D01*
X116076954Y-123503317D01*
X116096977Y-123483430D01*
X116116523Y-123462976D01*
X116135589Y-123441956D01*
X116154178Y-123420370D01*
X116172288Y-123398218D01*
X116189920Y-123375500D01*
X116207073Y-123352215D01*
X116223748Y-123328365D01*
X116239945Y-123303948D01*
X116255663Y-123278965D01*
X116270903Y-123253416D01*
X116285665Y-123227301D01*
X116299948Y-123200620D01*
X116299948Y-122156872D01*
X116628576Y-122156872D01*
G37*
G36*
X117953546Y-122121523D02*
G01*
X117979312Y-122122875D01*
X118007764Y-122124999D01*
X118030866Y-122127099D01*
X118055479Y-122129633D01*
X118081602Y-122132602D01*
X118109236Y-122136006D01*
X118138382Y-122139844D01*
X118169037Y-122144116D01*
X118179592Y-122145637D01*
X118201790Y-122149324D01*
X118225237Y-122152878D01*
X118250185Y-122156453D01*
X118253182Y-122156872D01*
X118564396Y-122156872D01*
X118564396Y-123430941D01*
X118564682Y-123469127D01*
X118565537Y-123506585D01*
X118566964Y-123543314D01*
X118568961Y-123579315D01*
X118571528Y-123614587D01*
X118574666Y-123649131D01*
X118578375Y-123682946D01*
X118582654Y-123716033D01*
X118587503Y-123748391D01*
X118592923Y-123780021D01*
X118598914Y-123810922D01*
X118605475Y-123841094D01*
X118612607Y-123870539D01*
X118620309Y-123899254D01*
X118628582Y-123927241D01*
X118637425Y-123954500D01*
X118293067Y-123954500D01*
X118286002Y-123924581D01*
X118279341Y-123894020D01*
X118273086Y-123862818D01*
X118267235Y-123830974D01*
X118261789Y-123798488D01*
X118256748Y-123765360D01*
X118253612Y-123742918D01*
X118250656Y-123720191D01*
X118247881Y-123697179D01*
X118245285Y-123673881D01*
X118242869Y-123650298D01*
X118240633Y-123626430D01*
X118238576Y-123602277D01*
X118224833Y-123623248D01*
X118210427Y-123643750D01*
X118195358Y-123663783D01*
X118179627Y-123683346D01*
X118163233Y-123702439D01*
X118146176Y-123721062D01*
X118128456Y-123739217D01*
X118110074Y-123756901D01*
X118091029Y-123774116D01*
X118071322Y-123790861D01*
X118050951Y-123807137D01*
X118029918Y-123822943D01*
X118008223Y-123838279D01*
X117985864Y-123853146D01*
X117962843Y-123867543D01*
X117939159Y-123881471D01*
X117915262Y-123894668D01*
X117891603Y-123907013D01*
X117868180Y-123918507D01*
X117844994Y-123929150D01*
X117822046Y-123938941D01*
X117799334Y-123947881D01*
X117776859Y-123955970D01*
X117754621Y-123963207D01*
X117732621Y-123969592D01*
X117700064Y-123977574D01*
X117668040Y-123983641D01*
X117636550Y-123987791D01*
X117605593Y-123990026D01*
X117585251Y-123990452D01*
X117556929Y-123989686D01*
X117528979Y-123987389D01*
X117501402Y-123983560D01*
X117474199Y-123978199D01*
X117447368Y-123971306D01*
X117420911Y-123962882D01*
X117394826Y-123952926D01*
X117369115Y-123941439D01*
X117343776Y-123928419D01*
X117318811Y-123913869D01*
X117294219Y-123897786D01*
X117269999Y-123880172D01*
X117246153Y-123861026D01*
X117222680Y-123840348D01*
X117199580Y-123818139D01*
X117176853Y-123794398D01*
X117155017Y-123769051D01*
X117134589Y-123742164D01*
X117115571Y-123713735D01*
X117097961Y-123683767D01*
X117081760Y-123652258D01*
X117066968Y-123619209D01*
X117053584Y-123584619D01*
X117041609Y-123548489D01*
X117031044Y-123510818D01*
X117021886Y-123471607D01*
X117014138Y-123430855D01*
X117007799Y-123388563D01*
X117002868Y-123344730D01*
X117000931Y-123322236D01*
X116999346Y-123299357D01*
X116998113Y-123276093D01*
X116997233Y-123252444D01*
X116996704Y-123228410D01*
X116996528Y-123203990D01*
X116996771Y-123183767D01*
X117350436Y-123183767D01*
X117350803Y-123215835D01*
X117351902Y-123246877D01*
X117353734Y-123276891D01*
X117356300Y-123305879D01*
X117359598Y-123333840D01*
X117363629Y-123360773D01*
X117368393Y-123386680D01*
X117373890Y-123411560D01*
X117380119Y-123435413D01*
X117387082Y-123458238D01*
X117394778Y-123480037D01*
X117407696Y-123510810D01*
X117422262Y-123539272D01*
X117438478Y-123565424D01*
X117444250Y-123573627D01*
X117462042Y-123596717D01*
X117480240Y-123617537D01*
X117498842Y-123636084D01*
X117517849Y-123652361D01*
X117537261Y-123666367D01*
X117557078Y-123678101D01*
X117584130Y-123690214D01*
X117611902Y-123698289D01*
X117640394Y-123702327D01*
X117654909Y-123702832D01*
X117679517Y-123701622D01*
X117704678Y-123697993D01*
X117730391Y-123691945D01*
X117756658Y-123683477D01*
X117783477Y-123672591D01*
X117810850Y-123659284D01*
X117838776Y-123643559D01*
X117867254Y-123625414D01*
X117886547Y-123611974D01*
X117906086Y-123597458D01*
X117925870Y-123581867D01*
X117945900Y-123565201D01*
X117965985Y-123547562D01*
X117985794Y-123529196D01*
X118005326Y-123510100D01*
X118024582Y-123490276D01*
X118043561Y-123469724D01*
X118062263Y-123448443D01*
X118080689Y-123426433D01*
X118098839Y-123403695D01*
X118116712Y-123380229D01*
X118134309Y-123356034D01*
X118151629Y-123331110D01*
X118168673Y-123305458D01*
X118185440Y-123279077D01*
X118201930Y-123251968D01*
X118218145Y-123224130D01*
X118234082Y-123195564D01*
X118234082Y-122446178D01*
X118207929Y-122439452D01*
X118181924Y-122433387D01*
X118156068Y-122427984D01*
X118130359Y-122423242D01*
X118104798Y-122419162D01*
X118079386Y-122415744D01*
X118054122Y-122412987D01*
X118029005Y-122410892D01*
X118004037Y-122409459D01*
X117979217Y-122408687D01*
X117962753Y-122408540D01*
X117930369Y-122409352D01*
X117898660Y-122411788D01*
X117867627Y-122415847D01*
X117837270Y-122421531D01*
X117807589Y-122428838D01*
X117778584Y-122437769D01*
X117750255Y-122448324D01*
X117722601Y-122460503D01*
X117695624Y-122474305D01*
X117669322Y-122489732D01*
X117643696Y-122506782D01*
X117618746Y-122525456D01*
X117594472Y-122545754D01*
X117570874Y-122567676D01*
X117547951Y-122591221D01*
X117525705Y-122616391D01*
X117504481Y-122642899D01*
X117484626Y-122670600D01*
X117466141Y-122699496D01*
X117449025Y-122729585D01*
X117433278Y-122760868D01*
X117418901Y-122793345D01*
X117405892Y-122827015D01*
X117394253Y-122861879D01*
X117383984Y-122897937D01*
X117375083Y-122935189D01*
X117367552Y-122973634D01*
X117361390Y-123013273D01*
X117356598Y-123054106D01*
X117353175Y-123096132D01*
X117351121Y-123139353D01*
X117350436Y-123183767D01*
X116996771Y-123183767D01*
X116996989Y-123165554D01*
X116998372Y-123127626D01*
X117000676Y-123090208D01*
X117003901Y-123053298D01*
X117008049Y-123016898D01*
X117013118Y-122981007D01*
X117019108Y-122945625D01*
X117026021Y-122910752D01*
X117033855Y-122876388D01*
X117042610Y-122842534D01*
X117052287Y-122809188D01*
X117062886Y-122776351D01*
X117074406Y-122744024D01*
X117086849Y-122712206D01*
X117100212Y-122680896D01*
X117114498Y-122650096D01*
X117129628Y-122619950D01*
X117145386Y-122590602D01*
X117161771Y-122562054D01*
X117178784Y-122534304D01*
X117196424Y-122507352D01*
X117214693Y-122481200D01*
X117233588Y-122455846D01*
X117253112Y-122431291D01*
X117273262Y-122407535D01*
X117294041Y-122384577D01*
X117315447Y-122362419D01*
X117337481Y-122341059D01*
X117360142Y-122320497D01*
X117383431Y-122300735D01*
X117407347Y-122281771D01*
X117431891Y-122263606D01*
X117457188Y-122246328D01*
X117483222Y-122230164D01*
X117509993Y-122215115D01*
X117537502Y-122201181D01*
X117565748Y-122188361D01*
X117594731Y-122176657D01*
X117624451Y-122166067D01*
X117654909Y-122156591D01*
X117686104Y-122148231D01*
X117718037Y-122140985D01*
X117750707Y-122134854D01*
X117784114Y-122129838D01*
X117818258Y-122125936D01*
X117853140Y-122123149D01*
X117888759Y-122121477D01*
X117925115Y-122120920D01*
X117953546Y-122121523D01*
G37*
G36*
X120517069Y-123860686D02*
G01*
X120490171Y-123872250D01*
X120464246Y-123883209D01*
X120439296Y-123893562D01*
X120415321Y-123903309D01*
X120392319Y-123912451D01*
X120370292Y-123920987D01*
X120349239Y-123928918D01*
X120319487Y-123939678D01*
X120291927Y-123949075D01*
X120266559Y-123957110D01*
X120243383Y-123963782D01*
X120215892Y-123970558D01*
X120203608Y-123973038D01*
X120180111Y-123977119D01*
X120156806Y-123980656D01*
X120133695Y-123983650D01*
X120110777Y-123986098D01*
X120088052Y-123988003D01*
X120065521Y-123989364D01*
X120037627Y-123990299D01*
X120021036Y-123990452D01*
X119997701Y-123990171D01*
X119974603Y-123989329D01*
X119951743Y-123987924D01*
X119929119Y-123985958D01*
X119906732Y-123983430D01*
X119873596Y-123978585D01*
X119840993Y-123972476D01*
X119808923Y-123965103D01*
X119777387Y-123956466D01*
X119746384Y-123946565D01*
X119715914Y-123935400D01*
X119685977Y-123922971D01*
X119676117Y-123918547D01*
X119647401Y-123904352D01*
X119620029Y-123888943D01*
X119593999Y-123872319D01*
X119569312Y-123854480D01*
X119545969Y-123835427D01*
X119523968Y-123815159D01*
X119503310Y-123793677D01*
X119483995Y-123770980D01*
X119466023Y-123747069D01*
X119449394Y-123721942D01*
X119439054Y-123704517D01*
X119424698Y-123676560D01*
X119411754Y-123645987D01*
X119403909Y-123624150D01*
X119396692Y-123601151D01*
X119390102Y-123576989D01*
X119384140Y-123551664D01*
X119378806Y-123525176D01*
X119374099Y-123497524D01*
X119370020Y-123468710D01*
X119366568Y-123438733D01*
X119363744Y-123407592D01*
X119361547Y-123375289D01*
X119359978Y-123341823D01*
X119359037Y-123307193D01*
X119358723Y-123271401D01*
X119358723Y-122588303D01*
X118919990Y-122588303D01*
X118919990Y-122300682D01*
X119358723Y-122300682D01*
X119358723Y-121617584D01*
X119686790Y-121617584D01*
X119686790Y-122300682D01*
X120468196Y-122300682D01*
X120468196Y-122588303D01*
X119686790Y-122588303D01*
X119686790Y-123260728D01*
X119686977Y-123285671D01*
X119687536Y-123309662D01*
X119688469Y-123332701D01*
X119690567Y-123365473D01*
X119693505Y-123396103D01*
X119697282Y-123424589D01*
X119701898Y-123450933D01*
X119707354Y-123475135D01*
X119713649Y-123497193D01*
X119723348Y-123523271D01*
X119734539Y-123545539D01*
X119746977Y-123565095D01*
X119760415Y-123583318D01*
X119778621Y-123604219D01*
X119798389Y-123623036D01*
X119819721Y-123639768D01*
X119842617Y-123654415D01*
X119862059Y-123664632D01*
X119887741Y-123675637D01*
X119909373Y-123683098D01*
X119931971Y-123689365D01*
X119955534Y-123694438D01*
X119980063Y-123698318D01*
X120005557Y-123701004D01*
X120032016Y-123702496D01*
X120052495Y-123702832D01*
X120078667Y-123702268D01*
X120105221Y-123700576D01*
X120132157Y-123697756D01*
X120159475Y-123693808D01*
X120187174Y-123688733D01*
X120215256Y-123682529D01*
X120243719Y-123675198D01*
X120272564Y-123666739D01*
X120301791Y-123657151D01*
X120331399Y-123646436D01*
X120361390Y-123634593D01*
X120391762Y-123621622D01*
X120422516Y-123607524D01*
X120453652Y-123592297D01*
X120485170Y-123575942D01*
X120517069Y-123558460D01*
X120517069Y-123860686D01*
G37*
G36*
X121437230Y-123954500D02*
G01*
X121437230Y-122444493D01*
X120949623Y-122444493D01*
X120949623Y-122156872D01*
X121765297Y-122156872D01*
X121765297Y-123666879D01*
X122254588Y-123666879D01*
X122254588Y-123954500D01*
X121437230Y-123954500D01*
G37*
G36*
X121388357Y-121546241D02*
G01*
X121389506Y-121519864D01*
X121392956Y-121495226D01*
X121398705Y-121472325D01*
X121406754Y-121451163D01*
X121420049Y-121427154D01*
X121436938Y-121405860D01*
X121457419Y-121387282D01*
X121461947Y-121383892D01*
X121484900Y-121368356D01*
X121507414Y-121355453D01*
X121529490Y-121345184D01*
X121551126Y-121337547D01*
X121576511Y-121331859D01*
X121601263Y-121329964D01*
X121626569Y-121331859D01*
X121652348Y-121337547D01*
X121674193Y-121345184D01*
X121696367Y-121355453D01*
X121718870Y-121368356D01*
X121741703Y-121383892D01*
X121763065Y-121401927D01*
X121780806Y-121422678D01*
X121794927Y-121446144D01*
X121803617Y-121466872D01*
X121809989Y-121489338D01*
X121814045Y-121513542D01*
X121815782Y-121539484D01*
X121815855Y-121546241D01*
X121814696Y-121572362D01*
X121811220Y-121596799D01*
X121805427Y-121619550D01*
X121797317Y-121640616D01*
X121783920Y-121664579D01*
X121766903Y-121685908D01*
X121746265Y-121704604D01*
X121741703Y-121708027D01*
X121718870Y-121723401D01*
X121696367Y-121736170D01*
X121674193Y-121746333D01*
X121652348Y-121753889D01*
X121626569Y-121759518D01*
X121601263Y-121761394D01*
X121576511Y-121759518D01*
X121551126Y-121753889D01*
X121529490Y-121746333D01*
X121507414Y-121736170D01*
X121484900Y-121723401D01*
X121461947Y-121708027D01*
X121440747Y-121689858D01*
X121423140Y-121669055D01*
X121409126Y-121645619D01*
X121398705Y-121619550D01*
X121392956Y-121596799D01*
X121389506Y-121572362D01*
X121388357Y-121546241D01*
G37*
G36*
X123642403Y-122121179D02*
G01*
X123665969Y-122121958D01*
X123689236Y-122123255D01*
X123712203Y-122125071D01*
X123734870Y-122127407D01*
X123757238Y-122130261D01*
X123801075Y-122137527D01*
X123843713Y-122146868D01*
X123885154Y-122158285D01*
X123925396Y-122171778D01*
X123964441Y-122187348D01*
X124002287Y-122204992D01*
X124038935Y-122224713D01*
X124074385Y-122246510D01*
X124108637Y-122270382D01*
X124141691Y-122296331D01*
X124173547Y-122324355D01*
X124204204Y-122354455D01*
X124233664Y-122386631D01*
X124261690Y-122420315D01*
X124287909Y-122455078D01*
X124312319Y-122490921D01*
X124334921Y-122527843D01*
X124355715Y-122565846D01*
X124374700Y-122604927D01*
X124391878Y-122645089D01*
X124407247Y-122686330D01*
X124420808Y-122728650D01*
X124432561Y-122772050D01*
X124437760Y-122794155D01*
X124442506Y-122816530D01*
X124446801Y-122839175D01*
X124450643Y-122862090D01*
X124454033Y-122885274D01*
X124456971Y-122908729D01*
X124459458Y-122932453D01*
X124461492Y-122956448D01*
X124463074Y-122980712D01*
X124464204Y-123005246D01*
X124464882Y-123030050D01*
X124465108Y-123055124D01*
X124464882Y-123080199D01*
X124464204Y-123105006D01*
X124463074Y-123129546D01*
X124461492Y-123153818D01*
X124459458Y-123177822D01*
X124456971Y-123201559D01*
X124454033Y-123225027D01*
X124450643Y-123248229D01*
X124446801Y-123271162D01*
X124442506Y-123293828D01*
X124437760Y-123316225D01*
X124432561Y-123338356D01*
X124426911Y-123360218D01*
X124414254Y-123403140D01*
X124399788Y-123444991D01*
X124383515Y-123485771D01*
X124365433Y-123525481D01*
X124345544Y-123564119D01*
X124323846Y-123601687D01*
X124300340Y-123638183D01*
X124275025Y-123673609D01*
X124247903Y-123707964D01*
X124233664Y-123724740D01*
X124204204Y-123756916D01*
X124173547Y-123787016D01*
X124141691Y-123815041D01*
X124108637Y-123840989D01*
X124074385Y-123864862D01*
X124038935Y-123886658D01*
X124002287Y-123906379D01*
X123964441Y-123924024D01*
X123925396Y-123939593D01*
X123885154Y-123953086D01*
X123843713Y-123964504D01*
X123801075Y-123973845D01*
X123757238Y-123981111D01*
X123734870Y-123983965D01*
X123712203Y-123986300D01*
X123689236Y-123988117D01*
X123665969Y-123989414D01*
X123642403Y-123990193D01*
X123618538Y-123990452D01*
X123594568Y-123990193D01*
X123570901Y-123989414D01*
X123547534Y-123988117D01*
X123524470Y-123986300D01*
X123501707Y-123983965D01*
X123479246Y-123981111D01*
X123435229Y-123973845D01*
X123392419Y-123964504D01*
X123350816Y-123953086D01*
X123310420Y-123939593D01*
X123271231Y-123924024D01*
X123233249Y-123906379D01*
X123196473Y-123886658D01*
X123160905Y-123864862D01*
X123126543Y-123840989D01*
X123093388Y-123815041D01*
X123061440Y-123787016D01*
X123030699Y-123756916D01*
X123001165Y-123724740D01*
X122973207Y-123690921D01*
X122947052Y-123656030D01*
X122922701Y-123620069D01*
X122900154Y-123583037D01*
X122879411Y-123544934D01*
X122860471Y-123505760D01*
X122843335Y-123465515D01*
X122828003Y-123424199D01*
X122814475Y-123381813D01*
X122802751Y-123338356D01*
X122797565Y-123316225D01*
X122792830Y-123293828D01*
X122788546Y-123271162D01*
X122784713Y-123248229D01*
X122781331Y-123225027D01*
X122778400Y-123201559D01*
X122775919Y-123177822D01*
X122773890Y-123153818D01*
X122772312Y-123129546D01*
X122771185Y-123105006D01*
X122770508Y-123080199D01*
X122770283Y-123055124D01*
X123124191Y-123055124D01*
X123124713Y-123092665D01*
X123126280Y-123129171D01*
X123128891Y-123164641D01*
X123132547Y-123199075D01*
X123137247Y-123232473D01*
X123142992Y-123264836D01*
X123149781Y-123296162D01*
X123157615Y-123326453D01*
X123166494Y-123355709D01*
X123176417Y-123383928D01*
X123187384Y-123411112D01*
X123199396Y-123437260D01*
X123212452Y-123462373D01*
X123226554Y-123486449D01*
X123241699Y-123509490D01*
X123257889Y-123531495D01*
X123275032Y-123552243D01*
X123292894Y-123571652D01*
X123311476Y-123589723D01*
X123330777Y-123606455D01*
X123350799Y-123621848D01*
X123371540Y-123635903D01*
X123393001Y-123648620D01*
X123415181Y-123659998D01*
X123438082Y-123670037D01*
X123461702Y-123678737D01*
X123486042Y-123686100D01*
X123511102Y-123692123D01*
X123536881Y-123696808D01*
X123563380Y-123700155D01*
X123590599Y-123702162D01*
X123618538Y-123702832D01*
X123646339Y-123702162D01*
X123673424Y-123700155D01*
X123699793Y-123696808D01*
X123725448Y-123692123D01*
X123750387Y-123686100D01*
X123774610Y-123678737D01*
X123798119Y-123670037D01*
X123820912Y-123659998D01*
X123842989Y-123648620D01*
X123864351Y-123635903D01*
X123884998Y-123621848D01*
X123904930Y-123606455D01*
X123924146Y-123589723D01*
X123942646Y-123571652D01*
X123960432Y-123552243D01*
X123977502Y-123531495D01*
X123993760Y-123509490D01*
X124008969Y-123486449D01*
X124023129Y-123462373D01*
X124036241Y-123437260D01*
X124048303Y-123411112D01*
X124059317Y-123383928D01*
X124069281Y-123355709D01*
X124078197Y-123326453D01*
X124086064Y-123296162D01*
X124092882Y-123264836D01*
X124098651Y-123232473D01*
X124103371Y-123199075D01*
X124107042Y-123164641D01*
X124109664Y-123129171D01*
X124111238Y-123092665D01*
X124111762Y-123055124D01*
X124111238Y-123017721D01*
X124109664Y-122981349D01*
X124107042Y-122946009D01*
X124103371Y-122911700D01*
X124098651Y-122878422D01*
X124092882Y-122846176D01*
X124086064Y-122814961D01*
X124078197Y-122784778D01*
X124069281Y-122755626D01*
X124059317Y-122727505D01*
X124048303Y-122700415D01*
X124036241Y-122674357D01*
X124023129Y-122649330D01*
X124008969Y-122625335D01*
X123993760Y-122602371D01*
X123977502Y-122580438D01*
X123960432Y-122559622D01*
X123942646Y-122540149D01*
X123924146Y-122522020D01*
X123904930Y-122505233D01*
X123884998Y-122489789D01*
X123864351Y-122475688D01*
X123842989Y-122462930D01*
X123820912Y-122451515D01*
X123798119Y-122441442D01*
X123774610Y-122432713D01*
X123750387Y-122425327D01*
X123725448Y-122419284D01*
X123699793Y-122414583D01*
X123673424Y-122411226D01*
X123646339Y-122409211D01*
X123618538Y-122408540D01*
X123590599Y-122409211D01*
X123563380Y-122411226D01*
X123536881Y-122414583D01*
X123511102Y-122419284D01*
X123486042Y-122425327D01*
X123461702Y-122432713D01*
X123438082Y-122441442D01*
X123415181Y-122451515D01*
X123393001Y-122462930D01*
X123371540Y-122475688D01*
X123350799Y-122489789D01*
X123330777Y-122505233D01*
X123311476Y-122522020D01*
X123292894Y-122540149D01*
X123275032Y-122559622D01*
X123257889Y-122580438D01*
X123241699Y-122602371D01*
X123226554Y-122625335D01*
X123212452Y-122649330D01*
X123199396Y-122674357D01*
X123187384Y-122700415D01*
X123176417Y-122727505D01*
X123166494Y-122755626D01*
X123157615Y-122784778D01*
X123149781Y-122814961D01*
X123142992Y-122846176D01*
X123137247Y-122878422D01*
X123132547Y-122911700D01*
X123128891Y-122946009D01*
X123126280Y-122981349D01*
X123124713Y-123017721D01*
X123124191Y-123055124D01*
X122770283Y-123055124D01*
X122770508Y-123030050D01*
X122771185Y-123005246D01*
X122772312Y-122980712D01*
X122773890Y-122956448D01*
X122775919Y-122932453D01*
X122778400Y-122908729D01*
X122781331Y-122885274D01*
X122784713Y-122862090D01*
X122788546Y-122839175D01*
X122792830Y-122816530D01*
X122797565Y-122794155D01*
X122802751Y-122772050D01*
X122808387Y-122750215D01*
X122821014Y-122707355D01*
X122835444Y-122665574D01*
X122851678Y-122624873D01*
X122869716Y-122585251D01*
X122889557Y-122546710D01*
X122911202Y-122509247D01*
X122934651Y-122472865D01*
X122959904Y-122437562D01*
X122986961Y-122403338D01*
X123001165Y-122386631D01*
X123030699Y-122354455D01*
X123061440Y-122324355D01*
X123093388Y-122296331D01*
X123126543Y-122270382D01*
X123160905Y-122246510D01*
X123196473Y-122224713D01*
X123233249Y-122204992D01*
X123271231Y-122187348D01*
X123310420Y-122171778D01*
X123350816Y-122158285D01*
X123392419Y-122146868D01*
X123435229Y-122137527D01*
X123479246Y-122130261D01*
X123501707Y-122127407D01*
X123524470Y-122125071D01*
X123547534Y-122123255D01*
X123570901Y-122121958D01*
X123594568Y-122121179D01*
X123618538Y-122120920D01*
X123642403Y-122121179D01*
G37*
G36*
X124810028Y-123954500D02*
G01*
X124810028Y-122156872D01*
X125138095Y-122156872D01*
X125138095Y-122493927D01*
X125156656Y-122466632D01*
X125176738Y-122439939D01*
X125190970Y-122422479D01*
X125205879Y-122405286D01*
X125221463Y-122388361D01*
X125237724Y-122371703D01*
X125254660Y-122355313D01*
X125272272Y-122339191D01*
X125290560Y-122323337D01*
X125309523Y-122307750D01*
X125329163Y-122292432D01*
X125349479Y-122277380D01*
X125370470Y-122262597D01*
X125392137Y-122248081D01*
X125414480Y-122233833D01*
X125437234Y-122220160D01*
X125459991Y-122207369D01*
X125482754Y-122195460D01*
X125505520Y-122184433D01*
X125528291Y-122174289D01*
X125551066Y-122165026D01*
X125573846Y-122156646D01*
X125596630Y-122149148D01*
X125619419Y-122142532D01*
X125642212Y-122136798D01*
X125665009Y-122131946D01*
X125687811Y-122127977D01*
X125710617Y-122124889D01*
X125733427Y-122122684D01*
X125756242Y-122121361D01*
X125779061Y-122120920D01*
X125808934Y-122121670D01*
X125838303Y-122123921D01*
X125867168Y-122127674D01*
X125895530Y-122132927D01*
X125923388Y-122139681D01*
X125950742Y-122147937D01*
X125977593Y-122157693D01*
X126003940Y-122168950D01*
X126029784Y-122181708D01*
X126055124Y-122195967D01*
X126071738Y-122206307D01*
X126095894Y-122222776D01*
X126118649Y-122240164D01*
X126140001Y-122258470D01*
X126159951Y-122277694D01*
X126178499Y-122297837D01*
X126195645Y-122318898D01*
X126211388Y-122340877D01*
X126225730Y-122363775D01*
X126238669Y-122387591D01*
X126250206Y-122412325D01*
X126257118Y-122429325D01*
X126266555Y-122457277D01*
X126275064Y-122489732D01*
X126280220Y-122513870D01*
X126284965Y-122540009D01*
X126289296Y-122568150D01*
X126293215Y-122598291D01*
X126296722Y-122630435D01*
X126299816Y-122664579D01*
X126302498Y-122700725D01*
X126304767Y-122738872D01*
X126306623Y-122779020D01*
X126308067Y-122821169D01*
X126309098Y-122865320D01*
X126309459Y-122888146D01*
X126309717Y-122911472D01*
X126309872Y-122935298D01*
X126309923Y-122959625D01*
X126309923Y-123954500D01*
X125981295Y-123954500D01*
X125981295Y-122912999D01*
X125981202Y-122882153D01*
X125980926Y-122852672D01*
X125980465Y-122824555D01*
X125979820Y-122797804D01*
X125978990Y-122772417D01*
X125977977Y-122748395D01*
X125976779Y-122725738D01*
X125974636Y-122694312D01*
X125972078Y-122665957D01*
X125969106Y-122640673D01*
X125964498Y-122611738D01*
X125959152Y-122588263D01*
X125957701Y-122583247D01*
X125949584Y-122559734D01*
X125939630Y-122537648D01*
X125927838Y-122516988D01*
X125914208Y-122497754D01*
X125898741Y-122479947D01*
X125881435Y-122463566D01*
X125873999Y-122457413D01*
X125854954Y-122443333D01*
X125835389Y-122431640D01*
X125811222Y-122420758D01*
X125786305Y-122413313D01*
X125760638Y-122409304D01*
X125743109Y-122408540D01*
X125715180Y-122409804D01*
X125686797Y-122413596D01*
X125657960Y-122419916D01*
X125628668Y-122428763D01*
X125598922Y-122440139D01*
X125568722Y-122454042D01*
X125548337Y-122464716D01*
X125527749Y-122476513D01*
X125506960Y-122489433D01*
X125485968Y-122503477D01*
X125464775Y-122518645D01*
X125443380Y-122534936D01*
X125421783Y-122552350D01*
X125400399Y-122570603D01*
X125379502Y-122589409D01*
X125359092Y-122608767D01*
X125339169Y-122628679D01*
X125319734Y-122649144D01*
X125300785Y-122670161D01*
X125282324Y-122691732D01*
X125264350Y-122713856D01*
X125246863Y-122736532D01*
X125229863Y-122759762D01*
X125213351Y-122783545D01*
X125197325Y-122807880D01*
X125181787Y-122832769D01*
X125166736Y-122858210D01*
X125152172Y-122884205D01*
X125138095Y-122910752D01*
X125138095Y-123954500D01*
X124810028Y-123954500D01*
G37*
G36*
X129222504Y-121473841D02*
G01*
X129248776Y-121474041D01*
X129274493Y-121474376D01*
X129299655Y-121474845D01*
X129324262Y-121475447D01*
X129348313Y-121476183D01*
X129371809Y-121477053D01*
X129394750Y-121478057D01*
X129438967Y-121480467D01*
X129480963Y-121483411D01*
X129520738Y-121486892D01*
X129558292Y-121490907D01*
X129593626Y-121495459D01*
X129626739Y-121500545D01*
X129657631Y-121506167D01*
X129686303Y-121512324D01*
X129712754Y-121519017D01*
X129736984Y-121526246D01*
X129758994Y-121534009D01*
X129778782Y-121542308D01*
X129806244Y-121555636D01*
X129832382Y-121570129D01*
X129857197Y-121585786D01*
X129880689Y-121602610D01*
X129902857Y-121620598D01*
X129923703Y-121639751D01*
X129943225Y-121660070D01*
X129961424Y-121681554D01*
X129978300Y-121704203D01*
X129993852Y-121728018D01*
X130003486Y-121744541D01*
X130016938Y-121769936D01*
X130029068Y-121795982D01*
X130039874Y-121822680D01*
X130049357Y-121850029D01*
X130057517Y-121878030D01*
X130064353Y-121906683D01*
X130069867Y-121935988D01*
X130074057Y-121965944D01*
X130076924Y-121996553D01*
X130078467Y-122027813D01*
X130078761Y-122049015D01*
X130078376Y-122074065D01*
X130077221Y-122098868D01*
X130075295Y-122123425D01*
X130072600Y-122147735D01*
X130069134Y-122171798D01*
X130064897Y-122195614D01*
X130059891Y-122219183D01*
X130054114Y-122242505D01*
X130047567Y-122265581D01*
X130040250Y-122288409D01*
X130034944Y-122303491D01*
X130026459Y-122325849D01*
X130017222Y-122347842D01*
X130007236Y-122369469D01*
X129996499Y-122390730D01*
X129985011Y-122411627D01*
X129972773Y-122432158D01*
X129959785Y-122452324D01*
X129946046Y-122472124D01*
X129931557Y-122491559D01*
X129916317Y-122510629D01*
X129905740Y-122523139D01*
X129889359Y-122541420D01*
X129872238Y-122559188D01*
X129854377Y-122576442D01*
X129835774Y-122593183D01*
X129816432Y-122609410D01*
X129796348Y-122625124D01*
X129775524Y-122640325D01*
X129753960Y-122655012D01*
X129731654Y-122669185D01*
X129708609Y-122682845D01*
X129692833Y-122691666D01*
X129724810Y-122704791D01*
X129755575Y-122718464D01*
X129785128Y-122732686D01*
X129813471Y-122747456D01*
X129840602Y-122762775D01*
X129866522Y-122778642D01*
X129891231Y-122795058D01*
X129914728Y-122812023D01*
X129937014Y-122829536D01*
X129958089Y-122847598D01*
X129977952Y-122866209D01*
X129996604Y-122885368D01*
X130014045Y-122905075D01*
X130030275Y-122925332D01*
X130045293Y-122946136D01*
X130059100Y-122967490D01*
X130071957Y-122989049D01*
X130083984Y-123010613D01*
X130095182Y-123032182D01*
X130105550Y-123053755D01*
X130115089Y-123075332D01*
X130123799Y-123096914D01*
X130131679Y-123118500D01*
X130138729Y-123140090D01*
X130144950Y-123161685D01*
X130152726Y-123194085D01*
X130158636Y-123226496D01*
X130162680Y-123258916D01*
X130164857Y-123291346D01*
X130165272Y-123312971D01*
X130164482Y-123343849D01*
X130162112Y-123374550D01*
X130158162Y-123405072D01*
X130152633Y-123435417D01*
X130145523Y-123465584D01*
X130136833Y-123495573D01*
X130126564Y-123525385D01*
X130114714Y-123555019D01*
X130101284Y-123584475D01*
X130086275Y-123613753D01*
X130075391Y-123633174D01*
X130057906Y-123661613D01*
X130039157Y-123688788D01*
X130019145Y-123714699D01*
X129997868Y-123739346D01*
X129975328Y-123762729D01*
X129951523Y-123784848D01*
X129926455Y-123805704D01*
X129900122Y-123825295D01*
X129872526Y-123843622D01*
X129843665Y-123860686D01*
X129823723Y-123871359D01*
X129802830Y-123881427D01*
X129780459Y-123890845D01*
X129756608Y-123899614D01*
X129731279Y-123907733D01*
X129704470Y-123915203D01*
X129676182Y-123922023D01*
X129646416Y-123928193D01*
X129615170Y-123933714D01*
X129582446Y-123938586D01*
X129548242Y-123942808D01*
X129512559Y-123946380D01*
X129475398Y-123949303D01*
X129436757Y-123951577D01*
X129396637Y-123953200D01*
X129355039Y-123954175D01*
X129311961Y-123954500D01*
X128701329Y-123954500D01*
X128701329Y-122875923D01*
X129055237Y-122875923D01*
X129055237Y-123666879D01*
X129337240Y-123666879D01*
X129367279Y-123666451D01*
X129396304Y-123665168D01*
X129424315Y-123663028D01*
X129451312Y-123660033D01*
X129477296Y-123656182D01*
X129502265Y-123651475D01*
X129526221Y-123645912D01*
X129549164Y-123639493D01*
X129571092Y-123632219D01*
X129602083Y-123619703D01*
X129630794Y-123605261D01*
X129657224Y-123588894D01*
X129681372Y-123570601D01*
X129696204Y-123557336D01*
X129716784Y-123536306D01*
X129735340Y-123514507D01*
X129751872Y-123491936D01*
X129766380Y-123468596D01*
X129778863Y-123444485D01*
X129789322Y-123419604D01*
X129797756Y-123393953D01*
X129804167Y-123367532D01*
X129808553Y-123340341D01*
X129810914Y-123312379D01*
X129811364Y-123293310D01*
X129810381Y-123265362D01*
X129807432Y-123237976D01*
X129802517Y-123211153D01*
X129795635Y-123184890D01*
X129786787Y-123159190D01*
X129775974Y-123134051D01*
X129763194Y-123109474D01*
X129748447Y-123085459D01*
X129731603Y-123062190D01*
X129712530Y-123040132D01*
X129691227Y-123019286D01*
X129673787Y-123004446D01*
X129655092Y-122990287D01*
X129635144Y-122976810D01*
X129613941Y-122964014D01*
X129591485Y-122951899D01*
X129567774Y-122940466D01*
X129551270Y-122933222D01*
X129524714Y-122922982D01*
X129495393Y-122913750D01*
X129463307Y-122905524D01*
X129440380Y-122900600D01*
X129416224Y-122896123D01*
X129390840Y-122892094D01*
X129364226Y-122888513D01*
X129336384Y-122885380D01*
X129307313Y-122882694D01*
X129277013Y-122880456D01*
X129245485Y-122878665D01*
X129212727Y-122877322D01*
X129178741Y-122876427D01*
X129143526Y-122875979D01*
X129125457Y-122875923D01*
X129055237Y-122875923D01*
X128701329Y-122875923D01*
X128701329Y-121761394D01*
X129055237Y-121761394D01*
X129055237Y-122588303D01*
X129367013Y-122588303D01*
X129395354Y-122575915D01*
X129422232Y-122563399D01*
X129447650Y-122550754D01*
X129471606Y-122537981D01*
X129494100Y-122525080D01*
X129515133Y-122512051D01*
X129534705Y-122498893D01*
X129558527Y-122481149D01*
X129579751Y-122463177D01*
X129593964Y-122449548D01*
X129611501Y-122431037D01*
X129627880Y-122412016D01*
X129643100Y-122392486D01*
X129657162Y-122372447D01*
X129670064Y-122351899D01*
X129681809Y-122330842D01*
X129692394Y-122309275D01*
X129701821Y-122287200D01*
X129710248Y-122264458D01*
X129717551Y-122241171D01*
X129723730Y-122217340D01*
X129728786Y-122192965D01*
X129732718Y-122168046D01*
X129735527Y-122142582D01*
X129737212Y-122116575D01*
X129737774Y-122090023D01*
X129736930Y-122059495D01*
X129734397Y-122030479D01*
X129730175Y-122002973D01*
X129724265Y-121976978D01*
X129716667Y-121952494D01*
X129707380Y-121929520D01*
X129696404Y-121908058D01*
X129683740Y-121888106D01*
X129669387Y-121869665D01*
X129653346Y-121852735D01*
X129641713Y-121842287D01*
X129622124Y-121827831D01*
X129599167Y-121814796D01*
X129572842Y-121803184D01*
X129543151Y-121792993D01*
X129521486Y-121786989D01*
X129498324Y-121781617D01*
X129473666Y-121776878D01*
X129447512Y-121772770D01*
X129419860Y-121769294D01*
X129390712Y-121766450D01*
X129360068Y-121764238D01*
X129327927Y-121762658D01*
X129294290Y-121761710D01*
X129259156Y-121761394D01*
X129055237Y-121761394D01*
X128701329Y-121761394D01*
X128701329Y-121473774D01*
X129195677Y-121473774D01*
X129222504Y-121473841D01*
G37*
G36*
X131372201Y-122121179D02*
G01*
X131395767Y-122121958D01*
X131419033Y-122123255D01*
X131442000Y-122125071D01*
X131464667Y-122127407D01*
X131487035Y-122130261D01*
X131530872Y-122137527D01*
X131573511Y-122146868D01*
X131614952Y-122158285D01*
X131655194Y-122171778D01*
X131694239Y-122187348D01*
X131732085Y-122204992D01*
X131768733Y-122224713D01*
X131804183Y-122246510D01*
X131838435Y-122270382D01*
X131871489Y-122296331D01*
X131903344Y-122324355D01*
X131934002Y-122354455D01*
X131963461Y-122386631D01*
X131991488Y-122420315D01*
X132017706Y-122455078D01*
X132042116Y-122490921D01*
X132064718Y-122527843D01*
X132085512Y-122565846D01*
X132104498Y-122604927D01*
X132121675Y-122645089D01*
X132137045Y-122686330D01*
X132150606Y-122728650D01*
X132162359Y-122772050D01*
X132167557Y-122794155D01*
X132172304Y-122816530D01*
X132176598Y-122839175D01*
X132180441Y-122862090D01*
X132183831Y-122885274D01*
X132186769Y-122908729D01*
X132189255Y-122932453D01*
X132191290Y-122956448D01*
X132192872Y-122980712D01*
X132194002Y-123005246D01*
X132194680Y-123030050D01*
X132194906Y-123055124D01*
X132194680Y-123080199D01*
X132194002Y-123105006D01*
X132192872Y-123129546D01*
X132191290Y-123153818D01*
X132189255Y-123177822D01*
X132186769Y-123201559D01*
X132183831Y-123225027D01*
X132180441Y-123248229D01*
X132176598Y-123271162D01*
X132172304Y-123293828D01*
X132167557Y-123316225D01*
X132162359Y-123338356D01*
X132156708Y-123360218D01*
X132144051Y-123403140D01*
X132129586Y-123444991D01*
X132113313Y-123485771D01*
X132095231Y-123525481D01*
X132075341Y-123564119D01*
X132053643Y-123601687D01*
X132030137Y-123638183D01*
X132004823Y-123673609D01*
X131977701Y-123707964D01*
X131963461Y-123724740D01*
X131934002Y-123756916D01*
X131903344Y-123787016D01*
X131871489Y-123815041D01*
X131838435Y-123840989D01*
X131804183Y-123864862D01*
X131768733Y-123886658D01*
X131732085Y-123906379D01*
X131694239Y-123924024D01*
X131655194Y-123939593D01*
X131614952Y-123953086D01*
X131573511Y-123964504D01*
X131530872Y-123973845D01*
X131487035Y-123981111D01*
X131464667Y-123983965D01*
X131442000Y-123986300D01*
X131419033Y-123988117D01*
X131395767Y-123989414D01*
X131372201Y-123990193D01*
X131348336Y-123990452D01*
X131324366Y-123990193D01*
X131300698Y-123989414D01*
X131277332Y-123988117D01*
X131254267Y-123986300D01*
X131231505Y-123983965D01*
X131209044Y-123981111D01*
X131165027Y-123973845D01*
X131122217Y-123964504D01*
X131080614Y-123953086D01*
X131040218Y-123939593D01*
X131001028Y-123924024D01*
X130963046Y-123906379D01*
X130926271Y-123886658D01*
X130890702Y-123864862D01*
X130856341Y-123840989D01*
X130823186Y-123815041D01*
X130791238Y-123787016D01*
X130760497Y-123756916D01*
X130730963Y-123724740D01*
X130703005Y-123690921D01*
X130676850Y-123656030D01*
X130652499Y-123620069D01*
X130629952Y-123583037D01*
X130609208Y-123544934D01*
X130590269Y-123505760D01*
X130573133Y-123465515D01*
X130557801Y-123424199D01*
X130544273Y-123381813D01*
X130532548Y-123338356D01*
X130527362Y-123316225D01*
X130522627Y-123293828D01*
X130518343Y-123271162D01*
X130514510Y-123248229D01*
X130511128Y-123225027D01*
X130508197Y-123201559D01*
X130505717Y-123177822D01*
X130503688Y-123153818D01*
X130502110Y-123129546D01*
X130500982Y-123105006D01*
X130500306Y-123080199D01*
X130500080Y-123055124D01*
X130853988Y-123055124D01*
X130854510Y-123092665D01*
X130856077Y-123129171D01*
X130858689Y-123164641D01*
X130862344Y-123199075D01*
X130867045Y-123232473D01*
X130872790Y-123264836D01*
X130879579Y-123296162D01*
X130887413Y-123326453D01*
X130896291Y-123355709D01*
X130906214Y-123383928D01*
X130917182Y-123411112D01*
X130929194Y-123437260D01*
X130942250Y-123462373D01*
X130956351Y-123486449D01*
X130971497Y-123509490D01*
X130987687Y-123531495D01*
X131004829Y-123552243D01*
X131022691Y-123571652D01*
X131041273Y-123589723D01*
X131060575Y-123606455D01*
X131080596Y-123621848D01*
X131101337Y-123635903D01*
X131122798Y-123648620D01*
X131144979Y-123659998D01*
X131167880Y-123670037D01*
X131191500Y-123678737D01*
X131215840Y-123686100D01*
X131240899Y-123692123D01*
X131266679Y-123696808D01*
X131293178Y-123700155D01*
X131320397Y-123702162D01*
X131348336Y-123702832D01*
X131376136Y-123702162D01*
X131403221Y-123700155D01*
X131429591Y-123696808D01*
X131455245Y-123692123D01*
X131480184Y-123686100D01*
X131504408Y-123678737D01*
X131527916Y-123670037D01*
X131550709Y-123659998D01*
X131572787Y-123648620D01*
X131594149Y-123635903D01*
X131614796Y-123621848D01*
X131634727Y-123606455D01*
X131653943Y-123589723D01*
X131672444Y-123571652D01*
X131690229Y-123552243D01*
X131707299Y-123531495D01*
X131723558Y-123509490D01*
X131738767Y-123486449D01*
X131752927Y-123462373D01*
X131766038Y-123437260D01*
X131778101Y-123411112D01*
X131789114Y-123383928D01*
X131799079Y-123355709D01*
X131807995Y-123326453D01*
X131815861Y-123296162D01*
X131822679Y-123264836D01*
X131828448Y-123232473D01*
X131833168Y-123199075D01*
X131836840Y-123164641D01*
X131839462Y-123129171D01*
X131841035Y-123092665D01*
X131841560Y-123055124D01*
X131841035Y-123017721D01*
X131839462Y-122981349D01*
X131836840Y-122946009D01*
X131833168Y-122911700D01*
X131828448Y-122878422D01*
X131822679Y-122846176D01*
X131815861Y-122814961D01*
X131807995Y-122784778D01*
X131799079Y-122755626D01*
X131789114Y-122727505D01*
X131778101Y-122700415D01*
X131766038Y-122674357D01*
X131752927Y-122649330D01*
X131738767Y-122625335D01*
X131723558Y-122602371D01*
X131707299Y-122580438D01*
X131690229Y-122559622D01*
X131672444Y-122540149D01*
X131653943Y-122522020D01*
X131634727Y-122505233D01*
X131614796Y-122489789D01*
X131594149Y-122475688D01*
X131572787Y-122462930D01*
X131550709Y-122451515D01*
X131527916Y-122441442D01*
X131504408Y-122432713D01*
X131480184Y-122425327D01*
X131455245Y-122419284D01*
X131429591Y-122414583D01*
X131403221Y-122411226D01*
X131376136Y-122409211D01*
X131348336Y-122408540D01*
X131320397Y-122409211D01*
X131293178Y-122411226D01*
X131266679Y-122414583D01*
X131240899Y-122419284D01*
X131215840Y-122425327D01*
X131191500Y-122432713D01*
X131167880Y-122441442D01*
X131144979Y-122451515D01*
X131122798Y-122462930D01*
X131101337Y-122475688D01*
X131080596Y-122489789D01*
X131060575Y-122505233D01*
X131041273Y-122522020D01*
X131022691Y-122540149D01*
X131004829Y-122559622D01*
X130987687Y-122580438D01*
X130971497Y-122602371D01*
X130956351Y-122625335D01*
X130942250Y-122649330D01*
X130929194Y-122674357D01*
X130917182Y-122700415D01*
X130906214Y-122727505D01*
X130896291Y-122755626D01*
X130887413Y-122784778D01*
X130879579Y-122814961D01*
X130872790Y-122846176D01*
X130867045Y-122878422D01*
X130862344Y-122911700D01*
X130858689Y-122946009D01*
X130856077Y-122981349D01*
X130854510Y-123017721D01*
X130853988Y-123055124D01*
X130500080Y-123055124D01*
X130500306Y-123030050D01*
X130500982Y-123005246D01*
X130502110Y-122980712D01*
X130503688Y-122956448D01*
X130505717Y-122932453D01*
X130508197Y-122908729D01*
X130511128Y-122885274D01*
X130514510Y-122862090D01*
X130518343Y-122839175D01*
X130522627Y-122816530D01*
X130527362Y-122794155D01*
X130532548Y-122772050D01*
X130538185Y-122750215D01*
X130550811Y-122707355D01*
X130565242Y-122665574D01*
X130581475Y-122624873D01*
X130599513Y-122585251D01*
X130619355Y-122546710D01*
X130641000Y-122509247D01*
X130664449Y-122472865D01*
X130689702Y-122437562D01*
X130716758Y-122403338D01*
X130730963Y-122386631D01*
X130760497Y-122354455D01*
X130791238Y-122324355D01*
X130823186Y-122296331D01*
X130856341Y-122270382D01*
X130890702Y-122246510D01*
X130926271Y-122224713D01*
X130963046Y-122204992D01*
X131001028Y-122187348D01*
X131040218Y-122171778D01*
X131080614Y-122158285D01*
X131122217Y-122146868D01*
X131165027Y-122137527D01*
X131209044Y-122130261D01*
X131231505Y-122127407D01*
X131254267Y-122125071D01*
X131277332Y-122123255D01*
X131300698Y-122121958D01*
X131324366Y-122121179D01*
X131348336Y-122120920D01*
X131372201Y-122121179D01*
G37*
G36*
X133413141Y-122121523D02*
G01*
X133438908Y-122122875D01*
X133467360Y-122124999D01*
X133490461Y-122127099D01*
X133515074Y-122129633D01*
X133541198Y-122132602D01*
X133568832Y-122136006D01*
X133597977Y-122139844D01*
X133628633Y-122144116D01*
X133639187Y-122145637D01*
X133661385Y-122149324D01*
X133684832Y-122152878D01*
X133709780Y-122156453D01*
X133712777Y-122156872D01*
X134023992Y-122156872D01*
X134023992Y-123430941D01*
X134024277Y-123469127D01*
X134025133Y-123506585D01*
X134026559Y-123543314D01*
X134028556Y-123579315D01*
X134031123Y-123614587D01*
X134034261Y-123649131D01*
X134037970Y-123682946D01*
X134042249Y-123716033D01*
X134047098Y-123748391D01*
X134052518Y-123780021D01*
X134058509Y-123810922D01*
X134065070Y-123841094D01*
X134072202Y-123870539D01*
X134079904Y-123899254D01*
X134088177Y-123927241D01*
X134097020Y-123954500D01*
X133752662Y-123954500D01*
X133745597Y-123924581D01*
X133738937Y-123894020D01*
X133732681Y-123862818D01*
X133726830Y-123830974D01*
X133721384Y-123798488D01*
X133716343Y-123765360D01*
X133713208Y-123742918D01*
X133710252Y-123720191D01*
X133707476Y-123697179D01*
X133704880Y-123673881D01*
X133702464Y-123650298D01*
X133700228Y-123626430D01*
X133698172Y-123602277D01*
X133684428Y-123623248D01*
X133670022Y-123643750D01*
X133654954Y-123663783D01*
X133639222Y-123683346D01*
X133622828Y-123702439D01*
X133605771Y-123721062D01*
X133588052Y-123739217D01*
X133569669Y-123756901D01*
X133550625Y-123774116D01*
X133530917Y-123790861D01*
X133510547Y-123807137D01*
X133489514Y-123822943D01*
X133467818Y-123838279D01*
X133445459Y-123853146D01*
X133422438Y-123867543D01*
X133398754Y-123881471D01*
X133374858Y-123894668D01*
X133351198Y-123907013D01*
X133327775Y-123918507D01*
X133304590Y-123929150D01*
X133281641Y-123938941D01*
X133258929Y-123947881D01*
X133236454Y-123955970D01*
X133214217Y-123963207D01*
X133192216Y-123969592D01*
X133159659Y-123977574D01*
X133127636Y-123983641D01*
X133096145Y-123987791D01*
X133065188Y-123990026D01*
X133044847Y-123990452D01*
X133016524Y-123989686D01*
X132988574Y-123987389D01*
X132960997Y-123983560D01*
X132933794Y-123978199D01*
X132906963Y-123971306D01*
X132880506Y-123962882D01*
X132854421Y-123952926D01*
X132828710Y-123941439D01*
X132803372Y-123928419D01*
X132778406Y-123913869D01*
X132753814Y-123897786D01*
X132729595Y-123880172D01*
X132705748Y-123861026D01*
X132682275Y-123840348D01*
X132659175Y-123818139D01*
X132636448Y-123794398D01*
X132614612Y-123769051D01*
X132594185Y-123742164D01*
X132575166Y-123713735D01*
X132557556Y-123683767D01*
X132541355Y-123652258D01*
X132526563Y-123619209D01*
X132513179Y-123584619D01*
X132501205Y-123548489D01*
X132490639Y-123510818D01*
X132481482Y-123471607D01*
X132473733Y-123430855D01*
X132467394Y-123388563D01*
X132462463Y-123344730D01*
X132460526Y-123322236D01*
X132458941Y-123299357D01*
X132457708Y-123276093D01*
X132456828Y-123252444D01*
X132456300Y-123228410D01*
X132456124Y-123203990D01*
X132456366Y-123183767D01*
X132810031Y-123183767D01*
X132810398Y-123215835D01*
X132811497Y-123246877D01*
X132813330Y-123276891D01*
X132815895Y-123305879D01*
X132819193Y-123333840D01*
X132823224Y-123360773D01*
X132827988Y-123386680D01*
X132833485Y-123411560D01*
X132839715Y-123435413D01*
X132846677Y-123458238D01*
X132854373Y-123480037D01*
X132867291Y-123510810D01*
X132881858Y-123539272D01*
X132898073Y-123565424D01*
X132903845Y-123573627D01*
X132921638Y-123596717D01*
X132939835Y-123617537D01*
X132958437Y-123636084D01*
X132977444Y-123652361D01*
X132996856Y-123666367D01*
X133016673Y-123678101D01*
X133043725Y-123690214D01*
X133071497Y-123698289D01*
X133099989Y-123702327D01*
X133114505Y-123702832D01*
X133139112Y-123701622D01*
X133164273Y-123697993D01*
X133189987Y-123691945D01*
X133216253Y-123683477D01*
X133243073Y-123672591D01*
X133270445Y-123659284D01*
X133298371Y-123643559D01*
X133326849Y-123625414D01*
X133346142Y-123611974D01*
X133365681Y-123597458D01*
X133385465Y-123581867D01*
X133405496Y-123565201D01*
X133425581Y-123547562D01*
X133445389Y-123529196D01*
X133464921Y-123510100D01*
X133484177Y-123490276D01*
X133503156Y-123469724D01*
X133521859Y-123448443D01*
X133540285Y-123426433D01*
X133558434Y-123403695D01*
X133576307Y-123380229D01*
X133593904Y-123356034D01*
X133611224Y-123331110D01*
X133628268Y-123305458D01*
X133645035Y-123279077D01*
X133661526Y-123251968D01*
X133677740Y-123224130D01*
X133693678Y-123195564D01*
X133693678Y-122446178D01*
X133667525Y-122439452D01*
X133641520Y-122433387D01*
X133615663Y-122427984D01*
X133589954Y-122423242D01*
X133564394Y-122419162D01*
X133538981Y-122415744D01*
X133513717Y-122412987D01*
X133488601Y-122410892D01*
X133463633Y-122409459D01*
X133438813Y-122408687D01*
X133422348Y-122408540D01*
X133389964Y-122409352D01*
X133358255Y-122411788D01*
X133327222Y-122415847D01*
X133296865Y-122421531D01*
X133267184Y-122428838D01*
X133238179Y-122437769D01*
X133209850Y-122448324D01*
X133182196Y-122460503D01*
X133155219Y-122474305D01*
X133128917Y-122489732D01*
X133103291Y-122506782D01*
X133078341Y-122525456D01*
X133054067Y-122545754D01*
X133030469Y-122567676D01*
X133007547Y-122591221D01*
X132985300Y-122616391D01*
X132964076Y-122642899D01*
X132944222Y-122670600D01*
X132925736Y-122699496D01*
X132908620Y-122729585D01*
X132892873Y-122760868D01*
X132878496Y-122793345D01*
X132865488Y-122827015D01*
X132853849Y-122861879D01*
X132843579Y-122897937D01*
X132834679Y-122935189D01*
X132827148Y-122973634D01*
X132820986Y-123013273D01*
X132816193Y-123054106D01*
X132812770Y-123096132D01*
X132810716Y-123139353D01*
X132810031Y-123183767D01*
X132456366Y-123183767D01*
X132456584Y-123165554D01*
X132457967Y-123127626D01*
X132460271Y-123090208D01*
X132463497Y-123053298D01*
X132467644Y-123016898D01*
X132472713Y-122981007D01*
X132478704Y-122945625D01*
X132485616Y-122910752D01*
X132493450Y-122876388D01*
X132502205Y-122842534D01*
X132511882Y-122809188D01*
X132522481Y-122776351D01*
X132534002Y-122744024D01*
X132546444Y-122712206D01*
X132559808Y-122680896D01*
X132574093Y-122650096D01*
X132589223Y-122619950D01*
X132604981Y-122590602D01*
X132621366Y-122562054D01*
X132638379Y-122534304D01*
X132656020Y-122507352D01*
X132674288Y-122481200D01*
X132693183Y-122455846D01*
X132712707Y-122431291D01*
X132732858Y-122407535D01*
X132753636Y-122384577D01*
X132775042Y-122362419D01*
X132797076Y-122341059D01*
X132819737Y-122320497D01*
X132843026Y-122300735D01*
X132866942Y-122281771D01*
X132891486Y-122263606D01*
X132916783Y-122246328D01*
X132942817Y-122230164D01*
X132969588Y-122215115D01*
X132997097Y-122201181D01*
X133025343Y-122188361D01*
X133054326Y-122176657D01*
X133084047Y-122166067D01*
X133114505Y-122156591D01*
X133145700Y-122148231D01*
X133177632Y-122140985D01*
X133210302Y-122134854D01*
X133243709Y-122129838D01*
X133277853Y-122125936D01*
X133312735Y-122123149D01*
X133348354Y-122121477D01*
X133384710Y-122120920D01*
X133413141Y-122121523D01*
G37*
G36*
X134621703Y-123954500D02*
G01*
X134621703Y-122156872D01*
X134949770Y-122156872D01*
X134949770Y-122500668D01*
X134963331Y-122480318D01*
X134977471Y-122460415D01*
X134992191Y-122440960D01*
X135007490Y-122421952D01*
X135023369Y-122403392D01*
X135039827Y-122385280D01*
X135056864Y-122367615D01*
X135074480Y-122350398D01*
X135092676Y-122333629D01*
X135111451Y-122317307D01*
X135130805Y-122301433D01*
X135150739Y-122286006D01*
X135171252Y-122271028D01*
X135192344Y-122256497D01*
X135214016Y-122242413D01*
X135236267Y-122228777D01*
X135259040Y-122215716D01*
X135282138Y-122203498D01*
X135305560Y-122192122D01*
X135329308Y-122181590D01*
X135353380Y-122171899D01*
X135377777Y-122163051D01*
X135402499Y-122155046D01*
X135427545Y-122147884D01*
X135452917Y-122141564D01*
X135478613Y-122136087D01*
X135504634Y-122131453D01*
X135530979Y-122127661D01*
X135557650Y-122124711D01*
X135584645Y-122122605D01*
X135611965Y-122121341D01*
X135639609Y-122120920D01*
X135669857Y-122121265D01*
X135700352Y-122122302D01*
X135731093Y-122124030D01*
X135762081Y-122126449D01*
X135793317Y-122129560D01*
X135824799Y-122133362D01*
X135856528Y-122137855D01*
X135888503Y-122143039D01*
X135920726Y-122148914D01*
X135953196Y-122155481D01*
X135974979Y-122160243D01*
X135974979Y-122839971D01*
X135657586Y-122839971D01*
X135657586Y-122418652D01*
X135633105Y-122414712D01*
X135610290Y-122411739D01*
X135586258Y-122409527D01*
X135561823Y-122408550D01*
X135559278Y-122408540D01*
X135529915Y-122409685D01*
X135500603Y-122413122D01*
X135471339Y-122418849D01*
X135442125Y-122426867D01*
X135412960Y-122437176D01*
X135383845Y-122449777D01*
X135354778Y-122464668D01*
X135325762Y-122481849D01*
X135306445Y-122494577D01*
X135287150Y-122508322D01*
X135267877Y-122523086D01*
X135248625Y-122538868D01*
X135229486Y-122555596D01*
X135210408Y-122573337D01*
X135191392Y-122592092D01*
X135172437Y-122611861D01*
X135153543Y-122632644D01*
X135134711Y-122654441D01*
X135115941Y-122677251D01*
X135097231Y-122701076D01*
X135078584Y-122725914D01*
X135059997Y-122751766D01*
X135041472Y-122778631D01*
X135023009Y-122806511D01*
X135004607Y-122835404D01*
X134986267Y-122865311D01*
X134967987Y-122896232D01*
X134949770Y-122928167D01*
X134949770Y-123954500D01*
X134621703Y-123954500D01*
G37*
G36*
X137907429Y-123954500D02*
G01*
X137577676Y-123954500D01*
X137577676Y-123615197D01*
X137564477Y-123635006D01*
X137550580Y-123654406D01*
X137535985Y-123673399D01*
X137520693Y-123691983D01*
X137504703Y-123710159D01*
X137488014Y-123727926D01*
X137470628Y-123745286D01*
X137452545Y-123762238D01*
X137433763Y-123778781D01*
X137414284Y-123794916D01*
X137394106Y-123810643D01*
X137373231Y-123825962D01*
X137351658Y-123840873D01*
X137329388Y-123855375D01*
X137306419Y-123869470D01*
X137282753Y-123883156D01*
X137258856Y-123896149D01*
X137235197Y-123908304D01*
X137211774Y-123919620D01*
X137188588Y-123930098D01*
X137165640Y-123939738D01*
X137142928Y-123948540D01*
X137120453Y-123956503D01*
X137098215Y-123963628D01*
X137076215Y-123969915D01*
X137043658Y-123977774D01*
X137011634Y-123983746D01*
X136980144Y-123987833D01*
X136949187Y-123990033D01*
X136928845Y-123990452D01*
X136900522Y-123989686D01*
X136872573Y-123987389D01*
X136844996Y-123983560D01*
X136817792Y-123978199D01*
X136790962Y-123971306D01*
X136764504Y-123962882D01*
X136738420Y-123952926D01*
X136712709Y-123941439D01*
X136687370Y-123928419D01*
X136662405Y-123913869D01*
X136637813Y-123897786D01*
X136613593Y-123880172D01*
X136589747Y-123861026D01*
X136566274Y-123840348D01*
X136543174Y-123818139D01*
X136520447Y-123794398D01*
X136498610Y-123769051D01*
X136478183Y-123742164D01*
X136459165Y-123713735D01*
X136441555Y-123683767D01*
X136425354Y-123652258D01*
X136410561Y-123619209D01*
X136397178Y-123584619D01*
X136385203Y-123548489D01*
X136374637Y-123510818D01*
X136365480Y-123471607D01*
X136357732Y-123430855D01*
X136351392Y-123388563D01*
X136346462Y-123344730D01*
X136344525Y-123322236D01*
X136342940Y-123299357D01*
X136341707Y-123276093D01*
X136340827Y-123252444D01*
X136340298Y-123228410D01*
X136340122Y-123203990D01*
X136340365Y-123183767D01*
X136693468Y-123183767D01*
X136693835Y-123215835D01*
X136694934Y-123246877D01*
X136696766Y-123276891D01*
X136699332Y-123305879D01*
X136702630Y-123333840D01*
X136706661Y-123360773D01*
X136711425Y-123386680D01*
X136716922Y-123411560D01*
X136723152Y-123435413D01*
X136730114Y-123458238D01*
X136737810Y-123480037D01*
X136750728Y-123510810D01*
X136765294Y-123539272D01*
X136781510Y-123565424D01*
X136787282Y-123573627D01*
X136805074Y-123596717D01*
X136823272Y-123617537D01*
X136841874Y-123636084D01*
X136860881Y-123652361D01*
X136880293Y-123666367D01*
X136900110Y-123678101D01*
X136927162Y-123690214D01*
X136954934Y-123698289D01*
X136983426Y-123702327D01*
X136997941Y-123702832D01*
X137022649Y-123701622D01*
X137047901Y-123697993D01*
X137073695Y-123691945D01*
X137100032Y-123683477D01*
X137126913Y-123672591D01*
X137154336Y-123659284D01*
X137182303Y-123643559D01*
X137210813Y-123625414D01*
X137230121Y-123611974D01*
X137249671Y-123597458D01*
X137269462Y-123581867D01*
X137289494Y-123565201D01*
X137309579Y-123547562D01*
X137329388Y-123529196D01*
X137348920Y-123510100D01*
X137368175Y-123490276D01*
X137387155Y-123469724D01*
X137405857Y-123448443D01*
X137424283Y-123426433D01*
X137442433Y-123403695D01*
X137460306Y-123380229D01*
X137477903Y-123356034D01*
X137495223Y-123331110D01*
X137512266Y-123305458D01*
X137529034Y-123279077D01*
X137545524Y-123251968D01*
X137561739Y-123224130D01*
X137577676Y-123195564D01*
X137577676Y-122446178D01*
X137551523Y-122439452D01*
X137525518Y-122433387D01*
X137499661Y-122427984D01*
X137473953Y-122423242D01*
X137448392Y-122419162D01*
X137422980Y-122415744D01*
X137397715Y-122412987D01*
X137372599Y-122410892D01*
X137347631Y-122409459D01*
X137322811Y-122408687D01*
X137306347Y-122408540D01*
X137273894Y-122409352D01*
X137242122Y-122411788D01*
X137211030Y-122415847D01*
X137180618Y-122421531D01*
X137150887Y-122428838D01*
X137121836Y-122437769D01*
X137093465Y-122448324D01*
X137065774Y-122460503D01*
X137038763Y-122474305D01*
X137012433Y-122489732D01*
X136986783Y-122506782D01*
X136961813Y-122525456D01*
X136937524Y-122545754D01*
X136913915Y-122567676D01*
X136890986Y-122591221D01*
X136868737Y-122616391D01*
X136847513Y-122642899D01*
X136827658Y-122670600D01*
X136809173Y-122699496D01*
X136792057Y-122729585D01*
X136776310Y-122760868D01*
X136761933Y-122793345D01*
X136748924Y-122827015D01*
X136737285Y-122861879D01*
X136727016Y-122897937D01*
X136718115Y-122935189D01*
X136710584Y-122973634D01*
X136704423Y-123013273D01*
X136699630Y-123054106D01*
X136696207Y-123096132D01*
X136694153Y-123139353D01*
X136693468Y-123183767D01*
X136340365Y-123183767D01*
X136340583Y-123165554D01*
X136341965Y-123127626D01*
X136344270Y-123090208D01*
X136347495Y-123053298D01*
X136351643Y-123016898D01*
X136356712Y-122981007D01*
X136362702Y-122945625D01*
X136369614Y-122910752D01*
X136377448Y-122876388D01*
X136386204Y-122842534D01*
X136395881Y-122809188D01*
X136406480Y-122776351D01*
X136418000Y-122744024D01*
X136430442Y-122712206D01*
X136443806Y-122680896D01*
X136458091Y-122650096D01*
X136473222Y-122619950D01*
X136488979Y-122590602D01*
X136505365Y-122562054D01*
X136522378Y-122534304D01*
X136540018Y-122507352D01*
X136558286Y-122481200D01*
X136577182Y-122455846D01*
X136596705Y-122431291D01*
X136616856Y-122407535D01*
X136637635Y-122384577D01*
X136659041Y-122362419D01*
X136681075Y-122341059D01*
X136703736Y-122320497D01*
X136727025Y-122300735D01*
X136750941Y-122281771D01*
X136775485Y-122263606D01*
X136800782Y-122246328D01*
X136826816Y-122230164D01*
X136853587Y-122215115D01*
X136881096Y-122201181D01*
X136909342Y-122188361D01*
X136938325Y-122176657D01*
X136968045Y-122166067D01*
X136998503Y-122156591D01*
X137029698Y-122148231D01*
X137061631Y-122140985D01*
X137094301Y-122134854D01*
X137127708Y-122129838D01*
X137161852Y-122125936D01*
X137196734Y-122123149D01*
X137232353Y-122121477D01*
X137268709Y-122120920D01*
X137297140Y-122121523D01*
X137322906Y-122122875D01*
X137351358Y-122124999D01*
X137374460Y-122127099D01*
X137399073Y-122129633D01*
X137425196Y-122132602D01*
X137452830Y-122136006D01*
X137481975Y-122139844D01*
X137512631Y-122144116D01*
X137523186Y-122145637D01*
X137545781Y-122149462D01*
X137568496Y-122152821D01*
X137577676Y-122154063D01*
X137577676Y-121365916D01*
X137907429Y-121365916D01*
X137907429Y-123954500D01*
G37*
G36*
X142909840Y-120973401D02*
G01*
X141349861Y-123883799D01*
X140913155Y-123058014D01*
X139359037Y-124490498D01*
X140945395Y-121725181D01*
X141385765Y-122441057D01*
X142909840Y-120973401D01*
G37*
D11*
%TO.C,U24*%
X189150000Y-110770000D03*
X189150000Y-108230000D03*
X182850000Y-108230000D03*
X182850000Y-109500000D03*
X182850000Y-110770000D03*
%TD*%
%TO.C,U22*%
X189150000Y-124770000D03*
X189150000Y-122230000D03*
X182850000Y-122230000D03*
X182850000Y-123500000D03*
X182850000Y-124770000D03*
%TD*%
%TO.C,U29*%
X181650000Y-102770000D03*
X181650000Y-100230000D03*
X175350000Y-100230000D03*
X175350000Y-101500000D03*
X175350000Y-102770000D03*
%TD*%
%TO.C,U23*%
X189150000Y-117770000D03*
X189150000Y-115230000D03*
X182850000Y-115230000D03*
X182850000Y-116500000D03*
X182850000Y-117770000D03*
%TD*%
%TO.C,U26*%
X181150000Y-71770000D03*
X181150000Y-69230000D03*
X174850000Y-69230000D03*
X174850000Y-70500000D03*
X174850000Y-71770000D03*
%TD*%
%TO.C,U30*%
X181650000Y-94270000D03*
X181650000Y-91730000D03*
X175350000Y-91730000D03*
X175350000Y-93000000D03*
X175350000Y-94270000D03*
%TD*%
%TO.C,U25*%
X181150000Y-82770000D03*
X181150000Y-80230000D03*
X174850000Y-80230000D03*
X174850000Y-81500000D03*
X174850000Y-82770000D03*
%TD*%
%TO.C,U21*%
X189150000Y-131770000D03*
X189150000Y-129230000D03*
X182850000Y-129230000D03*
X182850000Y-130500000D03*
X182850000Y-131770000D03*
%TD*%
D12*
%TO.C,U5*%
X101850000Y-81270000D03*
X101850000Y-78730000D03*
X93150000Y-78730000D03*
X93150000Y-81270000D03*
%TD*%
%TO.C,U3*%
X101850000Y-61270000D03*
X101850000Y-58730000D03*
X93150000Y-58730000D03*
X93150000Y-61270000D03*
%TD*%
D13*
%TO.C,U15*%
X147770000Y-138150000D03*
X145230000Y-138150000D03*
X145230000Y-146850000D03*
X147770000Y-146850000D03*
%TD*%
%TO.C,U17*%
X167770000Y-138150000D03*
X165230000Y-138150000D03*
X165230000Y-146850000D03*
X167770000Y-146850000D03*
%TD*%
%TO.C,U11*%
X107770000Y-138150000D03*
X105230000Y-138150000D03*
X105230000Y-146850000D03*
X107770000Y-146850000D03*
%TD*%
D12*
%TO.C,U7*%
X101850000Y-101270000D03*
X101850000Y-98730000D03*
X93150000Y-98730000D03*
X93150000Y-101270000D03*
%TD*%
%TO.C,U8*%
X101850000Y-111270000D03*
X101850000Y-108730000D03*
X93150000Y-108730000D03*
X93150000Y-111270000D03*
%TD*%
D13*
%TO.C,U14*%
X137770000Y-138150000D03*
X135230000Y-138150000D03*
X135230000Y-146850000D03*
X137770000Y-146850000D03*
%TD*%
D12*
%TO.C,U9*%
X101850000Y-121270000D03*
X101850000Y-118730000D03*
X93150000Y-118730000D03*
X93150000Y-121270000D03*
%TD*%
D13*
%TO.C,U13*%
X127770000Y-138150000D03*
X125230000Y-138150000D03*
X125230000Y-146850000D03*
X127770000Y-146850000D03*
%TD*%
D12*
%TO.C,U4*%
X101850000Y-71270000D03*
X101850000Y-68730000D03*
X93150000Y-68730000D03*
X93150000Y-71270000D03*
%TD*%
%TO.C,U6*%
X101850000Y-91270000D03*
X101850000Y-88730000D03*
X93150000Y-88730000D03*
X93150000Y-91270000D03*
%TD*%
%TO.C,U39*%
X160350000Y-60770000D03*
X160350000Y-58230000D03*
X151650000Y-58230000D03*
X151650000Y-60770000D03*
%TD*%
D13*
%TO.C,U16*%
X157770000Y-138150000D03*
X155230000Y-138150000D03*
X155230000Y-146850000D03*
X157770000Y-146850000D03*
%TD*%
%TO.C,U12*%
X117770000Y-138150000D03*
X115230000Y-138150000D03*
X115230000Y-146850000D03*
X117770000Y-146850000D03*
%TD*%
D12*
%TO.C,U10*%
X101850000Y-131270000D03*
X101850000Y-128730000D03*
X93150000Y-128730000D03*
X93150000Y-131270000D03*
%TD*%
D13*
%TO.C,U18*%
X177770000Y-138150000D03*
X175230000Y-138150000D03*
X175230000Y-146850000D03*
X177770000Y-146850000D03*
%TD*%
D14*
%TO.C,R84*%
X172681500Y-111887000D03*
X171031500Y-111887000D03*
%TD*%
D15*
%TO.C,D14*%
X141500000Y-152500000D03*
X141500000Y-156500000D03*
%TD*%
D16*
%TO.C,R44*%
X187675000Y-133500000D03*
X189325000Y-133500000D03*
%TD*%
D17*
%TO.C,R76*%
X156972000Y-120332000D03*
X156972000Y-118682000D03*
%TD*%
D18*
%TO.C,C34*%
X186275000Y-76500000D03*
X184725000Y-76500000D03*
%TD*%
D17*
%TO.C,R37*%
X133223000Y-138493000D03*
X133223000Y-136843000D03*
%TD*%
%TO.C,R35*%
X113157000Y-138493000D03*
X113157000Y-136843000D03*
%TD*%
D19*
%TO.C,J7*%
X88500000Y-110000000D03*
D20*
X83500000Y-110000000D03*
%TD*%
D19*
%TO.C,J5*%
X88500000Y-90000000D03*
D20*
X83500000Y-90000000D03*
%TD*%
D16*
%TO.C,R93*%
X161175000Y-51500000D03*
X162825000Y-51500000D03*
%TD*%
%TO.C,R86*%
X147409500Y-64224500D03*
X149059500Y-64224500D03*
%TD*%
%TO.C,R97*%
X132525000Y-110800000D03*
X134175000Y-110800000D03*
%TD*%
D21*
%TO.C,C62*%
X165989000Y-115238000D03*
X165989000Y-118188000D03*
%TD*%
D22*
%TO.C,C42*%
X188000000Y-94275000D03*
X188000000Y-92725000D03*
%TD*%
D23*
%TO.C,TP19*%
X121000000Y-74500000D03*
%TD*%
D19*
%TO.C,J9*%
X88500000Y-130000000D03*
D20*
X83500000Y-130000000D03*
%TD*%
D24*
%TO.C,D22*%
X104013000Y-90830500D03*
X104013000Y-89255500D03*
%TD*%
D16*
%TO.C,R11*%
X101410000Y-73279000D03*
X103060000Y-73279000D03*
%TD*%
D25*
%TO.C,C37*%
X184725000Y-104500000D03*
X186275000Y-104500000D03*
%TD*%
D26*
%TO.C,C19*%
X171500000Y-147025000D03*
X171500000Y-149975000D03*
%TD*%
D27*
%TO.C,J26*%
X148950000Y-50362500D03*
X130050000Y-50362500D03*
D28*
X144950000Y-59762500D03*
D29*
X134050000Y-59762500D03*
%TD*%
D30*
%TO.C,D47*%
X195808500Y-52070000D03*
X197383500Y-52070000D03*
%TD*%
D14*
%TO.C,R90*%
X114825000Y-69000000D03*
X113175000Y-69000000D03*
%TD*%
D31*
%TO.C,D29*%
X127406500Y-136017000D03*
X125831500Y-136017000D03*
%TD*%
D18*
%TO.C,C57*%
X162319000Y-66548000D03*
X160769000Y-66548000D03*
%TD*%
D31*
%TO.C,D28*%
X117119500Y-136017000D03*
X115544500Y-136017000D03*
%TD*%
D14*
%TO.C,R74*%
X166325000Y-86100000D03*
X164675000Y-86100000D03*
%TD*%
D24*
%TO.C,D21*%
X104013000Y-80787500D03*
X104013000Y-79212500D03*
%TD*%
D17*
%TO.C,R24*%
X169799000Y-138493000D03*
X169799000Y-136843000D03*
%TD*%
D32*
%TO.C,J24*%
X195200000Y-148500000D03*
D33*
X188000000Y-148500000D03*
%TD*%
D15*
%TO.C,D15*%
X151500000Y-152500000D03*
X151500000Y-156500000D03*
%TD*%
D17*
%TO.C,R59*%
X189500000Y-94325000D03*
X189500000Y-92675000D03*
%TD*%
D16*
%TO.C,R45*%
X187675000Y-126500000D03*
X189325000Y-126500000D03*
%TD*%
D14*
%TO.C,R60*%
X155340000Y-94500000D03*
X153690000Y-94500000D03*
%TD*%
D31*
%TO.C,D34*%
X177190500Y-136017000D03*
X175615500Y-136017000D03*
%TD*%
D16*
%TO.C,R92*%
X195771000Y-53670000D03*
X197421000Y-53670000D03*
%TD*%
D17*
%TO.C,R77*%
X156972000Y-123380000D03*
X156972000Y-121730000D03*
%TD*%
D34*
%TO.C,REF\u002A\u002A*%
X200000000Y-40000000D03*
%TD*%
D30*
%TO.C,D44*%
X171043500Y-110363000D03*
X172618500Y-110363000D03*
%TD*%
D17*
%TO.C,R40*%
X163195000Y-138493000D03*
X163195000Y-136843000D03*
%TD*%
D35*
%TO.C,D46*%
X118000000Y-74500000D03*
X114000000Y-74500000D03*
%TD*%
D16*
%TO.C,R4*%
X179610000Y-50025000D03*
X181260000Y-50025000D03*
%TD*%
D23*
%TO.C,TP14*%
X150749000Y-76835000D03*
%TD*%
D36*
%TO.C,U40*%
X191647000Y-54925500D03*
X192297000Y-54925500D03*
X192947000Y-54925500D03*
X192947000Y-53150500D03*
X192297000Y-53150500D03*
X191647000Y-53150500D03*
D37*
X192297000Y-54038000D03*
%TD*%
D14*
%TO.C,R65*%
X155340000Y-87000000D03*
X153690000Y-87000000D03*
%TD*%
D30*
%TO.C,D48*%
X161212500Y-50000000D03*
X162787500Y-50000000D03*
%TD*%
D16*
%TO.C,R46*%
X187675000Y-119500000D03*
X189325000Y-119500000D03*
%TD*%
D30*
%TO.C,D41*%
X150727500Y-85500000D03*
X152302500Y-85500000D03*
%TD*%
D17*
%TO.C,R34*%
X103124000Y-138493000D03*
X103124000Y-136843000D03*
%TD*%
D30*
%TO.C,D36*%
X150727500Y-93000000D03*
X152302500Y-93000000D03*
%TD*%
D38*
%TO.C,D50*%
X135890000Y-109212500D03*
X135890000Y-110787500D03*
%TD*%
D35*
%TO.C,D52*%
X135800000Y-106500000D03*
X131800000Y-106500000D03*
%TD*%
D39*
%TO.C,U34*%
X162862500Y-93025000D03*
X162862500Y-92375000D03*
X162862500Y-91725000D03*
X162862500Y-91075000D03*
X162862500Y-90425000D03*
X162862500Y-89775000D03*
X162862500Y-89125000D03*
X162862500Y-88475000D03*
X162862500Y-87825000D03*
X162862500Y-87175000D03*
X157137500Y-87175000D03*
X157137500Y-87825000D03*
X157137500Y-88475000D03*
X157137500Y-89125000D03*
X157137500Y-89775000D03*
X157137500Y-90425000D03*
X157137500Y-91075000D03*
X157137500Y-91725000D03*
X157137500Y-92375000D03*
X157137500Y-93025000D03*
%TD*%
D18*
%TO.C,C35*%
X186275000Y-86000000D03*
X184725000Y-86000000D03*
%TD*%
D19*
%TO.C,J12*%
X126500000Y-151500000D03*
D40*
X126500000Y-156500000D03*
%TD*%
D41*
%TO.C,D1*%
X193500000Y-41450000D03*
X193500000Y-43550000D03*
%TD*%
D33*
%TO.C,J28*%
X90500000Y-52000000D03*
D42*
X90500000Y-44800000D03*
%TD*%
D14*
%TO.C,R64*%
X155340000Y-88500000D03*
X153690000Y-88500000D03*
%TD*%
D18*
%TO.C,C45*%
X166275000Y-83100000D03*
X164725000Y-83100000D03*
%TD*%
D25*
%TO.C,C48*%
X124725000Y-73500000D03*
X126275000Y-73500000D03*
%TD*%
D24*
%TO.C,D23*%
X104013000Y-100736500D03*
X104013000Y-99161500D03*
%TD*%
D22*
%TO.C,C31*%
X173500000Y-102275000D03*
X173500000Y-100725000D03*
%TD*%
D15*
%TO.C,D18*%
X181500000Y-152500000D03*
X181500000Y-156500000D03*
%TD*%
D17*
%TO.C,R87*%
X173863000Y-126301000D03*
X173863000Y-124651000D03*
%TD*%
D38*
%TO.C,D19*%
X104013000Y-59537500D03*
X104013000Y-61112500D03*
%TD*%
D23*
%TO.C,TP20*%
X110500000Y-74500000D03*
%TD*%
%TO.C,TP18*%
X144399000Y-99822000D03*
%TD*%
D26*
%TO.C,C17*%
X151500000Y-147025000D03*
X151500000Y-149975000D03*
%TD*%
D23*
%TO.C,TP10*%
X153289000Y-120777000D03*
%TD*%
D43*
%TO.C,J18*%
X194500000Y-131000000D03*
D23*
X194500000Y-126000000D03*
X194500000Y-121000000D03*
%TD*%
D16*
%TO.C,R26*%
X101410000Y-64897000D03*
X103060000Y-64897000D03*
%TD*%
D31*
%TO.C,D33*%
X167287500Y-136017000D03*
X165712500Y-136017000D03*
%TD*%
D16*
%TO.C,R15*%
X101410000Y-113284000D03*
X103060000Y-113284000D03*
%TD*%
D21*
%TO.C,C56*%
X162814000Y-125779000D03*
X162814000Y-128729000D03*
%TD*%
D44*
%TO.C,U31*%
X186137500Y-102950000D03*
X186137500Y-102000000D03*
X186137500Y-101050000D03*
X183862500Y-101050000D03*
X183862500Y-102950000D03*
%TD*%
D14*
%TO.C,R69*%
X166325000Y-93600000D03*
X164675000Y-93600000D03*
%TD*%
D19*
%TO.C,J6*%
X88500000Y-100000000D03*
D20*
X83500000Y-100000000D03*
%TD*%
D23*
%TO.C,TP15*%
X145415000Y-67437000D03*
%TD*%
D35*
%TO.C,D5*%
X87500000Y-85000000D03*
X83500000Y-85000000D03*
%TD*%
D44*
%TO.C,U37*%
X166364500Y-69784000D03*
X166364500Y-68834000D03*
X166364500Y-67884000D03*
X164089500Y-67884000D03*
X164089500Y-68834000D03*
X164089500Y-69784000D03*
%TD*%
D19*
%TO.C,J14*%
X146500000Y-151500000D03*
D40*
X146500000Y-156500000D03*
%TD*%
D45*
%TO.C,K1*%
X129550000Y-81400000D03*
D23*
X116750000Y-85200000D03*
X116750000Y-95400000D03*
D46*
X132050000Y-99200000D03*
X139650000Y-99200000D03*
%TD*%
D30*
%TO.C,D51*%
X195808500Y-57531000D03*
X197383500Y-57531000D03*
%TD*%
D14*
%TO.C,R73*%
X166325000Y-87600000D03*
X164675000Y-87600000D03*
%TD*%
D47*
%TO.C,Q1*%
X159410000Y-114961000D03*
X159410000Y-115621000D03*
X159410000Y-116281000D03*
X159410000Y-116941000D03*
D48*
X161402500Y-116558500D03*
D49*
X161402500Y-115343500D03*
%TD*%
D16*
%TO.C,R17*%
X101410000Y-133350000D03*
X103060000Y-133350000D03*
%TD*%
%TO.C,R42*%
X179675000Y-84500000D03*
X181325000Y-84500000D03*
%TD*%
%TO.C,R53*%
X187675000Y-76500000D03*
X189325000Y-76500000D03*
%TD*%
D50*
%TO.C,RV1*%
X186050000Y-81250000D03*
D51*
X188950000Y-82500000D03*
D50*
X186050000Y-83750000D03*
%TD*%
D22*
%TO.C,C41*%
X188000000Y-102775000D03*
X188000000Y-101225000D03*
%TD*%
D17*
%TO.C,R21*%
X139827000Y-138493000D03*
X139827000Y-136843000D03*
%TD*%
D14*
%TO.C,R89*%
X170258000Y-128778000D03*
X168608000Y-128778000D03*
%TD*%
D16*
%TO.C,R47*%
X187675000Y-112500000D03*
X189325000Y-112500000D03*
%TD*%
D14*
%TO.C,R72*%
X166325000Y-89100000D03*
X164675000Y-89100000D03*
%TD*%
%TO.C,R54*%
X182825000Y-104500000D03*
X181175000Y-104500000D03*
%TD*%
D23*
%TO.C,TP7*%
X177500000Y-75000000D03*
%TD*%
D35*
%TO.C,D10*%
X87500000Y-135000000D03*
X83500000Y-135000000D03*
%TD*%
D19*
%TO.C,J3*%
X88500000Y-70000000D03*
D20*
X83500000Y-70000000D03*
%TD*%
D52*
%TO.C,U35*%
X125500000Y-71470000D03*
D53*
X127000000Y-71800000D03*
X128000000Y-71800000D03*
X129000000Y-71800000D03*
X130000000Y-71800000D03*
D52*
X131500000Y-71470000D03*
D54*
X131465000Y-65250000D03*
D55*
X125535000Y-65250000D03*
%TD*%
D33*
%TO.C,J27*%
X155500000Y-52000000D03*
D42*
X155500000Y-44800000D03*
%TD*%
D23*
%TO.C,TP17*%
X117000000Y-69000000D03*
%TD*%
D56*
%TO.C,Q2*%
X162950000Y-53362500D03*
X161050000Y-53362500D03*
X162000000Y-55637500D03*
%TD*%
D25*
%TO.C,C65*%
X191503000Y-51943000D03*
X193053000Y-51943000D03*
%TD*%
%TO.C,C54*%
X160896000Y-73914000D03*
X162446000Y-73914000D03*
%TD*%
D22*
%TO.C,C26*%
X181000000Y-124275000D03*
X181000000Y-122725000D03*
%TD*%
D17*
%TO.C,R19*%
X119888000Y-138493000D03*
X119888000Y-136843000D03*
%TD*%
D16*
%TO.C,R10*%
X101410000Y-63373000D03*
X103060000Y-63373000D03*
%TD*%
D35*
%TO.C,D43*%
X167481000Y-111506000D03*
X163481000Y-111506000D03*
%TD*%
D25*
%TO.C,C44*%
X161000000Y-94500000D03*
X162550000Y-94500000D03*
%TD*%
D21*
%TO.C,C63*%
X168402000Y-115238000D03*
X168402000Y-118188000D03*
%TD*%
D31*
%TO.C,D27*%
X107340500Y-136017000D03*
X105765500Y-136017000D03*
%TD*%
D35*
%TO.C,D8*%
X87500000Y-115000000D03*
X83500000Y-115000000D03*
%TD*%
D14*
%TO.C,R61*%
X155340000Y-93000000D03*
X153690000Y-93000000D03*
%TD*%
D16*
%TO.C,R16*%
X101410000Y-123317000D03*
X103060000Y-123317000D03*
%TD*%
%TO.C,R12*%
X101410000Y-83312000D03*
X103060000Y-83312000D03*
%TD*%
D34*
%TO.C,REF\u002A\u002A*%
X200000000Y-160000000D03*
%TD*%
D14*
%TO.C,R75*%
X166325000Y-84600000D03*
X164675000Y-84600000D03*
%TD*%
D17*
%TO.C,R25*%
X179832000Y-138493000D03*
X179832000Y-136843000D03*
%TD*%
D35*
%TO.C,D4*%
X87500000Y-75000000D03*
X83500000Y-75000000D03*
%TD*%
D16*
%TO.C,R91*%
X132525000Y-109300000D03*
X134175000Y-109300000D03*
%TD*%
D57*
%TO.C,U1*%
X173744000Y-55999000D03*
X173744000Y-55499000D03*
D58*
X173744000Y-54999000D03*
D57*
X173744000Y-54499000D03*
X173744000Y-53999000D03*
X172974000Y-53999000D03*
X172974000Y-54499000D03*
D58*
X172974000Y-54999000D03*
D57*
X172974000Y-55499000D03*
X172974000Y-55999000D03*
%TD*%
D18*
%TO.C,C36*%
X186275000Y-75000000D03*
X184725000Y-75000000D03*
%TD*%
D24*
%TO.C,D26*%
X104013000Y-130708500D03*
X104013000Y-129133500D03*
%TD*%
D17*
%TO.C,R20*%
X129794000Y-138493000D03*
X129794000Y-136843000D03*
%TD*%
D16*
%TO.C,R48*%
X181675000Y-87500000D03*
X183325000Y-87500000D03*
%TD*%
D14*
%TO.C,R9*%
X184848000Y-54483000D03*
X183198000Y-54483000D03*
%TD*%
D26*
%TO.C,C13*%
X111500000Y-147025000D03*
X111500000Y-149975000D03*
%TD*%
D59*
%TO.C,U33*%
X167825000Y-92962500D03*
X168475000Y-92962500D03*
X169125000Y-92962500D03*
X169775000Y-92962500D03*
X170425000Y-92962500D03*
X171075000Y-92962500D03*
X171725000Y-92962500D03*
X172375000Y-92962500D03*
X172375000Y-87237500D03*
X171725000Y-87237500D03*
X171075000Y-87237500D03*
X170425000Y-87237500D03*
X169775000Y-87237500D03*
X169125000Y-87237500D03*
X168475000Y-87237500D03*
X167825000Y-87237500D03*
%TD*%
D16*
%TO.C,R49*%
X181675000Y-86000000D03*
X183325000Y-86000000D03*
%TD*%
D60*
%TO.C,C12*%
X92975000Y-135000000D03*
X90025000Y-135000000D03*
%TD*%
D23*
%TO.C,TP8*%
X170434000Y-84582000D03*
%TD*%
D14*
%TO.C,R55*%
X182825000Y-96000000D03*
X181175000Y-96000000D03*
%TD*%
D23*
%TO.C,TP6*%
X174500000Y-75000000D03*
%TD*%
D19*
%TO.C,J13*%
X136500000Y-151500000D03*
D40*
X136500000Y-156500000D03*
%TD*%
D25*
%TO.C,C40*%
X182740000Y-70104000D03*
X184290000Y-70104000D03*
%TD*%
D30*
%TO.C,D42*%
X150727500Y-84000000D03*
X152302500Y-84000000D03*
%TD*%
D61*
%TO.C,U27*%
X182850000Y-84450000D03*
X183500000Y-84450000D03*
X184150000Y-84450000D03*
X184150000Y-82550000D03*
X182850000Y-82550000D03*
%TD*%
D60*
%TO.C,C5*%
X92975000Y-65000000D03*
X90025000Y-65000000D03*
%TD*%
D22*
%TO.C,C61*%
X172339000Y-126251000D03*
X172339000Y-124701000D03*
%TD*%
D17*
%TO.C,R18*%
X109855000Y-138493000D03*
X109855000Y-136843000D03*
%TD*%
D62*
%TO.C,U38*%
X165353000Y-123317000D03*
X165353000Y-124587000D03*
X165353000Y-125857000D03*
X165353000Y-127127000D03*
X170313000Y-127127000D03*
X170313000Y-125857000D03*
X170313000Y-124587000D03*
X170313000Y-123317000D03*
D63*
X167833000Y-125222000D03*
%TD*%
D25*
%TO.C,C39*%
X182740000Y-81153000D03*
X184290000Y-81153000D03*
%TD*%
D14*
%TO.C,R70*%
X166325000Y-92100000D03*
X164675000Y-92100000D03*
%TD*%
D22*
%TO.C,C27*%
X181000000Y-117275000D03*
X181000000Y-115725000D03*
%TD*%
D60*
%TO.C,C7*%
X92975000Y-85000000D03*
X90025000Y-85000000D03*
%TD*%
D16*
%TO.C,R2*%
X173610000Y-50025000D03*
X175260000Y-50025000D03*
%TD*%
D64*
%TO.C,C4*%
X182372000Y-57772000D03*
X182372000Y-59322000D03*
%TD*%
D18*
%TO.C,C58*%
X162319000Y-68072000D03*
X160769000Y-68072000D03*
%TD*%
D16*
%TO.C,R13*%
X101410000Y-93345000D03*
X103060000Y-93345000D03*
%TD*%
D60*
%TO.C,C8*%
X92950000Y-95000000D03*
X90000000Y-95000000D03*
%TD*%
D23*
%TO.C,TP11*%
X150749000Y-72771000D03*
%TD*%
D22*
%TO.C,C28*%
X181000000Y-110275000D03*
X181000000Y-108725000D03*
%TD*%
D31*
%TO.C,D30*%
X137312500Y-136017000D03*
X135737500Y-136017000D03*
%TD*%
D14*
%TO.C,R71*%
X166325000Y-90600000D03*
X164675000Y-90600000D03*
%TD*%
D35*
%TO.C,D9*%
X87500000Y-125000000D03*
X83500000Y-125000000D03*
%TD*%
D23*
%TO.C,TP22*%
X169037000Y-53975000D03*
%TD*%
D60*
%TO.C,C11*%
X92975000Y-125000000D03*
X90025000Y-125000000D03*
%TD*%
D14*
%TO.C,R68*%
X166325000Y-95100000D03*
X164675000Y-95100000D03*
%TD*%
D21*
%TO.C,C52*%
X157988000Y-125779000D03*
X157988000Y-128729000D03*
%TD*%
D25*
%TO.C,C66*%
X191503000Y-56134000D03*
X193053000Y-56134000D03*
%TD*%
D18*
%TO.C,C33*%
X186275000Y-87500000D03*
X184725000Y-87500000D03*
%TD*%
D16*
%TO.C,R82*%
X156782000Y-73787000D03*
X158432000Y-73787000D03*
%TD*%
D30*
%TO.C,D45*%
X147447000Y-65748500D03*
X149022000Y-65748500D03*
%TD*%
D25*
%TO.C,C59*%
X167246000Y-121666000D03*
X168796000Y-121666000D03*
%TD*%
D65*
%TO.C,R96*%
X164500000Y-53675000D03*
X164500000Y-55325000D03*
%TD*%
D14*
%TO.C,R62*%
X155340000Y-91500000D03*
X153690000Y-91500000D03*
%TD*%
D60*
%TO.C,C6*%
X92950000Y-75000000D03*
X90000000Y-75000000D03*
%TD*%
D27*
%TO.C,J23*%
X126950000Y-50362500D03*
X108050000Y-50362500D03*
D28*
X122950000Y-59762500D03*
D29*
X112050000Y-59762500D03*
%TD*%
D61*
%TO.C,U28*%
X182850000Y-73450000D03*
X183500000Y-73450000D03*
X184150000Y-73450000D03*
X184150000Y-71550000D03*
X182850000Y-71550000D03*
%TD*%
D43*
%TO.C,J21*%
X194500000Y-81500000D03*
D23*
X194500000Y-76500000D03*
%TD*%
D15*
%TO.C,D11*%
X111500000Y-152500000D03*
X111500000Y-156500000D03*
%TD*%
D19*
%TO.C,J11*%
X116500000Y-151500000D03*
D40*
X116500000Y-156500000D03*
%TD*%
D26*
%TO.C,C20*%
X181500000Y-147025000D03*
X181500000Y-149975000D03*
%TD*%
D14*
%TO.C,R8*%
X184848000Y-56007000D03*
X183198000Y-56007000D03*
%TD*%
%TO.C,R80*%
X157860000Y-116713000D03*
X156210000Y-116713000D03*
%TD*%
D16*
%TO.C,R5*%
X175010000Y-51625000D03*
X176660000Y-51625000D03*
%TD*%
D23*
%TO.C,TP12*%
X135382000Y-72771000D03*
%TD*%
D66*
%TO.C,C64*%
X191328000Y-50165000D03*
X193228000Y-50165000D03*
%TD*%
D25*
%TO.C,C46*%
X157862500Y-94500000D03*
X159412500Y-94500000D03*
%TD*%
D15*
%TO.C,D12*%
X121500000Y-152500000D03*
X121500000Y-156500000D03*
%TD*%
D23*
%TO.C,TP4*%
X174500000Y-86000000D03*
%TD*%
D25*
%TO.C,C47*%
X124725000Y-75000000D03*
X126275000Y-75000000D03*
%TD*%
D22*
%TO.C,C29*%
X173000000Y-82275000D03*
X173000000Y-80725000D03*
%TD*%
D33*
%TO.C,J25*%
X188000000Y-139000000D03*
D32*
X195200000Y-139000000D03*
%TD*%
D16*
%TO.C,R83*%
X156782000Y-75692000D03*
X158432000Y-75692000D03*
%TD*%
D41*
%TO.C,D2*%
X193500000Y-44950000D03*
X193500000Y-47050000D03*
%TD*%
D23*
%TO.C,TP2*%
X170434000Y-103378000D03*
%TD*%
%TO.C,TP1*%
X178943000Y-61468000D03*
%TD*%
D14*
%TO.C,R79*%
X157860000Y-115189000D03*
X156210000Y-115189000D03*
%TD*%
D64*
%TO.C,C2*%
X175260000Y-57759000D03*
X175260000Y-59309000D03*
%TD*%
D18*
%TO.C,C21*%
X164224000Y-101346000D03*
X162674000Y-101346000D03*
%TD*%
D15*
%TO.C,D16*%
X161500000Y-152500000D03*
X161500000Y-156500000D03*
%TD*%
D19*
%TO.C,J16*%
X166500000Y-151500000D03*
D40*
X166500000Y-156500000D03*
%TD*%
D67*
%TO.C,C68*%
X193832000Y-60071000D03*
X190882000Y-60071000D03*
%TD*%
D19*
%TO.C,J15*%
X156500000Y-151500000D03*
D40*
X156500000Y-156500000D03*
%TD*%
D16*
%TO.C,R3*%
X176610000Y-50025000D03*
X178260000Y-50025000D03*
%TD*%
D31*
%TO.C,D31*%
X147345500Y-136017000D03*
X145770500Y-136017000D03*
%TD*%
D68*
%TO.C,U2*%
X180966000Y-56118000D03*
X180966000Y-55618000D03*
X180966000Y-55118000D03*
X180966000Y-54618000D03*
X180966000Y-54118000D03*
X176666000Y-54118000D03*
X176666000Y-54618000D03*
X176666000Y-55118000D03*
X176666000Y-55618000D03*
X176666000Y-56118000D03*
%TD*%
D16*
%TO.C,R85*%
X165545000Y-128778000D03*
X167195000Y-128778000D03*
%TD*%
D69*
%TO.C,L1*%
X172466000Y-119774500D03*
X172466000Y-114921500D03*
%TD*%
D15*
%TO.C,D17*%
X171500000Y-152500000D03*
X171500000Y-156500000D03*
%TD*%
D16*
%TO.C,R28*%
X101410000Y-76708000D03*
X103060000Y-76708000D03*
%TD*%
D43*
%TO.C,J22*%
X194500000Y-70000000D03*
D23*
X194500000Y-65000000D03*
%TD*%
%TO.C,TP5*%
X177500000Y-86000000D03*
%TD*%
D14*
%TO.C,R94*%
X160825000Y-63000000D03*
X159175000Y-63000000D03*
%TD*%
D30*
%TO.C,D38*%
X150727500Y-90000000D03*
X152302500Y-90000000D03*
%TD*%
%TO.C,D37*%
X150727500Y-91500000D03*
X152302500Y-91500000D03*
%TD*%
D22*
%TO.C,C30*%
X173000000Y-71275000D03*
X173000000Y-69725000D03*
%TD*%
D70*
%TO.C,U20*%
X162086500Y-102571000D03*
X162086500Y-103221000D03*
X162086500Y-103871000D03*
X162086500Y-104521000D03*
X162086500Y-105171000D03*
X162086500Y-105821000D03*
X162086500Y-106471000D03*
X162086500Y-107121000D03*
X167811500Y-107121000D03*
X167811500Y-106471000D03*
X167811500Y-105821000D03*
X167811500Y-105171000D03*
X167811500Y-104521000D03*
X167811500Y-103871000D03*
X167811500Y-103221000D03*
X167811500Y-102571000D03*
%TD*%
D16*
%TO.C,R30*%
X101410000Y-96647000D03*
X103060000Y-96647000D03*
%TD*%
D31*
%TO.C,D32*%
X157378500Y-136017000D03*
X155803500Y-136017000D03*
%TD*%
D24*
%TO.C,D24*%
X104013000Y-110787500D03*
X104013000Y-109212500D03*
%TD*%
D17*
%TO.C,R22*%
X149860000Y-138493000D03*
X149860000Y-136843000D03*
%TD*%
D22*
%TO.C,C25*%
X181000000Y-131275000D03*
X181000000Y-129725000D03*
%TD*%
D19*
%TO.C,J2*%
X88500000Y-60000000D03*
D20*
X83500000Y-60000000D03*
%TD*%
D64*
%TO.C,C3*%
X180848000Y-57772000D03*
X180848000Y-59322000D03*
%TD*%
%TO.C,C23*%
X156464000Y-105730000D03*
X156464000Y-107280000D03*
%TD*%
D35*
%TO.C,D6*%
X87500000Y-95000000D03*
X83500000Y-95000000D03*
%TD*%
D43*
%TO.C,J19*%
X194500000Y-114500000D03*
D23*
X194500000Y-109500000D03*
X194500000Y-104500000D03*
%TD*%
D24*
%TO.C,D20*%
X104013000Y-70637500D03*
X104013000Y-69062500D03*
%TD*%
D25*
%TO.C,C24*%
X165674000Y-101346000D03*
X167224000Y-101346000D03*
%TD*%
D17*
%TO.C,R36*%
X123190000Y-138493000D03*
X123190000Y-136843000D03*
%TD*%
D16*
%TO.C,R98*%
X195771000Y-56007000D03*
X197421000Y-56007000D03*
%TD*%
D64*
%TO.C,C1*%
X176860000Y-57759000D03*
X176860000Y-59309000D03*
%TD*%
D60*
%TO.C,C10*%
X92975000Y-115000000D03*
X90025000Y-115000000D03*
%TD*%
D14*
%TO.C,R67*%
X155340000Y-84000000D03*
X153690000Y-84000000D03*
%TD*%
D16*
%TO.C,R14*%
X101537000Y-103378000D03*
X103187000Y-103378000D03*
%TD*%
D19*
%TO.C,J10*%
X106500000Y-151500000D03*
D40*
X106500000Y-156500000D03*
%TD*%
D14*
%TO.C,R56*%
X189325000Y-104500000D03*
X187675000Y-104500000D03*
%TD*%
D24*
%TO.C,D25*%
X104013000Y-120675500D03*
X104013000Y-119100500D03*
%TD*%
D16*
%TO.C,R27*%
X101410000Y-66675000D03*
X103060000Y-66675000D03*
%TD*%
D22*
%TO.C,C22*%
X156464000Y-104280000D03*
X156464000Y-102730000D03*
%TD*%
D21*
%TO.C,C53*%
X160401000Y-125779000D03*
X160401000Y-128729000D03*
%TD*%
D30*
%TO.C,D39*%
X150727500Y-88500000D03*
X152302500Y-88500000D03*
%TD*%
D26*
%TO.C,C16*%
X141500000Y-147025000D03*
X141500000Y-149975000D03*
%TD*%
D44*
%TO.C,U32*%
X186137500Y-94450000D03*
X186137500Y-93500000D03*
X186137500Y-92550000D03*
X183862500Y-92550000D03*
X183862500Y-94450000D03*
%TD*%
D16*
%TO.C,R7*%
X181010000Y-51625000D03*
X182660000Y-51625000D03*
%TD*%
%TO.C,R52*%
X187675000Y-87500000D03*
X189325000Y-87500000D03*
%TD*%
D17*
%TO.C,R23*%
X159893000Y-138493000D03*
X159893000Y-136843000D03*
%TD*%
%TO.C,R95*%
X162500000Y-62825000D03*
X162500000Y-61175000D03*
%TD*%
D23*
%TO.C,TP3*%
X148464000Y-104780000D03*
%TD*%
D38*
%TO.C,D49*%
X162500000Y-58212500D03*
X162500000Y-59787500D03*
%TD*%
D16*
%TO.C,R58*%
X187675000Y-96000000D03*
X189325000Y-96000000D03*
%TD*%
D14*
%TO.C,R63*%
X155340000Y-90000000D03*
X153690000Y-90000000D03*
%TD*%
D16*
%TO.C,R51*%
X181675000Y-75000000D03*
X183325000Y-75000000D03*
%TD*%
D25*
%TO.C,C49*%
X161036000Y-118745000D03*
X162586000Y-118745000D03*
%TD*%
D50*
%TO.C,RV2*%
X186050000Y-70250000D03*
D51*
X188950000Y-71500000D03*
D50*
X186050000Y-72750000D03*
%TD*%
D25*
%TO.C,C55*%
X160896000Y-75692000D03*
X162446000Y-75692000D03*
%TD*%
D16*
%TO.C,R32*%
X101410000Y-116713000D03*
X103060000Y-116713000D03*
%TD*%
%TO.C,R43*%
X179675000Y-73500000D03*
X181325000Y-73500000D03*
%TD*%
D22*
%TO.C,C32*%
X173700000Y-93775000D03*
X173700000Y-92225000D03*
%TD*%
D23*
%TO.C,TP21*%
X196596000Y-49657000D03*
%TD*%
D14*
%TO.C,R66*%
X155340000Y-85500000D03*
X153690000Y-85500000D03*
%TD*%
D71*
%TO.C,U36*%
X159205000Y-122059000D03*
X159205000Y-122559000D03*
X159205000Y-123059000D03*
X159205000Y-123559000D03*
X162105000Y-123559000D03*
X162105000Y-123059000D03*
X162105000Y-122559000D03*
X162105000Y-122059000D03*
D72*
X160655000Y-122809000D03*
%TD*%
D22*
%TO.C,C50*%
X153924000Y-74054000D03*
X153924000Y-72504000D03*
%TD*%
D16*
%TO.C,R33*%
X101474000Y-126619000D03*
X103124000Y-126619000D03*
%TD*%
D30*
%TO.C,D40*%
X150727500Y-87000000D03*
X152302500Y-87000000D03*
%TD*%
D19*
%TO.C,J4*%
X88500000Y-80000000D03*
D20*
X83500000Y-80000000D03*
%TD*%
D17*
%TO.C,R39*%
X153162000Y-138493000D03*
X153162000Y-136843000D03*
%TD*%
D73*
%TO.C,J1*%
X170960000Y-46345500D03*
X173730000Y-46345500D03*
X176500000Y-46345500D03*
X179270000Y-46345500D03*
X182040000Y-46345500D03*
X172345000Y-43505500D03*
X175115000Y-43505500D03*
X177885000Y-43505500D03*
X180655000Y-43505500D03*
D74*
X164005000Y-44925500D03*
X188995000Y-44925500D03*
%TD*%
D26*
%TO.C,C15*%
X131500000Y-147025000D03*
X131500000Y-149975000D03*
%TD*%
D16*
%TO.C,R31*%
X101410000Y-106680000D03*
X103060000Y-106680000D03*
%TD*%
D19*
%TO.C,J17*%
X176500000Y-151500000D03*
D40*
X176500000Y-156500000D03*
%TD*%
D66*
%TO.C,C67*%
X191328000Y-57912000D03*
X193228000Y-57912000D03*
%TD*%
D60*
%TO.C,C9*%
X92975000Y-105000000D03*
X90025000Y-105000000D03*
%TD*%
D14*
%TO.C,R88*%
X173291000Y-128778000D03*
X171641000Y-128778000D03*
%TD*%
D15*
%TO.C,D13*%
X131500000Y-152500000D03*
X131500000Y-156500000D03*
%TD*%
D16*
%TO.C,R81*%
X160986000Y-120269000D03*
X162636000Y-120269000D03*
%TD*%
D34*
%TO.C,REF\u002A\u002A*%
X80000000Y-160000000D03*
%TD*%
D26*
%TO.C,C18*%
X161500000Y-147025000D03*
X161500000Y-149975000D03*
%TD*%
D35*
%TO.C,D7*%
X87500000Y-105000000D03*
X83500000Y-105000000D03*
%TD*%
D17*
%TO.C,R38*%
X143129000Y-138493000D03*
X143129000Y-136843000D03*
%TD*%
D33*
%TO.C,J29*%
X100000000Y-52000000D03*
D42*
X100000000Y-44800000D03*
%TD*%
D23*
%TO.C,TP13*%
X138811000Y-72771000D03*
%TD*%
D16*
%TO.C,R50*%
X181675000Y-76500000D03*
X183325000Y-76500000D03*
%TD*%
D17*
%TO.C,R57*%
X189500000Y-102825000D03*
X189500000Y-101175000D03*
%TD*%
D22*
%TO.C,C43*%
X168000000Y-85375000D03*
X168000000Y-83825000D03*
%TD*%
D65*
%TO.C,R1*%
X195500000Y-44175000D03*
X195500000Y-45825000D03*
%TD*%
D34*
%TO.C,REF\u002A\u002A*%
X80000000Y-40000000D03*
%TD*%
D75*
%TO.C,U19*%
X155239000Y-101917500D03*
X154589000Y-101917500D03*
X153939000Y-101917500D03*
X153289000Y-101917500D03*
X152639000Y-101917500D03*
X151989000Y-101917500D03*
X151339000Y-101917500D03*
X150689000Y-101917500D03*
X150689000Y-107642500D03*
X151339000Y-107642500D03*
X151989000Y-107642500D03*
X152639000Y-107642500D03*
X153289000Y-107642500D03*
X153939000Y-107642500D03*
X154589000Y-107642500D03*
X155239000Y-107642500D03*
%TD*%
D18*
%TO.C,C60*%
X173876000Y-123190000D03*
X172326000Y-123190000D03*
%TD*%
D16*
%TO.C,R6*%
X178010000Y-51625000D03*
X179660000Y-51625000D03*
%TD*%
%TO.C,R29*%
X101410000Y-86614000D03*
X103060000Y-86614000D03*
%TD*%
D64*
%TO.C,C51*%
X153924000Y-75552000D03*
X153924000Y-77102000D03*
%TD*%
D43*
%TO.C,J20*%
X194500000Y-98000000D03*
D23*
X194500000Y-93000000D03*
X194500000Y-88000000D03*
%TD*%
%TO.C,TP23*%
X196469000Y-60071000D03*
%TD*%
%TO.C,TP9*%
X120000000Y-69000000D03*
%TD*%
D17*
%TO.C,R41*%
X173228000Y-138493000D03*
X173228000Y-136843000D03*
%TD*%
D19*
%TO.C,J8*%
X88500000Y-120000000D03*
D20*
X83500000Y-120000000D03*
%TD*%
D23*
%TO.C,TP16*%
X123000000Y-106500000D03*
%TD*%
D30*
%TO.C,D35*%
X150727500Y-94500000D03*
X152302500Y-94500000D03*
%TD*%
D35*
%TO.C,D3*%
X87500000Y-65000000D03*
X83500000Y-65000000D03*
%TD*%
D26*
%TO.C,C14*%
X121500000Y-147025000D03*
X121500000Y-149975000D03*
%TD*%
D25*
%TO.C,C38*%
X184725000Y-96000000D03*
X186275000Y-96000000D03*
%TD*%
D17*
%TO.C,R78*%
X158496000Y-120332000D03*
X158496000Y-118682000D03*
%TD*%
M02*
